<svg width="82" height="82" viewBox="0 0 82 82" fill="none" xmlns="http://www.w3.org/2000/svg">
<g clip-path="url(#clip0_41702_4451)">
<path d="M40.8644 14.8614C41.5278 15.5248 41.5278 20.5669 40.8644 21.2303L32.5052 25.6089C31.5764 26.007 30.913 26.2724 30.2495 25.6089C29.5861 24.9455 29.5861 24.0167 30.2495 23.3533L38.6087 14.9941C39.2722 14.3306 40.201 14.3306 40.8644 14.8614Z" fill="#668B96"/>
<path d="M40.8664 14.8565C41.5298 15.5199 41.5298 20.562 40.8664 21.2254L32.5071 25.604C31.5783 26.0021 30.9149 26.2675 30.2515 25.604C29.588 24.9406 29.588 24.0118 30.2515 23.3484L40.0702 16.5814C40.601 15.918 40.2029 14.3257 40.8664 14.8565Z" fill="#54737F"/>
<path d="M26.4031 9.02229C26.4031 10.4818 25.209 11.676 23.7494 11.676C22.2899 11.676 21.0957 10.4818 21.0957 9.02229V6.36857C21.0957 4.90902 22.2899 3.71484 23.7494 3.71484C25.209 3.71484 26.4031 4.90902 26.4031 6.36857V9.02229Z" fill="#62D122"/>
<path d="M26.4031 6.375V9.16141C26.4031 10.7536 25.3417 12.0805 23.7494 12.0805C22.1572 12.0805 21.0957 10.7536 21.0957 9.16141V6.375" fill="#4DB20D"/>
<path d="M58.5117 9.81877C58.5117 11.5437 58.777 18.3107 50.4178 19.3722L26.9324 14.5955C25.2075 14.5955 23.6152 13.1359 23.6152 11.411V4.7767C23.6152 3.05178 25.2075 1.59223 26.9324 1.59223L51.612 0C53.3369 0 54.7965 1.45955 54.7965 3.18447L58.5117 9.81877Z" fill="#AFCCD8"/>
<path d="M51.7454 11.6758C53.4703 11.6758 54.9299 12.4719 54.9299 13.4007L53.3377 26.1386C53.3377 27.0674 51.8781 27.7308 50.1532 27.7308H43.5189C41.794 27.7308 40.3344 27.0674 40.3344 26.1386L38.7422 13.4007C38.7422 12.4719 40.2017 11.8085 41.9267 11.8085H51.7454V11.6758Z" fill="#7FA6B5"/>
<path d="M51.7448 0C53.4697 0 54.9293 1.45955 54.9293 3.18447L58.5118 9.68608C58.5118 11.411 58.7772 18.3107 50.5506 19.2395L27.0652 14.5955C25.3403 14.5955 23.748 13.1359 23.748 11.411V6.36893" fill="#99B9C9"/>
<path d="M54.2654 29.7146C54.2654 30.2453 54 30.2453 53.602 30.2453H40.2007C39.6699 30.2453 39.6699 30.2453 39.6699 29.7146V26.6628C39.6699 26.1321 39.6699 26.2647 40.2007 26.2647H53.602C54.1327 26.2647 54.2654 26.1321 54.2654 26.6628V29.7146Z" fill="#62D122"/>
<path d="M54.2654 26.2656V29.7155C54.2654 30.2462 54 30.2462 53.602 30.2462H40.2007C39.6699 30.2462 39.6699 30.2462 39.6699 29.7155V26.2656" fill="#4DB20D"/>
<path d="M55.3258 30.2539H38.342C34.6268 30.2539 31.7077 32.7749 31.7077 36.6228V42.5937L19.8986 69.3963C19.8986 76.296 19.7659 82.0015 26.6656 82.0015H55.1931C62.0928 82.0015 62.0928 76.0306 62.0928 69.1309V44.1859V39.8073V36.6228C62.2255 32.7749 59.1737 30.2539 55.3258 30.2539Z" fill="#88E2E2"/>
<path d="M55.3258 30.2539H40.5976C36.8824 30.2539 34.3614 32.7749 34.3614 36.6228V42.5937L19.8986 69.3963C19.8986 76.296 19.7659 82.0015 26.6656 82.0015H55.1931C62.0928 82.0015 62.0928 76.0306 62.0928 69.1309V44.1859V39.8073V36.6228C62.2255 32.7749 59.1737 30.2539 55.3258 30.2539Z" fill="#4FC7D3"/>
<path d="M19.8986 69.3965C19.8986 76.2962 19.7659 82.0017 26.6656 82.0017H55.1931C62.0928 82.0017 62.0928 76.2962 62.0928 69.3965" fill="#41B9BF"/>
<path d="M46.3047 30.2539V40.0727C46.3047 40.6034 47.1008 41.0015 47.6315 41.0015C48.1623 41.0015 48.9584 40.6034 48.9584 40.0727V30.2539H46.3047Z" fill="#41B9BF"/>
<path d="M55.5949 72.9722C55.5949 74.6971 54.5334 76.6874 52.8085 76.6874H41.2648C39.5399 76.6874 38.3457 74.6971 38.3457 72.9722V38.7392C38.3457 37.0142 39.5399 35.5547 41.2648 35.5547H52.8085C54.5334 35.5547 55.5949 36.8816 55.5949 38.7392V72.9722Z" fill="#62D122"/>
<path d="M55.5949 38.2129V72.9766C55.5949 74.7016 54.5334 76.6919 52.8085 76.6919H41.2648C39.5399 76.6919 38.3457 74.7016 38.3457 72.9766V38.2129" fill="#4DB20D"/>
</g>
<defs>
<clipPath id="clip0_41702_4451">
<rect width="82" height="82" fill="white"/>
</clipPath>
</defs>
</svg>
