<svg width="184" height="186" viewBox="0 0 184 186" fill="none" xmlns="http://www.w3.org/2000/svg">
<path d="M111.68 21.6379C139.953 30.7926 160.466 63.5139 160.57 94.8445C160.698 133.867 129.18 165.591 90.1665 165.722C52.4505 165.847 21.5318 136.383 19.4091 99.1726C19.3358 100.571 19.3078 101.985 19.3158 103.402C19.4611 148.766 56.3598 185.413 101.716 185.263C147.076 185.113 183.721 148.219 183.573 102.858C183.432 61.0605 152.093 26.6592 111.68 21.6379Z" fill="#EF2E32"/>
<path d="M49.3473 152.906C34.5327 142.49 23.8967 126.524 20.4727 108.017L20.474 108.018C23.8993 126.516 34.5286 142.474 49.3326 152.893C49.338 152.897 49.3433 152.902 49.3473 152.906Z" fill="#799B96"/>
<path d="M101.441 185.264C57.7385 185.26 21.9478 151.098 19.4531 107.95L19.7558 107.76L20.4731 108.017C23.8971 126.524 34.5332 142.49 49.3478 152.906C62.4198 164.818 79.7905 172.073 98.8571 172.073C98.9451 172.073 99.0345 172.073 99.1225 172.073C139.765 171.94 172.598 138.885 172.461 98.2423C172.356 65.957 151.456 35.1103 122.494 24.5437C122.649 24.3197 122.776 24.0797 122.874 23.8304C157.738 33.225 183.445 65.009 183.573 102.857C183.573 102.945 183.573 103.033 183.573 103.122C183.578 148.362 146.986 185.112 101.716 185.262C101.622 185.262 101.536 185.264 101.441 185.264Z" fill="#B22123"/>
<path d="M41.7347 115.63L17.768 89.57L0 120.195L19.756 107.759L41.7347 115.63Z" fill="#EF2E32"/>
<path d="M91.3249 39.4165L91.3022 31.7739C90.9395 31.7686 90.5862 31.7605 90.2235 31.7605C89.8689 31.7605 89.5102 31.7739 89.1582 31.7792L89.1849 39.4219L91.3249 39.4165Z" fill="#EF2E32"/>
<path d="M89.543 147.501L89.567 154.982C89.919 154.987 90.275 154.987 90.6323 154.985C90.9936 154.982 91.3483 154.982 91.7096 154.973L91.6843 147.493L89.543 147.501Z" fill="#EF2E32"/>
<path d="M144.477 94.3555L152.035 94.3288C152.039 93.9461 152.047 93.5581 152.047 93.1701C152.047 92.8421 152.035 92.5141 152.035 92.1888L144.467 92.2062L144.477 94.3555Z" fill="#EF2E32"/>
<path d="M36.3956 92.5677L28.8276 92.593C28.8223 92.921 28.8223 93.2504 28.8223 93.5784C28.8223 93.9664 28.833 94.3544 28.8436 94.7344L36.4063 94.7077L36.3956 92.5677Z" fill="#EF2E32"/>
<path d="M118.537 139.628L122.56 145.961C123.169 145.585 123.77 145.202 124.37 144.802L120.338 138.476L118.537 139.628Z" fill="#EF2E32"/>
<path d="M62.3325 47.2841L58.2285 40.8415C57.6191 41.2108 57.0204 41.5962 56.4258 41.9948L60.5258 48.4375L62.3325 47.2841Z" fill="#EF2E32"/>
<path d="M44.5033 64.9744L37.9539 61.0864C37.5713 61.701 37.2139 62.3077 36.8633 62.933L43.4153 66.8184L44.5033 64.9744Z" fill="#EF2E32"/>
<path d="M136.365 121.948L142.836 125.781C143.211 125.177 143.584 124.571 143.935 123.948L137.456 120.101L136.365 121.948Z" fill="#EF2E32"/>
<path d="M119.418 47.8418L123.381 41.3098C122.782 40.9298 122.173 40.5551 121.555 40.1978L117.582 46.7244L119.418 47.8418Z" fill="#EF2E32"/>
<path d="M61.4507 139.082L57.5547 145.492C58.164 145.872 58.7733 146.24 59.3827 146.602L63.284 140.198L61.4507 139.082Z" fill="#EF2E32"/>
<path d="M137.229 66.4102L143.74 62.4648C143.383 61.8488 143.005 61.2395 142.628 60.6315L136.117 64.5729L137.229 66.4102Z" fill="#EF2E32"/>
<path d="M43.6407 120.517L37.1953 124.413C37.5566 125.027 37.9313 125.637 38.3153 126.246L44.75 122.35L43.6407 120.517Z" fill="#EF2E32"/>
<path d="M53.2656 108.939C53.295 103.218 54.6296 99.2594 62.5163 93.5621C66.9243 90.3848 68.2203 88.7994 68.211 86.1954C68.203 83.0781 66.2923 82.1554 63.9203 82.1634C61.1749 82.1714 59.415 83.5288 59.427 87.6661L53.6136 87.6848C53.5923 81.0328 57.3003 77.0221 63.6243 77.0021C69.8563 76.9808 74.0963 79.8954 74.1176 85.9888C74.1336 90.6874 71.8163 93.3901 65.2283 98.1088C62.863 99.8381 61.1016 102.075 60.9683 103.658L74.2696 103.614L74.2869 108.869L53.2656 108.939Z" fill="#231F20"/>
<path d="M86.7257 86.5055L80.4377 97.4094L86.7617 97.3881L86.7257 86.5055ZM86.6604 108.828L86.6391 102.085L74.6404 102.125L74.623 96.8695L85.8164 77.9508L92.6057 77.9295L92.6697 97.3668L96.1577 97.3575L96.1737 102.055L92.6857 102.065L92.7071 108.809L86.6604 108.828Z" fill="#231F20"/>
<path d="M96.1504 108.797L104.886 77.8875L109.956 77.8716L101.128 108.781L96.1504 108.797Z" fill="#231F20"/>
<path d="M114.478 108.738C115.147 99.8529 118.743 90.6809 125.23 83.1703L110.161 83.2196L110.145 77.873L131.77 77.7996L131.785 82.4516C124.881 90.1463 121.146 99.4623 120.71 108.717L114.478 108.738Z" fill="#231F20"/>
<path d="M6.21383 64.2327C6.21383 64.2327 2.82847 78.4354 16.3231 89.4434L31.4152 79.8727L33.7605 78.394L48.8551 68.8234C44.6618 51.93 30.3805 48.9247 30.3805 48.9247C30.3805 48.9247 12.3752 46.5367 49.0031 25.99L41.2631 13.782C41.2631 13.782 10.1285 32.8567 6.21383 64.2327Z" fill="#D82930"/>
<path d="M8.34705 79.482C4.99239 72.414 5.87105 66.0594 6.14705 64.5647C6.14572 64.566 6.14572 64.5674 6.14572 64.5687C5.86838 66.0754 4.99772 72.4234 8.34705 79.482ZM6.14705 64.5647C6.16305 64.454 6.18572 64.3434 6.21372 64.2327C6.21239 64.2394 6.18572 64.354 6.14705 64.5647Z" fill="#799B96"/>
<path d="M13.003 86.3262C10.9203 84.0662 9.42298 81.7462 8.35365 79.4968C8.35098 79.4915 8.34967 79.4875 8.347 79.4822V79.4808C4.99767 72.4222 5.86834 66.0742 6.14567 64.5675C5.51767 68.7675 13.3123 72.2862 16.115 73.1715C18.2537 73.8448 20.1777 74.1848 22.1017 74.1848C24.4417 74.1848 26.7803 73.6808 29.5003 72.6635C34.5137 70.7915 39.0443 67.4448 42.571 63.4422C43.5083 62.3848 44.383 61.2262 45.159 60.0128C45.7363 60.9248 46.2816 61.9075 46.783 62.9675L11.915 85.0648C12.255 85.4848 12.6137 85.9062 13.0057 86.3235L13.003 86.3262Z" fill="#A01D22"/>
<path d="M12.75 86.4861C12.8353 86.7128 12.942 86.9341 13.0754 87.1474L14.3567 89.1661C15.4193 90.8328 17.6273 91.3301 19.2993 90.2648L48.4114 71.8221C50.0807 70.7621 50.5807 68.5488 49.5233 66.8848L48.2474 64.8635C48.106 64.6608 47.958 64.4581 47.786 64.2834L12.75 86.4861Z" fill="#86171B"/>
<path d="M17.0336 90.8379C15.9603 90.7432 14.9402 90.1672 14.3162 89.1885L13.0443 87.1726C12.9123 86.9646 12.8029 86.7432 12.7109 86.5112L13.0016 86.3272H13.0029L12.7509 86.4872C12.8362 86.7139 12.9429 86.9352 13.0763 87.1485L14.3576 89.1672C14.9763 90.1379 15.9843 90.7125 17.0483 90.8112L17.0336 90.8379ZM18.7003 90.5832L18.6936 90.5765C18.8843 90.5005 19.0709 90.4072 19.2522 90.2965C19.0736 90.4099 18.8883 90.5059 18.7003 90.5832Z" fill="#799B96"/>
<path d="M17.3465 90.8516C17.2412 90.8516 17.1372 90.8462 17.0332 90.8369L17.0479 90.8102C17.1586 90.8209 17.2706 90.8262 17.3812 90.8262C17.8226 90.8262 18.2679 90.7449 18.6932 90.5756L18.6999 90.5822C18.2612 90.7636 17.8025 90.8516 17.3465 90.8516Z" fill="#B22123"/>
<path d="M13.002 86.3262L13.004 86.3242C13.004 86.3252 13.004 86.3252 13.004 86.3252L13.002 86.3262Z" fill="#7A1518"/>
<path d="M17.3807 90.8262C17.27 90.8262 17.158 90.8208 17.0474 90.8102C15.9834 90.7115 14.9753 90.1368 14.3567 89.1662L13.0754 87.1475C12.942 86.9342 12.8353 86.7128 12.75 86.4862L13.002 86.3262L13.0047 86.3248C13.006 86.3262 13.006 86.3262 13.0074 86.3275L18.3474 82.9422L20.4193 81.6328C21.0287 81.7595 21.6474 81.8075 22.2447 81.8168C22.3167 81.8182 22.39 81.8195 22.4633 81.8195C25.8287 81.8195 29.3287 80.4248 32.39 79.1608C36.7127 77.3742 40.3487 74.9915 43.614 71.5729C45.422 69.6742 47.27 67.7075 48.5207 65.3955L49.4807 66.9075C50.5407 68.5742 50.0434 70.7915 48.3714 71.8435L19.258 90.2915C19.2553 90.2928 19.2527 90.2942 19.2513 90.2955C19.07 90.4062 18.8833 90.4995 18.6927 90.5755C18.2673 90.7448 17.822 90.8262 17.3807 90.8262Z" fill="#671113"/>
<path d="M47.4532 64.4883C47.2412 63.9643 47.0172 63.4563 46.7852 62.967L46.7865 62.9656C47.0198 63.459 47.2425 63.9643 47.4532 64.4883Z" fill="#CCE6E2"/>
<path d="M47.4539 64.4941C47.2405 63.9688 47.0165 63.4608 46.7832 62.9675L46.7872 62.9648C47.0179 63.4555 47.2419 63.9635 47.4539 64.4875C47.4552 64.4888 47.4552 64.4915 47.4565 64.4928L47.4539 64.4941Z" fill="#E54047"/>
<path d="M13.0047 86.3242C12.6127 85.9069 12.2541 85.4856 11.9141 85.0656L46.782 62.9682C47.0154 63.4616 47.2394 63.9696 47.4527 64.4949L14.1114 85.6242L13.0047 86.3242Z" fill="#C5373C"/>
<path d="M14.1113 85.625L47.4526 64.4957L47.4553 64.4943C47.4553 64.4957 47.4553 64.4957 47.4553 64.4957L18.3473 82.9437L14.1113 85.625Z" fill="#B33235"/>
<path d="M13.0059 86.3262C13.0059 86.3262 13.0059 86.3262 13.0059 86.3248L14.1125 85.6248L13.0059 86.3262Z" fill="#AA2F32"/>
<path d="M13.0085 86.3281C13.0072 86.3268 13.0072 86.3268 13.0059 86.3255L14.1125 85.6241L18.3485 82.9428L13.0085 86.3281Z" fill="#9B2A2D"/>
<path d="M36.5546 65.8848C33.3492 60.6274 27.7052 57.4101 23.2812 55.5901L28.8132 52.0848C28.8132 52.0848 37.7946 53.8928 41.1012 60.1501C41.1012 60.1501 39.8079 63.1008 36.5546 65.8848Z" fill="#E54047"/>
<path d="M103.467 2.6095C103.467 2.6095 117.756 5.61485 121.943 22.5188L106.844 32.0802L104.506 33.5602L89.4123 43.1309C75.9203 32.1202 79.3056 17.9215 79.3056 17.9215C79.3056 17.9215 82.855 1.87218 48.6336 26.2188L40.9043 14.0135C40.9043 14.0135 73.4296 -7.2505 103.467 2.6095Z" fill="#D82930"/>
<path d="M86.0977 40.0176C86.0777 39.9962 86.0591 39.9749 86.0391 39.9536C86.0591 39.9749 86.0791 39.9962 86.0977 40.0176Z" fill="#A01D22"/>
<path d="M83.631 36.9512C83.4163 36.6418 83.2097 36.3325 83.0137 36.0232C83.211 36.3325 83.4163 36.6418 83.631 36.9512Z" fill="#799B96"/>
<path d="M85.0003 38.7598C84.507 38.1584 84.051 37.5544 83.631 36.9518C83.4163 36.6424 83.211 36.3331 83.0137 36.0238C84.451 35.8371 85.871 35.5344 87.2243 35.1518C92.347 33.6678 97.311 31.0038 101.144 27.2691C104.932 23.5758 106.651 20.3064 107.323 15.3838C107.716 12.4731 107.867 3.93444 103.815 2.69711C105.744 3.21177 115.21 6.24509 120.118 17.1864C120.036 17.0078 119.954 16.8318 119.868 16.6571L85.0003 38.7598ZM120.543 18.1851C120.527 18.1424 120.51 18.1011 120.492 18.0598C120.51 18.1011 120.527 18.1424 120.544 18.1838L120.543 18.1851Z" fill="#A01D22"/>
<path d="M103.812 2.69531C103.588 2.63531 103.467 2.60996 103.467 2.60996C103.585 2.63263 103.7 2.66198 103.812 2.69531Z" fill="#799B96"/>
<path d="M103.815 2.69531C103.589 2.63398 103.467 2.60863 103.467 2.60863C103.467 2.60863 103.588 2.63398 103.812 2.69398C103.812 2.69398 103.813 2.69398 103.815 2.69531Z" fill="#A01D22"/>
<path d="M120.799 18.0201C120.968 18.2001 121.119 18.3881 121.259 18.6095L122.534 20.6175C123.59 22.2921 123.095 24.4975 121.424 25.5575L92.3124 44.0082C90.6351 45.0655 88.4257 44.5708 87.3684 42.9042L86.091 40.8828C85.9577 40.6748 85.8484 40.4535 85.7617 40.2295L120.799 18.0201Z" fill="#86171B"/>
<path d="M92.2871 44.0234C92.2951 44.0181 92.3045 44.0128 92.3138 44.0075L121.163 25.7221L121.166 25.7248L92.3471 43.9861C92.3271 43.9994 92.3071 44.0114 92.2871 44.0234ZM122.875 23.8301C122.868 23.8274 122.856 23.8248 122.85 23.8221C123.243 22.8021 123.164 21.6154 122.535 20.6168L121.26 18.6088C121.12 18.3888 120.971 18.2021 120.802 18.0221L120.839 17.9994C121.006 18.1741 121.159 18.3661 121.3 18.5821L122.574 20.5954C123.208 21.5994 123.282 22.8008 122.875 23.8301Z" fill="#799B96"/>
<path d="M121.165 25.7246L121.162 25.7219L121.425 25.5566C121.855 25.2833 122.207 24.934 122.475 24.538C122.482 24.5393 122.487 24.5419 122.494 24.5433C122.229 24.9299 121.883 25.2686 121.463 25.5353L121.165 25.7246Z" fill="#B22123"/>
<path d="M122.495 24.5449C122.489 24.5436 122.483 24.5409 122.477 24.5396C122.629 24.3143 122.754 24.0743 122.85 23.8236C122.857 23.8263 122.869 23.8289 122.875 23.8316C122.777 24.0809 122.65 24.3209 122.495 24.5449Z" fill="#871819"/>
<path d="M90.4385 44.541C89.2531 44.541 88.0918 43.953 87.4091 42.877L86.4531 41.3637C89.0785 41.2237 91.6451 40.393 94.1278 39.5703C98.6278 38.0703 102.325 35.8063 105.789 32.661C108.297 30.3877 111.109 27.7437 112.524 24.6197C112.76 24.0783 112.984 23.4917 113.126 22.8877L120.544 18.1863L120.801 18.0223C120.97 18.2023 121.12 18.389 121.26 18.609L122.534 20.617C123.164 21.6157 123.242 22.8023 122.849 23.8223C122.753 24.073 122.628 24.313 122.476 24.5383C122.208 24.9343 121.856 25.2837 121.425 25.557L121.162 25.7223L92.3132 44.0077C92.3038 44.013 92.2945 44.0183 92.2865 44.0237C91.7091 44.3743 91.0705 44.541 90.4385 44.541Z" fill="#671113"/>
<path d="M85.1788 38.9766C85.1174 38.9032 85.0561 38.8312 84.9961 38.7592L84.9974 38.7579C85.0574 38.8312 85.1174 38.9032 85.1788 38.9766Z" fill="#CCE6E2"/>
<path d="M86.0381 39.9531C85.7354 39.6265 85.4514 39.2998 85.1794 38.9771C85.1181 38.9038 85.058 38.8318 84.998 38.7585H84.9994C85.3287 39.1585 85.6741 39.5558 86.0381 39.9531Z" fill="#E54047"/>
<path d="M120.447 17.9473C120.356 17.7273 120.263 17.5113 120.168 17.2966C120.264 17.5099 120.356 17.7273 120.447 17.9473Z" fill="#CCE6E2"/>
<path d="M120.492 18.0586C120.371 17.7613 120.247 17.4719 120.117 17.1853C120.135 17.2226 120.151 17.2586 120.168 17.2959C120.263 17.5106 120.356 17.7266 120.447 17.9466C120.463 17.9839 120.477 18.0213 120.492 18.0586Z" fill="#E54047"/>
<path d="M86.0973 40.0176C86.0787 39.9962 86.0587 39.9749 86.0387 39.9536C85.6747 39.5562 85.3293 39.1589 85 38.7589L119.868 16.6562C119.953 16.8309 120.036 17.0069 120.117 17.1856C120.247 17.4722 120.371 17.7616 120.492 18.0589C120.509 18.1003 120.527 18.1416 120.543 18.1842L86.0973 40.0176Z" fill="#C5373C"/>
<path d="M86.099 40.0195C86.099 40.0195 86.099 40.0182 86.0977 40.0182L120.543 18.1849C120.543 18.1862 120.544 18.1862 120.544 18.1875L113.128 22.8862C113.128 22.8875 113.127 22.8875 113.127 22.8889L86.099 40.0195Z" fill="#B33235"/>
<path d="M113.127 22.8887C113.127 22.8873 113.128 22.8873 113.128 22.886L120.544 18.1873L113.127 22.8887Z" fill="#9B2A2D"/>
<path d="M84.9481 32.4219C84.9041 32.4219 84.8801 32.4205 84.8801 32.4205C80.6281 26.7485 82.8254 17.8659 82.8254 17.8659L88.3601 14.3512C88.1201 19.1299 88.6174 25.6059 92.0001 30.7485C88.4308 32.3539 85.4294 32.4219 84.9481 32.4219Z" fill="#E54047"/>
</svg>
