<svg width="289" height="137" viewBox="0 0 289 137" fill="none" xmlns="http://www.w3.org/2000/svg">
<path d="M172.831 127.845L146.155 114.769C145.111 114.257 143.889 114.257 142.845 114.769L116.169 127.845C115.168 128.335 114 127.605 114 126.487V55H175V126.487C175 127.605 173.832 128.335 172.831 127.845Z" fill="#7B37DB"/>
<path d="M163.765 136.843L146.205 128.387C145.129 127.869 143.871 127.869 142.795 128.387L125.234 136.843C124.203 137.339 123 136.6 123 135.47V48H166V135.47C166 136.6 164.797 137.339 163.765 136.843Z" fill="#9944EA"/>
<path d="M144.5 0C116.61 0 94 22.8331 94 50.9996C94 79.1668 116.61 102 144.5 102C172.392 102 195 79.1668 195 50.9996C195 22.8331 172.392 0 144.5 0Z" fill="#FFD83D"/>
<path d="M144.5 95C120.475 95 101 75.3002 101 50.9996C101 26.6998 120.475 7 144.5 7C168.525 7 188 26.6998 188 50.9996C188 75.3002 168.525 95 144.5 95ZM144.5 9.12158C121.634 9.12158 103.098 27.8709 103.098 50.9996C103.098 74.1282 121.634 92.8776 144.5 92.8776C167.365 92.8776 185.902 74.1282 185.902 50.9996C185.902 27.8709 167.365 9.12158 144.5 9.12158Z" fill="#FFB725"/>
<path d="M144.5 92C121.58 92 103 73.4199 103 50.5C103 27.5801 121.58 9 144.5 9C167.42 9 186 27.5801 186 50.5C186 73.4199 167.42 92 144.5 92ZM144.5 17.1274C143.531 17.1274 142.562 17.3813 141.696 17.8883L133.743 22.5473C133.305 22.8046 132.833 22.9998 132.341 23.128L123.424 25.4576C121.481 25.9645 119.965 27.4812 119.457 29.4236L117.128 38.3412C117 38.8331 116.804 39.3049 116.547 39.7431L111.888 47.6954C110.874 49.4283 110.874 51.5726 111.888 53.3047L116.547 61.2569C116.804 61.696 117 62.1678 117.128 62.6597L119.457 71.5772C119.965 73.5196 121.481 75.0364 123.424 75.5433L132.341 77.8728C132.833 78.001 133.305 78.1963 133.743 78.4536L141.696 83.1118C142.562 83.6196 143.531 83.8735 144.5 83.8735C145.47 83.8735 146.439 83.6196 147.305 83.1118L155.257 78.4536C155.696 78.1963 156.168 78.001 156.66 77.8728L165.577 75.5433C167.52 75.0364 169.036 73.5196 169.544 71.5772L171.873 62.6597C172.001 62.1678 172.197 61.696 172.453 61.2569L177.112 53.3047C178.127 51.5726 178.127 49.4283 177.112 47.6954L172.453 39.7431C172.197 39.3049 172.001 38.8331 171.873 38.3412L169.544 29.4236C169.036 27.4812 167.52 25.9645 165.577 25.4576L156.66 23.128C156.168 22.9998 155.696 22.8046 155.257 22.5473L147.305 17.8883C146.439 17.3813 145.47 17.1274 144.5 17.1274Z" fill="#FF9517"/>
<path d="M147.315 17.7634L155.298 22.4402C155.738 22.6985 156.212 22.8944 156.706 23.0231L165.657 25.3616C167.607 25.8705 169.129 27.3929 169.639 29.3428L171.976 38.2944C172.105 38.7882 172.302 39.2618 172.559 39.7017L177.236 47.6843C178.255 49.4238 178.255 51.5764 177.236 53.3151L172.559 61.2977C172.302 61.7384 172.105 62.212 171.976 62.7058L169.639 71.6574C169.129 73.6072 167.607 75.1298 165.657 75.6387L156.706 77.9771C156.212 78.1058 155.738 78.3018 155.298 78.56L147.315 83.236C145.577 84.2547 143.423 84.2547 141.685 83.236L133.702 78.56C133.262 78.3018 132.788 78.1058 132.294 77.9771L123.343 75.6387C121.393 75.1298 119.871 73.6072 119.361 71.6574L117.024 62.7058C116.895 62.212 116.698 61.7384 116.441 61.2977L111.764 53.3151C110.745 51.5764 110.745 49.4238 111.764 47.6843L116.441 39.7017C116.698 39.2618 116.895 38.7882 117.024 38.2944L119.361 29.3428C119.871 27.3929 121.393 25.8705 123.343 25.3616L132.294 23.0231C132.788 22.8944 133.262 22.6985 133.702 22.4402L141.685 17.7634C143.423 16.7455 145.577 16.7455 147.315 17.7634Z" fill="#FFD83D"/>
<path d="M65 69H58V61H65V69Z" fill="#FF66B5"/>
<path d="M209 103H202V96H209V103Z" fill="#54FFA9"/>
<path d="M41.9996 107L37 112L41.9996 117L47 112L41.9996 107Z" fill="#7DCDFF"/>
<path d="M259.999 40L255 44.9996L259.999 50L265 44.9996L259.999 40Z" fill="#FFE082"/>
<path d="M236 70H234V65H236V70Z" fill="#7DCDFF"/>
<path d="M236 84H234V79H236V84Z" fill="#7DCDFF"/>
<path d="M230.072 73L226 70.6226L226.928 69L231 71.3774L230.072 73Z" fill="#7DCDFF"/>
<path d="M243.072 80L239 77.6231L239.928 76L244 78.3777L243.072 80Z" fill="#7DCDFF"/>
<path d="M226.928 80L226 78.3777L230.072 76L231 77.6231L226.928 80Z" fill="#7DCDFF"/>
<path d="M239.928 73L239 71.3774L243.072 69L244 70.6226L239.928 73Z" fill="#7DCDFF"/>
<path d="M249 111H247V106H249V111Z" fill="#FF66B5"/>
<path d="M249 125H247V120H249V125Z" fill="#FF66B5"/>
<path d="M243.074 114L239 111.623L239.927 110L244 112.377L243.074 114Z" fill="#FF66B5"/>
<path d="M255.074 121L251 118.622L251.927 117L256 119.377L255.074 121Z" fill="#FF66B5"/>
<path d="M239.927 121L239 119.377L243.074 117L244 118.622L239.927 121Z" fill="#FF66B5"/>
<path d="M251.927 114L251 112.377L255.074 110L256 111.623L251.927 114Z" fill="#FF66B5"/>
<path d="M79 85H77V80H79V85Z" fill="#BA8FFA"/>
<path d="M79 99H77V95H79V99Z" fill="#BA8FFA"/>
<path d="M73.0729 88L69 85.624L69.9271 84L74 86.3769L73.0729 88Z" fill="#BA8FFA"/>
<path d="M86.0729 95L82 92.6231L82.9271 91L87 93.3769L86.0729 95Z" fill="#BA8FFA"/>
<path d="M69.9271 95L69 93.3769L73.0729 91L74 92.6231L69.9271 95Z" fill="#BA8FFA"/>
<path d="M82.9271 88L82 86.3769L86.0729 84L87 85.624L82.9271 88Z" fill="#BA8FFA"/>
<path d="M27 45H25V40H27V45Z" fill="#FFE082"/>
<path d="M27 59H25V54H27V59Z" fill="#FFE082"/>
<path d="M21.0722 48L17 45.6231L17.927 44L22 46.3769L21.0722 48Z" fill="#FFE082"/>
<path d="M33.8876 55L29 52.6231L30.1124 51L35 53.3769L33.8876 55Z" fill="#FFE082"/>
<path d="M17.927 55L17 53.3769L21.0722 51L22 52.6231L17.927 55Z" fill="#FFE082"/>
<path d="M30.1124 48L29 46.3769L33.8876 44L35 45.6231L30.1124 48Z" fill="#FFE082"/>
<path d="M57 11.9479C54.7655 11.9479 52.948 13.7654 52.948 16C52.948 18.2346 54.7655 20.052 57 20.052C59.2346 20.052 61.0521 18.2346 61.0521 16C61.0521 13.7654 59.2346 11.9479 57 11.9479ZM57 22C53.6919 22 51 19.3089 51 16C51 12.6911 53.6919 10 57 10C60.3081 10 63 12.6911 63 16C63 19.3089 60.3081 22 57 22Z" fill="#7DCDFF"/>
<path d="M283 69.9481C280.765 69.9481 278.947 71.7657 278.947 74.0004C278.947 76.2343 280.765 78.0519 283 78.0519C285.234 78.0519 287.053 76.2343 287.053 74.0004C287.053 71.7657 285.234 69.9481 283 69.9481ZM283 80C279.69 80 277 77.3087 277 74.0004C277 70.6913 279.69 68 283 68C286.309 68 289 70.6913 289 74.0004C289 77.3087 286.309 80 283 80Z" fill="#BA8FFA"/>
<path d="M224 16.9488C221.766 16.9488 219.949 18.7654 219.949 21C219.949 23.2337 221.766 25.0512 224 25.0512C226.234 25.0512 228.051 23.2337 228.051 21C228.051 18.7654 226.234 16.9488 224 16.9488ZM224 27C220.692 27 218 24.3081 218 21C218 17.6911 220.692 15 224 15C227.308 15 230 17.6911 230 21C230 24.3081 227.308 27 224 27Z" fill="#FF66B5"/>
<path d="M6.00087 83.9488C3.76632 83.9488 1.94879 85.7663 1.94879 88C1.94879 90.2345 3.76632 92.052 6.00087 92.052C8.23456 92.052 10.0521 90.2345 10.0521 88C10.0521 85.7663 8.23456 83.9488 6.00087 83.9488ZM6.00087 94C2.69195 94 0 91.3089 0 88C0 84.6919 2.69195 82 6.00087 82C9.30893 82 12 84.6919 12 88C12 91.3089 9.30893 94 6.00087 94Z" fill="#54FFA9"/>
<path d="M153.589 67C153.172 67 152.742 66.9057 152.325 66.6978L145.447 63.2683C145.149 63.1205 144.824 63.0462 144.5 63.0462C144.175 63.0462 143.851 63.1205 143.552 63.2683L136.675 66.6978C136.258 66.9057 135.828 67 135.411 67C133.796 67 132.373 65.5816 132.653 63.8243L133.844 56.3325C133.948 55.6839 133.729 55.026 133.259 54.561L127.817 49.1889C126.21 47.6027 127.105 44.8937 129.353 44.5397L136.967 43.3384C137.626 43.2349 138.195 42.8283 138.5 42.2439L142.014 35.4943C142.533 34.4976 143.517 34 144.5 34C145.484 34 146.467 34.4976 146.986 35.4943L150.5 42.2439C150.805 42.8283 151.374 43.2349 152.033 43.3384L159.647 44.5397C161.895 44.8937 162.79 47.6027 161.183 49.1889L155.741 54.561C155.271 55.026 155.053 55.6839 155.156 56.3325L156.347 63.8243C156.627 65.5816 155.204 67 153.589 67Z" fill="#FFB027"/>
</svg>
