<svg width="80" height="89" viewBox="0 0 80 89" fill="none" xmlns="http://www.w3.org/2000/svg">
<path d="M34.3848 64.4453V78.7662C34.3848 78.7662 34.3848 85.9267 40.9015 85.9267C47.4183 85.9267 47.4183 78.7662 47.4183 78.7662V64.4453H34.3848Z" fill="#DD2E44"/>
<path d="M34.3848 78.7662L34.3869 78.8545C36.6483 78.771 38.7662 78.2005 40.1043 75.7851C40.186 75.6321 40.3026 75.5052 40.4426 75.4171C40.5827 75.3289 40.7412 75.2826 40.9026 75.2826C41.064 75.2826 41.2226 75.3289 41.3627 75.4171C41.5027 75.5052 41.6193 75.6321 41.7009 75.7851C43.039 78.1982 45.157 78.771 47.4183 78.8545V64.4453H34.3848V78.7662Z" fill="#BE1931"/>
<path d="M71.2139 51.5925C71.2139 66.5722 60.3526 66.5722 60.3526 66.5722H21.2519C21.2519 66.5722 10.3906 66.5722 10.3906 51.5925C10.3906 35.5436 21.2519 7.15234 40.8023 7.15234C60.3526 7.15234 71.2139 37.9304 71.2139 51.5925Z" fill="#D99E82"/>
<path d="M40.9023 47.7383C25.6965 47.7383 19.1797 56.1566 19.1797 63.002C19.1797 66.4836 20.4384 69.8227 22.679 72.2845C24.9196 74.7464 27.9585 76.1295 31.1271 76.1295C34.6136 76.1295 37.7351 74.5446 39.9226 69.5252C40.0081 69.3188 40.1458 69.1439 40.3194 69.0212C40.4929 68.8985 40.6949 68.8333 40.9012 68.8333C41.1075 68.8333 41.3095 68.8985 41.4831 69.0212C41.6566 69.1439 41.7943 69.3188 41.8798 69.5252C44.0673 74.5446 47.191 76.1295 50.6753 76.1295C53.8439 76.1295 56.8828 74.7464 59.1234 72.2845C61.364 69.8227 62.6227 66.4836 62.6227 63.002C62.6249 56.1566 56.1081 47.7383 40.9023 47.7383Z" fill="#F4C7B5"/>
<path d="M34.3824 54.6488C32.2101 57.0356 38.7269 64.1961 40.8992 64.1961C43.0714 64.1961 49.5882 57.0356 47.416 54.6488C45.2437 52.262 36.5547 52.262 34.3824 54.6488ZM30.0379 45.3522C27.6484 45.3522 25.6934 43.204 25.6934 40.5785V35.8049C25.6934 33.1794 27.6484 31.0312 30.0379 31.0312C32.4274 31.0312 34.3824 33.1794 34.3824 35.8049V40.5785C34.3824 43.204 32.4274 45.3522 30.0379 45.3522ZM51.7605 45.3522C49.371 45.3522 47.416 43.204 47.416 40.5785V35.8049C47.416 33.1794 49.371 31.0312 51.7605 31.0312C54.15 31.0312 56.105 33.1794 56.105 35.8049V40.5785C56.105 43.204 54.15 45.3522 51.7605 45.3522Z" fill="#292F33"/>
<path d="M34.3828 8.6161C32.0824 5.25307 27.1731 2.10725 7.94206 10.0291C-1.05979 13.7382 3.33687 42.4994 10.3468 44.3635C12.7493 44.3635 19.9612 44.3635 19.9612 23.2354C19.9612 22.7103 19.9568 22.2257 19.9503 21.7436C24.2818 15.0366 28.9522 11.5972 34.3828 8.6161ZM73.8571 10.0291C54.6261 2.10725 49.7168 5.25307 47.4164 8.6161C52.847 11.5996 57.5174 15.039 61.8489 21.746C61.8424 22.2257 61.838 22.7103 61.838 23.2378C61.838 44.3659 69.0477 44.3659 71.4524 44.3659C78.4623 42.4994 82.859 13.7382 73.8571 10.0291Z" fill="#662113"/>
<path d="M52.8439 62.0646C53.4438 62.0646 53.9301 61.5302 53.9301 60.8711C53.9301 60.212 53.4438 59.6777 52.8439 59.6777C52.2441 59.6777 51.7578 60.212 51.7578 60.8711C51.7578 61.5302 52.2441 62.0646 52.8439 62.0646Z" fill="#D99E82"/>
<path d="M26.7795 62.0646C27.3793 62.0646 27.8656 61.5302 27.8656 60.8711C27.8656 60.212 27.3793 59.6777 26.7795 59.6777C26.1796 59.6777 25.6934 60.212 25.6934 60.8711C25.6934 61.5302 26.1796 62.0646 26.7795 62.0646Z" fill="#D99E82"/>
<path d="M57.1896 66.8321C57.7895 66.8321 58.2758 66.2978 58.2758 65.6387C58.2758 64.9796 57.7895 64.4453 57.1896 64.4453C56.5898 64.4453 56.1035 64.9796 56.1035 65.6387C56.1035 66.2978 56.5898 66.8321 57.1896 66.8321Z" fill="#D99E82"/>
<path d="M24.6018 66.8321C25.2016 66.8321 25.6879 66.2978 25.6879 65.6387C25.6879 64.9796 25.2016 64.4453 24.6018 64.4453C24.0019 64.4453 23.5156 64.9796 23.5156 65.6387C23.5156 66.2978 24.0019 66.8321 24.6018 66.8321Z" fill="#D99E82"/>
<path d="M51.7621 69.2189C52.9618 69.2189 53.9344 68.1503 53.9344 66.8321C53.9344 65.5139 52.9618 64.4453 51.7621 64.4453C50.5624 64.4453 49.5898 65.5139 49.5898 66.8321C49.5898 68.1503 50.5624 69.2189 51.7621 69.2189Z" fill="#D99E82"/>
<path d="M30.0434 69.2189C31.2431 69.2189 32.2156 68.1503 32.2156 66.8321C32.2156 65.5139 31.2431 64.4453 30.0434 64.4453C28.8436 64.4453 27.8711 65.5139 27.8711 66.8321C27.8711 68.1503 28.8436 69.2189 30.0434 69.2189Z" fill="#D99E82"/>
<path d="M23.274 17.2665C22.7114 15.6601 21.8968 13.9321 20.7194 12.6384C20.5178 12.4168 20.2783 12.241 20.0148 12.1211C19.7513 12.0012 19.4689 11.9395 19.1837 11.9395C18.8984 11.9395 18.616 12.0012 18.3525 12.1211C18.089 12.241 17.8495 12.4168 17.6479 12.6384C17.4462 12.86 17.2862 13.1231 17.177 13.4127C17.0679 13.7022 17.0117 14.0125 17.0117 14.3259C17.0117 14.6393 17.0679 14.9496 17.177 15.2392C17.2862 15.5287 17.4462 15.7918 17.6479 16.0134C18.8861 17.3739 19.9635 20.6295 19.9678 21.6129C20.2828 20.6486 21.7904 18.868 23.274 17.2665ZM58.5016 17.2665C59.0642 15.6625 59.8788 13.9321 61.0561 12.6384C61.2578 12.4168 61.4973 12.241 61.7608 12.1211C62.0243 12.0012 62.3067 11.9395 62.5919 11.9395C62.8772 11.9395 63.1596 12.0012 63.4231 12.1211C63.6866 12.241 63.926 12.4168 64.1277 12.6384C64.3294 12.86 64.4894 13.1231 64.5985 13.4127C64.7077 13.7022 64.7639 14.0125 64.7639 14.3259C64.7639 14.6393 64.7077 14.9496 64.5985 15.2392C64.4894 15.5287 64.3294 15.7918 64.1277 16.0134C62.8895 17.3739 61.8121 20.6295 61.8077 21.6129C61.4928 20.6486 59.9852 18.868 58.5016 17.2665Z" fill="#380F09"/>
</svg>
