<svg width="78" height="78" viewBox="0 0 78 78" fill="none" xmlns="http://www.w3.org/2000/svg">
<path d="M60.8887 39.3477H17.1112C12.3947 39.3477 8.53125 43.5767 8.53125 48.7442C8.53125 53.9117 12.3947 58.1408 17.1112 58.1408H60.8887C65.6114 58.1408 69.4688 53.9117 69.4688 48.7442C69.4688 43.5767 65.6053 39.3477 60.8887 39.3477Z" fill="#EDC391"/>
<path d="M71.3821 30.6339C71.0652 25.4177 68.7678 22.3464 65.5564 20.6523C63.0092 19.3056 59.8892 18.8242 56.7205 18.8242H21.2792C18.1105 18.8242 14.9783 19.3056 12.4311 20.6523C9.22581 22.3525 6.93456 25.4237 6.61768 30.64C6.19112 37.6356 8.87237 43.8391 13.071 46.7884C14.6797 47.928 16.52 48.58 18.4883 48.6105C18.5431 48.6166 18.5919 48.6166 18.6467 48.6166C18.7199 48.6166 18.7991 48.6166 18.8722 48.6105H59.353C61.3761 48.6105 63.2652 47.9523 64.9166 46.7884C69.1213 43.8452 71.8086 37.6356 71.3821 30.6339Z" fill="url(#paint0_linear_35056_4167)"/>
<path d="M38.9999 7.44141C17.8729 7.44141 12.1509 22.3102 12.1509 43.7114C12.1509 64.9969 22.5468 75.5208 38.9999 75.5208C55.4531 75.5208 65.849 64.9969 65.849 43.7114C65.849 22.3102 60.127 7.44141 38.9999 7.44141Z" fill="#F9DDBD"/>
<path d="M24.7588 64.1741C24.5273 64.1741 24.2896 64.0827 24.1129 63.906C23.7534 63.5464 23.7534 62.9675 24.1129 62.6141L29.9203 56.8068C30.2798 56.4472 30.8526 56.4472 31.2121 56.8068C31.5717 57.1663 31.5717 57.7452 31.2121 58.0986L25.4048 63.906C25.2281 64.0827 24.9904 64.1741 24.7588 64.1741Z" fill="#EDBD82"/>
<path d="M53.241 64.1738C53.0094 64.1738 52.7718 64.0824 52.5951 63.9057L46.7877 58.0983C46.4282 57.7388 46.4282 57.1599 46.7877 56.8064C47.1472 56.453 47.7262 56.4469 48.0796 56.8064L53.8869 62.6138C54.2465 62.9733 54.2465 63.5522 53.8869 63.9057C53.7102 64.0824 53.4726 64.1738 53.241 64.1738Z" fill="#EDBD82"/>
<path d="M26.1482 55.1477C24.5455 55.1477 22.9368 54.6297 21.7119 53.5999C21.328 53.2769 21.2793 52.698 21.6022 52.3141C21.9252 51.9302 22.5041 51.8814 22.888 52.2044C24.6857 53.7217 27.6046 53.7217 29.4022 52.2044C29.7861 51.8753 30.365 51.9241 30.688 52.3141C31.011 52.698 30.9683 53.2769 30.5783 53.5999C29.3596 54.6297 27.7569 55.1477 26.1482 55.1477Z" fill="#EDBD82"/>
<path d="M51.8518 55.1477C50.243 55.1477 48.6404 54.6297 47.4155 53.5999C47.0316 53.2769 46.9829 52.698 47.3058 52.3141C47.6288 51.9302 48.2077 51.8814 48.5916 52.2044C50.3893 53.7217 53.3082 53.7217 55.1058 52.2044C55.4898 51.8753 56.0687 51.9241 56.3916 52.3141C56.7207 52.698 56.6719 53.2769 56.2819 53.5999C55.0632 54.6297 53.4605 55.1477 51.8518 55.1477Z" fill="#EDBD82"/>
<path d="M26.191 33.1314C25.8254 33.1314 25.4841 32.912 25.3379 32.5525C25.149 32.0833 25.3805 31.5531 25.8497 31.3642C26.0752 31.2728 31.3951 29.207 38.7929 29.207C46.1846 29.207 51.8883 31.2728 52.126 31.3581C52.6013 31.5348 52.8451 32.0589 52.6683 32.5281C52.4916 33.0034 51.9676 33.2472 51.4922 33.0705C51.4374 33.0522 45.8372 31.0291 38.7929 31.0291C31.7363 31.0291 26.5749 33.04 26.5201 33.0583C26.4165 33.1131 26.3007 33.1314 26.191 33.1314Z" fill="#EDBD82"/>
<path d="M48.1222 28.0069C48.0308 28.0069 47.9394 27.9947 47.848 27.9642C47.8053 27.952 43.6677 26.6602 38.9998 26.6602C34.332 26.6602 30.1944 27.952 30.1517 27.9642C29.6703 28.1166 29.1584 27.8484 29.0061 27.367C28.8538 26.8856 29.1219 26.3737 29.6033 26.2214C29.78 26.1666 34.0395 24.832 38.9998 24.832C43.9602 24.832 48.2197 26.1666 48.3964 26.2214C48.8778 26.3737 49.1459 26.8856 48.9936 27.367C48.8717 27.757 48.5122 28.0069 48.1222 28.0069Z" fill="#EDBD82"/>
<path d="M25.8618 51.2188C28.0427 51.2188 29.8106 49.3882 29.8106 47.1299C29.8106 44.8717 28.0427 43.041 25.8618 43.041C23.681 43.041 21.9131 44.8717 21.9131 47.1299C21.9131 49.3882 23.681 51.2188 25.8618 51.2188Z" fill="#312D2D"/>
<path d="M52.2173 51.2188C54.3981 51.2188 56.1661 49.3882 56.1661 47.1299C56.1661 44.8717 54.3981 43.041 52.2173 43.041C50.0365 43.041 48.2686 44.8717 48.2686 47.1299C48.2686 49.3882 50.0365 51.2188 52.2173 51.2188Z" fill="#312D2D"/>
<path d="M42.0893 54.5748C42.004 54.5383 41.9187 54.52 41.8334 54.5078H36.1662C36.0809 54.52 35.9956 54.5383 35.9103 54.5748C35.3984 54.782 35.112 55.3183 35.3558 55.8789C35.5995 56.4456 36.7268 58.0361 38.9998 58.0361C41.2728 58.0361 42.4001 56.4456 42.6439 55.8789C42.8876 55.3122 42.6073 54.782 42.0893 54.5748Z" fill="#DBA689"/>
<path d="M45.7093 60.9197C43.156 62.4371 34.7954 62.4371 32.2421 60.9197C30.7796 60.0483 29.2805 61.3829 29.8899 62.7113C30.4871 64.0215 35.0513 67.0561 39 67.0561C42.9427 67.0561 47.4521 64.0215 48.0493 62.7113C48.6525 61.3768 47.1779 60.0483 45.7093 60.9197Z" fill="#444444"/>
<path d="M32.0105 39.5416C31.2366 38.3777 29.4328 36.6836 25.9472 36.6836C22.4616 36.6836 20.6578 38.3777 19.8778 39.5416C19.5366 40.0595 19.6219 40.6506 19.8595 41.0102C20.0789 41.3453 20.731 41.6561 21.4561 41.3758C22.1813 41.0955 23.5889 40.2728 25.9472 40.2545C28.3055 40.2728 29.7192 41.0955 30.4383 41.3758C31.1574 41.6561 31.8094 41.3453 32.0349 41.0102C32.2725 40.6506 32.3578 40.0534 32.0105 39.5416Z" fill="#9E9E9E"/>
<path d="M58.1772 39.5416C57.4033 38.3777 55.5996 36.6836 52.1079 36.6836C48.6161 36.6836 46.8185 38.3777 46.0385 39.5416C45.6972 40.0595 45.7825 40.6506 46.0202 41.0102C46.2396 41.3453 46.8916 41.6561 47.6168 41.3758C48.3419 41.0955 49.7496 40.2728 52.1079 40.2545C54.4661 40.2728 55.8738 41.0955 56.5989 41.3758C57.318 41.6561 57.97 41.3453 58.1955 41.0102C58.4332 40.6506 58.5185 40.0534 58.1772 39.5416Z" fill="#9E9E9E"/>
<defs>
<linearGradient id="paint0_linear_35056_4167" x1="38.9998" y1="18.6545" x2="38.9998" y2="56.9289" gradientUnits="userSpaceOnUse">
<stop stop-color="#E0E0E0"/>
<stop offset="1" stop-color="#9E9E9E"/>
</linearGradient>
</defs>
</svg>
