<svg width="258" height="227" viewBox="0 0 258 227" fill="none" xmlns="http://www.w3.org/2000/svg">
<g opacity="0.3">
<path d="M223.282 87.7323H205.272C204.837 87.7323 204.484 87.3795 204.484 86.9449V80.6937C204.484 80.2586 204.837 79.9062 205.272 79.9062H223.282C223.717 79.9062 224.069 80.2591 224.069 80.6937V86.9449C224.07 87.38 223.717 87.7323 223.282 87.7323Z" fill="url(#paint0_linear_34790_7479)"/>
<path d="M234.216 96.5839H216.206C215.771 96.5839 215.418 96.231 215.418 95.7965V89.5452C215.418 89.1101 215.771 88.7578 216.206 88.7578H234.216C234.651 88.7578 235.003 89.1107 235.003 89.5452V95.7965C235.004 96.2316 234.651 96.5839 234.216 96.5839Z" fill="url(#paint1_linear_34790_7479)"/>
<path d="M62.915 134.334H44.9052C44.4701 134.334 44.1172 133.981 44.1172 133.546V127.295C44.1172 126.86 44.4701 126.508 44.9052 126.508H62.915C63.3501 126.508 63.703 126.861 63.703 127.295V133.546C63.7024 133.981 63.3495 134.334 62.915 134.334Z" fill="url(#paint2_linear_34790_7479)"/>
<path d="M29.3759 107.584H11.3655C10.9304 107.584 10.5781 107.231 10.5781 106.796V100.545C10.5781 100.11 10.931 99.7578 11.3655 99.7578H29.3754C29.8105 99.7578 30.1628 100.111 30.1628 100.545V106.796C30.1633 107.232 29.8105 107.584 29.3759 107.584Z" fill="url(#paint3_linear_34790_7479)"/>
<path d="M227.099 190.225H209.089C208.654 190.225 208.301 189.872 208.301 189.437V183.186C208.301 182.751 208.654 182.398 209.089 182.398H227.099C227.534 182.398 227.886 182.751 227.886 183.186V189.437C227.886 189.872 227.533 190.225 227.099 190.225Z" fill="url(#paint4_linear_34790_7479)"/>
<path d="M246.684 20.2407H228.674C228.239 20.2407 227.887 19.8878 227.887 19.4533V13.202C227.887 12.7669 228.24 12.4141 228.674 12.4141H246.684C247.119 12.4141 247.472 12.7669 247.472 13.202V19.4533C247.471 19.8884 247.119 20.2407 246.684 20.2407Z" fill="url(#paint5_linear_34790_7479)"/>
<path d="M18.7972 98.9126H0.787404C0.352304 98.9126 0 98.5597 0 98.1252V91.8739C0 91.4388 0.352875 91.0859 0.787404 91.0859H18.7972C19.2323 91.0859 19.5846 91.4388 19.5846 91.8739V98.1252C19.5852 98.5603 19.2323 98.9126 18.7972 98.9126Z" fill="url(#paint6_linear_34790_7479)"/>
</g>
<path d="M167.02 6.88281H32.918V120.722H167.02V6.88281Z" fill="url(#paint7_linear_34790_7479)"/>
<path d="M167.02 120.719H32.918V122.639H167.02V120.719Z" fill="url(#paint8_linear_34790_7479)"/>
<path d="M162.401 10.625H37.5332V116.978H162.401V10.625Z" fill="url(#paint9_linear_34790_7479)"/>
<path opacity="0.2" d="M162.4 40.6258V58.7104L86.332 10.625H114.931L162.4 40.6258Z" fill="#FFFCFB"/>
<path opacity="0.2" d="M162.4 65.4847V75.3099L60.082 10.625H75.6149L162.4 65.4847Z" fill="#FFFCFB"/>
<path d="M162.401 84.9306V116.979H137.345L37.5332 53.8843V10.625H44.854L162.401 84.9306Z" fill="#FFFCFB"/>
<path d="M95.4961 119.752V7.85156H104.44V119.752H95.4961Z" fill="url(#paint10_linear_34790_7479)"/>
<path d="M169.409 62.5286H30.528C30.0712 62.5286 29.7012 62.1586 29.7012 61.7018C29.7012 61.245 30.0712 60.875 30.528 60.875H169.409C169.866 60.875 170.236 61.245 170.236 61.7018C170.236 62.1586 169.865 62.5286 169.409 62.5286Z" fill="url(#paint11_linear_34790_7479)"/>
<path d="M169.409 7.71611H30.528C30.0712 7.71611 29.7012 7.3461 29.7012 6.8893C29.7012 6.43251 30.0712 6.0625 30.528 6.0625H169.409C169.866 6.0625 170.236 6.43251 170.236 6.8893C170.236 7.3461 169.865 7.71611 169.409 7.71611Z" fill="url(#paint12_linear_34790_7479)"/>
<path d="M169.409 11.1458H30.528C30.0712 11.1458 29.7012 10.7758 29.7012 10.319C29.7012 9.86219 30.0712 9.49219 30.528 9.49219H169.409C169.866 9.49219 170.236 9.86219 170.236 10.319C170.236 10.7758 169.865 11.1458 169.409 11.1458Z" fill="url(#paint13_linear_34790_7479)"/>
<path d="M169.409 14.5677H30.528C30.0712 14.5677 29.7012 14.1977 29.7012 13.7409C29.7012 13.2841 30.0712 12.9141 30.528 12.9141H169.409C169.866 12.9141 170.236 13.2841 170.236 13.7409C170.236 14.1977 169.865 14.5677 169.409 14.5677Z" fill="url(#paint14_linear_34790_7479)"/>
<path d="M169.409 17.9974H30.528C30.0712 17.9974 29.7012 17.6274 29.7012 17.1706C29.7012 16.7138 30.0712 16.3438 30.528 16.3438H169.409C169.866 16.3438 170.236 16.7138 170.236 17.1706C170.236 17.6274 169.865 17.9974 169.409 17.9974Z" fill="url(#paint15_linear_34790_7479)"/>
<path d="M169.409 21.4192H30.528C30.0712 21.4192 29.7012 21.0492 29.7012 20.5924C29.7012 20.1356 30.0712 19.7656 30.528 19.7656H169.409C169.866 19.7656 170.236 20.1356 170.236 20.5924C170.236 21.0492 169.865 21.4192 169.409 21.4192Z" fill="url(#paint16_linear_34790_7479)"/>
<path d="M169.409 24.8489H30.528C30.0712 24.8489 29.7012 24.4789 29.7012 24.0221C29.7012 23.5653 30.0712 23.1953 30.528 23.1953H169.409C169.866 23.1953 170.236 23.5653 170.236 24.0221C170.236 24.4789 169.865 24.8489 169.409 24.8489Z" fill="url(#paint17_linear_34790_7479)"/>
<path d="M169.409 28.2708H30.528C30.0712 28.2708 29.7012 27.9008 29.7012 27.444C29.7012 26.9872 30.0712 26.6172 30.528 26.6172H169.409C169.866 26.6172 170.236 26.9872 170.236 27.444C170.236 27.9008 169.865 28.2708 169.409 28.2708Z" fill="url(#paint18_linear_34790_7479)"/>
<path d="M169.409 31.7005H30.528C30.0712 31.7005 29.7012 31.3305 29.7012 30.8737C29.7012 30.4169 30.0712 30.0469 30.528 30.0469H169.409C169.866 30.0469 170.236 30.4169 170.236 30.8737C170.236 31.3305 169.865 31.7005 169.409 31.7005Z" fill="url(#paint19_linear_34790_7479)"/>
<path d="M169.409 35.1224H30.528C30.0712 35.1224 29.7012 34.7524 29.7012 34.2956C29.7012 33.8388 30.0712 33.4688 30.528 33.4688H169.409C169.866 33.4688 170.236 33.8388 170.236 34.2956C170.236 34.7524 169.865 35.1224 169.409 35.1224Z" fill="url(#paint20_linear_34790_7479)"/>
<path d="M169.409 38.552H30.528C30.0712 38.552 29.7012 38.182 29.7012 37.7252C29.7012 37.2684 30.0712 36.8984 30.528 36.8984H169.409C169.866 36.8984 170.236 37.2684 170.236 37.7252C170.236 38.182 169.865 38.552 169.409 38.552Z" fill="url(#paint21_linear_34790_7479)"/>
<path d="M169.409 41.9739H30.528C30.0712 41.9739 29.7012 41.6039 29.7012 41.1471C29.7012 40.6903 30.0712 40.3203 30.528 40.3203H169.409C169.866 40.3203 170.236 40.6903 170.236 41.1471C170.236 41.6039 169.865 41.9739 169.409 41.9739Z" fill="url(#paint22_linear_34790_7479)"/>
<path d="M169.409 45.4036H30.528C30.0712 45.4036 29.7012 45.0336 29.7012 44.5768C29.7012 44.12 30.0712 43.75 30.528 43.75H169.409C169.866 43.75 170.236 44.12 170.236 44.5768C170.236 45.0336 169.865 45.4036 169.409 45.4036Z" fill="url(#paint23_linear_34790_7479)"/>
<path d="M169.409 48.8255H30.528C30.0712 48.8255 29.7012 48.4555 29.7012 47.9987C29.7012 47.5419 30.0712 47.1719 30.528 47.1719H169.409C169.866 47.1719 170.236 47.5419 170.236 47.9987C170.236 48.4555 169.865 48.8255 169.409 48.8255Z" fill="url(#paint24_linear_34790_7479)"/>
<path d="M169.409 52.2552H30.528C30.0712 52.2552 29.7012 51.8852 29.7012 51.4284C29.7012 50.9716 30.0712 50.6016 30.528 50.6016H169.409C169.866 50.6016 170.236 50.9716 170.236 51.4284C170.236 51.8852 169.865 52.2552 169.409 52.2552Z" fill="url(#paint25_linear_34790_7479)"/>
<path d="M169.409 55.677H30.528C30.0712 55.677 29.7012 55.307 29.7012 54.8502C29.7012 54.3934 30.0712 54.0234 30.528 54.0234H169.409C169.866 54.0234 170.236 54.3934 170.236 54.8502C170.236 55.307 169.865 55.677 169.409 55.677Z" fill="url(#paint26_linear_34790_7479)"/>
<path d="M169.409 59.1067H30.528C30.0712 59.1067 29.7012 58.7367 29.7012 58.2799C29.7012 57.8231 30.0712 57.4531 30.528 57.4531H169.409C169.866 57.4531 170.236 57.8231 170.236 58.2799C170.236 58.7367 169.865 59.1067 169.409 59.1067Z" fill="url(#paint27_linear_34790_7479)"/>
<path d="M169.265 3.30779H30.6682C30.1332 3.30779 29.6992 2.87383 29.6992 2.33881V0.968984C29.6992 0.433959 30.1326 0 30.6682 0H169.265C169.8 0 170.234 0.433959 170.234 0.968984V2.33881C170.234 2.8744 169.8 3.30779 169.265 3.30779Z" fill="url(#paint28_linear_34790_7479)"/>
<path d="M160.397 3.3125H159.445V65.4793H160.397V3.3125Z" fill="url(#paint29_linear_34790_7479)"/>
<path d="M160.341 69.1132H159.501C159.135 69.1132 158.838 68.8163 158.838 68.4497V65.2807C158.838 64.9141 159.135 64.6172 159.501 64.6172H160.341C160.708 64.6172 161.005 64.9141 161.005 65.2807V68.4497C161.005 68.8163 160.708 69.1132 160.341 69.1132Z" fill="url(#paint30_linear_34790_7479)"/>
<path d="M43.171 172.384C42.946 171.14 42.9763 169.868 43.2898 168.642C44.3393 164.541 45.5406 156.826 42.8712 148.491C38.4186 134.588 20.3711 122.273 20.3711 122.273C20.3711 122.273 25.2697 142.792 29.2969 151.528C32.2456 157.924 37.4039 165.203 40.2663 169.036C41.0606 170.099 41.6048 171.325 41.8412 172.631C44.759 188.776 44.3364 201.275 44.329 201.469L45.6834 201.522C45.6908 201.327 46.1202 188.7 43.171 172.384Z" fill="url(#paint31_linear_34790_7479)"/>
<path d="M57.5598 159.311C61.1445 147.977 62.8118 134.625 62.8118 134.625C62.8118 134.625 46.6303 147.977 45.3039 158.308C44.4914 164.636 45.5015 169.712 46.4071 172.699C46.7913 173.967 46.9312 175.293 46.7891 176.61C45.1509 191.814 46.4339 203.466 46.4544 203.644L47.6724 203.504C47.6524 203.333 46.4619 192.491 47.8642 178.125C48.0567 176.158 48.8492 174.298 50.094 172.762C52.4094 169.905 55.7206 165.125 57.5598 159.311Z" fill="url(#paint32_linear_34790_7479)"/>
<path d="M74.0098 134.102C74.0098 134.102 56.5721 140.573 52.0133 154.81C49.2382 163.475 50.5492 171.485 51.6336 175.634C51.9379 176.798 51.9214 178.013 51.6301 179.181C47.5452 195.564 47.4824 212.525 47.4824 212.75H48.8711C48.8711 212.529 48.9345 195.973 52.8789 179.905C53.2706 178.309 53.9667 176.809 54.9465 175.489C57.9202 171.484 62.9816 164.277 65.9119 157.919C70.0362 148.973 74.0098 134.102 74.0098 134.102Z" fill="url(#paint33_linear_34790_7479)"/>
<path d="M43.2429 194.169C42.8089 188.209 41.1844 182.844 39.2162 178.342C38.8222 177.441 38.6829 176.455 38.8091 175.479C39.0529 173.599 39.1534 170.679 38.402 166.969C36.987 159.983 27.7157 144.892 14.291 144.008C14.291 144.008 18.9229 151.454 21.3063 157.684C24.3217 165.567 28.6259 173.812 35.7639 176.977C37.019 177.533 38.0023 178.575 38.5259 179.844C40.2463 184.015 41.6281 188.887 42.0192 194.257L43.2429 194.169Z" fill="url(#paint34_linear_34790_7479)"/>
<path d="M37.2574 224.738H54.1589L58.7371 184.841C58.8314 184.019 58.1878 183.297 57.3599 183.297H34.0563C33.2278 183.297 32.5849 184.019 32.6791 184.841L37.2574 224.738Z" fill="url(#paint35_linear_34790_7479)"/>
<path d="M127.97 216.131L123.689 219.061L119.746 217.223C119.006 208.488 115.256 196.957 115.831 182.04C116.069 175.865 117.748 171.93 118.654 169.654C118.033 166.999 113.115 157.637 111.372 154.306C110.724 153.074 110.067 151.778 109.41 150.428C107.785 147.079 106.134 143.42 104.546 139.651C100.987 131.302 97.6386 122.424 95.0742 115.133H120.496C120.496 115.133 131.811 150.939 133.663 162.911C133.663 162.911 127.459 214.634 127.97 216.131Z" fill="url(#paint36_linear_34790_7479)"/>
<path opacity="0.5" d="M109.409 150.431C107.784 147.082 106.133 143.423 104.545 139.655L108.244 129.562L109.409 150.431Z" fill="url(#paint37_linear_34790_7479)"/>
<path d="M82.6045 115.141C77.7379 126.302 87.1713 160.287 86.8516 163.683C85.0992 165.781 82.2568 168.522 74.0995 180.06C65.9576 191.608 64.8168 199.084 61.4051 204.962C60.8689 205.966 60.5417 206.62 59.7852 207.523L61.8293 212.451L65.0223 212.139C68.7041 209.353 82.1557 195.192 92.489 183.18C99.2788 175.287 104.722 168.322 105.163 166.12C108.799 147.995 108.155 115.141 108.155 115.141H82.6045V115.141Z" fill="url(#paint38_linear_34790_7479)"/>
<path d="M142.095 224.742H118.943C117.141 221.966 118.996 219.207 119.748 217.221C119.748 217.221 124.057 218.548 127.966 216.125C129.729 217.129 132.696 218.394 134.183 219.291C135.938 220.349 140.155 221.714 141.512 222.112C142.516 222.412 143.03 223.937 142.095 224.742Z" fill="url(#paint39_linear_34790_7479)"/>
<path d="M62.9466 225.11C61.076 223.15 54.4376 214.043 53.3516 212.444C53.4081 210.884 54.9858 209.286 57.4479 208.234C58.2153 207.906 59.0079 207.691 59.7833 207.516C61.1976 210.054 65.0205 212.132 65.0205 212.132C65.4938 214.046 65.9518 217.874 66.3303 219.882C68.6115 221.004 73.453 222.553 71.2729 225.072C69.6004 225.225 65.3037 225.262 62.9466 225.11Z" fill="url(#paint40_linear_34790_7479)"/>
<path d="M137.074 74.2656L124.145 76.6866C124.145 76.6866 133.994 87.4385 139.876 91.9694L145.607 85.7541C141.787 80.208 137.074 74.2656 137.074 74.2656Z" fill="url(#paint41_linear_34790_7479)"/>
<path d="M168.267 93.7911C168.824 94.245 168.908 94.6681 169.795 95.4247C170.147 95.7256 171.413 96.8077 172.305 95.5475C172.781 95.5498 173.793 95.6023 174.205 94.5814C174.606 94.5517 175.664 94.6048 176.033 93.7231C176.848 93.4256 177.384 92.3065 178.023 91.9645C179.468 91.0703 180.247 90.0328 179.664 89.3133C179.081 88.5939 174.985 88.8565 173.998 88.5151C173.01 88.173 169.161 88.3346 168.056 88.6253C166.95 88.9159 148.767 83.2825 144.092 83.5988L139.209 91.3215C139.516 91.7304 139.738 91.892 140.052 92.0867C147.998 95.0713 167.267 94.45 168.267 93.7911Z" fill="url(#paint42_linear_34790_7479)"/>
<path d="M139.623 76.9137C139.623 76.9137 135.321 82.6277 130.096 84.7997C129.631 84.999 129.155 85.168 128.672 85.3005L122.173 79.357L121.322 78.5787L125.154 60.5078C125.154 60.5078 130.011 62.8615 139.623 76.9137Z" fill="url(#paint43_linear_34790_7479)"/>
<path opacity="0.4" d="M130.096 84.799C129.632 84.9983 129.155 85.1673 128.672 85.2998L122.174 79.3563L122.264 79.0245L123.018 77.3047L125.078 77.3053C125.078 77.3053 126.586 80.2733 130.096 84.799Z" fill="url(#paint44_linear_34790_7479)"/>
<path d="M107.656 55.0896C107.656 55.0896 96.0683 56.4566 92.7753 60.5215C85.7995 69.131 87.1807 87.4931 84.8511 97.5838C82.5214 107.674 80.1746 114.026 82.6053 115.135C92.9301 119.848 119.729 119.357 121.007 115.132C121.465 110.257 120.989 104.903 124.145 85.3028C125.488 76.9668 130.158 64.6881 126.123 61.2547C125.19 60.4598 122.033 58.2227 118.568 56.7718C115.006 55.2809 111.102 54.5928 107.656 55.0896Z" fill="url(#paint45_linear_34790_7479)"/>
<path d="M118.567 56.7624C114.676 58.8528 106.909 56.2833 107.656 55.0802C107.991 54.5343 108.738 52.3531 109.052 51.3567C109.79 48.9882 109.872 46.8607 110.319 44.1719L118.764 46.5569C118.507 48.5948 118.32 50.0891 118.256 51.4492C118.171 52.8345 118.209 54.0752 118.401 55.6244C118.43 55.8927 118.521 56.474 118.567 56.7624Z" fill="url(#paint46_linear_34790_7479)"/>
<path d="M118.399 55.6238C114.588 54.447 112.652 50.3957 112.652 50.3957L116.053 50.1953L118.253 51.4487C118.169 52.8339 118.207 54.0752 118.399 55.6238Z" fill="#EF8F73"/>
<path d="M126.783 34.4844C127.439 35.0731 128.169 36.0032 127.787 38.8337C127.484 41.0748 126.743 43.1732 123.684 44.6607C122.939 45.0227 122.119 39.3384 121.971 38.5242" fill="url(#paint47_linear_34790_7479)"/>
<path d="M126.878 37.6015C127.152 34.674 125.423 34.2531 122.743 32.877C119.875 31.4044 116.207 31.3959 113.287 32.7286C108.567 34.8841 107.448 41.0297 109.361 45.8535C111.274 50.6773 113.216 51.8005 114.528 52.5867C116.874 53.9925 121.561 54.9312 122.841 53.7179C125.139 51.5407 126.551 41.088 126.878 37.6015Z" fill="url(#paint48_linear_34790_7479)"/>
<path d="M114.086 29.0619C113.301 29.5644 112.501 30.2582 112.028 31.061C110.502 30.5477 108.203 31.8895 107.452 33.313C104.095 39.6756 108.027 46.8091 109.774 48.0213C109.839 47.5645 109.909 47.2762 109.946 47.1397C110.186 46.2735 110.582 43.5636 110.822 43.1707C111.062 42.7779 114.219 37.1792 114.219 37.1792C115.483 37.6697 120.855 38.4851 122.221 38.5268C123.903 38.5782 125.701 38.8066 127.311 38.1374C129.789 37.1067 131.791 32.2053 127.567 32.0534C128.284 30.5071 127.306 28.6383 125.631 28.8352C124.349 28.986 122.595 29.8402 120.616 29.6649C121.407 26.6483 115.117 28.4013 114.086 29.0619Z" fill="url(#paint49_linear_34790_7479)"/>
<path d="M112.773 46.7329C112.362 47.5289 111.149 47.6174 110.323 47.2725C109.496 46.9276 108.915 46.1071 108.76 45.2249C108.604 44.3433 108.668 43.2972 109.191 42.5703C109.802 41.7207 110.694 42.0016 111.002 42.2055C111.309 42.4099 111.541 42.7068 111.767 42.9986C111.767 42.9986 113.651 45.0302 112.773 46.7329Z" fill="url(#paint50_linear_34790_7479)"/>
<path d="M117.37 37.3556C117.37 37.3556 116.993 40.2974 115.494 41.2658C114.684 41.7894 113.877 41.714 113.751 42.132C113.625 42.5494 113.245 44.4474 113.245 44.4474L111.968 44.3264C111.968 44.3264 111.959 43.1261 111.258 42.4061C110.556 41.6861 110.864 37.5332 110.864 37.5332C110.864 37.5332 112.02 36.2108 112.303 35.951C112.586 35.6912 113.572 35.1259 114.031 35.0265C114.491 34.9266 115.537 34.7679 115.704 34.8124C115.872 34.8569 117.37 37.3556 117.37 37.3556Z" fill="url(#paint51_linear_34790_7479)"/>
<path d="M132.023 217.586C132.023 217.586 130.882 218.743 130.426 220.173C129.723 222.377 130.234 224.741 130.234 224.741H148.984C148.984 224.741 150.421 223.061 148.84 222.041C147.185 220.975 139.753 219.374 139.753 219.374C139.753 219.374 134.994 220.317 132.023 217.586Z" fill="url(#paint52_linear_34790_7479)"/>
<path d="M174.211 217.586C174.211 217.586 173.069 218.743 172.613 220.173C171.911 222.377 172.422 224.741 172.422 224.741H191.171C191.171 224.741 192.609 223.061 191.028 222.041C189.372 220.975 181.182 218.288 181.182 218.288C181.182 218.288 177.181 220.317 174.211 217.586Z" fill="url(#paint53_linear_34790_7479)"/>
<path d="M195.396 131.63C195.396 131.63 196.578 132.62 196.865 133.547C197.153 134.473 197.767 136.055 197.767 136.055L203.03 131.631L196.865 129.867L195.747 129.555L195.396 131.63Z" fill="url(#paint54_linear_34790_7479)"/>
<path d="M181.726 101.664L185.398 110.672C185.398 110.672 196.706 126.661 198.335 128.098L195.398 131.625C195.398 131.625 180.062 121.5 176.239 115.91C173.652 112.128 172.672 108.595 172.672 108.595" fill="url(#paint55_linear_34790_7479)"/>
<path d="M180.063 166.106L164.294 172.247C163.742 171.526 162.492 169.824 160.791 167.256H160.783C158.936 164.466 156.552 160.655 153.968 155.987C151.791 152.062 149.476 147.531 147.207 142.495C144.501 136.484 141.541 126.71 142.991 120.969C144.394 115.488 152.98 114.797 155.9 114.813C157.234 114.835 178.783 156.155 180.063 166.106Z" fill="url(#paint56_linear_34790_7479)"/>
<path opacity="0.5" d="M160.79 167.257H160.783C158.935 164.466 156.551 160.656 153.967 155.987L153.385 143.758C153.385 143.758 159.878 164.964 160.79 167.257Z" fill="url(#paint57_linear_34790_7479)"/>
<path d="M173.006 219.246C175.193 219.764 179.328 219.303 181.184 218.288C181.22 201.131 180.136 166.941 180.063 166.109L164.596 171.397C159.867 182.949 171.823 216.234 173.006 219.246Z" fill="url(#paint58_linear_34790_7479)"/>
<path d="M141.396 176.107C132.134 192.817 132.485 211.859 132.023 217.583C134.173 219.854 138.316 219.723 139.754 219.372C140.204 219.262 158.615 181.983 157.9 171.922L143.765 172.242L141.396 176.107Z" fill="url(#paint59_linear_34790_7479)"/>
<path d="M147.596 119.352L132.949 121.87C127.277 131.156 125.495 141.755 128.877 149.443C129.768 151.469 137.295 167.468 142.199 174.774L157.921 173.026C159.218 164.838 147.596 119.352 147.596 119.352Z" fill="url(#paint60_linear_34790_7479)"/>
<path d="M184.113 107.146C182.112 109.247 177.151 111.217 173.51 112.374C173.112 112.504 172.729 112.62 172.368 112.727C171.854 112.045 170.199 109.461 169.056 107.652C168.466 106.717 168.014 105.996 167.922 105.842L178.624 93.0938C178.624 93.0938 181.828 100.254 184.113 107.146Z" fill="url(#paint61_linear_34790_7479)"/>
<path opacity="0.5" d="M173.508 112.377C173.11 112.507 172.727 112.622 172.366 112.73C171.853 112.047 170.197 109.464 169.055 107.655L171.469 107.156C171.469 107.156 172.22 109.747 173.508 112.377Z" fill="url(#paint62_linear_34790_7479)"/>
<path d="M168.433 115.622C165.712 127.444 164.524 128.225 163.933 129.23C163.19 130.487 156.582 130.955 148.026 130.732C142.944 130.602 132.196 127.398 131.176 125.266C130.762 124.4 131.483 115.63 135.224 103.663C135.592 102.475 135.991 101.256 136.428 100.006C136.589 99.5385 136.772 99.0401 136.98 98.5267C139.303 92.6392 144.071 84.3289 147.934 81.6994C149.582 80.5723 153.592 80.2046 158.552 80.2737C162.83 80.3348 167.368 81.6075 169.499 82.5891C174.329 85.0729 176.835 88.9443 178.806 93.5745C179.334 94.6788 170.932 104.791 168.433 115.622Z" fill="url(#paint63_linear_34790_7479)"/>
<path d="M159.877 80.3288C159.877 80.3288 165.708 85.7733 169.499 82.5888L172.6 75.0248L164.778 69.9572L164.076 69.0156C164.076 69.0156 163.924 70.5853 163.678 72.8773C163.532 74.1763 163.439 75.7111 163.177 77.3059C162.858 79.2576 159.877 80.3288 159.877 80.3288Z" fill="url(#paint64_linear_34790_7479)"/>
<path d="M181.331 68.7049C181.331 68.7049 181.52 72.1377 178.5 73.5932L179.047 68.2578L181.331 68.7049Z" fill="url(#paint65_linear_34790_7479)"/>
<path d="M164.595 76.1869C164.837 76.8481 165.123 77.4967 165.441 78.1237C165.441 78.1237 165.441 78.1237 165.444 78.1351C165.976 79.1635 166.628 80.1439 167.388 81.0323C168.368 82.1738 169.328 82.9549 170.238 83.4825C170.716 83.7823 171.168 83.9918 171.606 84.1568C173.643 84.9043 175.08 84.4361 175.08 84.4361C177.83 82.0716 179.05 77.3471 179.582 73.6539C179.805 72.1613 179.907 70.8383 179.965 69.9065C180.011 69.0631 180.008 68.5515 180.008 68.5515C180.01 68.5144 180.014 68.4887 180.015 68.4516C180.432 63.6084 174.316 61.7578 169.366 63.191C169.073 63.2766 168.795 63.3697 168.513 63.4885C167.104 64.0098 165.831 64.8326 164.899 65.9466C163.308 67.8509 163.238 70.4946 163.678 72.8796C163.703 73.0064 163.728 73.1337 163.753 73.2605C163.968 74.3323 164.286 75.3378 164.595 76.1869Z" fill="url(#paint66_linear_34790_7479)"/>
<path d="M170.63 58.0364C175.403 56.6563 180.58 59.9767 183.537 62.163C185.815 63.8469 184.142 69.0635 180.523 69.8212C176.661 70.6292 173.861 69.4524 171.927 67.9135C171.767 68.7101 171.471 69.5683 170.919 70.0833C170.445 70.5258 169.318 70.8776 168.693 71.0477C168.565 71.8711 168.428 72.6203 168.283 73.181L167.322 73.4065C167.234 73.0731 167.153 72.6414 167.068 72.079C167.068 72.079 166.823 69.916 165.354 69.7025C164.896 69.6362 164.068 69.8515 163.799 70.6423C163.529 71.4343 163.816 72.8024 163.658 73.8907C163.47 75.1715 163.333 76.4614 163.18 77.3002C163.18 77.3002 160.575 74.1003 161.279 66.8777C161.743 62.0557 163.802 59.8094 166.48 59.8705C168.922 59.9253 168.641 58.6114 170.63 58.0364Z" fill="url(#paint67_linear_34790_7479)"/>
<path d="M132.312 85.2969L137.918 95.6942L129.967 98.6605L130.849 118.774C130.849 118.774 131.428 119.768 132.31 120.636C132.808 121.125 133.776 121.73 134.396 122.517C134.724 122.933 135.814 125.031 135.779 125.285C135.743 125.539 135.47 126.012 134.634 125.507C133.798 125.002 132.301 123.433 132.301 123.433C132.301 123.433 132.254 124.872 132.229 125.865C132.227 125.978 133.088 127.687 133.11 128.77C133.132 129.762 132.724 129.717 132.724 129.717C132.724 129.717 132.992 130.242 132.826 130.527C132.691 130.761 132.084 130.959 131.554 130.212C131.554 130.212 131.291 130.236 131.054 130.18C130.701 130.097 130.438 129.755 130.438 129.755C130.438 129.755 130.157 129.949 129.742 129.679C128.62 128.947 127.937 127.747 127.937 127.747C127.46 127.084 126.643 125.564 126.357 124.685C125.978 123.521 126.322 121.145 126.254 120.159C124.603 115.169 118.479 103.137 120.578 95.9911C122.349 89.9534 132.312 85.2969 132.312 85.2969Z" fill="url(#paint68_linear_34790_7479)"/>
<path opacity="0.5" d="M147.038 96.1413C147.038 96.1413 140.177 101.684 135.225 103.669C135.593 102.481 135.991 101.262 136.428 100.013C136.589 99.545 136.773 99.0465 136.98 98.5332L141.956 95.375L147.038 96.1413Z" fill="url(#paint69_linear_34790_7479)"/>
<path d="M129.456 86.2892C129.456 86.2892 128.863 88.9472 131.102 94.4247C131.983 96.578 135.235 100.68 135.235 100.68C137.131 100.306 142.949 98.6678 149.538 94.7388C154.912 91.5349 154.954 86.3514 154.954 86.3514C154.954 86.3514 154.592 80.6763 151.683 80.5872C145.553 80.4005 135.41 83.123 129.456 86.2892Z" fill="url(#paint70_linear_34790_7479)"/>
<path d="M167.32 73.405C167.32 73.405 166.525 78.5828 166.902 80.4306C167.279 82.2783 170.14 84.0553 172.248 84.5772C174.357 85.0996 176.09 84.7878 177.112 82.5524C178.134 80.3164 178.397 78.8655 178.397 78.8655C178.397 78.8655 176.566 78.0124 174.021 77.6652C171.739 77.3535 169.908 75.9163 169.493 75.5331C169.078 75.15 168.982 71.8491 168.894 70.9286C168.806 70.0082 167.47 72.7621 167.32 73.405Z" fill="url(#paint71_linear_34790_7479)"/>
<path d="M214.654 225.203L207.889 138.88C207.677 136.199 205.32 134.199 202.648 134.401C201.247 134.512 199.982 135.203 199.128 136.338C198.384 137.325 198.086 138.578 198.183 139.81L198.27 140.927C198.326 141.638 197.795 142.258 197.085 142.314C196.374 142.37 195.753 141.839 195.697 141.129L195.614 140.067C195.46 138.099 195.989 136.106 197.232 134.572C198.533 132.966 200.393 131.989 202.445 131.828C206.55 131.502 210.138 134.579 210.46 138.677L217.226 225L214.654 225.203Z" fill="url(#paint72_linear_34790_7479)"/>
<path d="M198.335 128.102C198.335 128.102 198.879 128.626 199.773 128.914C200.667 129.201 201.229 129.562 202.475 129.817C203.214 129.969 203.084 129.768 204.008 130.948C204.643 131.759 205.204 131.95 205.158 132.202C205.071 132.692 204.471 132.942 203.353 132.495C202.235 132.048 202.424 131.917 202.009 131.853C202.009 131.853 199.293 132.268 198.335 132.332C197.377 132.396 195.365 130.791 195.365 130.791L198.335 128.102Z" fill="url(#paint73_linear_34790_7479)"/>
<path d="M200.103 136.216C200.103 136.216 199.873 136.199 199.672 136.169C199.533 135.981 199.405 135.815 199.238 135.605C199.238 135.605 198.681 135.038 198.306 135.251C198.081 135.378 198.278 135.916 198.657 136.496C199.005 137.028 199.606 136.918 199.73 136.865C200.103 136.705 200.103 136.216 200.103 136.216Z" fill="url(#paint74_linear_34790_7479)"/>
<path d="M201.235 135.523C201.235 135.523 200.937 135.502 200.676 135.463C200.496 135.22 200.33 135.004 200.113 134.733C200.113 134.733 199.392 133.998 198.905 134.272C198.613 134.437 198.869 135.135 199.36 135.887C199.811 136.576 200.59 136.434 200.751 136.365C201.235 136.157 201.235 135.523 201.235 135.523Z" fill="url(#paint75_linear_34790_7479)"/>
<path d="M202.36 134.867C202.36 134.867 202.063 134.846 201.802 134.807C201.621 134.563 201.455 134.348 201.238 134.076C201.238 134.076 200.516 133.341 200.029 133.616C199.738 133.781 199.993 134.478 200.485 135.23C200.936 135.92 201.715 135.777 201.876 135.708C202.36 135.501 202.36 134.867 202.36 134.867Z" fill="url(#paint76_linear_34790_7479)"/>
<path d="M203.514 134.414C203.514 134.414 203.216 134.393 202.955 134.354C202.775 134.11 202.609 133.895 202.392 133.623C202.392 133.623 201.671 132.888 201.184 133.163C200.892 133.327 201.148 134.025 201.639 134.777C202.09 135.467 202.869 135.324 203.03 135.255C203.514 135.048 203.514 134.414 203.514 134.414Z" fill="url(#paint77_linear_34790_7479)"/>
<path d="M180.266 160.211C181.449 161 182.48 161.919 182.516 162.368C182.604 163.461 181.379 164.031 181.376 164.602C181.371 165.57 182.936 165.772 183.239 166.691C183.583 167.731 182.068 168.642 182.266 169.719C182.431 170.613 183.686 171.015 183.781 171.919C183.883 172.88 182.622 174.176 182.028 175.006" stroke="#BFBFBF" stroke-width="1.0567" stroke-miterlimit="10" stroke-linecap="round"/>
<path d="M201.279 126.759C201.65 126.676 202.028 126.628 202.408 126.618C202.79 126.609 203.205 126.65 203.487 126.908C203.839 127.231 203.868 127.784 204.166 128.158C204.472 128.541 204.996 128.662 205.482 128.721C205.969 128.78 206.484 128.81 206.892 129.081C207.257 129.323 207.49 129.75 207.497 130.188C207.503 130.565 207.354 130.959 207.495 131.309C207.591 131.549 207.808 131.717 208.027 131.855C208.314 132.035 208.622 132.182 208.943 132.291C209.361 132.433 209.82 132.524 210.141 132.826C210.415 133.083 210.547 133.462 210.577 133.836C210.607 134.21 210.545 134.584 210.484 134.954" stroke="#BFBFBF" stroke-width="1.0567" stroke-miterlimit="10" stroke-linecap="round"/>
<path d="M147.027 79.1717C147.223 78.9359 147.421 78.6977 147.669 78.5173C147.916 78.3369 148.222 78.2175 148.526 78.2524C148.865 78.2912 149.15 78.5093 149.442 78.6852C149.734 78.8611 150.092 79.0032 150.408 78.877C150.887 78.6863 151.008 77.9949 151.487 77.8041C151.877 77.6483 152.302 77.8995 152.645 78.1433C152.988 78.3871 153.404 78.6469 153.801 78.5082C154.325 78.3249 154.495 77.5426 155.043 77.453C155.343 77.4044 155.627 77.5946 155.857 77.7944C156.13 78.0325 156.38 78.2975 156.602 78.5847" stroke="#BFBFBF" stroke-width="1.0567" stroke-miterlimit="10" stroke-linecap="round"/>
<path d="M135.409 182.398C135.046 182.639 134.676 182.887 134.41 183.232C134.143 183.576 133.992 184.041 134.128 184.455C134.345 185.115 135.199 185.464 135.274 186.154C135.346 186.817 134.66 187.29 134.049 187.557C133.438 187.824 132.717 188.151 132.598 188.807C132.46 189.563 133.206 190.143 133.732 190.704C133.901 190.885 134.062 191.103 134.055 191.35C134.051 191.486 133.994 191.617 133.919 191.73C133.411 192.498 132.122 192.565 131.818 193.434C131.672 193.85 131.826 194.325 132.102 194.67C132.378 195.015 132.76 195.256 133.135 195.49" stroke="#BFBFBF" stroke-width="1.0567" stroke-miterlimit="10" stroke-linecap="round"/>
<path d="M173.321 113.828C172.976 114.49 172.645 115.349 173.118 115.926C173.657 116.584 174.892 116.378 175.301 117.123C175.694 117.838 174.947 118.771 175.28 119.515C175.558 120.134 176.382 120.231 177.06 120.222C177.739 120.212 178.554 120.26 178.889 120.85C179.188 121.376 178.929 122.078 179.197 122.621C179.402 123.037 179.881 123.26 180.344 123.288C180.807 123.316 181.262 123.183 181.707 123.05" stroke="#BFBFBF" stroke-width="1.0567" stroke-miterlimit="10" stroke-linecap="round"/>
<path d="M183.801 164.914C184.469 165.565 185.196 166.398 184.985 167.307C184.807 168.072 183.986 168.655 184.07 169.436C184.183 170.492 185.834 170.859 185.913 171.917C185.931 172.164 185.854 172.407 185.759 172.636C185.537 173.168 185.21 173.657 184.802 174.065" stroke="#BFBFBF" stroke-width="1.0567" stroke-miterlimit="10" stroke-linecap="round"/>
<path d="M166.986 206.867C166.222 207.551 166.046 208.638 166.255 208.961C166.45 209.26 166.797 209.328 167.106 209.406C167.415 209.483 167.764 209.643 167.861 210.002C167.968 210.395 167.713 210.775 167.485 211.077C167.258 211.379 167.026 211.794 167.176 212.167C167.416 212.764 168.289 212.49 168.614 213.028C168.863 213.439 168.613 213.992 168.37 214.395C168.128 214.799 167.794 215.354 168.149 215.762C168.339 215.98 168.952 216.266 169.93 216.418" stroke="#BFBFBF" stroke-width="1.0567" stroke-miterlimit="10" stroke-linecap="round"/>
<path d="M177.735 90.3959C177.112 91.0783 176.033 91.9919 175.578 92.7764C175.153 93.5067 175.43 94.112 175.783 94.1685C174.827 95.2917 175.272 96.3086 175.711 96.3566C175.98 96.3206 176.358 95.954 176.515 95.7827C175.853 96.7671 176.597 97.7527 177.045 97.5734C177.255 97.4894 178.06 96.8927 178.265 96.6923C178.248 96.7232 177.793 97.3158 177.747 97.707C177.652 98.5326 178.168 98.5463 178.724 98.2329C179.793 97.6305 180.456 96.3697 180.456 96.3697C181.065 94.8828 179.954 92.3562 179.708 91.9005C178.935 90.3782 178.027 90.0762 177.735 90.3959Z" fill="url(#paint78_linear_34790_7479)"/>
<path opacity="0.4" d="M104.653 91.2953L98.7053 83.5983L96.628 83.6731C94.6849 76.4585 92.2227 68.0289 90.9403 66.4609C90.9403 66.4609 89.6367 74.3727 92.615 83.6594L93.3025 83.6799C93.3025 83.6799 96.1409 92.6948 98.1023 96.1437C100.063 99.5925 112.654 101.378 112.654 101.378L104.653 91.2953Z" fill="url(#paint79_linear_34790_7479)"/>
<path d="M108.495 90.2031L99.9688 95.7355C102.739 98.9868 116.848 102.589 124.407 104.809L127.729 100.688C122.049 97.6192 111.7 91.5067 108.495 90.2031Z" fill="url(#paint80_linear_34790_7479)"/>
<path d="M130.657 106.305C131.221 106.161 131.75 105.536 131.616 104.884C132.024 104.771 132.861 104.174 132.401 103.324C133.03 102.561 132.829 102.024 132.346 101.588C132.216 101.471 131.997 101.303 131.737 101.118C132.024 100.926 132.287 100.728 132.422 100.571C132.814 100.113 132.939 99.0551 132.556 98.8365C132.174 98.6172 131.181 99.3778 130.599 99.4366C130.017 99.4954 128.801 99.9739 128.801 99.9739L128.801 99.9744C127.837 100.21 126.274 100.876 125.449 101.237L124.408 104.799C125.414 105.531 127.618 106.692 129.033 106.923C129.898 107.064 130.335 106.868 130.657 106.305Z" fill="url(#paint81_linear_34790_7479)"/>
<path d="M105.534 74.0625L93.9473 77.9196C93.9473 77.9196 96.2261 87.6505 99.969 95.7341L109.735 93.2668C107.788 86.4686 105.534 74.0625 105.534 74.0625Z" fill="url(#paint82_linear_34790_7479)"/>
<path d="M107.603 78.2594C103.821 80.275 99.2175 81.2617 93.3762 81.3811C88.0956 66.0635 92.1291 59.9287 95.6259 58.8158C97.0837 58.3522 99.0199 58.5612 100.108 59.1493C101.774 60.056 102.964 61.431 103.675 63.1959C106.073 69.1571 107.402 77.4577 107.603 78.2594Z" fill="url(#paint83_linear_34790_7479)"/>
<path opacity="0.39" d="M209.042 18.3516C196.044 18.3516 185.506 28.8893 185.506 41.8881C185.506 48.281 188.058 54.0749 192.195 58.3162L189.413 64.5041L194.919 60.7161C198.853 63.6722 203.742 65.4246 209.042 65.4246C222.041 65.4246 232.579 54.8868 232.579 41.8881C232.579 28.8887 222.041 18.3516 209.042 18.3516Z" fill="url(#paint84_linear_34790_7479)"/>
<path d="M224.068 41.676C224.068 40.0624 223.25 38.6377 222.009 37.7966C222.289 37.4763 222.467 37.0583 222.467 36.601C222.467 35.6857 221.786 34.936 220.904 34.8155C220.956 34.6436 220.996 34.4666 220.996 34.2776C220.996 33.2761 220.183 32.4698 219.182 32.4698C219.159 32.4698 219.137 32.4755 219.114 32.4755C218.639 31.4397 217.598 30.7191 216.379 30.7191C215.972 30.7191 215.578 30.7991 215.223 30.9538C215.063 30.0728 214.296 29.4093 213.375 29.4093C212.814 29.4093 212.316 29.6554 211.973 30.0442C211.595 29.2602 210.806 28.7109 209.873 28.7109C209.021 28.7109 208.283 29.1746 207.877 29.8552C207.488 29.4315 206.938 29.1626 206.314 29.1626C205.25 29.1626 204.38 29.9466 204.22 30.9647C203.803 30.8099 203.351 30.7186 202.876 30.7186C201.325 30.7186 199.992 31.6396 199.385 32.9672C199.071 32.8358 198.705 32.801 198.321 32.9158C197.846 33.0591 197.457 33.4365 197.308 33.9116C197.217 34.1919 197.211 34.4666 197.262 34.7184C195.895 35.3077 194.939 36.6638 194.939 38.2489C194.939 40.3661 196.65 42.0826 198.767 42.094C198.676 42.283 198.63 42.4828 198.63 42.6775C198.63 43.2611 199.025 43.8161 199.638 43.9823C200.295 44.1655 200.937 44.2569 201.497 44.2969C202.31 44.354 202.916 45.0009 203.036 45.8072C203.076 46.0875 203.191 46.385 203.408 46.6768C204.3 47.8439 207.093 47.4145 208.323 48.6393C209.547 49.8692 209.713 50.3272 209.874 51.4657C209.994 52.284 209.296 53.8919 208.901 54.9962C208.73 55.4713 209.09 55.9692 209.594 55.9692C209.942 55.9692 210.24 55.7231 210.309 55.3799C210.44 54.7393 210.756 53.6978 211.482 52.891C211.717 52.6277 212.111 52.6848 212.792 52.4159C213.347 52.1983 213.954 52.2098 214.537 52.3188C214.921 52.3931 215.327 52.3873 215.744 52.3017C216.711 52.0956 217.478 51.4263 217.862 50.5168C218.119 49.9046 218.148 49.3211 218.045 48.7832C218.434 48.9437 218.869 49.0293 219.321 49.0065C220.213 48.9665 221.026 48.4629 221.564 47.7474C222.193 46.9063 222.268 46.1452 222.142 45.4589C223.307 44.6058 224.068 43.232 224.068 41.676ZM203.018 37.156C202.904 37.1274 202.79 37.076 202.658 37.0532C202.533 37.0361 202.401 37.0132 202.264 36.9904C202.126 36.9904 201.983 36.9733 201.846 36.9847C201.703 37.0018 201.56 37.0075 201.428 37.0532C201.286 37.0703 201.154 37.1274 201.017 37.1794C200.891 37.2365 200.759 37.2936 200.639 37.3684C200.393 37.5054 200.175 37.6716 199.987 37.8149C199.615 38.1124 199.369 38.3528 199.369 38.3528C199.369 38.3528 199.432 38.0096 199.718 37.5745C199.867 37.3627 200.061 37.1223 200.325 36.911C200.462 36.814 200.605 36.7106 200.765 36.6307C200.903 36.5736 201.046 36.5108 201.194 36.4702C201.171 36.3789 201.154 36.2698 201.097 36.1442C201.046 35.9723 200.954 35.7839 200.84 35.5892C200.714 35.4059 200.565 35.2175 200.365 35.0741C199.981 34.7709 199.472 34.6333 199.088 34.6048C198.705 34.5705 198.442 34.6162 198.442 34.6162C198.442 34.6162 198.694 34.5305 199.094 34.5077C199.483 34.4792 200.044 34.5305 200.536 34.8109C200.788 34.9422 200.999 35.1369 201.182 35.3317C201.348 35.5378 201.491 35.7439 201.583 35.9323C201.691 36.1099 201.737 36.2698 201.783 36.3846H201.835C202.012 36.3674 202.189 36.4302 202.356 36.4474C202.522 36.4873 202.67 36.5616 202.814 36.613C202.956 36.6701 203.071 36.762 203.18 36.8305C203.403 36.9618 203.54 37.1394 203.649 37.2422C203.746 37.3507 203.804 37.4198 203.804 37.4198C203.804 37.4198 203.718 37.3912 203.575 37.3456C203.436 37.3044 203.253 37.2074 203.018 37.156ZM207.492 39.3069C207.487 39.404 207.487 39.5074 207.464 39.6158C207.447 39.7243 207.441 39.8448 207.401 39.959C207.367 40.0732 207.349 40.2051 207.298 40.3193C207.252 40.4392 207.207 40.5654 207.143 40.6796C206.914 41.1547 206.566 41.5721 206.262 41.841C206.2 41.8981 206.136 41.9495 206.079 41.9958C206.17 42.1214 206.262 42.2533 206.331 42.3846C206.416 42.5559 206.48 42.7335 206.531 42.9111C206.623 43.26 206.634 43.6094 206.588 43.8898C206.543 44.1701 206.446 44.3877 206.377 44.5304C206.297 44.6737 206.245 44.748 206.245 44.748C206.245 44.748 206.251 44.656 206.262 44.5019C206.268 44.3414 206.274 44.1302 206.245 43.8783C206.211 43.6322 206.142 43.3576 206.022 43.0829C205.965 42.9453 205.896 42.8083 205.81 42.6764C205.724 42.5331 205.65 42.4303 205.535 42.299C205.427 42.1962 205.318 42.07 205.198 41.9729C205.078 41.8701 204.958 41.7782 204.832 41.6926C204.58 41.5321 204.328 41.4065 204.088 41.3208C203.619 41.1553 203.247 41.1204 203.247 41.1204C203.247 41.1204 203.584 40.9257 204.156 40.9543C204.443 40.9657 204.78 41.0399 205.106 41.2004C205.306 41.2974 205.495 41.4293 205.672 41.5835C205.747 41.5435 205.833 41.4921 205.936 41.4231C206.233 41.2341 206.599 40.9194 206.874 40.5192C206.948 40.4278 207.005 40.3187 207.063 40.216C207.126 40.1132 207.166 40.0041 207.218 39.9013C207.263 39.7929 207.286 39.6838 207.326 39.5867C207.36 39.4839 207.377 39.3863 207.395 39.2949C207.44 39.1117 207.446 38.9575 207.457 38.8484C207.469 38.7399 207.475 38.6766 207.475 38.6766C207.475 38.6766 207.48 38.7394 207.486 38.8484C207.492 38.9581 207.51 39.1185 207.492 39.3069ZM207.401 34.1748C207.361 34.1805 207.332 34.1748 207.292 34.1748C207.31 34.2605 207.321 34.3467 207.338 34.4266C207.355 34.627 207.338 34.8269 207.338 35.0159C207.31 35.2049 207.27 35.3876 207.235 35.5538C207.195 35.7194 207.127 35.8684 207.075 36.0054C206.983 36.2858 206.823 36.4862 206.737 36.629C206.64 36.7723 206.583 36.8465 206.583 36.8465C206.583 36.8465 206.594 36.7489 206.623 36.5833C206.64 36.4114 206.714 36.1887 206.725 35.9135C206.737 35.7765 206.765 35.6274 206.777 35.479C206.777 35.3242 206.777 35.1644 206.788 34.9982C206.771 34.8377 206.754 34.6721 206.737 34.5003C206.691 34.3398 206.68 34.1628 206.616 34.0081C206.565 33.8425 206.514 33.682 206.427 33.533C206.365 33.3783 206.273 33.2412 206.193 33.0985C206.09 32.9666 206.009 32.8238 205.907 32.7096C205.815 32.5954 205.718 32.4807 205.621 32.3836C205.249 31.9833 204.939 31.7372 204.939 31.7372C204.939 31.7372 205.34 31.7886 205.849 32.1032C206.106 32.2523 206.375 32.4807 206.627 32.7673C206.741 32.9215 206.879 33.0705 206.965 33.2538C207.027 33.3623 207.073 33.4713 207.119 33.5855C207.199 33.6084 207.297 33.6312 207.423 33.6484C207.714 33.6997 208.115 33.6997 208.498 33.5798C208.859 33.4713 209.185 33.2652 209.402 33.042C209.322 32.9791 209.247 32.9215 209.179 32.8644C209.036 32.7445 208.921 32.6069 208.819 32.4698C208.613 32.1895 208.487 31.8805 208.441 31.6059C208.39 31.337 208.413 31.108 208.441 30.9595C208.476 30.8105 208.51 30.7306 208.51 30.7306C208.51 30.7306 208.527 30.8105 208.567 30.9538C208.607 31.0971 208.675 31.2913 208.779 31.4974C208.887 31.7035 209.048 31.9154 209.242 32.1152C209.339 32.218 209.454 32.3042 209.563 32.4013C209.62 32.447 209.683 32.4869 209.735 32.5218C209.814 32.5732 209.872 32.6074 209.941 32.636C210.066 32.7216 210.204 32.785 210.341 32.8421C210.478 32.8992 210.616 32.9563 210.753 32.9968C210.89 33.0311 211.022 33.0654 211.153 33.0882C211.285 33.1053 211.41 33.1282 211.53 33.1396C212.005 33.1739 212.354 33.1168 212.354 33.1168C212.354 33.1168 212.091 33.3686 211.559 33.4942C211.301 33.557 210.975 33.5798 210.638 33.5342C210.472 33.4999 210.295 33.4713 210.123 33.4085C209.957 33.3457 209.785 33.2709 209.631 33.1853C209.585 33.1624 209.539 33.1339 209.499 33.1053C209.316 33.3629 209.013 33.6718 208.618 33.8665C208.213 34.0835 207.75 34.1691 207.401 34.1748ZM216.927 46.1503C216.778 46.1675 216.567 46.156 216.315 46.2017C216.195 46.2189 216.064 46.2303 215.926 46.2531C215.789 46.2874 215.652 46.3159 215.503 46.3445C215.366 46.3902 215.228 46.4415 215.08 46.4929C214.948 46.5615 214.799 46.6077 214.679 46.6991C214.41 46.8418 214.187 47.0537 213.97 47.2541C213.878 47.3683 213.769 47.4659 213.689 47.5801C213.604 47.6886 213.523 47.792 213.455 47.8947C213.174 48.3007 213.014 48.6216 213.014 48.6216C213.014 48.6216 212.968 48.2613 213.134 47.7406C213.203 47.4773 213.352 47.1913 213.546 46.9052C213.66 46.7739 213.758 46.6191 213.906 46.4992C213.969 46.4421 214.043 46.4021 214.112 46.3502C214.072 46.3045 214.038 46.2531 213.998 46.196C213.809 45.9157 213.587 45.504 213.523 45.0575C213.483 44.8342 213.489 44.6109 213.517 44.4054C213.523 44.3026 213.557 44.2107 213.58 44.1193C213.603 44.0279 213.637 43.9474 213.672 43.8732C213.774 43.6328 213.889 43.4843 213.923 43.4324C213.906 43.4838 213.821 43.6556 213.763 43.9075C213.746 43.9817 213.723 44.0622 213.723 44.1479C213.717 44.2335 213.7 44.3254 213.717 44.4168C213.723 44.6058 213.757 44.7999 213.826 44.9832C213.951 45.3492 214.203 45.6581 214.404 45.8586C214.484 45.9385 214.547 45.9899 214.604 46.0361C214.695 46.0019 214.787 45.9676 214.873 45.9276C215.045 45.8648 215.228 45.842 215.399 45.8015C215.571 45.79 215.737 45.79 215.897 45.7843C216.051 45.79 216.201 45.8243 216.332 45.8414C216.601 45.87 216.808 45.9785 216.95 46.0247C217.094 46.0818 217.174 46.1218 217.174 46.1218C217.174 46.1218 217.082 46.1332 216.927 46.1503ZM217.34 40.0281C217.225 40.0281 217.065 40.0452 216.87 40.011C216.487 39.9767 215.961 39.8048 215.554 39.4274C215.142 39.0557 214.902 38.5407 214.782 38.1455C214.736 38.0085 214.713 37.888 214.69 37.7852C214.513 37.8195 214.336 37.848 214.152 37.8537C213.952 37.8595 213.758 37.848 213.546 37.8138C213.512 37.8937 213.472 37.9914 213.425 38.0998C213.386 38.214 213.3 38.3345 213.225 38.4659C213.139 38.592 213.07 38.7462 212.945 38.8724C212.824 39.0043 212.727 39.1642 212.567 39.2784C212.47 39.3583 212.367 39.4388 212.264 39.5188C212.327 39.5816 212.395 39.6558 212.47 39.7535C212.693 40.0338 212.917 40.4746 212.974 40.9377C213.002 41.1724 212.991 41.4014 212.957 41.6126C212.911 41.8188 212.859 42.0072 212.791 42.1619C212.739 42.3167 212.659 42.4309 212.619 42.5165C212.584 42.5793 212.562 42.6193 212.55 42.637C212.556 42.6199 212.573 42.5742 212.596 42.5051C212.619 42.4137 212.676 42.2875 212.699 42.1334C212.739 41.9729 212.756 41.7902 212.761 41.5955C212.75 41.4008 212.733 41.1952 212.664 41.0062C212.55 40.6174 212.298 40.3028 212.08 40.108C211.972 40.011 211.868 39.9419 211.8 39.8962C211.731 39.8505 211.703 39.8448 211.697 39.8391L211.708 39.822C211.657 39.8448 211.606 39.8677 211.554 39.8848C211.371 39.9704 211.171 39.9933 210.982 40.0452C210.787 40.0681 210.605 40.108 210.416 40.1023C210.05 40.1252 209.712 40.0795 209.426 40.0395C208.928 39.9539 208.59 39.8277 208.516 39.7991C208.596 39.822 208.94 39.9082 209.437 39.9425C209.723 39.9539 210.055 39.9653 210.398 39.9082C210.576 39.8911 210.747 39.834 210.925 39.7991C211.091 39.7306 211.273 39.6964 211.434 39.5987C211.594 39.5188 211.748 39.4326 211.886 39.3184C212.041 39.2213 212.149 39.0894 212.269 38.9695C212.395 38.8667 212.464 38.712 212.555 38.592C212.652 38.4721 212.699 38.3345 212.761 38.2146C212.813 38.0947 212.876 37.9914 212.905 37.8772C212.928 37.7858 212.956 37.7053 212.973 37.6368C212.922 37.6139 212.865 37.5968 212.813 37.5625C212.607 37.4598 212.418 37.3164 212.27 37.1566C211.961 36.8419 211.783 36.4639 211.703 36.1436C211.612 35.8176 211.612 35.5429 211.618 35.3539C211.629 35.1649 211.658 35.0621 211.658 35.0621C211.658 35.0621 211.76 35.4852 212.041 36.006C212.189 36.2635 212.39 36.5325 212.653 36.7443C212.779 36.8585 212.933 36.9447 213.088 37.0247C213.168 37.0703 213.254 37.0932 213.34 37.1217C213.38 37.1389 213.431 37.1617 213.46 37.1617C213.511 37.1731 213.563 37.196 213.602 37.196C213.763 37.2302 213.963 37.2531 214.146 37.2531C214.335 37.2588 214.524 37.2588 214.701 37.2302C215.061 37.196 215.387 37.1103 215.656 36.9955C215.925 36.8756 216.126 36.7323 216.268 36.6181C216.406 36.4982 216.48 36.4234 216.48 36.4234C216.48 36.4234 216.446 36.5262 216.36 36.698C216.309 36.7723 216.258 36.8813 216.166 36.9784C216.08 37.0869 215.971 37.1902 215.834 37.293C215.703 37.3958 215.548 37.4992 215.37 37.5734C215.336 37.5905 215.296 37.6019 215.262 37.6191C215.262 37.7161 215.268 37.8538 215.296 38.0308C215.347 38.3739 215.479 38.8433 215.783 39.2093C216.074 39.5867 216.527 39.8214 216.893 39.9128C217.07 39.9756 217.23 39.9813 217.339 39.9984C217.448 40.0155 217.511 40.027 217.511 40.027C217.511 40.027 217.448 40.0281 217.34 40.0281ZM217.963 34.0892C217.935 34.0321 217.906 33.9864 217.878 33.9344C217.838 33.8716 217.803 33.8259 217.769 33.774C217.701 33.6712 217.62 33.5736 217.534 33.4765C217.449 33.3908 217.368 33.2989 217.283 33.219C217.191 33.1447 217.099 33.0699 217.014 33.0071C216.922 32.9443 216.83 32.8866 216.745 32.8353C216.402 32.6405 216.121 32.5549 216.121 32.5549C216.121 32.5549 216.407 32.4578 216.848 32.5549C217.071 32.6006 217.317 32.6982 217.558 32.8581C217.672 32.938 217.792 33.0243 217.901 33.1327C218.004 33.2412 218.107 33.356 218.193 33.4759C218.238 33.5387 218.284 33.6135 218.313 33.6649C218.353 33.7391 218.387 33.8077 218.415 33.8767C218.478 34.0144 218.518 34.1628 218.547 34.3004C218.604 34.5865 218.587 34.8669 218.524 35.0844C218.467 35.3077 218.369 35.4675 218.289 35.5709C218.215 35.6737 218.158 35.7194 218.158 35.7194C218.158 35.7194 218.175 35.6508 218.198 35.5304C218.221 35.4104 218.232 35.2386 218.226 35.0496C218.221 34.8549 218.181 34.6373 218.107 34.4203C218.066 34.3061 218.015 34.1976 217.963 34.0892ZM220.16 38.2375C220.029 38.3231 219.851 38.4436 219.662 38.6092C219.479 38.781 219.296 38.9929 219.136 39.2498C219.062 39.376 218.987 39.5131 218.93 39.6564C218.861 39.8111 218.821 39.931 218.781 40.0972C218.759 40.2462 218.713 40.4118 218.707 40.5666C218.69 40.7213 218.684 40.8755 218.69 41.0245C218.696 41.322 218.747 41.6023 218.81 41.8427C218.942 42.3235 219.13 42.6495 219.13 42.6495C219.13 42.6495 218.781 42.484 218.473 41.9975C218.318 41.7571 218.181 41.4425 218.129 41.0822C218.061 40.7162 218.089 40.3324 218.181 39.9493C218.226 39.7717 218.306 39.5605 218.393 39.4C218.484 39.2281 218.593 39.074 218.707 38.9364C218.942 38.656 219.217 38.4499 219.474 38.3242C219.732 38.1986 219.961 38.1524 220.12 38.1301C220.281 38.113 220.372 38.113 220.372 38.113C220.372 38.113 220.297 38.1569 220.16 38.2375Z" fill="#FDFEFF"/>
<path d="M191.086 32.4694C193.973 32.4694 196.313 30.1293 196.313 27.2425C196.313 24.3558 193.973 22.0156 191.086 22.0156C188.2 22.0156 185.859 24.3558 185.859 27.2425C185.859 30.1293 188.2 32.4694 191.086 32.4694Z" fill="url(#paint85_linear_34790_7479)"/>
<path d="M191.752 28.0231H190.421L190.092 23.9062H192.08L191.752 28.0231Z" fill="#FDFEFF"/>
<path d="M192.032 29.4768C192.032 29.9987 191.609 30.4224 191.086 30.4224C190.564 30.4224 190.141 29.9993 190.141 29.4768C190.141 28.9544 190.564 28.5312 191.086 28.5312C191.609 28.5313 192.032 28.9544 192.032 29.4768Z" fill="#FDFEFF"/>
<path d="M257.229 226.285H7.82415C7.39819 226.285 7.05273 225.94 7.05273 225.514C7.05273 225.088 7.39819 224.742 7.82415 224.742H257.229C257.655 224.742 258 225.088 258 225.514C258 225.94 257.655 226.285 257.229 226.285Z" fill="url(#paint86_linear_34790_7479)"/>
<defs>
<linearGradient id="paint0_linear_34790_7479" x1="55.0358" y1="215.944" x2="283.054" y2="26.7535" gradientUnits="userSpaceOnUse">
<stop stop-color="#ECECEC"/>
<stop offset="0.9901" stop-color="#DCDCDC"/>
</linearGradient>
<linearGradient id="paint1_linear_34790_7479" x1="55.1454" y1="233.777" x2="283.164" y2="44.5866" gradientUnits="userSpaceOnUse">
<stop stop-color="#ECECEC"/>
<stop offset="0.9901" stop-color="#DCDCDC"/>
</linearGradient>
<linearGradient id="paint2_linear_34790_7479" x1="-33.2498" y1="202.738" x2="194.769" y2="13.5472" gradientUnits="userSpaceOnUse">
<stop stop-color="#ECECEC"/>
<stop offset="0.9901" stop-color="#DCDCDC"/>
</linearGradient>
<linearGradient id="paint3_linear_34790_7479" x1="-33.7805" y1="148.601" x2="194.238" y2="-40.5893" gradientUnits="userSpaceOnUse">
<stop stop-color="#ECECEC"/>
<stop offset="0.9901" stop-color="#DCDCDC"/>
</linearGradient>
<linearGradient id="paint4_linear_34790_7479" x1="6.22633" y1="362.101" x2="234.245" y2="172.91" gradientUnits="userSpaceOnUse">
<stop stop-color="#ECECEC"/>
<stop offset="0.9901" stop-color="#DCDCDC"/>
</linearGradient>
<linearGradient id="paint5_linear_34790_7479" x1="97.7448" y1="132.433" x2="325.764" y2="-56.7578" gradientUnits="userSpaceOnUse">
<stop stop-color="#ECECEC"/>
<stop offset="0.9901" stop-color="#DCDCDC"/>
</linearGradient>
<linearGradient id="paint6_linear_34790_7479" x1="-33.8328" y1="131.196" x2="194.186" y2="-57.9943" gradientUnits="userSpaceOnUse">
<stop stop-color="#ECECEC"/>
<stop offset="0.9901" stop-color="#DCDCDC"/>
</linearGradient>
<linearGradient id="paint7_linear_34790_7479" x1="32.9179" y1="63.8024" x2="167.02" y2="63.8024" gradientUnits="userSpaceOnUse">
<stop stop-color="#ECECEC"/>
<stop offset="0.9901" stop-color="#DCDCDC"/>
</linearGradient>
<linearGradient id="paint8_linear_34790_7479" x1="32.9179" y1="121.678" x2="167.02" y2="121.678" gradientUnits="userSpaceOnUse">
<stop stop-color="#D6D7D7"/>
<stop offset="0.9901" stop-color="#DCDCDC"/>
</linearGradient>
<linearGradient id="paint9_linear_34790_7479" x1="99.9667" y1="131.9" x2="99.9667" y2="0.24707" gradientUnits="userSpaceOnUse">
<stop stop-color="#ECECEC"/>
<stop offset="0.9901" stop-color="white"/>
</linearGradient>
<linearGradient id="paint10_linear_34790_7479" x1="99.9679" y1="-0.0976342" x2="99.9679" y2="140.393" gradientUnits="userSpaceOnUse">
<stop stop-color="#BDC2C2"/>
<stop offset="0.9901" stop-color="#DCDCDC"/>
</linearGradient>
<linearGradient id="paint11_linear_34790_7479" x1="29.7011" y1="61.7018" x2="170.235" y2="61.7018" gradientUnits="userSpaceOnUse">
<stop stop-color="#ECECEC"/>
<stop offset="0.9901" stop-color="#DCDCDC"/>
</linearGradient>
<linearGradient id="paint12_linear_34790_7479" x1="29.7011" y1="6.8893" x2="170.235" y2="6.8893" gradientUnits="userSpaceOnUse">
<stop stop-color="#ECECEC"/>
<stop offset="0.9901" stop-color="#DCDCDC"/>
</linearGradient>
<linearGradient id="paint13_linear_34790_7479" x1="29.7011" y1="10.319" x2="170.235" y2="10.319" gradientUnits="userSpaceOnUse">
<stop stop-color="#ECECEC"/>
<stop offset="0.9901" stop-color="#DCDCDC"/>
</linearGradient>
<linearGradient id="paint14_linear_34790_7479" x1="29.7011" y1="13.7409" x2="170.235" y2="13.7409" gradientUnits="userSpaceOnUse">
<stop stop-color="#ECECEC"/>
<stop offset="0.9901" stop-color="#DCDCDC"/>
</linearGradient>
<linearGradient id="paint15_linear_34790_7479" x1="29.7011" y1="17.1706" x2="170.235" y2="17.1706" gradientUnits="userSpaceOnUse">
<stop stop-color="#ECECEC"/>
<stop offset="0.9901" stop-color="#DCDCDC"/>
</linearGradient>
<linearGradient id="paint16_linear_34790_7479" x1="29.7011" y1="20.5924" x2="170.235" y2="20.5924" gradientUnits="userSpaceOnUse">
<stop stop-color="#ECECEC"/>
<stop offset="0.9901" stop-color="#DCDCDC"/>
</linearGradient>
<linearGradient id="paint17_linear_34790_7479" x1="29.7011" y1="24.0221" x2="170.235" y2="24.0221" gradientUnits="userSpaceOnUse">
<stop stop-color="#ECECEC"/>
<stop offset="0.9901" stop-color="#DCDCDC"/>
</linearGradient>
<linearGradient id="paint18_linear_34790_7479" x1="29.7011" y1="27.444" x2="170.235" y2="27.444" gradientUnits="userSpaceOnUse">
<stop stop-color="#ECECEC"/>
<stop offset="0.9901" stop-color="#DCDCDC"/>
</linearGradient>
<linearGradient id="paint19_linear_34790_7479" x1="29.7011" y1="30.8737" x2="170.235" y2="30.8737" gradientUnits="userSpaceOnUse">
<stop stop-color="#ECECEC"/>
<stop offset="0.9901" stop-color="#DCDCDC"/>
</linearGradient>
<linearGradient id="paint20_linear_34790_7479" x1="29.7011" y1="34.2956" x2="170.235" y2="34.2956" gradientUnits="userSpaceOnUse">
<stop stop-color="#ECECEC"/>
<stop offset="0.9901" stop-color="#DCDCDC"/>
</linearGradient>
<linearGradient id="paint21_linear_34790_7479" x1="29.7011" y1="37.7252" x2="170.235" y2="37.7252" gradientUnits="userSpaceOnUse">
<stop stop-color="#ECECEC"/>
<stop offset="0.9901" stop-color="#DCDCDC"/>
</linearGradient>
<linearGradient id="paint22_linear_34790_7479" x1="29.7011" y1="41.1471" x2="170.235" y2="41.1471" gradientUnits="userSpaceOnUse">
<stop stop-color="#ECECEC"/>
<stop offset="0.9901" stop-color="#DCDCDC"/>
</linearGradient>
<linearGradient id="paint23_linear_34790_7479" x1="29.7011" y1="44.5768" x2="170.235" y2="44.5768" gradientUnits="userSpaceOnUse">
<stop stop-color="#ECECEC"/>
<stop offset="0.9901" stop-color="#DCDCDC"/>
</linearGradient>
<linearGradient id="paint24_linear_34790_7479" x1="29.7011" y1="47.9987" x2="170.235" y2="47.9987" gradientUnits="userSpaceOnUse">
<stop stop-color="#ECECEC"/>
<stop offset="0.9901" stop-color="#DCDCDC"/>
</linearGradient>
<linearGradient id="paint25_linear_34790_7479" x1="29.7011" y1="51.4284" x2="170.235" y2="51.4284" gradientUnits="userSpaceOnUse">
<stop stop-color="#ECECEC"/>
<stop offset="0.9901" stop-color="#DCDCDC"/>
</linearGradient>
<linearGradient id="paint26_linear_34790_7479" x1="29.7011" y1="54.8502" x2="170.235" y2="54.8502" gradientUnits="userSpaceOnUse">
<stop stop-color="#ECECEC"/>
<stop offset="0.9901" stop-color="#DCDCDC"/>
</linearGradient>
<linearGradient id="paint27_linear_34790_7479" x1="29.7011" y1="58.2799" x2="170.235" y2="58.2799" gradientUnits="userSpaceOnUse">
<stop stop-color="#ECECEC"/>
<stop offset="0.9901" stop-color="#DCDCDC"/>
</linearGradient>
<linearGradient id="paint28_linear_34790_7479" x1="29.6997" y1="1.65407" x2="170.234" y2="1.65407" gradientUnits="userSpaceOnUse">
<stop stop-color="#D6D7D7"/>
<stop offset="0.9901" stop-color="#DCDCDC"/>
</linearGradient>
<linearGradient id="paint29_linear_34790_7479" x1="159.921" y1="3.9913" x2="159.921" y2="64.8694" gradientUnits="userSpaceOnUse">
<stop stop-color="#BDC2C2"/>
<stop offset="0.9901" stop-color="#DCDCDC"/>
</linearGradient>
<linearGradient id="paint30_linear_34790_7479" x1="158.838" y1="66.8651" x2="161.005" y2="66.8651" gradientUnits="userSpaceOnUse">
<stop stop-color="#ECECEC"/>
<stop offset="0.9901" stop-color="#DCDCDC"/>
</linearGradient>
<linearGradient id="paint31_linear_34790_7479" x1="33.04" y1="185.318" x2="33.04" y2="140.209" gradientUnits="userSpaceOnUse">
<stop stop-color="#ECECEC"/>
<stop offset="0.9901" stop-color="#E6E6E6"/>
</linearGradient>
<linearGradient id="paint32_linear_34790_7479" x1="68.6774" y1="211.554" x2="56.6742" y2="175.299" gradientUnits="userSpaceOnUse">
<stop stop-color="#ECECEC"/>
<stop offset="0.9901" stop-color="#DCDCDC"/>
</linearGradient>
<linearGradient id="paint33_linear_34790_7479" x1="60.746" y1="208.37" x2="60.746" y2="163.261" gradientUnits="userSpaceOnUse">
<stop stop-color="#ECECEC"/>
<stop offset="0.9901" stop-color="#E6E6E6"/>
</linearGradient>
<linearGradient id="paint34_linear_34790_7479" x1="25.0689" y1="191.387" x2="30.4547" y2="158.914" gradientUnits="userSpaceOnUse">
<stop stop-color="#ECECEC"/>
<stop offset="0.9901" stop-color="#DCDCDC"/>
</linearGradient>
<linearGradient id="paint35_linear_34790_7479" x1="32.6699" y1="204.018" x2="58.7463" y2="204.018" gradientUnits="userSpaceOnUse">
<stop stop-color="#ECECEC"/>
<stop offset="0.9901" stop-color="#DCDCDC"/>
</linearGradient>
<linearGradient id="paint36_linear_34790_7479" x1="114.369" y1="276.887" x2="114.369" y2="111.555" gradientUnits="userSpaceOnUse">
<stop stop-color="#000A6A"/>
<stop offset="1" stop-color="#4295F6"/>
</linearGradient>
<linearGradient id="paint37_linear_34790_7479" x1="113.006" y1="139.997" x2="101.55" y2="139.997" gradientUnits="userSpaceOnUse">
<stop stop-color="#251458"/>
<stop offset="1" stop-color="#391A7D"/>
</linearGradient>
<linearGradient id="paint38_linear_34790_7479" x1="83.9916" y1="270.281" x2="83.9916" y2="104.948" gradientUnits="userSpaceOnUse">
<stop stop-color="#000A6A"/>
<stop offset="1" stop-color="#4295F6"/>
</linearGradient>
<linearGradient id="paint39_linear_34790_7479" x1="115.976" y1="220.434" x2="144.496" y2="220.434" gradientUnits="userSpaceOnUse">
<stop stop-color="#000A6A"/>
<stop offset="1" stop-color="#4295F6"/>
</linearGradient>
<linearGradient id="paint40_linear_34790_7479" x1="59.4225" y1="221.954" x2="65.329" y2="214.51" gradientUnits="userSpaceOnUse">
<stop stop-color="#000A6A"/>
<stop offset="1" stop-color="#4295F6"/>
</linearGradient>
<linearGradient id="paint41_linear_34790_7479" x1="126.379" y1="73.3492" x2="145.52" y2="88.8169" gradientUnits="userSpaceOnUse">
<stop stop-color="#F5C49F"/>
<stop offset="1" stop-color="#EAC8B0"/>
</linearGradient>
<linearGradient id="paint42_linear_34790_7479" x1="173.002" y1="92.6442" x2="114.198" y2="83.7815" gradientUnits="userSpaceOnUse">
<stop stop-color="#F5C49F"/>
<stop offset="1" stop-color="#DDA48F"/>
</linearGradient>
<linearGradient id="paint43_linear_34790_7479" x1="126.316" y1="72.9046" x2="55.9524" y2="72.9046" gradientUnits="userSpaceOnUse">
<stop stop-color="#3EC1FF"/>
<stop offset="1" stop-color="#28BAFF"/>
</linearGradient>
<linearGradient id="paint44_linear_34790_7479" x1="115.914" y1="81.3026" x2="133.749" y2="81.3026" gradientUnits="userSpaceOnUse">
<stop stop-color="#3949B2"/>
<stop offset="1" stop-color="#0B1B6A"/>
</linearGradient>
<linearGradient id="paint45_linear_34790_7479" x1="122.986" y1="88.3639" x2="86.7914" y2="84.9353" gradientUnits="userSpaceOnUse">
<stop stop-color="#3EC1FF"/>
<stop offset="1" stop-color="#28BAFF"/>
</linearGradient>
<linearGradient id="paint46_linear_34790_7479" x1="110.588" y1="50.532" x2="130.009" y2="49.3853" gradientUnits="userSpaceOnUse">
<stop stop-color="#F5C49F"/>
<stop offset="1" stop-color="#EAC8B0"/>
</linearGradient>
<linearGradient id="paint47_linear_34790_7479" x1="130.37" y1="40.4474" x2="102.796" y2="37.9036" gradientUnits="userSpaceOnUse">
<stop stop-color="#3949B2"/>
<stop offset="1" stop-color="#0B1B6A"/>
</linearGradient>
<linearGradient id="paint48_linear_34790_7479" x1="114.67" y1="42.8266" x2="133.593" y2="41.7088" gradientUnits="userSpaceOnUse">
<stop stop-color="#F5C49F"/>
<stop offset="1" stop-color="#EAC8B0"/>
</linearGradient>
<linearGradient id="paint49_linear_34790_7479" x1="130.483" y1="39.8644" x2="105.955" y2="37.6017" gradientUnits="userSpaceOnUse">
<stop stop-color="#3949B2"/>
<stop offset="1" stop-color="#0B1B6A"/>
</linearGradient>
<linearGradient id="paint50_linear_34790_7479" x1="112.89" y1="44.1465" x2="129.523" y2="43.1641" gradientUnits="userSpaceOnUse">
<stop stop-color="#F5C49F"/>
<stop offset="1" stop-color="#EAC8B0"/>
</linearGradient>
<linearGradient id="paint51_linear_34790_7479" x1="131.694" y1="40.8585" x2="105.189" y2="38.9656" gradientUnits="userSpaceOnUse">
<stop stop-color="#3949B2"/>
<stop offset="1" stop-color="#0B1B6A"/>
</linearGradient>
<linearGradient id="paint52_linear_34790_7479" x1="143.422" y1="203.382" x2="139.421" y2="224.765" gradientUnits="userSpaceOnUse">
<stop stop-color="#3C698A"/>
<stop offset="0.1239" stop-color="#345E80"/>
<stop offset="1" stop-color="#01103F"/>
</linearGradient>
<linearGradient id="paint53_linear_34790_7479" x1="185.956" y1="201.532" x2="181.633" y2="224.634" gradientUnits="userSpaceOnUse">
<stop stop-color="#3C698A"/>
<stop offset="0.1239" stop-color="#345E80"/>
<stop offset="1" stop-color="#01103F"/>
</linearGradient>
<linearGradient id="paint54_linear_34790_7479" x1="202.097" y1="135.853" x2="195.638" y2="128.209" gradientUnits="userSpaceOnUse">
<stop stop-color="#F5C49F"/>
<stop offset="1" stop-color="#CA9A8F"/>
</linearGradient>
<linearGradient id="paint55_linear_34790_7479" x1="188.383" y1="119.96" x2="173.546" y2="102.402" gradientUnits="userSpaceOnUse">
<stop stop-color="#F5C49F"/>
<stop offset="1" stop-color="#CA9A8F"/>
</linearGradient>
<linearGradient id="paint56_linear_34790_7479" x1="174.477" y1="74.2697" x2="152.864" y2="189.775" gradientUnits="userSpaceOnUse">
<stop stop-color="#3C5F9A"/>
<stop offset="0.1427" stop-color="#33538D"/>
<stop offset="1" stop-color="#01103F"/>
</linearGradient>
<linearGradient id="paint57_linear_34790_7479" x1="146.906" y1="153.905" x2="169.96" y2="157.534" gradientUnits="userSpaceOnUse">
<stop stop-color="#3C698A"/>
<stop offset="0.1239" stop-color="#345E80"/>
<stop offset="1" stop-color="#01103F"/>
</linearGradient>
<linearGradient id="paint58_linear_34790_7479" x1="177.7" y1="168.473" x2="153.952" y2="295.39" gradientUnits="userSpaceOnUse">
<stop stop-color="#3C5F9A"/>
<stop offset="0.1427" stop-color="#33538D"/>
<stop offset="1" stop-color="#01103F"/>
</linearGradient>
<linearGradient id="paint59_linear_34790_7479" x1="149.712" y1="165.606" x2="124.119" y2="302.384" gradientUnits="userSpaceOnUse">
<stop stop-color="#3C5F9A"/>
<stop offset="0.1427" stop-color="#33538D"/>
<stop offset="1" stop-color="#01103F"/>
</linearGradient>
<linearGradient id="paint60_linear_34790_7479" x1="157.89" y1="73.5125" x2="134.644" y2="197.753" gradientUnits="userSpaceOnUse">
<stop stop-color="#3C5F9A"/>
<stop offset="0.1427" stop-color="#33538D"/>
<stop offset="1" stop-color="#01103F"/>
</linearGradient>
<linearGradient id="paint61_linear_34790_7479" x1="176.875" y1="104.322" x2="133.668" y2="144.66" gradientUnits="userSpaceOnUse">
<stop stop-color="#4663C5"/>
<stop offset="1" stop-color="#398EF6"/>
</linearGradient>
<linearGradient id="paint62_linear_34790_7479" x1="175.656" y1="105.931" x2="170.842" y2="110.425" gradientUnits="userSpaceOnUse">
<stop stop-color="#4663E1"/>
<stop offset="1" stop-color="#398EF6"/>
</linearGradient>
<linearGradient id="paint63_linear_34790_7479" x1="168.513" y1="93.6629" x2="125.616" y2="133.711" gradientUnits="userSpaceOnUse">
<stop stop-color="#4663C5"/>
<stop offset="1" stop-color="#398EF6"/>
</linearGradient>
<linearGradient id="paint64_linear_34790_7479" x1="181.458" y1="77.9127" x2="159.474" y2="75.7268" gradientUnits="userSpaceOnUse">
<stop stop-color="#F5C49F"/>
<stop offset="1" stop-color="#CA9A8F"/>
</linearGradient>
<linearGradient id="paint65_linear_34790_7479" x1="180.834" y1="71.401" x2="178.371" y2="70.725" gradientUnits="userSpaceOnUse">
<stop stop-color="#F3F3F3"/>
<stop offset="0.2778" stop-color="#E8E8E8"/>
<stop offset="0.7704" stop-color="#C9C9CC"/>
<stop offset="1" stop-color="#B9B9BD"/>
</linearGradient>
<linearGradient id="paint66_linear_34790_7479" x1="179.035" y1="75.3101" x2="162.599" y2="70.209" gradientUnits="userSpaceOnUse">
<stop stop-color="#F5C49F"/>
<stop offset="1" stop-color="#CA9A8F"/>
</linearGradient>
<linearGradient id="paint67_linear_34790_7479" x1="173.591" y1="73.0203" x2="171.104" y2="53.9203" gradientUnits="userSpaceOnUse">
<stop stop-color="#F3F3F3"/>
<stop offset="0.2778" stop-color="#E8E8E8"/>
<stop offset="0.7704" stop-color="#C9C9CC"/>
<stop offset="1" stop-color="#B9B9BD"/>
</linearGradient>
<linearGradient id="paint68_linear_34790_7479" x1="111.434" y1="108.162" x2="142.381" y2="107.908" gradientUnits="userSpaceOnUse">
<stop stop-color="#F5C49F"/>
<stop offset="1" stop-color="#CA9A8F"/>
</linearGradient>
<linearGradient id="paint69_linear_34790_7479" x1="135.224" y1="99.5221" x2="147.038" y2="99.5221" gradientUnits="userSpaceOnUse">
<stop stop-color="#4663E1"/>
<stop offset="1" stop-color="#398EF6"/>
</linearGradient>
<linearGradient id="paint70_linear_34790_7479" x1="175.387" y1="57.2013" x2="135.053" y2="94.8564" gradientUnits="userSpaceOnUse">
<stop stop-color="#4663C5"/>
<stop offset="1" stop-color="#398EF6"/>
</linearGradient>
<linearGradient id="paint71_linear_34790_7479" x1="174.761" y1="95.9028" x2="171.676" y2="72.2058" gradientUnits="userSpaceOnUse">
<stop stop-color="#F3F3F3"/>
<stop offset="0.2778" stop-color="#E8E8E8"/>
<stop offset="0.7704" stop-color="#C9C9CC"/>
<stop offset="1" stop-color="#B9B9BD"/>
</linearGradient>
<linearGradient id="paint72_linear_34790_7479" x1="196.302" y1="184.239" x2="225.492" y2="171.161" gradientUnits="userSpaceOnUse">
<stop stop-color="#3C698A"/>
<stop offset="0.1239" stop-color="#345E80"/>
<stop offset="1" stop-color="#01103F"/>
</linearGradient>
<linearGradient id="paint73_linear_34790_7479" x1="203.045" y1="134.738" x2="195.131" y2="125.372" gradientUnits="userSpaceOnUse">
<stop stop-color="#F5C49F"/>
<stop offset="1" stop-color="#CA9A8F"/>
</linearGradient>
<linearGradient id="paint74_linear_34790_7479" x1="198.077" y1="135.68" x2="200.028" y2="136.555" gradientUnits="userSpaceOnUse">
<stop stop-color="#F5C49F"/>
<stop offset="1" stop-color="#CA9A8F"/>
</linearGradient>
<linearGradient id="paint75_linear_34790_7479" x1="198.608" y1="134.829" x2="201.138" y2="135.963" gradientUnits="userSpaceOnUse">
<stop stop-color="#F5C49F"/>
<stop offset="1" stop-color="#CA9A8F"/>
</linearGradient>
<linearGradient id="paint76_linear_34790_7479" x1="199.733" y1="134.173" x2="202.263" y2="135.306" gradientUnits="userSpaceOnUse">
<stop stop-color="#F5C49F"/>
<stop offset="1" stop-color="#CA9A8F"/>
</linearGradient>
<linearGradient id="paint77_linear_34790_7479" x1="200.887" y1="133.719" x2="203.417" y2="134.853" gradientUnits="userSpaceOnUse">
<stop stop-color="#F5C49F"/>
<stop offset="1" stop-color="#CA9A8F"/>
</linearGradient>
<linearGradient id="paint78_linear_34790_7479" x1="180.44" y1="91.5356" x2="149.178" y2="131.118" gradientUnits="userSpaceOnUse">
<stop stop-color="#F5C49F"/>
<stop offset="1" stop-color="#DDA48F"/>
</linearGradient>
<linearGradient id="paint79_linear_34790_7479" x1="73.276" y1="83.9191" x2="122.795" y2="83.9191" gradientUnits="userSpaceOnUse">
<stop stop-color="#3949B2"/>
<stop offset="1" stop-color="#0B1B6A"/>
</linearGradient>
<linearGradient id="paint80_linear_34790_7479" x1="111.043" y1="101.72" x2="117.804" y2="93.2683" gradientUnits="userSpaceOnUse">
<stop stop-color="#F5C49F"/>
<stop offset="1" stop-color="#EAC8B0"/>
</linearGradient>
<linearGradient id="paint81_linear_34790_7479" x1="128.805" y1="117.812" x2="128.662" y2="106.991" gradientUnits="userSpaceOnUse">
<stop stop-color="#F5C49F"/>
<stop offset="1" stop-color="#EAC8B0"/>
</linearGradient>
<linearGradient id="paint82_linear_34790_7479" x1="97.566" y1="90.9377" x2="104.326" y2="82.4872" gradientUnits="userSpaceOnUse">
<stop stop-color="#F5C49F"/>
<stop offset="1" stop-color="#EAC8B0"/>
</linearGradient>
<linearGradient id="paint83_linear_34790_7479" x1="126.583" y1="72.9112" x2="92.6013" y2="69.6922" gradientUnits="userSpaceOnUse">
<stop stop-color="#3EC1FF"/>
<stop offset="1" stop-color="#28BAFF"/>
</linearGradient>
<linearGradient id="paint84_linear_34790_7479" x1="185.506" y1="41.8877" x2="232.579" y2="41.8877" gradientUnits="userSpaceOnUse">
<stop stop-color="#3EC1FF"/>
<stop offset="1" stop-color="#28BAFF"/>
</linearGradient>
<linearGradient id="paint85_linear_34790_7479" x1="187.736" y1="30.5931" x2="194.948" y2="23.3804" gradientUnits="userSpaceOnUse">
<stop stop-color="#FF8681"/>
<stop offset="1" stop-color="#DB5A5C"/>
</linearGradient>
<linearGradient id="paint86_linear_34790_7479" x1="7.05251" y1="225.513" x2="258" y2="225.513" gradientUnits="userSpaceOnUse">
<stop stop-color="#3C698A"/>
<stop offset="0.1239" stop-color="#345E80"/>
<stop offset="1" stop-color="#01103F"/>
</linearGradient>
</defs>
</svg>
