<svg width="82" height="82" viewBox="0 0 82 82" fill="none" xmlns="http://www.w3.org/2000/svg">
<path d="M81.4527 58.4813L81.4632 62.72C81.1475 63.3436 75.3084 64.2421 65.6082 64.2421C55.9079 64.2421 50.0688 63.3436 49.7637 62.7411V58.4707C52.5307 59.9083 65.0085 59.9188 65.6082 59.9188C66.2079 59.9188 78.6751 59.9188 81.4527 58.4813Z" fill="#95CEA3"/>
<path d="M79.822 63.8633V79.6131C79.822 80.2368 74.9403 81.4312 65.6083 81.4312C56.2762 81.4312 51.3945 80.2368 51.3945 79.6131V63.8633C55.7397 64.7935 65.1033 64.804 65.6083 64.804C66.1133 64.804 75.4769 64.7935 79.822 63.8633Z" fill="#95CEA3"/>
<path d="M73.531 49.1484C75.5616 49.1484 77.2028 50.808 77.2028 52.8269C77.2028 54.867 75.551 56.516 73.531 56.516H65.998L68.4705 52.7424C70.2695 50.2689 71.4268 49.1484 73.531 49.1484Z" fill="#F59A9B"/>
<path d="M73.7617 56.5156C74.1931 56.5685 74.7086 56.6213 75.2978 56.6742C74.8243 56.8962 74.3088 57.0336 73.7617 57.0547V56.5156Z" fill="#EF4666"/>
<path d="M67.9022 26.8242V36.0416C67.9022 37.4897 66.7344 38.6631 65.2931 38.6631H39.5273V24.1816H65.2931C66.7344 24.1922 67.9022 25.3655 67.9022 26.8242Z" fill="#FFF0C2"/>
<path d="M63.1456 45.3417C63.7243 45.014 64.345 44.8555 64.9763 44.8555C65.2919 44.8555 65.6075 44.8872 65.9231 44.9823C66.87 45.236 67.6591 45.8491 68.1536 46.6947C69.1951 48.5234 69.0373 50.3626 67.6065 52.8467L65.4181 56.0812L61.7042 50.5529C61.2308 49.7178 61.1046 48.6819 61.3886 47.6672C61.6622 46.6736 62.3145 45.8279 63.1456 45.3417ZM62.4723 52.7304L64.9657 56.5146H57.4222C56.9383 56.5146 56.4754 56.4195 56.044 56.2292H56.0124C54.6973 55.6795 53.7715 54.3688 53.7715 52.8361C53.7715 50.8172 55.4233 49.1576 57.4328 49.1576C59.5264 49.147 60.6942 50.2675 62.4723 52.7304Z" fill="#F59A9B"/>
<path d="M64.0619 44.3906V44.8451H63.0098V44.7923C63.3464 44.602 63.7041 44.4646 64.0619 44.3906Z" fill="#EF4666"/>
<path d="M60.8638 47.5216C60.6428 48.3461 60.6428 49.1918 60.8743 49.9634C59.8643 49.0332 58.8437 48.5998 57.4234 48.5998C55.1088 48.5998 53.215 50.5025 53.215 52.828C53.215 54.2867 53.962 55.5868 55.0667 56.3479C52.5733 56.6862 49.2066 57.257 49.2066 57.87V62.7536C49.2066 63.1552 49.8378 63.4723 50.8373 63.7472V79.6239C50.8373 80.1735 51.658 80.6069 52.952 80.9346H39.5273V39.7207H63.01V44.7945C62.9574 44.8051 62.9259 44.8262 62.8732 44.8579C61.9158 45.4181 61.1794 46.3906 60.8638 47.5216Z" fill="#FFE085"/>
<path d="M54.8449 80.9355L65.713 81.9926H65.6078C61.9886 81.9926 56.0759 81.7495 52.9512 80.9355H54.8449Z" fill="#3D7749"/>
<path d="M56.6547 16.171C56.6547 20.008 53.5405 23.1368 49.7214 23.1368H35.4551L40.1579 16.0018C43.5457 11.3086 45.7445 9.20508 49.7214 9.20508C53.5405 9.20508 56.6547 12.3339 56.6547 16.171Z" fill="#F59A9B"/>
<path d="M56.0448 56.2399V56.8001C56.0238 56.8001 56.0133 56.8001 55.9817 56.8107C55.6556 56.6838 55.3505 56.5253 55.0664 56.3456C55.3926 56.2927 55.7082 56.261 56.0028 56.2188H56.0133C56.0133 56.2293 56.0238 56.2399 56.0448 56.2399Z" fill="#EF4666"/>
<path d="M56.0483 56.2305V56.2408C56.0359 56.2408 56.0234 56.2305 56.0234 56.2305H56.0483Z" fill="#231815"/>
<path d="M65.6082 59.3803C55.9289 59.3803 50.1109 58.4818 49.7637 57.911V57.9004C49.9215 57.615 53.6775 57.1077 55.971 56.8223C56.4234 56.9914 56.8969 57.076 57.4124 57.076H65.4188V57.0865L65.4293 57.076H73.5199C73.5935 57.076 73.6777 57.076 73.7514 57.0654V57.0865C75.9713 57.3719 81.2212 57.6045 81.4316 57.8687C80.9792 58.4924 75.1927 59.3803 65.6082 59.3803Z" fill="#95CEA3"/>
<path d="M68.4807 52.7414L66.0083 56.515H73.5412C75.5718 56.515 77.213 54.8555 77.213 52.8259C77.213 50.807 75.5613 49.1475 73.5412 49.1475C71.4265 49.1475 70.2692 50.2679 68.4807 52.7414ZM64.9772 44.8453C64.346 44.8453 63.7252 45.0039 63.1466 45.3315C62.3154 45.8178 61.6737 46.6634 61.4001 47.657C61.1161 48.6612 61.2423 49.7077 61.7157 50.5427L65.4296 56.071L67.618 52.8365C69.0488 50.3525 69.2066 48.5132 68.1651 46.6846C67.6601 45.8389 66.8815 45.2258 65.9346 44.9722C65.6085 44.8876 65.2929 44.8453 64.9772 44.8453ZM63.0098 44.8453H64.0619V44.3908C64.7247 44.2322 65.4086 44.2428 66.0714 44.4225C67.1551 44.7185 68.0704 45.4161 68.6385 46.3992C69.4802 47.8684 69.6064 49.38 69.0173 51.1347C70.4376 49.38 71.6159 48.5978 73.5307 48.5978C75.8664 48.5978 77.7496 50.5005 77.7496 52.8259C77.7496 54.5278 76.7501 55.9971 75.2982 56.6736C74.7091 56.6207 74.183 56.5679 73.7622 56.515V57.0541C73.6885 57.0647 73.6044 57.0647 73.5307 57.0647H65.4401L65.4296 57.0752H57.4232C56.9077 57.0752 56.4342 56.9907 55.9818 56.8215C56.0029 56.811 56.0134 56.811 56.045 56.811V56.2507C56.4763 56.4304 56.9392 56.5361 57.4232 56.5361H64.9667L62.4732 52.7519C60.6952 50.289 59.5274 49.1686 57.4232 49.1686C55.4137 49.1686 53.7619 50.8281 53.7619 52.8471C53.7619 54.3798 54.6878 55.6905 56.0029 56.2402C55.7083 56.2719 55.3927 56.3142 55.0665 56.367C53.9513 55.606 53.2148 54.3058 53.2148 52.8471C53.2148 50.5216 55.1086 48.6189 57.4232 48.6189C58.8541 48.6189 59.8641 49.0523 60.8741 49.9825C60.6426 49.2109 60.6426 48.3652 60.8635 47.5408C61.1792 46.4097 61.9156 45.4267 62.873 44.877C62.9257 44.8559 62.9572 44.8242 63.0098 44.8136V44.8453Z" fill="#EF4666"/>
<path d="M49.7646 57.9101C50.1013 58.4915 55.9299 59.3794 65.6091 59.3794C75.1937 59.3794 80.9802 58.4915 81.4326 57.8678C81.2222 57.593 75.9828 57.3605 73.7523 57.0856V57.0645C74.2994 57.0434 74.8149 56.9059 75.2884 56.684C78.0343 56.9694 82.0007 57.3076 82.0007 57.8784V62.7619C82.0007 63.1636 81.3695 63.4807 80.37 63.7555V79.6322C80.37 81.4926 70.8591 81.9894 65.7249 82H65.7143L54.8462 80.943H52.9525C51.6584 80.6153 50.8378 80.1819 50.8378 79.6322V63.745C49.8383 63.4701 49.207 63.153 49.207 62.7514V57.8678C49.207 57.2548 52.5737 56.6945 55.0672 56.3457C55.3512 56.5254 55.6564 56.684 55.9825 56.8108C53.6889 57.0962 49.933 57.6036 49.7752 57.889V57.9101H49.7646ZM81.4536 58.4809C78.6761 59.9185 66.2088 59.9291 65.6091 59.9291C65.0094 59.9291 52.5422 59.9185 49.7646 58.4809V62.7514C50.0697 63.3539 55.8983 64.2523 65.6091 64.2523C75.3199 64.2523 81.1485 63.3539 81.4641 62.7302L81.4536 58.4809ZM65.6091 81.4292C74.9412 81.4292 79.8229 80.2348 79.8229 79.6111V63.8612C75.4778 64.7914 66.1141 64.802 65.6091 64.802C65.1041 64.802 55.7405 64.7914 51.3954 63.8612V79.6111C51.3954 80.2453 56.2771 81.4292 65.6091 81.4292Z" fill="#3D7749"/>
<path d="M39.5367 4.53349C41.5146 7.99 41.2095 11.4888 38.5162 16.182L34.3815 22.3129L27.364 11.8588C26.4487 10.2732 26.2278 8.28597 26.7538 6.40445C27.2799 4.53349 28.4898 2.92679 30.0679 2.00717C31.141 1.38352 32.3299 1.06641 33.5188 1.06641C34.1184 1.06641 34.7287 1.15097 35.3283 1.30953C37.1169 1.77462 38.6109 2.92679 39.5367 4.53349ZM38.4846 45.166V80.9362H30.1836V24.1944H34.3815V24.205L34.392 24.1944H38.4846V39.7223V45.166ZM28.8054 15.9918L33.5082 23.1373H19.2419C15.4228 23.1373 12.3086 20.0085 12.3086 16.1715C12.3086 12.3344 15.4228 9.2056 19.2419 9.2056C23.2293 9.2056 25.4071 11.3091 28.8054 15.9918Z" fill="#F59A9B"/>
<path d="M29.1327 39.7207V80.924H8.57479C7.13342 80.924 5.95508 79.7507 5.95508 78.3026V39.7207H29.1327Z" fill="#FFE085"/>
<path d="M29.1331 24.1914V38.6728H3.67244C2.23108 38.6728 1.05273 37.4995 1.05273 36.0514V26.834C1.05273 25.3753 2.2416 24.202 3.67244 24.202H29.1331V24.1914Z" fill="#FFF0C2"/>
<path d="M29.1324 38.6723V24.1909H3.6718C2.23043 24.1909 1.05209 25.3642 1.05209 26.8229V36.0403C1.05209 37.4884 2.24095 38.6617 3.6718 38.6617H29.1324V38.6723ZM29.1324 80.9327V39.7188H5.94431V78.3007C5.94431 79.7488 7.13318 80.9221 8.56402 80.9221H29.1324V80.9327ZM19.2427 23.1339H33.4986L28.7957 15.9883C25.408 11.3056 23.2197 9.21268 19.2427 9.21268C15.4237 9.21268 12.3095 12.3415 12.3095 16.1786C12.3095 20.0156 15.4237 23.1339 19.2427 23.1339ZM34.3823 22.3094L38.5171 16.1786C41.2104 11.4853 41.5155 7.98652 39.5376 4.53C38.6117 2.92331 37.1073 1.77114 35.3292 1.29547C34.7295 1.13691 34.1193 1.05235 33.5196 1.05235C32.3202 1.05235 31.1419 1.36946 30.0688 1.99311C28.4801 2.91274 27.2702 4.51943 26.7547 6.39039C26.2286 8.28249 26.4496 10.2697 27.3649 11.8447L34.3823 22.3094ZM38.4855 24.1909H34.3929L34.3823 24.2015V24.1909H30.1845V80.9327H38.4855V24.1909ZM35.4555 23.1339H49.7218C53.5409 23.1339 56.6551 20.005 56.6551 16.168C56.6551 12.3309 53.5409 9.20211 49.7218 9.20211C45.7449 9.20211 43.5461 11.295 40.1583 15.9989L35.4555 23.1339ZM39.5271 38.6723H65.2928C66.7341 38.6723 67.902 37.499 67.902 36.0509V26.8335C67.902 25.3748 66.7341 24.2015 65.2928 24.2015H39.5271V38.6723ZM0 26.8229C0 24.7828 1.65178 23.1339 3.6718 23.1339H15.2974C12.8881 21.7491 11.2574 19.1488 11.2574 16.168C11.2574 11.739 14.8345 8.14507 19.2427 8.14507C21.9256 8.14507 23.8509 8.96956 25.7552 10.7348C25.3238 9.26553 25.3028 7.65883 25.7341 6.11556C26.3338 3.96977 27.7226 2.13053 29.5427 1.07349C31.3839 0.0058837 33.5407 -0.279516 35.5922 0.280713C37.6543 0.830373 39.3798 2.15167 40.4319 4.01206C42.031 6.78149 42.2625 9.6355 41.1368 12.9546C43.8196 9.65664 46.0711 8.15564 49.7008 8.15564C54.109 8.15564 57.6862 11.7496 57.6862 16.1786C57.6862 19.1594 56.0554 21.7597 53.6461 23.1444H65.2717C67.2812 23.1444 68.933 24.804 68.933 26.8335V36.0403C68.933 38.0592 67.2812 39.7188 65.2717 39.7188H64.0408V44.3909C63.6831 44.4649 63.3359 44.6023 62.9887 44.7926V39.7188H39.5271V80.9221H52.9517C56.0765 81.736 61.9787 81.9791 65.6084 81.9791H8.57454C6.54401 81.9791 4.90274 80.3196 4.90274 78.3007V39.7188H3.68232C1.65178 39.7188 0.0105208 38.0592 0.0105208 36.0403V26.8229H0Z" fill="#EF4666"/>
</svg>
