<svg width="82" height="82" viewBox="0 0 82 82" fill="none" xmlns="http://www.w3.org/2000/svg">
<path d="M50.5371 2.27344C62.4441 2.27344 74.3512 8.40646 74.3512 23.3958C74.3512 23.3958 70.8395 18.3464 64.0546 15.2208C60.4565 13.5627 55.9318 12.8357 50.5371 12.8357V2.27344Z" fill="#9197A8"/>
<path d="M50.5384 12.8357V18.628C50.5384 21.2606 48.4032 23.3958 45.7705 23.3958H44.862H35.0924H34.1861C31.5512 23.3958 29.416 21.2606 29.416 18.628V18.0056V7.66366V7.04353C29.416 4.40864 31.5512 2.27344 34.1861 2.27344H50.5384V12.8357Z" fill="#C0BFD4"/>
<path d="M44.8594 39.3027V74.8512C44.8594 77.5474 42.672 79.7348 39.9757 79.7348C37.2773 79.7348 35.0898 77.5474 35.0898 74.8512V39.3027H44.8594Z" fill="#DBB67E"/>
<path d="M44.8594 23.3984H35.0898V39.301H44.8594V23.3984Z" fill="#6E5B3F"/>
<path d="M29.4169 7.65625H20.5195V17.9982H29.4169V7.65625Z" fill="#9197A8"/>
<path d="M20.5184 7.65707V17.999V18.9622C20.5184 20.4045 19.3509 21.5721 17.9085 21.5721H10.2583C8.81598 21.5721 7.64844 20.4045 7.64844 18.9622V6.69613C7.64844 5.25377 8.81598 4.08398 10.2583 4.08398H17.9087C19.3511 4.08398 20.5186 5.25377 20.5186 6.69613L20.5184 7.65707Z" fill="#C0BFD4"/>
<path d="M68.2884 5.40591C63.7196 1.91979 57.4157 0 50.5383 0H34.186C30.8722 0 28.0874 2.30193 27.3419 5.39022H22.6064C22.0319 3.33269 20.1459 1.81713 17.9087 1.81713H10.2584C7.56661 1.81713 5.37695 4.00791 5.37695 6.70078V18.9667C5.37695 21.6584 7.56693 23.8481 10.2584 23.8481H17.9087C20.1466 23.8481 22.033 22.3323 22.6067 20.275H27.3414C27.9811 22.9281 30.1269 25.0001 32.8208 25.5313V37.0248H31.0626C29.8081 37.0248 28.7912 38.0418 28.7912 39.2963C28.7912 40.5508 29.8081 41.5678 31.0626 41.5678H32.8208V74.8447C32.8208 78.79 36.0315 81.9998 39.9782 81.9998C43.9235 81.9998 47.1334 78.79 47.1334 74.8447V60.5913C47.1334 59.3368 46.1164 58.3198 44.8619 58.3198C43.6074 58.3198 42.5904 59.3368 42.5904 60.5913V74.8447C42.5904 76.285 41.4185 77.4568 39.9782 77.4568C38.5365 77.4568 37.3638 76.285 37.3638 74.8447V41.5679H42.5905V46.9059C42.5905 48.1604 43.6075 49.1774 44.862 49.1774C46.1165 49.1774 47.1335 48.1604 47.1335 46.9059V41.5679H48.894C50.1485 41.5679 51.1655 40.5509 51.1655 39.2964C51.1655 38.0419 50.1485 37.0249 48.894 37.0249H47.1335V25.5318C50.3648 24.8952 52.8099 22.0412 52.8099 18.626V15.1546C57.0136 15.3354 60.3991 16.0348 63.1056 17.2821C69.1979 20.0886 72.4595 24.6508 72.4877 24.691C72.9204 25.3132 73.6232 25.6657 74.3529 25.6657C74.5792 25.6657 74.808 25.6319 75.0323 25.5616C75.9794 25.2645 76.6241 24.3868 76.6241 23.3942C76.6237 15.7868 73.7416 9.56645 68.2884 5.40591ZM27.1444 15.7321H22.7901V9.93305H27.1444V15.7321ZM18.2471 18.9668C18.2471 19.1536 18.0954 19.3052 17.9087 19.3052H10.2584C10.0716 19.3052 9.91995 19.1536 9.91995 18.9668V6.70078C9.91995 6.51291 10.0716 6.36013 10.2584 6.36013H17.9087C18.0954 6.36013 18.2471 6.51307 18.2471 6.70078V18.9668ZM37.3637 37.0249V25.6654H42.5904V37.0249H37.3637ZM48.2668 18.626C48.2668 20.0026 47.147 21.1224 45.7704 21.1224H34.186C32.8084 21.1224 31.6874 20.0026 31.6874 18.626V18.0036V7.66171V7.04159C31.6874 5.66393 32.8084 4.54299 34.186 4.54299H48.2668V12.8338V18.626ZM65.0066 13.1559C61.7148 11.6387 57.7085 10.7995 52.8099 10.6059V4.62259C60.6888 5.17961 68.486 8.7133 71.1333 16.9322C69.4849 15.6258 67.4409 14.2773 65.0066 13.1559Z" fill="#0D0D0D"/>
<path d="M44.8613 50.5449C43.6068 50.5449 42.5898 51.5619 42.5898 52.8164V53.5546C42.5898 54.8091 43.6068 55.8261 44.8613 55.8261C46.1158 55.8261 47.1328 54.8091 47.1328 53.5546V52.8164C47.1328 51.5619 46.1158 50.5449 44.8613 50.5449Z" fill="#0D0D0D"/>
</svg>
