<svg width="80" height="80" viewBox="0 0 80 80" fill="none" xmlns="http://www.w3.org/2000/svg">
<g clip-path="url(#clip0_41702_4515)">
<path fill-rule="evenodd" clip-rule="evenodd" d="M75 60C75 62.76 72.76 65 70 65H67.64C69.1225 60.845 70 56.2025 70 51.25C70 47.2675 69.415 43.495 68.43 40H70C72.76 40 75 42.24 75 45V60ZM62.1825 65H60C57.24 65 55 62.76 55 60V45C55 42.24 57.24 40 60 40H63.145C64.3075 43.465 65 47.2425 65 51.25C65 56.25 63.945 60.9075 62.1825 65ZM11.5725 40C10.585 43.495 10 47.2675 10 51.25C10 56.2025 10.88 60.845 12.36 65H10C7.24 65 5 62.76 5 60V45C5 42.24 7.24 40 10 40H11.5725ZM16.855 40H20C22.76 40 25 42.24 25 45V60C25 62.76 22.76 65 20 65H17.8175C16.055 60.9075 15 56.25 15 51.25C15 47.2425 15.6925 43.465 16.855 40ZM74.845 36.3025C74.915 35.4575 75 34.615 75 33.75C75 15.11 59.33 0 40 0C20.67 0 5 15.11 5 33.75C5 34.615 5.08497 35.4575 5.15747 36.3025C2.09497 38.0125 0 41.245 0 45V60C0 65.5225 4.4775 70 10 70C10 70 20.01 70.015 20 70C25.3125 69.7625 30 65.37 30 60V45C30 39.4775 25.5225 35 20 35H10C10 18.3425 23.4325 5 40 5C56.57 5 70 17.1675 70 35H60C54.4775 35 50 39.4775 50 45V60C50 65.37 54.6875 69.7625 60 70C59.99 70.015 65 70 65 70V77.5C65 78.8825 66.1175 80 67.5 80C68.8825 80 70 78.8825 70 77.5V70C75.5225 70 80 65.5225 80 60V45C80 41.245 77.905 38.0125 74.845 36.3025Z" fill="#0084BF"/>
</g>
<defs>
<clipPath id="clip0_41702_4515">
<rect width="80" height="80" fill="white"/>
</clipPath>
</defs>
</svg>
