<svg width="74" height="74" viewBox="0 0 74 74" fill="none" xmlns="http://www.w3.org/2000/svg">
<g clip-path="url(#clip0_41702_4436)">
<path d="M64.75 69.3758C64.75 70.6523 63.714 71.6883 62.4375 71.6883H43.9375V54.3446C43.9375 53.7052 43.4207 53.1883 42.7812 53.1883H31.2188C30.5793 53.1883 30.0625 53.7052 30.0625 54.3446V71.6883H11.5625C10.286 71.6883 9.25 70.6523 9.25 69.3758V36.3198L37.0104 8.56055L64.75 36.3001V69.3758Z" fill="#F9EBB2"/>
<path d="M16.1875 6.9375H20.8125V14.5699L16.1875 19.1857V6.9375Z" fill="#F76D57"/>
<path d="M41.625 55.5H32.375V71.6875H41.625V55.5Z" fill="#F9EBB2"/>
<path d="M70.5312 38.1562C70.2121 38.1562 69.8352 38.1146 69.6271 37.9053L37.8279 6.10616C37.6024 5.88069 37.3064 5.76737 37.0104 5.76737C36.7144 5.76737 36.4184 5.88069 36.1929 6.10616L4.38334 37.9169C4.17406 38.1262 3.78787 38.1562 3.46875 38.1562C2.82934 38.1562 2.3125 37.6394 2.3125 37C2.3125 36.6809 2.331 36.2808 2.54028 36.0715L35.8842 2.78656C35.8842 2.78656 36.3155 2.3125 37.0104 2.3125C37.7053 2.3125 38.1458 2.77269 38.1458 2.77269L71.4528 36.0785C71.6621 36.2877 71.6875 36.6809 71.6875 37C71.6875 37.6382 71.1707 38.1562 70.5312 38.1562Z" fill="#F76D57"/>
<path d="M73.0877 34.4435L39.8189 1.17359C39.8189 1.17359 38.7355 0 37.0092 0C35.283 0 34.262 1.14584 34.262 1.14584L23.125 12.2609V5.78125C23.125 5.14184 22.6082 4.625 21.9688 4.625H15.0312C14.3918 4.625 13.875 5.14184 13.875 5.78125V21.4935L0.905344 34.4366C0.2775 35.0644 0 36.0426 0 37C0 38.9148 1.55284 40.4688 3.46875 40.4688C4.42613 40.4688 5.39044 40.1785 6.01828 39.5507L6.9375 38.6315V69.375C6.9375 71.9315 9.00603 74 11.5625 74H62.4375C64.994 74 67.0625 71.9315 67.0625 69.375V38.6118L67.9921 39.5414C68.62 40.167 69.5739 40.4688 70.5312 40.4688C72.4472 40.4688 74 38.9159 74 37C74 36.0415 73.7156 35.0714 73.0877 34.4435ZM16.1875 6.9375H20.8125V14.5699L16.1875 19.1857V6.9375ZM41.625 71.6875H32.375V55.5H41.625V71.6875ZM64.75 69.375C64.75 70.6515 63.714 71.6875 62.4375 71.6875H43.9375V54.3438C43.9375 53.7043 43.4207 53.1875 42.7812 53.1875H31.2188C30.5793 53.1875 30.0625 53.7043 30.0625 54.3438V71.6875H11.5625C10.286 71.6875 9.25 70.6515 9.25 69.375V36.319L37.0104 8.55972L64.75 36.2993V69.375ZM70.5312 38.1562C70.2121 38.1562 69.8352 38.1146 69.6271 37.9053L37.8279 6.10616C37.6024 5.88069 37.3064 5.76737 37.0104 5.76737C36.7144 5.76737 36.4184 5.88069 36.1929 6.10616L4.38334 37.9169C4.17406 38.1262 3.78787 38.1562 3.46875 38.1562C2.82934 38.1562 2.3125 37.6394 2.3125 37C2.3125 36.6809 2.331 36.2808 2.54028 36.0715L35.8842 2.78656C35.8842 2.78656 36.3155 2.3125 37.0104 2.3125C37.7053 2.3125 38.1458 2.77269 38.1458 2.77269L71.4528 36.0785C71.6621 36.2877 71.6875 36.6809 71.6875 37C71.6875 37.6382 71.1707 38.1562 70.5312 38.1562Z" fill="#394240"/>
<path d="M26.5938 37H17.3438C16.7043 37 16.1875 37.5168 16.1875 38.1563V47.4063C16.1875 48.0457 16.7043 48.5625 17.3438 48.5625H26.5938C27.2332 48.5625 27.75 48.0457 27.75 47.4063V38.1563C27.75 37.5168 27.2332 37 26.5938 37ZM25.4375 46.25H18.5V39.3125H25.4375V46.25Z" fill="#394240"/>
<path d="M47.4063 48.5625H56.6563C57.2957 48.5625 57.8125 48.0457 57.8125 47.4063V38.1563C57.8125 37.5168 57.2957 37 56.6563 37H47.4063C46.7668 37 46.25 37.5168 46.25 38.1563V47.4063C46.25 48.0457 46.7668 48.5625 47.4063 48.5625ZM48.5625 39.3125H55.5V46.25H48.5625V39.3125Z" fill="#394240"/>
<path d="M41.625 55.5H32.375V71.6875H41.625V55.5Z" fill="#506C7F"/>
<path d="M25.4375 39.3125H18.5V46.25H25.4375V39.3125Z" fill="#45AAB8"/>
<path d="M55.5 39.3125H48.5625V46.25H55.5V39.3125Z" fill="#45AAB8"/>
</g>
<defs>
<clipPath id="clip0_41702_4436">
<rect width="74" height="74" fill="white"/>
</clipPath>
</defs>
</svg>
