<svg width="200" height="140" viewBox="0 0 200 140" fill="none" xmlns="http://www.w3.org/2000/svg">
<path d="M146.814 74.2469L136.893 83.4234C135.697 84.5411 134.579 85.7371 133.363 86.8352L120.403 98.3842C118.442 100.07 116.618 101.874 114.736 103.6C113.563 104.759 112.333 105.859 111.05 106.894C110.383 107.384 109.697 107.835 109.089 108.286C108.481 108.737 107.599 109.11 106.873 109.521C106.148 109.933 105.893 109.521 106.285 108.698C106.906 107.324 107.655 106.011 108.52 104.776C110.677 102.325 113.207 100.188 115.56 97.8548C117.913 95.5214 120.383 93.3058 122.913 91.1097C125.913 88.4626 128.677 85.3254 131.54 82.4038L141.011 72.7567C142.971 70.796 144.932 68.8352 146.775 66.8744C149.638 63.8156 152.658 60.796 155.246 57.5999C157.235 55.0964 159.075 52.4774 160.756 49.7567C161.128 49.1685 161.462 48.5607 161.854 47.992C162.52 46.9724 163.03 46.345 163.697 46.0312C164.413 46.0445 165.127 46.11 165.834 46.2273C166.246 46.2273 166.677 46.2273 167.03 46.2273C167.383 46.2273 168.03 46.6195 168.305 47.443C168.44 47.9475 168.48 48.4729 168.422 48.992C168.377 49.4961 168.223 49.9844 167.971 50.4234C164.935 55.7231 161.159 60.5627 156.756 64.796C153.579 68.0509 150.265 71.1881 146.952 74.3646L146.814 74.2469Z" fill="white"/>
<path d="M113.894 130.561C116.384 131.091 118.816 131.777 121.227 132.522C122.11 132.777 123.012 132.973 123.894 133.287C126.93 134.431 129.874 135.807 132.698 137.404C133.953 138.13 135.247 138.757 136.502 139.365C137.338 139.794 138.132 140.299 138.874 140.875C139.557 141.56 140.138 142.339 140.6 143.189C140.894 143.718 140.423 144.051 139.58 144.267C138.592 144.542 137.557 144.609 136.541 144.463C136.136 144.375 135.755 144.201 135.423 143.953L134.404 143.287L132.227 142.012L127.757 139.463C125.828 138.516 123.794 137.799 121.698 137.326C119.423 136.64 117.11 136.071 114.776 135.561C113.325 135.287 111.874 135.012 110.404 134.816L107.071 134.444C105.953 134.444 104.835 134.306 103.718 134.306C101.995 134.425 100.285 134.674 98.6 135.051C98.2274 135.051 97.8549 135.248 97.4823 135.306C96.0901 135.306 95.5215 134.993 95.2274 133.62C95.2274 133.326 95.0313 133.051 94.9725 132.797C94.8041 131.779 95.3792 130.785 96.3451 130.424C97.8969 129.782 99.5494 129.417 101.227 129.346C102.924 129.218 104.628 129.218 106.325 129.346C108.872 129.532 111.406 129.865 113.914 130.346L113.894 130.561Z" fill="white"/>
<path d="M127.795 96.3834L101.992 116.619C98.8542 119.089 95.8739 121.697 92.717 124.148C89.8575 126.147 87.2272 128.455 84.8739 131.03C84.2637 131.671 83.6084 132.268 82.9131 132.815C82.6974 133.011 82.6582 133.03 82.5993 133.05C82.5314 133.107 82.472 133.173 82.4229 133.246C82.2268 133.501 81.9915 133.776 81.7954 134.07C80.9523 135.246 80.3052 136.697 79.4817 137.991C77.8655 140.949 76.4569 144.015 75.266 147.168L74.7954 148.364L74.2464 149.893L72.815 153.638C71.9523 156.05 71.168 158.462 70.3248 160.285C69.7469 161.545 69.0088 162.725 68.1288 163.795C67.8016 164.261 67.3346 164.612 66.7954 164.795H66.4817C66.4817 165.05 66.4817 164.795 66.4817 164.932H66.3248C66.1374 164.872 65.954 164.8 65.7758 164.717C65.4199 164.541 65.09 164.316 64.7954 164.05C64.4817 163.795 64.2268 163.54 63.9523 163.305C63.695 163.01 63.4529 162.703 63.2268 162.383C62.7663 161.762 62.3534 161.106 61.9915 160.423C61.5494 159.685 61.1564 158.918 60.815 158.128C60.5274 157.253 60.2137 156.37 59.8739 155.481C59.4817 154.285 59.2464 152.854 58.8542 151.56L58.3444 149.403C58.1484 148.736 58.0111 147.776 57.9131 147.442L57.3444 144.462C57.1027 143.484 56.9517 142.487 56.8935 141.481L56.4621 135.756C56.3711 134.857 56.3383 133.953 56.364 133.05C56.3577 132.281 56.2922 131.514 56.168 130.756C56.168 130.344 56.168 130.148 56.168 129.893C56.1733 129.606 56.2771 129.329 56.4621 129.109C57.2206 128.363 58.3976 128.248 59.2856 128.834C61.0731 129.797 62.6315 131.135 63.8542 132.756C65.2759 134.599 66.2493 136.747 66.6974 139.03C66.8739 140.05 67.1091 140.991 67.1876 142.089V146.619C67.1876 146.972 67.1876 146.874 67.1876 146.874C67.1059 147.068 67.1059 147.287 67.1876 147.481C67.3052 147.736 67.3837 147.736 67.6386 147.481L67.8542 147.187C67.8542 147.187 67.8542 147.187 67.9523 146.952L68.0699 146.579L68.5405 145.089C69.2072 143.128 69.9131 141.168 70.7366 139.207C71.2268 138.011 71.7366 136.815 72.2856 135.619C72.5797 135.011 72.8542 134.403 73.168 133.795C73.4817 133.187 73.8739 132.619 74.2464 132.03C75.055 130.784 75.9527 129.598 76.9327 128.481C77.2905 128.131 77.6704 127.803 78.0699 127.501L78.7954 126.932C79.2807 126.533 79.7916 126.167 80.3248 125.834C81.3837 125.148 82.5013 124.521 83.5013 123.874L86.3052 121.109L91.8935 116.109L116.482 94.3834L124.07 87.6775C126.619 85.4814 129.168 83.2853 131.697 81.05C139.364 74.305 147.05 67.5206 154.325 60.4618C157.129 57.6971 159.795 54.854 162.403 51.9716C165.011 49.0893 167.521 46.0893 170.07 43.2461C171.168 41.9324 172.344 40.7559 173.56 39.5599C175.132 37.9231 176.912 36.4992 178.854 35.3246C179.461 34.9763 180.125 34.7374 180.815 34.6187C181.467 34.5542 182.124 34.5542 182.776 34.6187C183.305 34.6187 183.874 34.6187 184.246 34.6187C185.286 34.7167 185.207 38.1285 182.58 42.2461C181.639 43.8148 180.619 45.2657 179.599 46.7755L178.05 49.0304C177.521 49.7755 176.913 50.4422 176.344 51.1481C173.835 53.9585 171.325 56.6906 168.815 59.3442C166.266 61.9716 163.639 64.5599 160.972 67.1873L152.972 74.7559C144.815 82.1677 136.508 89.4291 128.05 96.5402L127.795 96.3834Z" fill="white"/>
<path d="M138.089 70.4236C131.553 74.3452 125.017 78.2667 118.481 82.1883C116.108 83.6393 113.873 85.2864 111.501 86.7177L86.4222 101.875C82.6771 104.09 79.0496 106.522 75.481 108.933C70.9011 112.058 66.1267 114.887 61.1869 117.404C59.6379 118.169 59.4222 117.522 60.0888 115.953C61.1595 113.538 62.6612 111.339 64.5202 109.463L67.6379 106.58L69.2065 105.11L70.8928 103.816C73.1411 102.09 75.4156 100.404 77.7163 98.7569C80.03 97.1099 82.3241 95.4432 84.7555 93.953C87.1869 92.4628 89.6379 90.8942 92.1869 89.5805C98.1673 86.2471 103.834 81.953 109.677 78.1491C116.108 73.9726 122.618 69.8942 129.089 65.7962L141.089 58.2471C147.108 54.3256 153.246 50.6785 159.128 46.6785C163.697 43.5805 168.03 40.2863 172.54 37.1687C173.54 36.4824 174.501 35.7569 175.52 35.2079C179.442 32.8354 181.403 33.0118 182.971 34.1099C183.362 34.337 183.736 34.5926 184.089 34.8746C184.599 35.3648 184.559 36.0707 184.089 36.9922C183.544 38.2104 182.757 39.3046 181.775 40.2079C180.03 41.9922 178.089 43.4432 176.187 45.0903C174.285 46.7373 172.265 48.2471 170.305 49.8158C166.278 52.9642 162.068 55.8712 157.697 58.5216C151.265 62.6393 144.677 66.6001 138.089 70.6785V70.4236Z" fill="white"/>
<path d="M124.62 137.58C122.158 136.712 119.643 136.004 117.09 135.463C116.149 135.227 115.129 135.325 114.228 135.129C112.561 134.757 110.875 134.619 109.149 134.365C107.425 134.153 105.69 134.042 103.953 134.031C102.418 134.041 100.891 134.238 99.404 134.619C97.5513 135.273 95.6038 135.617 93.6393 135.639C92.9922 135.639 92.6589 133.972 92.7962 132.306C92.9334 130.639 93.6001 128.914 94.7569 128.6C99.0488 127.526 103.519 127.373 107.875 128.149C110.482 128.6 113.208 128.384 115.855 128.757C118.759 129.179 121.625 129.835 124.424 130.717C126.149 131.286 127.855 131.835 129.522 132.482C132.071 133.404 134.482 134.659 136.953 135.737C138.924 136.477 140.844 137.348 142.698 138.345C143.071 138.619 143.482 138.855 143.835 139.168C145.11 140.404 145.247 141.129 144.698 142.306C144.603 142.561 144.491 142.81 144.365 143.051C143.7 143.843 142.619 144.146 141.639 143.815C140.757 143.619 139.796 143.521 138.914 143.365C138.077 143.19 137.266 142.906 136.502 142.521L131.796 140.561C129.42 139.533 126.984 138.649 124.502 137.914L124.62 137.58Z" fill="white"/>
<path d="M168.521 77.7378C167.502 80.0319 166.561 82.3653 165.561 84.6986C164.561 87.0319 163.6 89.3457 162.659 91.7182C161.972 93.4241 161.521 95.228 160.855 96.9535C158.502 103.032 156.267 109.189 154.463 115.444C153.718 118.346 152.972 121.052 152.384 123.855C152.031 125.64 151.718 127.444 151.443 129.228C151.037 130.949 150.723 132.69 150.502 134.444C150.502 135.306 150.031 135.64 149.051 134.718C147.795 133.217 146.998 131.386 146.757 129.444C146.664 125.511 146.887 121.576 147.423 117.679C148.159 113.869 149.201 110.125 150.541 106.483C152.129 102.091 153.031 97.3653 154.463 92.7574C156.051 87.7966 157.718 82.9535 159.718 78.0319C160.914 75.0712 162.188 72.1496 163.443 69.1692C165.404 64.6986 167.521 60.3065 169.541 55.9143C170.365 54.2084 171.051 52.4633 171.796 50.7182C172.474 48.9399 173.287 47.216 174.227 45.5614C174.659 44.8359 174.992 44.0712 175.502 43.3653C177.345 40.7574 178.561 40.3065 180.423 41.0319C180.86 41.1695 181.287 41.34 181.698 41.5417C182.992 42.3065 183.168 44.0123 182.404 45.9535C181.247 48.8751 180.443 52.0123 178.894 54.8947L174.737 63.9143C172.776 68.4633 170.6 73.0712 168.737 77.777L168.521 77.7378Z" fill="white"/>
<path d="M104.835 77.5802L74.2466 90.1293C70.5211 91.6587 66.9328 93.443 63.2074 94.9724L43.5995 103.051L41.2073 104.07L39.9917 104.619L39.0309 105.051L36.8936 105.874C35.423 106.482 33.776 107.168 32.0505 107.972C31.6583 108.149 31.2858 108.325 30.9328 108.521C30.7453 108.611 30.5732 108.73 30.423 108.874C30.5407 108.874 30.7564 108.874 30.9328 108.874L33.1877 109.031C34.7564 109.129 36.3642 109.227 37.8152 109.384C38.2858 109.384 38.7564 109.482 39.2073 109.561C39.3446 109.561 39.3642 109.561 39.6191 109.561L40.4034 109.737L41.9524 110.09C44.0452 110.586 46.097 111.242 48.0897 112.051C50.1862 112.887 52.1639 113.994 53.9721 115.345C55.8755 116.835 57.3281 118.824 58.1681 121.09C58.6975 122.502 58.4622 123.247 58.0309 123.384C57.5995 123.521 56.776 123.129 55.5995 122.717C54.1145 122.261 52.5638 122.056 51.0113 122.11C49.2626 121.943 47.535 121.601 45.8544 121.09C44.171 120.566 42.4548 120.153 40.7172 119.855C39.8152 119.698 38.9132 119.541 37.9917 119.423L37.2858 119.306L35.7564 119.09C34.6975 119.09 33.5799 118.972 32.4819 118.914L29.2466 118.521L25.8936 118.188L22.423 117.914L20.6779 117.796C20.1491 117.777 19.6236 117.705 19.1093 117.58C17.7384 117.309 16.4415 116.747 15.3054 115.933C14.6493 115.549 14.1599 114.933 13.9328 114.208C13.8014 113.742 13.7419 113.26 13.7564 112.776C13.788 112.503 13.788 112.226 13.7564 111.953C13.7166 111.686 13.7166 111.415 13.7564 111.149C13.9565 109.66 14.6463 108.281 15.7172 107.227C16.7686 106.106 18.0184 105.188 19.4034 104.521L20.0309 104.188L21.0897 103.914C21.7564 103.737 22.5407 103.561 23.0505 103.384L25.9132 102.168L31.423 99.894L34.0897 98.9136L35.325 98.4038L35.8936 98.1881L36.2466 98.0508C45.4622 94.4038 54.5603 89.6195 63.6975 85.4626L94.2662 71.8744L112.952 63.443C122.325 59.1293 131.913 55.1685 141.109 50.6195C144.678 48.8744 148.149 46.992 151.58 45.0704L161.952 39.6195C163.482 38.8155 164.933 37.9724 166.482 37.1881C168.031 36.4038 169.09 35.894 170.09 35.443C170.956 35.1103 171.848 34.848 172.756 34.6587C173.892 34.395 175.072 34.395 176.207 34.6587C176.649 34.7401 177.094 34.799 177.541 34.8351C178.207 34.9332 178.168 35.8155 177.423 37.0508C176.333 38.7184 175.013 40.2235 173.501 41.5214C167.619 45.9332 161.58 50.0116 155.266 53.9332C148.796 57.5214 142.129 60.8744 135.403 64.1685C130.403 66.5802 125.521 69.0312 120.305 71.2861L104.952 77.8351L104.835 77.5802Z" fill="white"/>
</svg>
