<svg width="82" height="82" viewBox="0 0 82 82" fill="none" xmlns="http://www.w3.org/2000/svg">
<path d="M8.37448 12.629C8.72569 12.6263 9.07691 12.6637 9.43383 12.7365C12.0472 13.2677 13.8492 15.7476 13.5358 18.3962L12.1809 29.6911L12.5565 29.5965C15.2866 28.8634 18.1333 30.4939 18.8635 33.2235L21.0993 41.5806L26.9629 47.4928C29.0159 49.5685 30.3392 52.2625 30.7385 55.1543L31.6808 62.0456L32.9926 61.6941C33.1968 61.6364 33.4104 61.6202 33.6209 61.6468C34.2512 61.7357 34.7664 62.195 34.9266 62.8109L37.7907 73.4709C38.0178 74.3117 37.5201 75.177 36.6793 75.4043C36.6782 75.4043 36.6772 75.4047 36.676 75.405L12.3228 81.9452C11.482 82.1719 10.6164 81.6746 10.3895 80.8338C10.3893 80.8326 10.3891 80.8318 10.3887 80.831L7.54927 70.171C7.32341 69.3298 7.82204 68.4653 8.66322 68.2393C8.66558 68.2385 8.66795 68.2381 8.67031 68.2373L11.3249 67.522L3.00993 52.0585C0.387276 47.1652 -0.55185 41.5571 0.312185 36.071L3.31167 16.9797C3.70881 14.4597 5.91659 12.6564 8.37448 12.6381V12.629Z" fill="#484666"/>
<path d="M8.7746 15.8039H8.74997C7.62459 15.5863 6.6021 16.3164 6.42176 17.4604L3.41616 36.5453C2.65895 41.3531 3.49539 46.2682 5.79364 50.556L14.435 66.6729L28.6011 62.8606L27.6033 55.5633C27.2972 53.3459 26.2701 51.2857 24.6962 49.6943L18.2721 43.1787L15.8268 34.0332C15.5371 32.95 14.4647 32.3448 13.3815 32.6354L12.661 32.8212C11.5756 33.1145 10.9725 34.1808 11.2628 35.2661L14.8229 48.5808L11.7741 49.3939L8.21409 36.0791C7.84573 34.7018 8.07829 33.2996 8.74997 32.1501C8.72967 31.9777 8.73795 31.8028 8.7746 31.6331L10.3759 18.0166C10.5003 16.9657 9.82312 16.0399 8.79313 15.83C8.78682 15.8195 8.78071 15.8093 8.7746 15.7984V15.8039Z" fill="#FFD3B3"/>
<path d="M32.3023 65.1719L11.0039 70.8754L13.0302 78.4872L34.3285 72.7843L32.3023 65.1719Z" fill="#36D7B7"/>
<path d="M32.3046 65.1719L31.2267 65.4622L33.1791 72.7853L12.959 78.1991L13.0329 78.4894L34.3309 72.7865L32.3046 65.1719Z" fill="#37B89E"/>
<path d="M8.76636 15.796C8.37948 15.7201 8.02097 15.796 7.68848 15.9188C8.574 16.2184 9.15108 17.0444 9.03736 18.0069L7.43601 31.6242C7.39936 31.7939 7.39108 31.9691 7.41138 32.1416C6.7397 33.2914 6.50714 34.693 6.87549 36.071L10.4355 49.3806L11.6981 49.0418L8.23048 36.0707C7.86212 34.693 8.09468 33.2912 8.76636 32.1414C8.74606 31.9689 8.75434 31.7937 8.791 31.624L10.3923 18.0067C10.5167 16.9557 9.83951 16.0296 8.80952 15.82C8.80322 15.8096 8.79711 15.7993 8.791 15.7885L8.76636 15.796ZM14.1926 32.5667C13.9352 32.5352 13.6689 32.5667 13.3981 32.6298L13.1888 32.6832C13.7984 32.8819 14.3061 33.3445 14.4884 34.026L16.9335 43.1719L23.3574 49.6819C24.9316 51.2733 25.9584 53.334 26.2645 55.5514L27.2623 62.8498L14.2791 66.3419L14.4516 66.6622L28.6173 62.8498L27.6194 55.5514C27.3134 53.334 26.2865 51.2733 24.7124 49.6819L18.2885 43.1719L15.8434 34.026C15.6262 33.2138 14.965 32.6649 14.1928 32.5663L14.1926 32.5667Z" fill="#D8B59B"/>
<path d="M73.6255 12.629C73.2742 12.6263 72.923 12.6637 72.5661 12.7365C69.9527 13.2677 68.1507 15.7476 68.4641 18.3962L69.8191 29.6911L69.4434 29.5965C66.7134 28.8634 63.8666 30.4939 63.1364 33.2235L60.9006 41.5806L55.0371 47.4928C52.984 49.5685 51.6607 52.2625 51.2614 55.1543L50.3191 62.0456L49.0073 61.6941C48.8031 61.6364 48.5895 61.6202 48.379 61.6468C47.7487 61.7357 47.2335 62.195 47.0733 62.8109L44.2092 73.4709C43.9822 74.3117 44.4798 75.177 45.3206 75.4043C45.3218 75.4043 45.3228 75.4047 45.3239 75.405L69.6772 81.9452C70.518 82.1719 71.3836 81.6746 71.6104 80.8338C71.6106 80.8326 71.6108 80.8318 71.6112 80.831L74.4507 70.171C74.6765 69.3298 74.1779 68.4653 73.3367 68.2393C73.3343 68.2385 73.332 68.2381 73.3296 68.2373L70.675 67.522L78.99 52.0585C81.6127 47.1652 82.5518 41.5571 81.6877 36.071L78.6883 16.9797C78.2911 14.4597 76.0833 12.6564 73.6255 12.6381V12.629Z" fill="#484666"/>
<path d="M73.2035 15.8039H73.2281C74.3535 15.5863 75.376 16.3164 75.5563 17.4604L78.5619 36.5453C79.3191 41.3531 78.4827 46.2682 76.1844 50.556L67.5431 66.6729L53.377 62.8606L54.3748 55.5633C54.6809 53.3459 55.7079 51.2857 57.2819 49.6943L63.706 43.1787L66.1512 34.0332C66.441 32.95 67.5133 32.3448 68.5965 32.6354L69.3171 32.8212C70.4024 33.1145 71.0055 34.1808 70.7152 35.2661L67.1552 48.5808L70.204 49.3939L73.764 36.0791C74.1323 34.7018 73.8998 33.2996 73.2281 32.1501C73.2484 31.9777 73.2401 31.8028 73.2035 31.6331L71.6021 18.0166C71.4777 16.9657 72.1549 16.0399 73.1849 15.83C73.1912 15.8195 73.1975 15.8093 73.2035 15.7984V15.8039Z" fill="#FFD3B3"/>
<path d="M49.704 65.1719L71.0024 70.8756L68.9761 78.4874L47.6777 72.7845L49.704 65.1719Z" fill="#36D7B7"/>
<path d="M49.693 65.1719L49.582 65.5846L69.3401 70.8752L67.4246 78.0751L68.9645 78.4878L70.9908 70.8752L49.693 65.1719Z" fill="#37B89E"/>
<path d="M73.2037 15.7968C73.1976 15.8076 73.1915 15.8179 73.1852 15.8283C73.0849 15.8598 73.0074 15.9071 72.9142 15.9389C73.5311 16.191 74.0116 16.7233 74.1275 17.4603L77.1331 36.5467C77.8903 41.3546 77.0538 46.2648 74.7556 50.5521L66.293 66.3314L67.5433 66.6707L76.1845 50.5527C78.4827 46.265 79.319 41.3548 78.5619 36.5473L75.5565 17.4609C75.3762 16.3167 74.3539 15.5861 73.2283 15.804L73.2037 15.7968ZM67.8023 32.5675C67.6667 32.599 67.5473 32.6526 67.4203 32.6968L67.8884 32.8135C68.9738 33.1068 69.5769 34.1731 69.2866 35.2587L65.7266 48.5683L68.7753 49.3814L68.8678 49.024L67.1555 48.5681L70.7155 35.2585C71.0058 34.1729 70.4027 33.1054 69.3173 32.8133L68.5968 32.6274C68.326 32.5551 68.0597 32.5328 67.8023 32.5643V32.5675Z" fill="#D8B59B"/>
<path d="M32.3325 0.000781955C26.6974 0.000781955 22.0898 4.56328 22.0898 10.1722C22.0898 10.1722 22.0898 10.1722 22.0898 10.2037C22.093 13.1975 23.5861 15.7129 25.4187 17.6981C30.2339 22.9159 39.8049 34.1544 39.8049 34.1544C40.4268 34.8778 41.5431 34.8886 42.1795 34.1859C42.1795 34.1859 52.4058 22.6422 57.334 16.9381C58.9432 15.0761 59.9141 12.7286 59.918 10.2112C59.918 10.2112 59.918 10.2112 59.918 10.1797C59.918 4.57076 55.3105 0.00846918 49.6753 0.00846918C44.5607 0.00846918 41.885 3.1954 41.0417 4.19549C39.8761 3.11991 36.0364 0.0924403 32.3327 0L32.3325 0.000781955Z" fill="#484666"/>
<path d="M32.3267 3.18574C36.0759 3.18574 39.7758 7.32899 39.7758 7.32899C40.4077 8.10123 41.5883 8.10123 42.2201 7.32899C42.2201 7.32899 45.9201 3.18574 49.6693 3.18574C53.6116 3.18574 56.7692 6.30349 56.7692 10.1917C56.7666 11.8944 56.09 13.5513 54.9302 14.8933C50.4229 20.11 42.4014 29.1743 41.0094 30.7442C39.6542 29.154 32.2666 20.4727 27.7406 15.5682C26.2228 13.9236 25.2285 12.1186 25.2266 10.1915C25.2266 6.3033 28.3841 3.18555 32.3265 3.18555L32.3267 3.18574Z" fill="#D87070"/>
<path d="M32.3364 3.18673C32.0311 3.18673 31.7382 3.23718 31.4434 3.27187C34.9438 3.71988 38.2061 7.33097 38.2061 7.33097C38.7151 7.95302 39.5664 8.04389 40.214 7.66329C40.0595 7.57163 39.9046 7.48037 39.7828 7.33097C39.7828 7.33097 36.0858 3.18574 32.3366 3.18574L32.3364 3.18673ZM49.674 3.18673C49.4438 3.18673 49.2194 3.2433 48.9903 3.27187C52.5021 3.70451 55.1986 6.60762 55.1986 10.1947C55.1961 11.8974 54.523 13.5515 53.3631 14.8939C49.1141 19.8118 42.2351 27.5872 40.2382 29.8417C40.393 30.0246 40.9176 30.634 41.0144 30.7471C42.4064 29.1768 50.4326 20.1106 54.9399 14.8939C56.0995 13.5515 56.7726 11.8974 56.7753 10.1947C56.7753 6.30645 53.6164 3.18555 49.674 3.18555V3.18673Z" fill="#BD5858"/>
</svg>
