<svg width="325" height="276" viewBox="0 0 325 276" fill="none" xmlns="http://www.w3.org/2000/svg">
<g clip-path="url(#clip0_35348_5839)">
<path d="M30.9897 256.883C27.4207 245.193 21.6679 220.333 29.6249 191.037C32.7503 179.497 42.8296 142.292 78.8202 124.235C83.0035 122.133 112.149 108.055 144.817 118.093C188.184 131.373 183.032 170.325 226.836 184.383C255.129 193.432 274.687 182.745 290.39 199.806C297.336 207.411 301.558 217.109 302.393 227.375C303.228 237.641 300.629 247.893 295.003 256.521L30.9897 256.883Z" fill="#EDEDED"/>
<path d="M254.133 223.343C255.166 223.799 256.153 224.352 257.081 224.994C260.773 227.54 261.25 229.962 264.676 231.545C265.735 232.036 266.867 232.354 268.027 232.487C269.957 232.696 271.91 232.417 273.704 231.675C273.704 231.675 276.7 224.339 263.113 221.029L262.636 223.261C262.274 222.667 261.906 222.073 261.544 221.473C260.585 221.233 259.591 221.168 258.609 221.282C256.943 221.5 255.382 222.218 254.133 223.343Z" fill="#00C0B5"/>
<path d="M258.542 197.965C259.348 200.562 260.829 202.898 262.834 204.734C264.93 206.597 266.356 206.686 269.481 209.429C271.146 210.89 272.259 211.879 273.098 213.524C274.103 215.629 274.421 217.998 274.006 220.293C269.876 219.843 265.96 218.224 262.718 215.626L264.083 213.026L261.599 214.5C260 212.093 258.905 209.387 258.379 206.545C257.854 203.703 257.909 200.785 258.542 197.965Z" fill="#00C0B5"/>
<path d="M277.485 209.36C267.283 207.135 263.489 196.578 263.489 196.578C263.789 196.012 268.266 194.667 268.266 194.667L262.322 193.841C262.322 193.841 261.21 192.204 261.824 188.614C262.438 185.025 259.988 180.057 259.988 180.057C263.345 180.813 266.566 182.076 269.542 183.803C272.695 185.646 277.472 188.43 279.423 193.841C279.74 194.727 279.968 195.641 280.106 196.571L278.059 199.424L280.283 198.352C280.371 202.208 279.404 206.014 277.485 209.36Z" fill="#00C0B5"/>
<path d="M286.521 215.018C286.521 215.018 277.759 198.681 300.394 192.594C300.394 192.594 297.89 195.385 298.306 200.824C298.723 206.263 297.085 207.157 297.085 207.157L292.861 206.597L296.341 209.77C296.341 209.77 291.789 215.769 286.521 215.018Z" fill="#00C0B5"/>
<path d="M301.015 220.45C301.015 220.45 285.763 215.304 286.364 228.7C286.364 228.7 291.202 233.054 295.734 226.455L294.512 223.923L296.621 224.353C296.621 224.353 299.487 220.866 301.015 220.45Z" fill="#00C0B5"/>
<path d="M280.781 241.925C280.744 241.92 280.708 241.909 280.675 241.89C280.643 241.872 280.615 241.846 280.592 241.816C280.57 241.786 280.554 241.752 280.545 241.715C280.537 241.679 280.536 241.641 280.543 241.604C282.815 225.983 295.556 221.746 295.685 221.705C295.757 221.682 295.834 221.689 295.901 221.723C295.968 221.758 296.018 221.817 296.04 221.889C296.063 221.96 296.056 222.038 296.022 222.104C295.987 222.171 295.927 222.221 295.856 222.244C295.733 222.285 283.32 226.427 281.095 241.686C281.084 241.758 281.044 241.823 280.986 241.868C280.928 241.912 280.854 241.933 280.781 241.925Z" fill="#0D0D0D"/>
<path d="M280.516 244.942C280.442 244.935 280.374 244.9 280.326 244.844C280.277 244.788 280.252 244.715 280.256 244.641C281.095 229.106 285.511 213.975 293.161 200.428C293.197 200.363 293.258 200.314 293.329 200.294C293.401 200.274 293.478 200.282 293.543 200.319C293.608 200.355 293.656 200.415 293.677 200.487C293.697 200.559 293.688 200.636 293.652 200.701C286.05 214.177 281.66 229.226 280.823 244.676C280.817 244.75 280.783 244.82 280.727 244.87C280.671 244.92 280.597 244.946 280.522 244.942H280.516Z" fill="#0D0D0D"/>
<path d="M279.874 251.13C279.837 251.125 279.802 251.113 279.77 251.094C279.738 251.075 279.711 251.05 279.689 251.02C279.667 250.99 279.652 250.956 279.644 250.92C279.636 250.883 279.635 250.846 279.642 250.81C282.668 231.87 279.909 212.458 271.726 195.111C271.694 195.043 271.691 194.965 271.716 194.895C271.742 194.824 271.794 194.767 271.862 194.735C271.93 194.704 272.008 194.7 272.078 194.726C272.149 194.752 272.206 194.804 272.238 194.872C280.46 212.323 283.233 231.848 280.194 250.898C280.189 250.935 280.176 250.969 280.157 251.001C280.137 251.032 280.112 251.059 280.082 251.081C280.052 251.102 280.019 251.118 279.983 251.126C279.947 251.135 279.91 251.136 279.874 251.13Z" fill="#0D0D0D"/>
<path d="M280.379 246.21C280.308 246.205 280.242 246.172 280.195 246.118C280.147 246.065 280.123 245.995 280.127 245.924C280.297 238.492 279.09 224.557 269.113 214.703C267.522 213.138 265.777 211.736 263.906 210.52C263.844 210.478 263.802 210.414 263.786 210.342C263.771 210.269 263.785 210.194 263.824 210.131C263.843 210.099 263.869 210.072 263.899 210.05C263.93 210.029 263.964 210.014 264.001 210.006C264.037 209.998 264.075 209.998 264.111 210.005C264.148 210.013 264.182 210.028 264.213 210.049C266.12 211.283 267.894 212.71 269.508 214.307C279.635 224.305 280.857 238.417 280.686 245.937C280.686 245.975 280.679 246.011 280.664 246.046C280.65 246.08 280.629 246.111 280.602 246.137C280.575 246.164 280.544 246.184 280.509 246.198C280.474 246.211 280.437 246.218 280.4 246.217L280.379 246.21Z" fill="#0D0D0D"/>
<path d="M281.792 246.34C281.731 246.333 281.675 246.308 281.63 246.268C281.584 246.227 281.553 246.174 281.539 246.115C280.619 241.571 278.518 237.349 275.448 233.874C272.377 230.4 268.446 227.796 264.049 226.325C263.978 226.3 263.919 226.248 263.886 226.181C263.853 226.113 263.847 226.035 263.871 225.963C263.896 225.894 263.947 225.837 264.014 225.805C264.08 225.773 264.156 225.769 264.226 225.793C268.719 227.298 272.736 229.961 275.872 233.514C279.009 237.066 281.154 241.381 282.092 246.026C282.106 246.099 282.091 246.175 282.05 246.238C282.01 246.3 281.946 246.344 281.873 246.361L281.792 246.34Z" fill="#0D0D0D"/>
<path d="M269.856 243.1L272.586 256.966H288.964L291.694 243.1H269.856ZM288.364 256.229H273.18L270.757 243.837H290.786L288.364 256.229Z" fill="#0D0D0D"/>
<path d="M290.786 243.836L288.363 256.229H273.179L270.757 243.836H290.786Z" fill="white"/>
<path d="M292.376 243.467H269.16L267.829 238.922H293.713L292.376 243.467Z" fill="#0D0D0D"/>
<path d="M306.993 256.966C307.008 257.148 306.986 257.331 306.929 257.505C306.871 257.678 306.78 257.839 306.66 257.976C306.539 258.113 306.393 258.225 306.229 258.305C306.064 258.385 305.886 258.431 305.703 258.44H20.2895C19.9331 258.392 19.6064 258.215 19.3698 257.944C19.1333 257.673 19.0029 257.326 19.0029 256.966C19.0029 256.606 19.1333 256.259 19.3698 255.988C19.6064 255.717 19.9331 255.541 20.2895 255.492H305.717C305.898 255.503 306.075 255.551 306.238 255.631C306.401 255.712 306.546 255.824 306.665 255.961C306.783 256.098 306.874 256.258 306.93 256.431C306.986 256.603 307.008 256.785 306.993 256.966Z" fill="#0D0D0D"/>
<path d="M83.2969 240.559L83.7336 249.827L89.6502 249.042L88.7903 238.137L83.2969 240.559Z" fill="white"/>
<path d="M83.7344 250.231C83.6393 250.231 83.5475 250.197 83.475 250.135C83.4334 250.099 83.3993 250.056 83.3747 250.006C83.3501 249.957 83.3355 249.904 83.3317 249.849L82.9018 240.582C82.898 240.501 82.9189 240.421 82.9615 240.353C83.0042 240.285 83.0667 240.231 83.1407 240.199L88.6 237.777C88.6566 237.746 88.7199 237.73 88.7842 237.73C88.8485 237.73 88.9118 237.746 88.9685 237.777C89.0239 237.81 89.0706 237.856 89.105 237.91C89.1394 237.965 89.1605 238.027 89.1664 238.091L90.0262 249.009C90.0341 249.112 90.0024 249.214 89.9377 249.294C89.873 249.374 89.7802 249.426 89.6782 249.439L83.7617 250.231H83.7344ZM83.7344 240.82L84.1302 249.371L89.2346 248.689L88.4499 238.732L83.7344 240.82Z" fill="#0D0D0D"/>
<path d="M44.8224 242.436L43.7715 248.189H48.951L50.1248 241.105L44.8224 242.436Z" fill="white"/>
<path d="M48.9513 248.599H43.7718C43.7126 248.598 43.6543 248.585 43.6012 248.559C43.548 248.533 43.5014 248.495 43.4647 248.449C43.4269 248.404 43.3994 248.351 43.3841 248.295C43.3688 248.238 43.366 248.179 43.376 248.121L44.4269 242.369C44.44 242.293 44.4746 242.222 44.5266 242.165C44.5786 242.108 44.6458 242.068 44.7203 242.048L50.0295 240.751C50.0941 240.738 50.161 240.739 50.2249 240.756C50.2888 240.773 50.3481 240.804 50.398 240.847C50.4463 240.893 50.4828 240.949 50.5042 241.012C50.5256 241.075 50.5313 241.143 50.5209 241.208L49.3471 248.258C49.3338 248.353 49.2863 248.44 49.2135 248.503C49.1407 248.566 49.0475 248.6 48.9513 248.599ZM44.2631 247.794H48.6169L49.6337 241.652L45.1707 242.798L44.2631 247.794Z" fill="#0D0D0D"/>
<path d="M50.5621 248.209V254.399H29.9736C30.006 254.076 30.1385 253.77 30.3525 253.526C30.5666 253.281 30.8516 253.109 31.1679 253.034C35.5358 251.931 39.6521 250.001 43.2944 247.35H49.7227C49.9467 247.357 50.1591 247.45 50.3156 247.61C50.4721 247.771 50.5605 247.985 50.5621 248.209Z" fill="#0D0D0D"/>
<path d="M103.708 254.557H82.4785C82.5331 252.51 82.5741 250.408 82.6286 248.327C82.634 248.092 82.7303 247.869 82.8972 247.705C83.0641 247.541 83.2884 247.448 83.5226 247.446L90.5788 247.357C90.8124 247.355 91.0395 247.435 91.2203 247.583C94.5298 250.228 98.381 252.113 102.501 253.103C102.836 253.175 103.137 253.358 103.356 253.621C103.575 253.885 103.699 254.214 103.708 254.557Z" fill="#0D0D0D"/>
<path d="M50.5615 254.4V255.54H29.9321V254.571C29.925 254.514 29.925 254.457 29.9321 254.4H50.5615Z" fill="#0D0D0D"/>
<path d="M103.708 254.558V255.527L82.4785 255.765C82.4785 255.363 82.4785 254.953 82.4785 254.551L103.708 254.558Z" fill="#0D0D0D"/>
<path d="M43.2871 243.666L51.1281 182.931L56.9696 125.703H88.8111L90.3465 189.57V242.628L81.9733 243.816C80.2035 225.049 78.4338 206.283 76.6641 187.516L72.631 156.651C69.9969 167.41 67.365 178.156 64.7354 188.888L51.8378 243.816L43.2871 243.666Z" fill="#0D0D0D"/>
<path d="M78.507 73.2465C77.9338 73.6013 76.7874 73.9835 74.4944 73.11L75.402 82.9709L67.8204 85.489L64.0876 82.3158C65.3228 77.1809 65.6736 71.873 65.1249 66.6202C63.3506 65.8832 62.2314 64.573 62.327 63.3514C62.3453 63.0672 62.4227 62.7898 62.5543 62.5372C62.6859 62.2846 62.8688 62.0622 63.0913 61.8842C63.3835 61.7011 63.7135 61.5869 64.0564 61.5503C64.3993 61.5136 64.746 61.5555 65.0703 61.6727C65.4524 60.0963 65.8278 58.5131 66.2031 56.9367L72.7816 56.4863L79.3669 55.9199C79.5375 57.5714 79.749 59.8779 79.8719 62.6417C80.2881 71.4517 79.3396 72.7347 78.507 73.2465Z" fill="white"/>
<path d="M67.8203 85.8914C67.7233 85.891 67.6293 85.8572 67.5542 85.7958L63.8282 82.6226C63.7707 82.5746 63.728 82.5113 63.7051 82.44C63.6821 82.3688 63.6799 82.2925 63.6986 82.22C64.2858 79.7829 64.6738 77.3021 64.8587 74.8021C65.043 72.1579 65.0019 69.5028 64.7358 66.8656C62.9342 66.0467 61.8083 64.6273 61.9174 63.2897C61.9366 62.9485 62.0287 62.6154 62.1877 62.3128C62.3466 62.0103 62.5686 61.7453 62.8387 61.5359C63.116 61.3434 63.43 61.2102 63.7611 61.1444C64.0922 61.0787 64.4333 61.0818 64.7631 61.1538L65.7936 56.8204C65.8136 56.7357 65.8602 56.6596 65.9265 56.6032C65.9927 56.5467 66.0753 56.5129 66.1621 56.5065L72.7406 56.0561L79.3191 55.4897C79.4186 55.4813 79.5177 55.5101 79.5971 55.5706C79.6766 55.6312 79.7307 55.7191 79.749 55.8173C79.9878 58.0351 80.1584 60.3076 80.2608 62.5732C80.6839 71.5674 79.7217 72.9323 78.7049 73.5601C77.7768 74.1333 76.5143 74.1675 74.9379 73.6693L75.791 82.9024C75.7975 82.9939 75.7735 83.085 75.7229 83.1615C75.6724 83.238 75.5979 83.2956 75.5112 83.3255L67.9432 85.8436C67.9052 85.8664 67.8637 85.8825 67.8203 85.8914ZM64.5379 82.1654L67.9022 85.0315L74.9721 82.6908L74.0917 73.137C74.0852 73.0694 74.0963 73.0012 74.1238 72.939C74.1512 72.8769 74.1943 72.8228 74.2487 72.7821C74.304 72.7417 74.3685 72.7156 74.4363 72.7061C74.5042 72.6966 74.5734 72.7039 74.6377 72.7276C76.2482 73.3417 77.4765 73.41 78.2954 72.8982C79.0666 72.4136 79.8582 70.8304 79.476 62.6414C79.3736 60.526 79.2167 58.4036 79.0051 56.3291L72.8156 56.8614L66.5238 57.2981L65.466 61.7407C65.453 61.7962 65.4287 61.8485 65.3947 61.8943C65.3607 61.9401 65.3176 61.9784 65.2681 62.0068C65.2167 62.0302 65.1608 62.0423 65.1043 62.0423C65.0478 62.0423 64.992 62.0302 64.9405 62.0068C64.6761 61.9101 64.3932 61.8746 64.1131 61.903C63.833 61.9314 63.5629 62.0228 63.3232 62.1706C63.1468 62.3115 63.0025 62.4885 62.9001 62.6898C62.7977 62.8911 62.7395 63.1119 62.7295 63.3375C62.6476 64.3816 63.6713 65.5349 65.2749 66.2105C65.3423 66.2368 65.401 66.2815 65.4444 66.3393C65.4877 66.3972 65.5142 66.466 65.5206 66.538C65.8151 69.299 65.8607 72.0808 65.6571 74.8499C65.4761 77.3139 65.1019 79.7599 64.5379 82.1654Z" fill="#0D0D0D"/>
<path d="M113.248 85.4068C113.33 84.6822 113.666 84.01 114.197 83.5097C115.091 82.7454 116.169 82.9637 117.138 82.7522C118.223 82.5133 119.656 81.5921 120.994 78.3847C121.087 78.2552 121.148 78.1053 121.172 77.9474C121.196 77.7896 121.181 77.6283 121.13 77.4771C121.042 77.3426 120.923 77.231 120.783 77.1515C120.643 77.072 120.486 77.0269 120.325 77.0199C119.363 76.9039 118.858 78.0503 117.595 78.8351C115.917 79.9065 113.665 80.2477 113.228 79.6199C112.791 78.9921 114.272 77.6136 113.979 77.3338C113.685 77.054 110.805 78.6986 109.945 80.6572C109.857 80.8551 109.604 81.5034 109.345 82.3086C109.147 82.9296 109.011 83.4551 108.922 83.8372L113.248 85.4068Z" fill="white"/>
<path d="M113.249 85.8421C113.204 85.8492 113.158 85.8492 113.112 85.8421L108.82 84.2726C108.728 84.2385 108.651 84.1718 108.604 84.0851C108.558 83.9983 108.545 83.8975 108.568 83.8017C108.69 83.2899 108.834 82.7644 108.997 82.2458C109.25 81.4474 109.509 80.7923 109.612 80.5534C110.452 78.8916 111.891 77.6092 113.638 76.9639C113.753 76.9233 113.878 76.9146 113.998 76.9386C114.118 76.9626 114.229 77.0185 114.32 77.1004C114.682 77.4484 114.382 77.9261 114.068 78.4652C113.931 78.6836 113.522 79.3455 113.617 79.482C113.829 79.7823 115.733 79.6799 117.439 78.5881C117.836 78.3198 118.204 78.0111 118.538 77.6668C119.097 77.1277 119.609 76.6159 120.401 76.7182C120.614 76.7237 120.823 76.786 121.004 76.8988C121.186 77.0116 121.334 77.1708 121.433 77.36C121.533 77.5492 121.58 77.7614 121.57 77.9749C121.56 78.1884 121.493 78.3953 121.376 78.5744C120.257 81.2495 118.872 82.7849 117.282 83.1398C116.962 83.2042 116.639 83.2452 116.313 83.2626C115.668 83.2427 115.034 83.4371 114.511 83.8154C114.053 84.2518 113.765 84.8373 113.699 85.4668C113.689 85.5253 113.667 85.5811 113.634 85.6304C113.601 85.6798 113.558 85.7217 113.508 85.7534C113.434 85.8101 113.343 85.8412 113.249 85.8421ZM109.434 83.6106L112.949 84.9004C113.098 84.2596 113.441 83.6805 113.931 83.2421C114.58 82.7447 115.379 82.4825 116.197 82.4983C116.486 82.4804 116.773 82.444 117.057 82.3891C118.422 82.0957 119.609 80.7035 120.619 78.2946L120.66 78.2264C120.715 78.1445 120.851 77.8852 120.769 77.7214C120.711 77.6472 120.636 77.5876 120.551 77.5474C120.466 77.5071 120.372 77.4872 120.278 77.4894C119.896 77.4416 119.595 77.7077 119.07 78.2196C118.701 78.6016 118.291 78.9425 117.848 79.2364C116.163 80.3146 113.59 80.8605 112.935 79.9188C112.532 79.3455 112.99 78.6085 113.358 78.0148L113.44 77.8852C112.12 78.5332 111.038 79.5817 110.349 80.881C110.274 81.0584 110.021 81.6999 109.762 82.4983C109.646 82.8122 109.53 83.1944 109.434 83.5765V83.6106Z" fill="#0D0D0D"/>
<path d="M108.335 83.3598L101.804 99.4921L91.4044 82.3703C90.9104 81.5651 90.1679 80.9423 89.2889 80.596C84.4847 78.8172 79.6782 77.027 74.8695 75.2254C74.5329 76.3501 73.8467 77.3382 72.9104 78.0462C71.9741 78.7543 70.8364 79.1455 69.6626 79.163C68.4217 79.2142 67.2059 78.8033 66.2506 78.0097C65.4218 77.2613 64.885 76.2434 64.7356 75.1367L50.5891 82.9572C49.4865 83.5652 48.5337 84.4121 47.8005 85.4358C47.0672 86.4594 46.5721 87.6341 46.3513 88.8738C45.0138 96.5805 43.6785 104.283 42.3455 111.98C42.2212 112.764 42.3143 113.566 42.6147 114.3C42.915 115.034 43.4111 115.672 44.0488 116.143C44.6865 116.615 45.4414 116.903 46.2313 116.975C47.0211 117.047 47.8156 116.901 48.5282 116.553L57.229 112.458C57.345 114.089 57.4269 115.993 57.4133 118.122C57.4133 118.661 57.4133 119.221 57.4133 119.794V119.937C57.4133 120.79 57.3518 121.623 57.2973 122.421C57.2973 122.967 57.2222 123.493 57.1812 124.011C57.0721 125.328 56.9288 126.57 56.7718 127.731C67.3649 130.039 78.3425 129.927 88.8863 127.403C88.8863 126.536 88.8863 125.656 88.8453 124.776C88.8453 124.291 88.8453 123.8 88.8453 123.315C88.8453 122.351 88.8453 121.382 88.8453 120.408C88.8453 119.924 88.8453 119.439 88.8453 118.948C88.8453 118.572 88.8453 118.197 88.8453 117.815C88.9545 111.673 89.2889 105.893 89.7803 100.393L101.702 114.935C102.036 115.341 102.476 115.647 102.974 115.817C103.471 115.988 104.006 116.018 104.519 115.904C105.032 115.789 105.503 115.535 105.881 115.169C106.258 114.803 106.526 114.339 106.656 113.83C108.972 104.221 111.285 94.6129 113.597 85.0045L108.335 83.3598ZM52.4521 107.422L55.1818 99.4785C55.755 101.758 56.1849 103.901 56.4988 105.873L52.4521 107.422Z" fill="#00C0B5"/>
<path d="M80.39 58.0949C83.0036 55.9249 83.4745 54.3758 83.297 53.318C83.0241 51.6393 80.9427 49.5784 80.9632 49.6057C78.3359 47.3605 76.2409 46.9716 74.8214 47.0193C72.5558 47.0944 72.2897 48.3023 68.7752 48.9438C65.8204 49.4829 64.633 48.8892 63.3159 50.0151C62.6335 50.6157 62.3059 51.5028 61.6372 53.2771C60.9684 55.0514 60.5931 56.0545 60.7364 57.0986C61.0002 58.5634 61.7591 59.8932 62.886 60.8656C63.6504 61.3521 64.2851 62.0172 64.7353 62.8036C64.917 63.182 65.0346 63.5878 65.0834 64.0047C65.538 62.9009 65.821 61.7342 65.9227 60.5448C65.9492 60.0607 65.9492 59.5754 65.9227 59.0913C65.9146 58.8489 65.9989 58.6126 66.1586 58.4301C66.3182 58.2476 66.5413 58.1327 66.7826 58.1086C68.8298 57.7128 73.4088 59.2551 78.8068 58.4362C79.3409 58.3546 79.8696 58.2406 80.39 58.0949Z" fill="#0D0D0D"/>
<path d="M70.4337 64.2308C70.5224 64.845 70.8772 65.309 71.2184 65.2544C71.5596 65.1998 71.7644 64.6675 71.6688 64.0534C71.5733 63.4392 71.2253 62.9751 70.8841 63.0229C70.5429 63.0707 70.3381 63.6166 70.4337 64.2308Z" fill="#0D0D0D"/>
<path d="M76.3366 63.5003C76.4321 64.1213 76.787 64.5786 77.1282 64.5308C77.4694 64.483 77.6673 63.9371 77.5786 63.3229C77.4899 62.7087 77.135 62.2447 76.787 62.2993C76.439 62.3539 76.2138 62.8862 76.3366 63.5003Z" fill="#0D0D0D"/>
<path d="M76.1663 68.9668C74.9146 69.2679 73.6374 69.4507 72.3516 69.5127C72.5032 69.9406 72.7983 70.3029 73.1868 70.5378C73.5752 70.7728 74.033 70.8661 74.4825 70.8017C74.9319 70.7374 75.3451 70.5195 75.6521 70.185C75.959 69.8505 76.1407 69.4201 76.1663 68.9668Z" fill="#0D0D0D"/>
<path d="M68.83 62.7705C68.7627 62.7692 68.6968 62.7504 68.6389 62.7159C68.6029 62.6919 68.572 62.6609 68.548 62.6249C68.524 62.5888 68.5074 62.5483 68.4992 62.5058C68.4909 62.4633 68.4912 62.4196 68.4999 62.3771C68.5087 62.3347 68.5258 62.2945 68.5502 62.2587C68.905 61.7433 69.4031 61.3433 69.9828 61.108C70.5626 60.8727 71.1986 60.8125 71.8122 60.9348C71.8545 60.9451 71.8944 60.9638 71.9294 60.9898C71.9645 61.0157 71.994 61.0484 72.0162 61.0859C72.0385 61.1234 72.053 61.165 72.059 61.2082C72.065 61.2514 72.0623 61.2953 72.051 61.3374C72.0271 61.4223 71.9707 61.4942 71.894 61.5377C71.8173 61.5811 71.7266 61.5925 71.6416 61.5695C71.155 61.4777 70.6522 61.5302 70.1951 61.7206C69.7379 61.9109 69.3465 62.2308 69.0689 62.6409C69.0413 62.679 69.0055 62.7104 68.9642 62.7329C68.9229 62.7553 68.877 62.7682 68.83 62.7705Z" fill="#0D0D0D"/>
<path d="M74.9719 61.5003C74.9245 61.501 74.8774 61.4917 74.8339 61.4728C74.7904 61.454 74.7513 61.4261 74.7194 61.3911C74.6888 61.3606 74.6646 61.3245 74.6481 61.2847C74.6316 61.2449 74.623 61.2022 74.623 61.1591C74.623 61.1159 74.6316 61.0733 74.6481 61.0334C74.6646 60.9936 74.6888 60.9575 74.7194 60.927C76.2548 59.5963 78.1315 60.6063 78.2407 60.6541C78.3165 60.6958 78.3727 60.766 78.397 60.8491C78.4213 60.9322 78.4117 61.0216 78.3703 61.0976C78.3259 61.1744 78.2533 61.2309 78.168 61.2552C78.0826 61.2794 77.9912 61.2694 77.9131 61.2273C77.4867 60.9975 77.0038 60.8935 76.5206 60.9274C76.0374 60.9612 75.5737 61.1314 75.1834 61.4184C75.1246 61.4695 75.0498 61.4984 74.9719 61.5003Z" fill="#0D0D0D"/>
<path d="M73.8862 67.8613C73.8161 67.8613 73.7477 67.8397 73.6903 67.7994C73.6329 67.7591 73.5893 67.7021 73.5655 67.6361C73.5515 67.5954 73.5458 67.5522 73.5485 67.5092C73.5513 67.4662 73.5625 67.4242 73.5815 67.3855C73.6005 67.3468 73.627 67.3123 73.6593 67.2839C73.6917 67.2555 73.7294 67.2337 73.7702 67.2199L75.4694 66.633C73.8112 63.9033 73.7839 63.8146 73.7702 63.7737C73.7442 63.6904 73.7518 63.6003 73.7913 63.5225C73.8308 63.4447 73.8992 63.3855 73.9818 63.3574C74.0609 63.331 74.1469 63.3345 74.2235 63.3672C74.3002 63.3999 74.3623 63.4595 74.398 63.5348C74.4868 63.7054 75.5513 65.4865 76.2542 66.6466C76.2744 66.6905 76.2849 66.7382 76.2849 66.7865C76.2849 66.8348 76.2744 66.8825 76.2542 66.9264C76.2372 66.9727 76.2099 67.0145 76.1745 67.0488C76.139 67.083 76.0963 67.1089 76.0495 67.1243L73.9681 67.8409L73.8862 67.8613Z" fill="#0D0D0D"/>
<path d="M71.6078 89.6712L68.8304 108.363C68.8185 108.441 68.8238 108.521 68.8459 108.597C68.8679 108.673 68.9063 108.743 68.9582 108.803C69.0101 108.862 69.0744 108.91 69.1466 108.943C69.2188 108.975 69.2972 108.991 69.3763 108.99H83.7071C83.8395 108.992 83.9682 108.946 84.0696 108.861C84.1711 108.776 84.2386 108.657 84.2598 108.526L87.0714 89.8418C87.0834 89.763 87.0779 89.6825 87.0555 89.606C87.033 89.5295 86.9941 89.4589 86.9414 89.399C86.8887 89.3392 86.8236 89.2916 86.7505 89.2597C86.6775 89.2277 86.5983 89.2121 86.5186 89.214H72.1879C72.0518 89.2053 71.9174 89.2471 71.8103 89.3315C71.7032 89.4159 71.6311 89.5369 71.6078 89.6712Z" fill="white"/>
<path d="M83.679 109.386H69.3483C69.2095 109.387 69.0722 109.358 68.946 109.3C68.8199 109.243 68.7079 109.158 68.6181 109.052C68.5277 108.951 68.4606 108.832 68.4217 108.702C68.3827 108.572 68.3729 108.435 68.3929 108.301L71.2112 89.61C71.2458 89.384 71.3608 89.1781 71.535 89.0301C71.7093 88.8822 71.9312 88.8021 72.1598 88.8047H86.4905C86.6302 88.8045 86.7682 88.8343 86.8953 88.8919C87.0225 88.9496 87.1358 89.0339 87.2276 89.1391C87.3165 89.242 87.3816 89.3632 87.4182 89.4942C87.4548 89.6251 87.4619 89.7626 87.4391 89.8966L84.6275 108.581C84.593 108.807 84.478 109.013 84.3037 109.161C84.1295 109.309 83.9076 109.389 83.679 109.386ZM72.0028 89.7328L69.1913 108.417C69.1836 108.436 69.1796 108.455 69.1796 108.475C69.1796 108.495 69.1836 108.515 69.1913 108.533C69.2076 108.549 69.2268 108.561 69.2479 108.57C69.269 108.578 69.2915 108.582 69.3141 108.581H83.6449C83.6812 108.582 83.7167 108.57 83.7453 108.548C83.774 108.525 83.7939 108.494 83.8018 108.458L86.6134 89.7738C86.617 89.7542 86.6157 89.734 86.6098 89.715C86.6039 89.696 86.5934 89.6787 86.5793 89.6646C86.5644 89.6466 86.5456 89.6323 86.5243 89.6228C86.503 89.6133 86.4797 89.6089 86.4564 89.61H72.1257C72.0897 89.6104 72.0547 89.6226 72.0264 89.6448C71.998 89.667 71.9777 89.6979 71.9687 89.7328H72.0028Z" fill="#0D0D0D"/>
<path d="M78.6907 100.583C79.5274 100.583 80.2057 99.9167 80.2057 99.0951C80.2057 98.2735 79.5274 97.6074 78.6907 97.6074C77.8541 97.6074 77.1758 98.2735 77.1758 99.0951C77.1758 99.9167 77.8541 100.583 78.6907 100.583Z" fill="white"/>
<path d="M78.6979 100.986C78.325 100.982 77.9615 100.867 77.6534 100.657C77.3452 100.447 77.1061 100.15 76.9662 99.8046C76.8263 99.4588 76.7917 99.0794 76.867 98.7141C76.9422 98.3488 77.1238 98.0139 77.389 97.7516C77.6542 97.4892 77.991 97.3112 78.3571 97.2399C78.7232 97.1686 79.1022 97.2072 79.4465 97.3509C79.7907 97.4946 80.0847 97.7368 80.2915 98.0472C80.4983 98.3576 80.6087 98.7223 80.6087 99.0953C80.6051 99.599 80.402 100.081 80.0438 100.435C79.6857 100.789 79.2017 100.987 78.6979 100.986ZM78.6979 98.0102C78.4846 98.0156 78.2776 98.0838 78.1027 98.2062C77.9279 98.3286 77.7931 98.4999 77.7152 98.6986C77.6372 98.8973 77.6196 99.1145 77.6645 99.3232C77.7094 99.5318 77.8148 99.7226 77.9676 99.8716C78.1204 100.021 78.3137 100.121 78.5234 100.161C78.7331 100.201 78.9499 100.178 79.1465 100.095C79.3432 100.012 79.5111 99.8729 79.6291 99.6951C79.7472 99.5173 79.8102 99.3087 79.8103 99.0953C79.8085 98.951 79.7783 98.8085 79.7215 98.6758C79.6646 98.5432 79.5821 98.4231 79.4789 98.3223C79.3756 98.2216 79.2534 98.1422 79.1194 98.0886C78.9855 98.0351 78.8422 98.0084 78.6979 98.0102Z" fill="#0D0D0D"/>
<path d="M66.1348 103.068C66.7217 102.944 67.2857 102.73 67.8067 102.433C68.5225 102.026 69.138 101.464 69.6083 100.789C69.7046 100.657 69.8282 100.547 69.9706 100.467C70.1131 100.387 70.2711 100.338 70.434 100.324C72.2356 100.174 72.5427 99.7922 73.6413 99.2394C75.1495 98.4888 75.3542 97.3696 76.371 97.4515C76.6951 97.4817 77.0023 97.6103 77.2513 97.82C78.0634 98.5502 77.7085 100.031 77.5516 100.673C77.2224 101.935 76.5408 103.079 75.5862 103.969C74.8016 104.733 73.8741 105.336 72.8566 105.743C72.5733 105.857 72.2667 105.902 71.9626 105.873C70.4923 105.742 69.0149 106.026 67.6975 106.691C67.1834 105.481 66.6625 104.273 66.1348 103.068Z" fill="white"/>
<path d="M67.7174 107.094C67.6721 107.1 67.6262 107.1 67.5809 107.094C67.5294 107.075 67.4822 107.046 67.4424 107.009C67.4025 106.971 67.3706 106.926 67.3489 106.876L65.7657 103.252C65.7405 103.197 65.7275 103.138 65.7275 103.078C65.7275 103.018 65.7405 102.959 65.7657 102.904C65.793 102.852 65.8317 102.806 65.8789 102.771C65.9262 102.735 65.9807 102.711 66.0386 102.699C66.5847 102.586 67.1097 102.388 67.5945 102.112C68.2592 101.734 68.8305 101.212 69.2665 100.584C69.3947 100.403 69.5616 100.252 69.7552 100.144C69.9488 100.035 70.1642 99.9709 70.3856 99.9559C71.2532 99.9305 72.0994 99.6813 72.8423 99.2326C73.0266 99.1302 73.2176 99.021 73.4497 98.9118C73.9604 98.6521 74.4222 98.3058 74.8145 97.8882C74.9596 97.6712 75.1498 97.4881 75.3721 97.3513C75.5944 97.2145 75.8436 97.1272 76.1027 97.0955C76.3618 97.0638 76.6247 97.0883 76.8734 97.1674C77.1222 97.2465 77.351 97.3783 77.5442 97.5538C78.5337 98.4341 78.1379 100.086 77.9741 100.788C77.621 102.125 76.8999 103.336 75.8927 104.282C75.0692 105.086 74.0952 105.719 73.0266 106.145C72.6844 106.282 72.3151 106.335 71.9483 106.302C71.5623 106.272 71.1743 106.272 70.7882 106.302C69.7828 106.366 68.8008 106.633 67.9016 107.087C67.8418 107.105 67.7784 107.107 67.7174 107.094ZM66.6937 103.341L67.9221 106.152C68.8119 105.761 69.7636 105.53 70.7336 105.47C71.1606 105.436 71.5896 105.436 72.0166 105.47C72.2495 105.487 72.4832 105.45 72.699 105.361C73.6713 104.977 74.5574 104.404 75.3058 103.675C76.2063 102.837 76.8501 101.76 77.162 100.57C77.2985 100.004 77.6124 98.6798 76.9846 98.1134C76.8008 97.9604 76.5745 97.8674 76.3363 97.8473C75.9746 97.8473 75.7631 98.0042 75.34 98.4273C74.8955 98.9006 74.374 99.2952 73.7977 99.5942L73.2176 99.9013C72.3774 100.408 71.4209 100.69 70.4402 100.72C70.3366 100.725 70.2354 100.753 70.1444 100.803C70.0533 100.853 69.9748 100.922 69.9147 101.007C69.4081 101.732 68.7489 102.338 67.9835 102.781C67.5754 103.014 67.1429 103.202 66.6937 103.341Z" fill="#0D0D0D"/>
<path d="M64.4418 75.2109L63.3772 75.7023C63.2932 75.7437 63.2273 75.8145 63.1921 75.9013C63.1569 75.9881 63.1548 76.0849 63.1862 76.1731C63.7257 77.5155 64.6574 78.6641 65.8598 79.4687C67.0622 80.2733 68.4793 80.6966 69.926 80.6834C71.3727 80.6701 72.7818 80.2209 73.9692 79.3943C75.1566 78.5678 76.0672 77.4024 76.582 76.0503C76.6056 75.959 76.5933 75.8621 76.5476 75.7795C76.5019 75.697 76.4263 75.6352 76.3363 75.6067L75.3878 75.2723C75.186 75.2033 74.9658 75.211 74.7694 75.2941C74.573 75.3772 74.4141 75.5298 74.3232 75.7227C73.9212 76.5388 73.2987 77.2261 72.5262 77.7067C71.7537 78.1873 70.8621 78.442 69.9523 78.442C69.0425 78.442 68.1509 78.1873 67.3785 77.7067C66.606 77.2261 65.9835 76.5388 65.5814 75.7227C65.4959 75.5055 65.3288 75.3304 65.1159 75.2347C64.9029 75.1391 64.661 75.1305 64.4418 75.2109Z" fill="#97BCFF"/>
<path d="M65.7317 102.338L63.0635 103.362C63.9028 105.061 64.7422 106.774 65.5884 108.452L68.1065 107.292L65.7317 102.338Z" fill="#97BCFF"/>
<path d="M108.281 83.2695C107.967 84.1226 107.653 84.9756 107.332 85.8286L112.873 87.4869L113.617 85.0165L108.281 83.2695Z" fill="#97BCFF"/>
<path d="M88.7978 124.742C88.0628 124.722 87.3502 124.485 86.7506 124.059C86.3336 123.747 85.8244 123.584 85.3039 123.595C84.7827 123.579 84.2719 123.743 83.8572 124.059C83.1961 124.512 82.4134 124.755 81.612 124.755C80.8106 124.755 80.0279 124.512 79.3669 124.059C78.945 123.757 78.4391 123.594 77.9201 123.594C77.4012 123.594 76.8953 123.757 76.4734 124.059C75.8123 124.512 75.0297 124.755 74.2283 124.755C73.4269 124.755 72.6442 124.512 71.9831 124.059C71.5613 123.757 71.0554 123.594 70.5364 123.594C70.0174 123.594 69.5115 123.757 69.0897 124.059C68.4286 124.512 67.6459 124.755 66.8445 124.755C66.0431 124.755 65.2605 124.512 64.5994 124.059C64.1786 123.757 63.6738 123.595 63.1561 123.595C62.6383 123.595 62.1336 123.757 61.7128 124.059C61.0524 124.511 60.271 124.752 59.471 124.752C58.671 124.752 57.8897 124.511 57.2293 124.059L57.1133 123.991C57.1542 123.472 57.1952 122.947 57.2293 122.401C57.5101 122.518 57.7777 122.664 58.0277 122.838C58.4485 123.139 58.9533 123.301 59.471 123.301C59.9888 123.301 60.4935 123.139 60.9143 122.838C61.575 122.38 62.3594 122.135 63.1629 122.135C63.9664 122.135 64.7508 122.38 65.4115 122.838C65.8323 123.139 66.337 123.301 66.8548 123.301C67.3725 123.301 67.8773 123.139 68.2981 122.838C68.9574 122.38 69.7407 122.135 70.5432 122.135C71.3457 122.135 72.1291 122.38 72.7884 122.838C73.2102 123.14 73.7161 123.302 74.2351 123.302C74.754 123.302 75.26 123.14 75.6818 122.838C76.3411 122.38 77.1245 122.135 77.927 122.135C78.7295 122.135 79.5128 122.38 80.1721 122.838C80.594 123.14 81.0999 123.302 81.6188 123.302C82.1378 123.302 82.6437 123.14 83.0656 122.838C83.7248 122.38 84.5082 122.135 85.3107 122.135C86.1132 122.135 86.8966 122.38 87.5559 122.838C87.9067 123.102 88.3258 123.261 88.7637 123.295C88.791 123.779 88.791 124.271 88.7978 124.742Z" fill="#97BCFF"/>
<path d="M88.7973 118.926C88.7973 119.417 88.7973 119.902 88.7973 120.386C88.0773 120.354 87.3813 120.117 86.791 119.704C86.3741 119.392 85.8648 119.229 85.3443 119.24C84.8231 119.224 84.3123 119.388 83.8976 119.704C83.2365 120.157 82.4539 120.399 81.6524 120.399C80.851 120.399 80.0684 120.157 79.4073 119.704C78.9855 119.401 78.4795 119.239 77.9606 119.239C77.4416 119.239 76.9357 119.401 76.5139 119.704C75.8528 120.157 75.0701 120.399 74.2687 120.399C73.4673 120.399 72.6846 120.157 72.0236 119.704C71.6017 119.401 71.0958 119.239 70.5768 119.239C70.0579 119.239 69.552 119.401 69.1301 119.704C68.469 120.157 67.6864 120.399 66.885 120.399C66.0836 120.399 65.3009 120.157 64.6398 119.704C64.219 119.402 63.7143 119.24 63.1965 119.24C62.6788 119.24 62.174 119.402 61.7532 119.704C61.0974 120.166 60.3103 120.405 59.5081 120.386C58.7543 120.405 58.0131 120.19 57.3857 119.772C57.3857 119.199 57.3857 118.639 57.3857 118.1C57.6222 118.205 57.8504 118.328 58.0682 118.468C58.489 118.77 58.9937 118.932 59.5115 118.932C60.0292 118.932 60.534 118.77 60.9548 118.468C61.6155 118.011 62.3999 117.766 63.2033 117.766C64.0068 117.766 64.7912 118.011 65.4519 118.468C65.8727 118.77 66.3774 118.932 66.8952 118.932C67.413 118.932 67.9177 118.77 68.3385 118.468C68.9978 118.011 69.7811 117.766 70.5837 117.766C71.3862 117.766 72.1695 118.011 72.8288 118.468C73.2507 118.771 73.7566 118.933 74.2755 118.933C74.7945 118.933 75.3004 118.771 75.7223 118.468C76.3815 118.011 77.1649 117.766 77.9674 117.766C78.7699 117.766 79.5533 118.011 80.2125 118.468C80.6273 118.785 81.1381 118.948 81.6593 118.932C82.1798 118.943 82.689 118.78 83.106 118.468C83.7653 118.011 84.5486 117.766 85.3512 117.766C86.1537 117.766 86.937 118.011 87.5963 118.468C87.9449 118.732 88.3616 118.891 88.7973 118.926Z" fill="#97BCFF"/>
<path d="M57.4814 112.219L65.8479 108.24" stroke="#0D0D0D" stroke-width="0.682416" stroke-miterlimit="10" stroke-linecap="round"/>
<path d="M56.458 105.872L63.0638 103.354" stroke="#0D0D0D" stroke-width="0.682416" stroke-miterlimit="10" stroke-linecap="round"/>
<path d="M55.1406 99.4771L56.1779 95.2461" stroke="#0D0D0D" stroke-width="0.682416" stroke-miterlimit="10" stroke-linecap="round"/>
<path d="M89.746 100.371L87.4531 97.4434" stroke="#0D0D0D" stroke-width="0.682416" stroke-miterlimit="10" stroke-linecap="round"/>
<path d="M245.699 97.2051H232.924V104.548H245.699V97.2051Z" fill="#5454F1"/>
<path d="M232.924 97.2051H137.918V104.548H232.924V97.2051Z" fill="#00C0B5"/>
<path d="M245.699 139.064H232.924V148.85H245.699V139.064Z" fill="#5454F1"/>
<path d="M232.924 139.064H137.918V148.85H232.924V139.064Z" fill="#00C0B5"/>
<path d="M252.278 106.733V138.431C252.274 139.449 251.868 140.424 251.148 141.144C250.429 141.863 249.453 142.269 248.436 142.273H152.699C151.681 142.271 150.705 141.866 149.985 141.146C149.265 140.425 148.859 139.449 148.857 138.431V106.733C148.863 105.717 149.27 104.744 149.99 104.027C150.709 103.31 151.683 102.906 152.699 102.904H248.436C249.451 102.908 250.424 103.312 251.143 104.029C251.863 104.746 252.27 105.717 252.278 106.733Z" fill="#0D0D0D"/>
<path d="M232.924 106.739V138.438C232.922 139.029 232.686 139.595 232.268 140.013C231.85 140.432 231.284 140.667 230.692 140.669H134.956C134.365 140.667 133.798 140.432 133.38 140.013C132.962 139.595 132.726 139.029 132.725 138.438V106.739C132.724 106.445 132.781 106.154 132.892 105.882C133.004 105.61 133.168 105.363 133.375 105.155C133.583 104.946 133.829 104.78 134.1 104.667C134.371 104.554 134.662 104.495 134.956 104.494H230.692C230.986 104.495 231.277 104.554 231.548 104.667C231.82 104.78 232.066 104.946 232.273 105.155C232.48 105.363 232.644 105.61 232.756 105.882C232.868 106.154 232.925 106.445 232.924 106.739Z" fill="white"/>
<path d="M230.692 102.904H134.956C133.936 102.908 132.959 103.316 132.239 104.038C131.519 104.761 131.114 105.74 131.114 106.76V138.458C131.118 139.476 131.524 140.451 132.244 141.171C132.963 141.891 133.938 142.297 134.956 142.3H230.692C231.71 142.297 232.685 141.891 233.405 141.171C234.125 140.451 234.531 139.476 234.534 138.458V106.739C234.529 105.723 234.122 104.749 233.403 104.031C232.683 103.313 231.709 102.908 230.692 102.904ZM232.924 138.458C232.922 139.049 232.686 139.616 232.268 140.034C231.85 140.452 231.284 140.688 230.692 140.69H134.956C134.365 140.688 133.798 140.452 133.38 140.034C132.962 139.616 132.727 139.049 132.725 138.458V106.739C132.724 106.446 132.781 106.154 132.893 105.882C133.004 105.61 133.168 105.363 133.376 105.155C133.583 104.946 133.829 104.781 134.1 104.667C134.371 104.554 134.662 104.495 134.956 104.494H230.692C230.986 104.495 231.277 104.554 231.548 104.667C231.82 104.781 232.066 104.946 232.273 105.155C232.48 105.363 232.644 105.61 232.756 105.882C232.868 106.154 232.925 106.446 232.924 106.739V138.458Z" fill="#0D0D0D"/>
<path d="M149.239 129.626C147.844 129.627 146.48 129.215 145.32 128.441C144.16 127.667 143.255 126.566 142.721 125.278C142.186 123.989 142.046 122.571 142.318 121.203C142.59 119.835 143.261 118.578 144.247 117.592C145.234 116.606 146.49 115.934 147.858 115.662C149.226 115.391 150.644 115.531 151.933 116.065C153.221 116.6 154.322 117.504 155.096 118.665C155.87 119.825 156.283 121.189 156.281 122.584C156.28 124.451 155.537 126.241 154.217 127.561C152.896 128.882 151.106 129.624 149.239 129.626ZM149.239 117.145C148.159 117.145 147.104 117.465 146.206 118.065C145.308 118.665 144.608 119.517 144.195 120.515C143.782 121.512 143.674 122.61 143.884 123.669C144.095 124.728 144.615 125.701 145.378 126.464C146.142 127.228 147.115 127.748 148.174 127.958C149.233 128.169 150.33 128.061 151.328 127.648C152.326 127.235 153.178 126.535 153.778 125.637C154.378 124.739 154.698 123.684 154.698 122.604C154.698 121.156 154.123 119.767 153.099 118.744C152.075 117.72 150.687 117.145 149.239 117.145Z" fill="#0D0D0D"/>
<path d="M205.307 119.479H166.655C165.2 119.479 164.021 120.658 164.021 122.113V123.048C164.021 124.502 165.2 125.682 166.655 125.682H205.307C206.761 125.682 207.941 124.502 207.941 123.048V122.113C207.941 120.658 206.761 119.479 205.307 119.479Z" fill="#00C0B5"/>
<path d="M219.542 125.683C221.256 125.683 222.647 124.292 222.647 122.578C222.647 120.863 221.256 119.473 219.542 119.473C217.827 119.473 216.437 120.863 216.437 122.578C216.437 124.292 217.827 125.683 219.542 125.683Z" fill="#0D0D0D"/>
<path d="M247.132 183.428L246.129 188.716C245.992 189.369 245.633 189.953 245.112 190.369C244.592 190.785 243.942 191.007 243.276 190.996H232.924V183.428H247.132Z" fill="#5454F1"/>
<path d="M232.923 183.428V190.996H140.34C139.674 191.005 139.025 190.783 138.505 190.368C137.985 189.952 137.625 189.368 137.488 188.716L136.491 183.428H232.923Z" fill="#00C0B5"/>
<path d="M252.278 151.088V182.786C252.274 183.804 251.868 184.779 251.148 185.499C250.429 186.219 249.453 186.625 248.436 186.628H152.699C151.681 186.627 150.705 186.221 149.985 185.501C149.265 184.781 148.859 183.805 148.857 182.786V151.088C148.863 150.072 149.27 149.099 149.99 148.382C150.709 147.665 151.683 147.262 152.699 147.26H248.436C249.451 147.263 250.424 147.667 251.143 148.384C251.863 149.101 252.27 150.073 252.278 151.088Z" fill="#0D0D0D"/>
<path d="M232.924 151.095V182.793C232.922 183.384 232.686 183.951 232.268 184.369C231.85 184.787 231.284 185.023 230.692 185.024H134.956C134.365 185.023 133.798 184.787 133.38 184.369C132.962 183.951 132.726 183.384 132.725 182.793V151.095C132.724 150.801 132.781 150.51 132.892 150.238C133.004 149.966 133.168 149.719 133.375 149.51C133.583 149.302 133.829 149.136 134.1 149.023C134.371 148.909 134.662 148.851 134.956 148.85H230.692C230.986 148.851 231.277 148.909 231.548 149.023C231.82 149.136 232.066 149.302 232.273 149.51C232.48 149.719 232.644 149.966 232.756 150.238C232.868 150.51 232.925 150.801 232.924 151.095Z" fill="white"/>
<path d="M230.692 147.26H134.956C133.936 147.263 132.959 147.671 132.239 148.394C131.519 149.117 131.114 150.095 131.114 151.115V182.814C131.118 183.831 131.524 184.807 132.244 185.526C132.963 186.246 133.938 186.652 134.956 186.656H230.692C231.71 186.652 232.685 186.246 233.405 185.526C234.125 184.807 234.531 183.831 234.534 182.814V151.095C234.529 150.078 234.122 149.105 233.403 148.387C232.683 147.668 231.709 147.263 230.692 147.26ZM232.924 182.814C232.922 183.405 232.686 183.971 232.268 184.39C231.85 184.808 231.284 185.043 230.692 185.045H134.956C134.365 185.043 133.798 184.808 133.38 184.39C132.962 183.971 132.727 183.405 132.725 182.814V151.095C132.724 150.801 132.781 150.51 132.893 150.238C133.004 149.966 133.168 149.719 133.376 149.51C133.583 149.302 133.829 149.136 134.1 149.023C134.371 148.909 134.662 148.851 134.956 148.85H230.692C230.986 148.851 231.277 148.909 231.548 149.023C231.82 149.136 232.066 149.302 232.273 149.51C232.48 149.719 232.644 149.966 232.756 150.238C232.868 150.51 232.925 150.801 232.924 151.095V182.814Z" fill="#0D0D0D"/>
<path d="M149.239 173.983C147.844 173.985 146.48 173.572 145.32 172.798C144.16 172.024 143.255 170.923 142.721 169.635C142.186 168.347 142.046 166.929 142.318 165.561C142.59 164.192 143.261 162.936 144.247 161.949C145.234 160.963 146.49 160.292 147.858 160.02C149.226 159.748 150.644 159.888 151.933 160.423C153.221 160.957 154.322 161.862 155.096 163.022C155.87 164.182 156.283 165.546 156.281 166.941C156.28 168.808 155.537 170.598 154.217 171.919C152.896 173.239 151.106 173.982 149.239 173.983ZM149.239 161.502C148.159 161.502 147.104 161.822 146.206 162.422C145.308 163.022 144.608 163.875 144.195 164.872C143.782 165.87 143.674 166.967 143.884 168.026C144.095 169.085 144.615 170.058 145.378 170.822C146.142 171.585 147.115 172.105 148.174 172.316C149.233 172.526 150.33 172.418 151.328 172.005C152.326 171.592 153.178 170.892 153.778 169.994C154.378 169.097 154.698 168.041 154.698 166.961C154.698 165.514 154.123 164.125 153.099 163.101C152.075 162.077 150.687 161.502 149.239 161.502Z" fill="#0D0D0D"/>
<path d="M205.307 163.836H166.655C165.2 163.836 164.021 165.015 164.021 166.47V167.405C164.021 168.86 165.2 170.039 166.655 170.039H205.307C206.761 170.039 207.941 168.86 207.941 167.405V166.47C207.941 165.015 206.761 163.836 205.307 163.836Z" fill="#00C0B5"/>
<path d="M219.542 170.04C221.256 170.04 222.647 168.65 222.647 166.935C222.647 165.22 221.256 163.83 219.542 163.83C217.827 163.83 216.437 165.22 216.437 166.935C216.437 168.65 217.827 170.04 219.542 170.04Z" fill="#0D0D0D"/>
<path d="M252.278 62.3752V94.0734C252.274 95.0913 251.868 96.0664 251.148 96.7862C250.429 97.5059 249.453 97.9119 248.436 97.9155H152.699C151.681 97.9136 150.705 97.5083 149.985 96.7882C149.265 96.068 148.859 95.0919 148.857 94.0734V62.3752C148.863 61.3592 149.27 60.3865 149.99 59.6693C150.709 58.9521 151.683 58.5487 152.699 58.5469H248.436C249.451 58.5504 250.424 58.9545 251.143 59.6713C251.863 60.3881 252.27 61.3597 252.278 62.3752Z" fill="#0D0D0D"/>
<path d="M232.924 62.3819V94.0801C232.922 94.6714 232.686 95.2379 232.268 95.656C231.85 96.0741 231.284 96.3098 230.692 96.3116H134.956C134.365 96.3098 133.798 96.0741 133.38 95.656C132.962 95.2379 132.726 94.6714 132.725 94.0801V62.3819C132.724 62.0879 132.781 61.7967 132.892 61.5248C133.004 61.2529 133.168 61.0056 133.375 60.7971C133.583 60.5887 133.829 60.423 134.1 60.3097C134.371 60.1964 134.662 60.1376 134.956 60.1367H230.692C230.986 60.1376 231.277 60.1964 231.548 60.3097C231.82 60.423 232.066 60.5887 232.273 60.7971C232.48 61.0056 232.644 61.2529 232.756 61.5248C232.868 61.7967 232.925 62.0879 232.924 62.3819Z" fill="white"/>
<path d="M230.692 58.5469H134.956C133.936 58.5505 132.959 58.9583 132.239 59.681C131.519 60.4037 131.114 61.3823 131.114 62.4025V94.1007C131.118 95.1186 131.524 96.0937 132.244 96.8135C132.963 97.5332 133.938 97.9392 134.956 97.9427H230.692C231.71 97.9392 232.685 97.5332 233.405 96.8135C234.125 96.0937 234.531 95.1186 234.534 94.1007V62.3821C234.529 61.3654 234.122 60.392 233.403 59.6737C232.683 58.9555 231.709 58.5505 230.692 58.5469ZM232.924 94.1007C232.922 94.692 232.686 95.2586 232.268 95.6767C231.85 96.0948 231.284 96.3304 230.692 96.3322H134.956C134.365 96.3304 133.798 96.0948 133.38 95.6767C132.962 95.2586 132.727 94.692 132.725 94.1007V62.3821C132.724 62.0881 132.781 61.7969 132.893 61.525C133.004 61.2531 133.168 61.0058 133.376 60.7973C133.583 60.5888 133.829 60.4232 134.1 60.3099C134.371 60.1966 134.662 60.1378 134.956 60.1369H230.692C230.986 60.1378 231.277 60.1966 231.548 60.3099C231.82 60.4232 232.066 60.5888 232.273 60.7973C232.48 61.0058 232.644 61.2531 232.756 61.525C232.868 61.7969 232.925 62.0881 232.924 62.3821V94.1007Z" fill="#0D0D0D"/>
<path d="M149.239 85.2706C147.844 85.2719 146.48 84.8595 145.32 84.0854C144.16 83.3113 143.255 82.2104 142.721 80.9221C142.186 79.6337 142.046 78.2157 142.318 76.8476C142.59 75.4796 143.261 74.2229 144.247 73.2366C145.234 72.2503 146.49 71.5788 147.858 71.307C149.226 71.0352 150.644 71.1754 151.933 71.7098C153.221 72.2442 154.322 73.1488 155.096 74.3091C155.87 75.4694 156.283 76.8332 156.281 78.2281C156.28 80.0953 155.537 81.8855 154.217 83.2059C152.896 84.5262 151.106 85.2688 149.239 85.2706ZM149.239 72.7892C148.159 72.7892 147.104 73.1094 146.206 73.7093C145.308 74.3091 144.608 75.1618 144.195 76.1593C143.782 77.1569 143.674 78.2546 143.884 79.3136C144.095 80.3726 144.615 81.3454 145.378 82.1089C146.142 82.8724 147.115 83.3923 148.174 83.603C149.233 83.8136 150.33 83.7055 151.328 83.2923C152.326 82.8791 153.178 82.1793 153.778 81.2816C154.378 80.3838 154.698 79.3283 154.698 78.2485C154.698 76.8006 154.123 75.412 153.099 74.3882C152.075 73.3644 150.687 72.7892 149.239 72.7892Z" fill="#0D0D0D"/>
<path d="M205.307 75.123H166.655C165.2 75.123 164.021 76.3024 164.021 77.7572V78.6921C164.021 80.1469 165.2 81.3262 166.655 81.3262H205.307C206.761 81.3262 207.941 80.1469 207.941 78.6921V77.7572C207.941 76.3024 206.761 75.123 205.307 75.123Z" fill="#00C0B5"/>
<path d="M219.542 81.3252C221.256 81.3252 222.647 79.9351 222.647 78.2202C222.647 76.5054 221.256 75.1152 219.542 75.1152C217.827 75.1152 216.437 76.5054 216.437 78.2202C216.437 79.9351 217.827 81.3252 219.542 81.3252Z" fill="#0D0D0D"/>
</g>
<defs>
<clipPath id="clip0_35348_5839">
<rect width="288" height="211.44" fill="white" transform="translate(19 47)"/>
</clipPath>
</defs>
</svg>
