<svg width="325" height="276" viewBox="0 0 325 276" fill="none" xmlns="http://www.w3.org/2000/svg">
<g clip-path="url(#clip0_35348_5954)">
<path d="M24.7496 256.473C21.0287 243.969 15.023 217.376 23.3057 186.054C26.5664 173.71 37.0863 133.915 74.6359 114.652C79.0073 112.407 109.417 97.3489 143.507 108.043C188.768 122.244 183.357 163.904 229.095 178.938C258.639 188.648 279.076 177.24 295.435 195.455C302.685 203.68 307.073 214.034 307.941 224.963C308.81 235.893 306.111 246.81 300.251 256.076L24.7496 256.473Z" fill="#EDEDED"/>
<path d="M86.5049 13.5224V153.598C86.5039 153.873 86.557 154.145 86.6613 154.4C86.7656 154.654 86.919 154.886 87.1127 155.081C87.3065 155.276 87.5368 155.431 87.7905 155.537C88.0442 155.644 88.3164 155.699 88.5914 155.7H178.868C179.143 155.699 179.415 155.644 179.668 155.537C179.922 155.431 180.152 155.276 180.346 155.081C180.54 154.886 180.693 154.654 180.798 154.4C180.902 154.145 180.955 153.873 180.954 153.598V13.5224C180.956 13.2467 180.904 12.9733 180.8 12.7179C180.696 12.4625 180.543 12.23 180.349 12.034C180.155 11.8379 179.924 11.682 179.67 11.5753C179.416 11.4686 179.143 11.4131 178.868 11.4121H88.5914C88.0352 11.4163 87.5033 11.6407 87.1123 12.0363C86.7212 12.4318 86.5028 12.9662 86.5049 13.5224Z" fill="#0D0D0D"/>
<path d="M89.3526 12.1035V151.734C89.3546 152.037 89.4757 152.326 89.6895 152.54C89.9033 152.754 90.1927 152.875 90.495 152.877H180.755C181.058 152.875 181.347 152.754 181.561 152.54C181.775 152.326 181.896 152.037 181.898 151.734V12.1035C181.899 11.9528 181.87 11.8034 181.813 11.6639C181.756 11.5243 181.672 11.3975 181.566 11.2905C181.46 11.1836 181.333 11.0987 181.194 11.0408C181.055 10.9829 180.906 10.9531 180.755 10.9531H90.495C90.3443 10.9531 90.1951 10.9829 90.056 11.0408C89.9168 11.0987 89.7905 11.1836 89.6844 11.2905C89.5782 11.3975 89.4942 11.5243 89.4372 11.6639C89.3803 11.8034 89.3515 11.9528 89.3526 12.1035Z" fill="white"/>
<path d="M88.4248 12.1024V151.733C88.4269 152.288 88.6482 152.82 89.0406 153.212C89.4329 153.604 89.9644 153.826 90.5193 153.828H180.756C181.311 153.828 181.844 153.607 182.237 153.214C182.629 152.821 182.85 152.289 182.85 151.733V12.1024C182.851 11.8267 182.798 11.5535 182.693 11.2984C182.588 11.0434 182.434 10.8116 182.24 10.6163C182.045 10.4209 181.814 10.2659 181.559 10.1602C181.304 10.0544 181.031 10 180.756 10H90.4955C89.9434 10.0083 89.4168 10.2335 89.0293 10.6269C88.6419 11.0203 88.4247 11.5503 88.4248 12.1024ZM89.3768 12.1024C89.3758 11.9517 89.4046 11.8023 89.4615 11.6628C89.5185 11.5232 89.6024 11.3964 89.7086 11.2894C89.8148 11.1825 89.9411 11.0977 90.0802 11.0397C90.2194 10.9818 90.3686 10.952 90.5193 10.952H180.756C180.906 10.952 181.056 10.9818 181.195 11.0397C181.334 11.0977 181.46 11.1825 181.566 11.2894C181.673 11.3964 181.756 11.5232 181.813 11.6628C181.87 11.8023 181.899 11.9517 181.898 12.1024V151.733C181.896 152.036 181.775 152.325 181.561 152.539C181.347 152.753 181.058 152.874 180.756 152.876H90.4955C90.1931 152.874 89.9037 152.753 89.6899 152.539C89.4761 152.325 89.3551 152.036 89.353 151.733L89.3768 12.1024Z" fill="#0D0D0D"/>
<path d="M63.584 33.5081V77.0555C63.5842 77.3036 63.6553 77.5464 63.789 77.7554C63.9227 77.9644 64.1133 78.1309 64.3385 78.2351C64.5636 78.3393 64.8138 78.377 65.0597 78.3437C65.3055 78.3104 65.5367 78.2075 65.726 78.0472L75.0639 70.1136C75.6906 69.5953 76.4799 69.3144 77.2932 69.3203H158.049C158.663 69.3203 159.253 69.0762 159.687 68.6417C160.122 68.2073 160.366 67.6181 160.366 67.0037V33.5081C160.366 32.893 160.122 32.3029 159.688 31.8672C159.253 31.4315 158.664 31.1857 158.049 31.1836H65.9006C65.2855 31.1857 64.6962 31.4315 64.262 31.8672C63.8278 32.3029 63.584 32.893 63.584 33.5081Z" fill="white"/>
<path d="M64.1398 78.6575C63.8341 78.5194 63.5744 78.2965 63.3916 78.0153C63.2088 77.734 63.1105 77.4062 63.1084 77.0708V33.5076C63.1084 32.7662 63.4024 32.0551 63.9259 31.5301C64.4493 31.0051 65.1596 30.7091 65.901 30.707H158.049C158.791 30.7091 159.501 31.0051 160.025 31.5301C160.548 32.0551 160.842 32.7662 160.842 33.5076V67.0031C160.84 67.7431 160.545 68.4522 160.022 68.9755C159.499 69.4987 158.789 69.7936 158.049 69.7957H77.3174C76.6119 69.7976 75.9294 70.0475 75.3896 70.5018L66.0518 78.4354C65.7342 78.7097 65.329 78.8617 64.9093 78.8638C64.6399 78.8586 64.3757 78.7878 64.1398 78.6575ZM65.901 31.6908C65.6586 31.6908 65.4186 31.7387 65.1948 31.8317C64.971 31.9246 64.7677 32.0609 64.5967 32.2327C64.4257 32.4044 64.2903 32.6083 64.1983 32.8325C64.1062 33.0567 64.0594 33.2969 64.0604 33.5393V77.0867C64.0476 77.249 64.085 77.4114 64.1676 77.5517C64.2501 77.692 64.3739 77.8036 64.5221 77.8711C64.6702 77.9387 64.8356 77.9591 64.9957 77.9294C65.1558 77.8998 65.3029 77.8216 65.4171 77.7055L74.7549 69.7719C75.4664 69.1748 76.3648 68.8463 77.2936 68.8437H158.049C158.538 68.8437 159.006 68.6498 159.351 68.3046C159.696 67.9594 159.89 67.4913 159.89 67.0031V33.5076C159.884 33.0236 159.687 32.5615 159.343 32.2214C158.998 31.8814 158.533 31.6908 158.049 31.6908H65.901Z" fill="#0D0D0D"/>
<path d="M141.016 60.6727C146.756 60.6727 151.409 56.0196 151.409 50.2797C151.409 44.5398 146.756 39.8867 141.016 39.8867C135.276 39.8867 130.623 44.5398 130.623 50.2797C130.623 56.0196 135.276 60.6727 141.016 60.6727Z" fill="#00C0B5"/>
<path d="M141.016 57.6661C141.956 57.6674 142.887 57.483 143.756 57.1236C144.625 56.7642 145.414 56.2368 146.078 55.5717C146.242 55.3901 146.329 55.1526 146.322 54.9083C146.316 54.664 146.215 54.4316 146.042 54.2593C145.868 54.087 145.636 53.9879 145.391 53.9826C145.147 53.9774 144.91 54.0663 144.729 54.2309C143.742 55.2139 142.406 55.7658 141.012 55.7658C139.619 55.7658 138.283 55.2139 137.295 54.2309C137.113 54.079 136.88 54.0007 136.643 54.0116C136.406 54.0224 136.181 54.1215 136.013 54.2894C135.845 54.4573 135.746 54.682 135.735 54.9192C135.725 55.1564 135.803 55.3891 135.955 55.5717C136.619 56.2368 137.408 56.7642 138.277 57.1236C139.145 57.483 140.076 57.6674 141.016 57.6661Z" fill="#0D0D0D"/>
<path d="M99.2304 60.6719H120.365C121.031 60.6719 121.571 60.132 121.571 59.466V58.99C121.571 58.324 121.031 57.7841 120.365 57.7841H99.2304C98.5644 57.7841 98.0244 58.324 98.0244 58.99V59.466C98.0244 60.132 98.5644 60.6719 99.2304 60.6719Z" fill="#0D0D0D"/>
<path d="M75.6835 51.7227L120.365 51.7227C121.031 51.7227 121.571 51.1828 121.571 50.5168V50.0407C121.571 49.3747 121.031 48.8348 120.365 48.8348L75.6835 48.8348C75.0175 48.8348 74.4776 49.3747 74.4776 50.0407V50.5168C74.4776 51.1828 75.0175 51.7227 75.6835 51.7227Z" fill="#0D0D0D"/>
<path d="M75.6835 42.7656L120.365 42.7656C121.031 42.7656 121.571 42.2257 121.571 41.5597V41.0837C121.571 40.4177 121.031 39.8778 120.365 39.8778L75.6835 39.8778C75.0175 39.8778 74.4776 40.4177 74.4776 41.0837V41.5597C74.4776 42.2257 75.0175 42.7656 75.6835 42.7656Z" fill="#0D0D0D"/>
<path d="M207.896 93.3908V136.938C207.896 137.186 207.825 137.429 207.691 137.638C207.557 137.847 207.367 138.014 207.141 138.118C206.916 138.222 206.666 138.26 206.42 138.226C206.174 138.193 205.943 138.09 205.754 137.93L196.416 129.996C195.789 129.478 195 129.197 194.187 129.203H113.431C113.127 129.204 112.826 129.145 112.545 129.03C112.264 128.914 112.008 128.744 111.793 128.53C111.578 128.315 111.407 128.06 111.291 127.78C111.174 127.499 111.114 127.198 111.114 126.894V93.3908C111.113 93.0863 111.172 92.7846 111.288 92.5031C111.405 92.2215 111.575 91.9657 111.79 91.7504C112.006 91.5351 112.262 91.3645 112.543 91.2484C112.825 91.1324 113.126 91.0732 113.431 91.0742H205.579C206.194 91.0742 206.783 91.3183 207.217 91.7527C207.652 92.1872 207.896 92.7764 207.896 93.3908Z" fill="white"/>
<path d="M206.587 138.715C206.17 138.715 205.766 138.563 205.453 138.286L196.107 130.353C195.571 129.897 194.891 129.647 194.187 129.647H113.431C112.698 129.645 111.995 129.355 111.473 128.841C110.951 128.326 110.651 127.627 110.639 126.894V93.3903C110.641 92.6503 110.936 91.9412 111.459 91.4179C111.982 90.8946 112.691 90.5997 113.431 90.5977H205.58C206.32 90.5997 207.029 90.8946 207.552 91.4179C208.075 91.9412 208.37 92.6503 208.372 93.3903V136.938C208.369 137.273 208.271 137.6 208.088 137.881C207.905 138.162 207.646 138.385 207.341 138.524C207.107 138.642 206.849 138.707 206.587 138.715ZM113.431 91.5418C112.942 91.5438 112.473 91.7393 112.126 92.0855C111.78 92.4317 111.585 92.9007 111.583 93.3903V126.894C111.585 127.383 111.78 127.852 112.126 128.199C112.473 128.545 112.942 128.74 113.431 128.742H194.187C195.117 128.74 196.017 129.069 196.726 129.67L206.064 137.604C206.178 137.721 206.326 137.799 206.487 137.829C206.648 137.858 206.814 137.837 206.963 137.769C207.111 137.7 207.235 137.587 207.317 137.446C207.399 137.304 207.435 137.14 207.42 136.977V93.3903C207.42 92.9014 207.227 92.4324 206.882 92.086C206.537 91.7395 206.069 91.5439 205.58 91.5418H113.431Z" fill="#0D0D0D"/>
<path d="M130.464 120.554C136.204 120.554 140.857 115.9 140.857 110.161C140.857 104.421 136.204 99.7676 130.464 99.7676C124.724 99.7676 120.071 104.421 120.071 110.161C120.071 115.9 124.724 120.554 130.464 120.554Z" fill="#00C0B5"/>
<path d="M130.472 117.547C129.532 117.55 128.602 117.366 127.733 117.008C126.865 116.65 126.075 116.124 125.41 115.461C125.235 115.28 125.137 115.038 125.137 114.786C125.137 114.535 125.235 114.293 125.41 114.112C125.499 114.023 125.604 113.953 125.72 113.905C125.835 113.857 125.959 113.832 126.085 113.832C126.21 113.832 126.334 113.857 126.45 113.905C126.565 113.953 126.671 114.023 126.759 114.112C127.745 115.095 129.08 115.646 130.472 115.646C131.864 115.646 133.199 115.095 134.185 114.112C134.364 113.933 134.606 113.833 134.859 113.833C135.112 113.833 135.355 113.933 135.534 114.112C135.712 114.291 135.813 114.533 135.813 114.786C135.813 115.039 135.712 115.282 135.534 115.461C134.869 116.124 134.079 116.65 133.211 117.008C132.342 117.366 131.411 117.55 130.472 117.547Z" fill="#0D0D0D"/>
<path d="M172.25 117.666H151.115C150.449 117.666 149.909 118.206 149.909 118.872V119.348C149.909 120.014 150.449 120.554 151.115 120.554H172.25C172.916 120.554 173.456 120.014 173.456 119.348V118.872C173.456 118.206 172.916 117.666 172.25 117.666Z" fill="#0D0D0D"/>
<path d="M195.797 108.717H151.115C150.449 108.717 149.909 109.257 149.909 109.923V110.399C149.909 111.065 150.449 111.605 151.115 111.605H195.797C196.463 111.605 197.003 111.065 197.003 110.399V109.923C197.003 109.257 196.463 108.717 195.797 108.717Z" fill="#0D0D0D"/>
<path d="M195.797 99.7598H151.115C150.449 99.7598 149.909 100.3 149.909 100.966V101.442C149.909 102.108 150.449 102.648 151.115 102.648H195.797C196.463 102.648 197.003 102.108 197.003 101.442V100.966C197.003 100.3 196.463 99.7598 195.797 99.7598Z" fill="#0D0D0D"/>
<path d="M238.877 238.742L238.408 248.873L231.927 248.008L232.871 236.092L238.877 238.742Z" fill="white"/>
<path d="M238.369 249.301L231.895 248.444C231.785 248.428 231.684 248.371 231.613 248.284C231.543 248.198 231.507 248.087 231.515 247.976L232.459 236.076C232.466 236.006 232.489 235.939 232.526 235.88C232.563 235.821 232.613 235.771 232.673 235.734C232.735 235.701 232.805 235.684 232.875 235.684C232.946 235.684 233.015 235.701 233.077 235.734L239.083 238.384C239.164 238.42 239.231 238.479 239.276 238.554C239.322 238.63 239.343 238.717 239.337 238.805L238.869 248.936C238.863 249.048 238.815 249.154 238.734 249.232C238.653 249.31 238.545 249.354 238.433 249.356L238.369 249.301ZM233.292 236.742L232.427 247.627L237.98 248.373L238.417 239.019L233.292 236.742Z" fill="#0D0D0D"/>
<path d="M280.957 240.788L282.107 247.079H276.442L275.157 239.336L280.957 240.788Z" fill="white"/>
<path d="M276.006 247.151L274.728 239.4C274.717 239.329 274.723 239.255 274.747 239.187C274.771 239.119 274.812 239.057 274.865 239.008C274.919 238.96 274.983 238.925 275.054 238.907C275.124 238.89 275.198 238.89 275.268 238.908L281.067 240.36C281.148 240.382 281.222 240.427 281.28 240.488C281.337 240.55 281.376 240.626 281.392 240.709L282.535 247.001C282.548 247.064 282.547 247.129 282.531 247.191C282.516 247.254 282.486 247.312 282.445 247.362C282.404 247.411 282.352 247.451 282.293 247.478C282.235 247.504 282.171 247.518 282.106 247.516H276.45C276.344 247.518 276.242 247.482 276.161 247.415C276.079 247.348 276.024 247.255 276.006 247.151ZM280.575 241.138L275.704 239.916L276.815 246.636H281.575L280.575 241.138Z" fill="#0D0D0D"/>
<path d="M274.681 247.103V253.831H297.196C297.156 253.481 297.01 253.153 296.777 252.889C296.545 252.625 296.237 252.439 295.895 252.355C291.113 251.16 286.608 249.048 282.63 246.135H275.657C275.528 246.131 275.4 246.153 275.28 246.2C275.16 246.247 275.051 246.318 274.96 246.409C274.869 246.499 274.797 246.608 274.749 246.727C274.701 246.847 274.678 246.975 274.681 247.103Z" fill="#0D0D0D"/>
<path d="M216.56 254.036H239.757C239.702 251.767 239.654 249.498 239.599 247.221C239.59 246.965 239.483 246.722 239.3 246.543C239.117 246.364 238.871 246.263 238.615 246.261C236.044 246.261 233.466 246.198 230.903 246.158C230.647 246.157 230.398 246.244 230.197 246.404C228.531 247.737 226.734 248.899 224.834 249.871C222.62 251.001 220.279 251.864 217.861 252.442C217.499 252.528 217.176 252.731 216.941 253.019C216.706 253.307 216.572 253.665 216.56 254.036Z" fill="#0D0D0D"/>
<path d="M274.681 253.83V255.076H297.212V254.013C297.22 253.952 297.22 253.891 297.212 253.83H274.681Z" fill="#0D0D0D"/>
<path d="M216.56 254.037V255.1L239.789 255.362C239.789 254.926 239.789 254.481 239.789 254.037H216.56Z" fill="#0D0D0D"/>
<path d="M282.638 242.129L274.07 175.693L267.683 113.113H232.855L231.181 182.992V241.01L240.328 242.311L246.135 180.739C247.601 169.489 249.071 158.239 250.547 146.99C253.424 158.737 256.306 170.486 259.194 182.238C263.896 202.263 268.598 222.287 273.3 242.311L282.638 242.129Z" fill="#0D0D0D"/>
<path d="M244.121 55.768C244.748 56.1488 246.009 56.5614 248.508 55.6173L247.517 66.399L255.823 69.1519L259.901 65.685C258.545 60.0582 258.161 54.2411 258.766 48.485C260.702 47.6916 261.94 46.2477 261.821 44.9149C261.806 44.6099 261.727 44.3114 261.591 44.0382C261.454 43.7651 261.262 43.5233 261.027 43.3282C260.708 43.1241 260.345 42.9964 259.968 42.9552C259.591 42.9139 259.21 42.9601 258.854 43.0901C258.441 41.3686 258.06 39.639 257.624 37.9175L250.42 37.4176L243.224 36.7988C243.034 38.6077 242.812 41.1306 242.669 44.1532C242.177 53.8005 243.209 55.2047 244.121 55.768Z" fill="white"/>
<path d="M255.672 69.5651L247.381 66.8122C247.287 66.782 247.206 66.7208 247.152 66.6387C247.097 66.5566 247.071 66.4583 247.08 66.3599L248.008 56.2843C246.286 56.8317 244.906 56.7921 243.89 56.1732C242.78 55.483 241.725 53.9915 242.185 44.1539C242.304 41.6707 242.494 39.1875 242.748 36.7677C242.76 36.6532 242.817 36.5481 242.906 36.4753C242.995 36.4025 243.11 36.3679 243.224 36.379L250.412 36.9978L257.608 37.4897C257.702 37.4947 257.792 37.531 257.864 37.5927C257.936 37.6544 257.985 37.7381 258.004 37.8308L259.139 42.591C259.499 42.5146 259.872 42.5124 260.233 42.5847C260.595 42.657 260.938 42.8022 261.241 43.0114C261.538 43.2391 261.783 43.5288 261.957 43.8604C262.131 44.1919 262.23 44.5574 262.249 44.9314C262.368 46.3991 261.138 47.9461 259.171 48.8426C258.877 51.7267 258.837 54.6309 259.052 57.5219C259.253 60.2573 259.677 62.9717 260.321 65.638C260.34 65.7168 260.337 65.7994 260.312 65.8765C260.286 65.9535 260.24 66.0221 260.178 66.0743L256.1 69.5413C256.02 69.6088 255.919 69.6454 255.815 69.6444C255.763 69.6269 255.714 69.6 255.672 69.5651ZM258.203 57.5299C257.987 54.5033 258.037 51.4637 258.353 48.4459C258.361 48.3662 258.39 48.29 258.437 48.2256C258.485 48.1613 258.549 48.1112 258.623 48.081C260.376 47.3511 261.495 46.0897 261.408 44.9076C261.397 44.6594 261.334 44.4163 261.221 44.1947C261.109 43.9731 260.951 43.7779 260.757 43.6223C260.495 43.4644 260.201 43.3668 259.896 43.3366C259.592 43.3064 259.284 43.3444 258.996 43.4478C258.94 43.4735 258.879 43.4868 258.818 43.4868C258.756 43.4868 258.695 43.4735 258.639 43.4478C258.585 43.4173 258.537 43.3764 258.499 43.3273C258.461 43.2783 258.433 43.2221 258.417 43.1622L257.259 38.2989L250.38 37.8229L243.573 37.2437C243.343 39.5127 243.176 41.8293 243.065 44.1459C242.645 53.0791 243.486 54.8404 244.351 55.3719C245.247 55.9273 246.588 55.8638 248.317 55.1895C248.387 55.1629 248.461 55.1541 248.535 55.1638C248.608 55.1735 248.678 55.2014 248.738 55.245C248.796 55.2926 248.843 55.3534 248.873 55.4223C248.903 55.4913 248.917 55.5665 248.912 55.6417L247.952 66.0743L255.68 68.6369L259.361 65.4634C258.768 62.8532 258.381 60.2006 258.203 57.5299Z" fill="#0D0D0D"/>
<path d="M206.134 69.058C206.041 68.2697 205.673 67.5394 205.095 66.9952C204.119 66.1463 202.937 66.3923 201.874 66.1543C200.692 65.9004 199.121 64.8928 197.661 61.3941C197.56 61.2525 197.493 61.0888 197.467 60.9164C197.44 60.744 197.455 60.5679 197.511 60.4024C197.607 60.2553 197.737 60.1332 197.891 60.0463C198.044 59.9594 198.215 59.9102 198.391 59.9026C199.438 59.7677 199.978 61.0213 201.342 61.886C203.175 63.0602 205.635 63.4727 206.103 62.7428C206.571 62.0129 204.96 60.5532 205.309 60.2438C205.658 59.9344 208.776 61.7035 209.72 63.8773C209.816 64.0995 210.101 64.7976 210.379 65.6783C210.593 66.3605 210.744 66.9397 210.839 67.3522L206.134 69.058Z" fill="white"/>
<path d="M205.912 69.4379C205.856 69.4056 205.807 69.361 205.77 69.3075C205.733 69.2539 205.708 69.1928 205.698 69.1285C205.626 68.4416 205.31 67.8031 204.81 67.3276C204.236 66.9129 203.542 66.6983 202.834 66.7167C202.479 66.698 202.127 66.6529 201.779 66.5818C200.01 66.201 198.494 64.5191 197.273 61.5916C197.131 61.391 197.042 61.1579 197.014 60.9138C196.986 60.6697 197.021 60.4226 197.114 60.1953C197.239 59.979 197.416 59.7979 197.63 59.6688C197.843 59.5398 198.086 59.4671 198.336 59.4575C199.201 59.3464 199.772 59.9097 200.375 60.4968C200.741 60.8698 201.142 61.2072 201.573 61.5043C203.445 62.7023 205.539 62.8134 205.762 62.4802C205.865 62.3294 205.412 61.6075 205.262 61.3695C204.921 60.8141 204.595 60.2984 204.992 59.9176C205.088 59.8327 205.204 59.7742 205.329 59.7478C205.454 59.7214 205.584 59.7279 205.706 59.7669C207.625 60.4813 209.199 61.8997 210.109 63.7337C210.363 64.338 210.585 64.955 210.776 65.5822C210.958 66.1455 211.117 66.7167 211.252 67.28C211.276 67.385 211.261 67.4952 211.21 67.59C211.159 67.6849 211.075 67.758 210.974 67.7956L206.285 69.5172C206.235 69.5249 206.184 69.5249 206.134 69.5172C206.054 69.5121 205.977 69.4846 205.912 69.4379ZM209.943 65.8043C209.665 64.9316 209.387 64.2176 209.3 64.0431C208.551 62.6187 207.367 61.4708 205.92 60.7665L206.007 60.9014C206.412 61.5519 206.92 62.3612 206.476 62.9879C205.754 64.0193 202.945 63.4243 201.105 62.2422C200.618 61.9222 200.169 61.5498 199.764 61.1315C199.185 60.5682 198.859 60.2746 198.447 60.3381C198.343 60.3356 198.241 60.3573 198.147 60.4013C198.053 60.4454 197.971 60.5107 197.907 60.592C197.885 60.6863 197.883 60.7845 197.904 60.8793C197.925 60.9741 197.966 61.063 198.026 61.1394C198.044 61.1661 198.058 61.1956 198.066 61.2267C199.177 63.8923 200.494 65.4076 201.969 65.7329C202.278 65.7946 202.591 65.8343 202.905 65.8519C203.796 65.8309 204.668 66.1103 205.381 66.6453C205.919 67.1221 206.296 67.7541 206.46 68.4541L210.3 67.0499C210.199 66.6426 210.08 66.2274 209.943 65.8043Z" fill="#0D0D0D"/>
<path d="M205.786 68.5973L213.379 100.125C213.52 100.682 213.813 101.189 214.226 101.589C214.638 101.989 215.154 102.267 215.715 102.391C216.276 102.516 216.86 102.481 217.403 102.293C217.946 102.104 218.426 101.769 218.789 101.323L231.832 85.4561C232.372 91.4618 232.736 97.8166 232.855 104.497C232.855 104.909 232.855 105.29 232.855 105.734C232.855 106.179 232.855 106.797 232.855 107.321V110.494C232.855 111.026 232.855 111.558 232.855 112.081C232.855 113.049 232.855 114.009 232.808 114.961C244.339 117.727 256.346 117.847 267.93 115.31C267.755 114.049 267.605 112.692 267.478 111.248C267.43 110.685 267.39 110.106 267.351 109.511C267.295 108.63 267.255 107.726 267.224 106.789V106.631C267.224 106.012 267.224 105.401 267.224 104.806C267.224 102.482 267.295 100.395 267.422 98.61L276.942 103.108C277.722 103.483 278.589 103.637 279.451 103.556C280.312 103.475 281.134 103.16 281.83 102.646C282.526 102.132 283.069 101.438 283.4 100.639C283.731 99.8399 283.838 98.9656 283.71 98.1102C282.25 89.6953 280.787 81.2751 279.322 72.8497C279.085 71.4922 278.545 70.2055 277.743 69.0849C276.941 67.9642 275.898 67.0384 274.689 66.3759L259.219 57.8711C259.052 59.095 258.456 60.2198 257.537 61.0445C256.491 61.9193 255.154 62.3695 253.792 62.306C252.51 62.2872 251.267 61.8602 250.244 61.087C249.221 60.3137 248.471 59.2344 248.104 58.006L232.332 63.8768C231.37 64.2505 230.559 64.9309 230.023 65.8126L218.646 84.5279C216.266 78.6465 213.886 72.7677 211.506 66.8916L205.786 68.5973ZM268.231 91.446C268.58 89.288 269.025 86.9397 269.675 84.4485C270.659 87.3469 271.645 90.2427 272.634 93.1358L268.231 91.446Z" fill="#00C0B5"/>
<path d="M242.066 39.2043C239.202 36.8242 238.694 35.1343 238.893 33.9522C239.186 32.1196 241.471 29.8664 241.447 29.9061C244.319 27.4467 246.604 27.0183 248.151 27.0659C250.634 27.1532 250.92 28.4701 254.768 29.1762C257.997 29.7712 259.29 29.1128 260.702 30.3504C261.44 31.0009 261.805 31.9371 262.535 33.9126C263.264 35.888 263.677 36.9511 263.518 38.0936C263.219 39.6977 262.379 41.1509 261.138 42.2111C260.311 42.7649 259.631 43.5108 259.155 44.3849C258.963 44.802 258.838 45.2462 258.782 45.7019C258.285 44.4945 257.975 43.2184 257.862 41.9175C257.827 41.3892 257.827 40.8592 257.862 40.3308C257.872 40.0812 257.791 39.8363 257.635 39.6411C257.48 39.4458 257.258 39.3133 257.013 39.2677C254.736 38.8314 249.762 40.5133 243.867 39.6247C243.26 39.5162 242.659 39.3758 242.066 39.2043Z" fill="#0D0D0D"/>
<path d="M252.951 45.9071C252.856 46.5815 252.467 47.0813 252.094 47.0258C251.721 46.9702 251.499 46.3831 251.602 45.7088C251.706 45.0344 252.086 44.5346 252.459 44.5902C252.832 44.6457 253.054 45.2328 252.951 45.9071Z" fill="#0D0D0D"/>
<path d="M246.532 45.1132C246.429 45.7796 246.04 46.2874 245.668 46.2318C245.295 46.1763 245.073 45.5892 245.176 44.9149C245.279 44.2405 245.668 43.7407 246.04 43.7883C246.413 43.8359 246.635 44.4388 246.532 45.1132Z" fill="#0D0D0D"/>
<path d="M246.676 51.0879C248.048 51.4176 249.447 51.6168 250.857 51.6829C250.782 51.9447 250.655 52.1887 250.483 52.4C250.311 52.6113 250.099 52.7856 249.858 52.9124C249.617 53.0392 249.352 53.1158 249.081 53.1377C248.81 53.1595 248.537 53.1262 248.278 53.0396C247.831 52.9403 247.431 52.6941 247.14 52.3403C246.85 51.9865 246.686 51.5456 246.676 51.0879Z" fill="#0D0D0D"/>
<path d="M254.744 44.313C254.817 44.3113 254.889 44.2894 254.95 44.2495C254.991 44.224 255.025 44.1904 255.052 44.151C255.079 44.1116 255.097 44.0671 255.106 44.0202C255.115 43.9734 255.114 43.9252 255.104 43.8787C255.093 43.8322 255.074 43.7883 255.046 43.7497C254.658 43.1869 254.114 42.7497 253.481 42.4918C252.848 42.2338 252.154 42.1665 251.483 42.2979C251.438 42.3099 251.395 42.3308 251.357 42.3594C251.319 42.388 251.287 42.4238 251.263 42.4646C251.239 42.5055 251.224 42.5507 251.217 42.5977C251.211 42.6446 251.214 42.6924 251.226 42.7382C251.238 42.784 251.258 42.8271 251.287 42.8648C251.316 42.9026 251.351 42.9344 251.392 42.9583C251.433 42.9823 251.478 42.9979 251.525 43.0044C251.572 43.0109 251.62 43.008 251.666 42.996C252.191 42.9019 252.732 42.9611 253.225 43.1665C253.717 43.3719 254.14 43.7149 254.443 44.1543C254.476 44.2033 254.521 44.2434 254.574 44.271C254.626 44.2987 254.685 44.3131 254.744 44.313Z" fill="#0D0D0D"/>
<path d="M247.984 42.9242C248.035 42.9248 248.085 42.9144 248.132 42.8939C248.178 42.8734 248.22 42.8431 248.254 42.8052C248.288 42.7726 248.316 42.7332 248.335 42.6896C248.354 42.6459 248.363 42.5989 248.363 42.5514C248.363 42.5038 248.354 42.4568 248.335 42.4131C248.316 42.3695 248.288 42.3301 248.254 42.2975C246.58 40.8377 244.501 41.9484 244.414 41.996C244.371 42.0167 244.333 42.0462 244.303 42.0824C244.272 42.1186 244.249 42.1609 244.236 42.2064C244.222 42.252 244.218 42.2998 244.225 42.3469C244.231 42.394 244.247 42.4393 244.271 42.48C244.32 42.5641 244.399 42.6261 244.492 42.6528C244.585 42.6795 244.685 42.6687 244.771 42.6228C245.238 42.3658 245.77 42.2494 246.302 42.2874C246.834 42.3254 247.344 42.5162 247.77 42.837C247.831 42.8863 247.906 42.9166 247.984 42.9242Z" fill="#0D0D0D"/>
<path d="M249.182 49.8751C249.257 49.8749 249.329 49.852 249.39 49.8095C249.451 49.7669 249.497 49.7068 249.523 49.6371C249.54 49.5923 249.547 49.5448 249.544 49.4972C249.542 49.4497 249.53 49.4031 249.509 49.3602C249.488 49.3173 249.459 49.279 249.424 49.2476C249.388 49.2161 249.346 49.1921 249.301 49.1769L247.445 48.5343C249.262 45.5275 249.285 45.4561 249.301 45.4085C249.316 45.3637 249.322 45.3164 249.318 45.2694C249.315 45.2223 249.302 45.1765 249.28 45.1344C249.259 45.0924 249.23 45.055 249.194 45.0244C249.158 44.9938 249.116 44.9707 249.071 44.9563C248.986 44.9261 248.892 44.9289 248.808 44.9641C248.725 44.9993 248.657 45.0644 248.619 45.1467C248.516 45.3371 247.35 47.2808 246.588 48.5502C246.564 48.5983 246.552 48.6512 246.552 48.7049C246.552 48.7586 246.564 48.8115 246.588 48.8596C246.609 48.9083 246.639 48.9524 246.677 48.9892C246.715 49.026 246.761 49.0548 246.81 49.0738L249.087 49.8672C249.118 49.8745 249.15 49.8771 249.182 49.8751Z" fill="#0D0D0D"/>
<path d="M251.665 73.7384L254.744 94.1673C254.756 94.2535 254.75 94.3414 254.725 94.4249C254.701 94.5085 254.658 94.5857 254.601 94.6513C254.544 94.7169 254.473 94.7693 254.393 94.8049C254.314 94.8405 254.228 94.8584 254.141 94.8575H238.464C238.318 94.8574 238.178 94.8054 238.067 94.7109C237.957 94.6164 237.884 94.4855 237.861 94.3419L234.783 73.9129C234.77 73.8267 234.776 73.7388 234.801 73.6553C234.826 73.5717 234.868 73.4945 234.925 73.4289C234.983 73.3633 235.053 73.3109 235.133 73.2753C235.212 73.2397 235.299 73.2218 235.386 73.2227H251.062C251.208 73.2228 251.348 73.2748 251.459 73.3693C251.57 73.4639 251.643 73.5947 251.665 73.7384Z" fill="white"/>
<path d="M237.424 94.4057L234.354 73.9689C234.336 73.8273 234.348 73.6835 234.389 73.5468C234.43 73.4101 234.499 73.2836 234.592 73.1755C234.69 73.0608 234.812 72.9687 234.949 72.9057C235.086 72.8426 235.235 72.8102 235.385 72.8106H251.062C251.312 72.8093 251.554 72.8973 251.745 73.0588C251.935 73.2203 252.062 73.4446 252.101 73.6912L255.18 94.1201C255.201 94.2687 255.191 94.4202 255.148 94.5643C255.106 94.7083 255.033 94.8415 254.934 94.9546C254.835 95.0677 254.713 95.158 254.576 95.2194C254.439 95.2808 254.291 95.3118 254.14 95.3102H238.464C238.21 95.3106 237.965 95.2192 237.774 95.0529C237.583 94.8866 237.459 94.6567 237.424 94.4057ZM251.237 73.7785C251.228 73.7393 251.205 73.7045 251.173 73.68C251.142 73.6554 251.102 73.6425 251.062 73.6436H235.385C235.361 73.642 235.337 73.6462 235.315 73.6559C235.293 73.6656 235.274 73.6804 235.259 73.6991C235.242 73.7155 235.23 73.7356 235.223 73.7577C235.216 73.7798 235.215 73.8033 235.219 73.8261L238.297 94.255C238.305 94.2935 238.325 94.3281 238.356 94.3528C238.386 94.3775 238.424 94.3906 238.464 94.3899H254.14C254.166 94.3904 254.19 94.3857 254.214 94.3762C254.237 94.3666 254.258 94.3524 254.275 94.3343C254.29 94.296 254.29 94.2536 254.275 94.2153L251.205 73.7785H251.237Z" fill="#0D0D0D"/>
<path d="M243.914 85.6629C244.83 85.6629 245.572 84.9348 245.572 84.0365C245.572 83.1383 244.83 82.4102 243.914 82.4102C242.998 82.4102 242.256 83.1383 242.256 84.0365C242.256 84.9348 242.998 85.6629 243.914 85.6629Z" fill="white"/>
<path d="M241.82 84.052C241.813 83.6364 241.931 83.2284 242.157 82.8798C242.383 82.5313 242.708 82.2579 243.09 82.0945C243.472 81.9311 243.894 81.885 244.303 81.9622C244.711 82.0394 245.087 82.2364 245.383 82.528C245.68 82.8196 245.882 83.1927 245.966 83.5998C246.049 84.0069 246.009 84.4297 245.852 84.8143C245.694 85.1988 245.426 85.5278 245.081 85.7594C244.736 85.991 244.33 86.1147 243.914 86.1147C243.363 86.1168 242.834 85.9012 242.442 85.5148C242.05 85.1284 241.826 84.6026 241.82 84.052ZM242.7 84.052C242.695 84.293 242.763 84.53 242.893 84.7327C243.024 84.9354 243.211 85.0947 243.433 85.1902C243.654 85.2858 243.899 85.3132 244.136 85.2691C244.373 85.225 244.591 85.1113 244.764 84.9425C244.936 84.7738 245.054 84.5576 245.103 84.3215C245.151 84.0854 245.129 83.8401 245.038 83.6169C244.946 83.3937 244.791 83.2027 244.591 83.0683C244.391 82.9338 244.155 82.862 243.914 82.8619C243.596 82.8598 243.289 82.9838 243.062 83.2067C242.834 83.4297 242.704 83.7335 242.7 84.052Z" fill="#0D0D0D"/>
<path d="M257.656 88.3754C256.112 88.0629 254.749 87.1679 253.848 85.8763C253.743 85.7333 253.609 85.6146 253.454 85.5284C253.299 85.4421 253.128 85.3903 252.951 85.3765C251.697 85.305 250.486 84.8967 249.444 84.1944C247.794 83.401 247.572 82.1475 246.43 82.2348C246.076 82.2668 245.74 82.4082 245.47 82.6394C244.581 83.4328 244.97 85.0195 245.137 85.7573C245.495 87.1384 246.241 88.3881 247.287 89.3591C248.148 90.1946 249.164 90.8548 250.278 91.3029C250.59 91.4247 250.927 91.4735 251.261 91.4457C251.705 91.4093 252.151 91.4093 252.594 91.4457C253.751 91.5258 254.88 91.8331 255.918 92.3501L257.656 88.3754Z" fill="white"/>
<path d="M255.719 92.7317C254.731 92.233 253.651 91.9389 252.546 91.867C252.126 91.8313 251.704 91.8313 251.285 91.867C250.882 91.9046 250.477 91.8447 250.102 91.6924C248.918 91.2336 247.839 90.54 246.929 89.6535C245.827 88.622 245.04 87.2986 244.66 85.8375C244.478 85.0441 244.041 83.267 245.128 82.2991C245.469 82.0004 245.898 81.8195 246.35 81.7834C246.695 81.7787 247.036 81.8561 247.345 82.0092C247.654 82.1624 247.922 82.3868 248.127 82.664C248.548 83.1189 249.045 83.4974 249.595 83.7827L250.253 84.1317C251.065 84.6273 251.992 84.9008 252.943 84.9251C253.199 84.9349 253.45 85.0045 253.674 85.1285C253.899 85.2525 254.091 85.4274 254.236 85.6391C254.713 86.325 255.336 86.8967 256.061 87.3131C256.59 87.617 257.167 87.8315 257.766 87.9478C257.83 87.963 257.889 87.9913 257.941 88.0309C257.993 88.0705 258.036 88.1206 258.068 88.1779C258.095 88.2375 258.11 88.3025 258.11 88.3683C258.11 88.434 258.095 88.499 258.068 88.5587L256.338 92.5255C256.314 92.5802 256.279 92.6295 256.236 92.6704C256.192 92.7113 256.141 92.7429 256.084 92.7635C256.035 92.7747 255.983 92.7747 255.934 92.7635C255.861 92.7704 255.787 92.7595 255.719 92.7317ZM255.6 88.0668C254.761 87.5874 254.04 86.9259 253.49 86.131C253.423 86.0406 253.337 85.9655 253.239 85.9108C253.14 85.8561 253.031 85.823 252.919 85.8137C251.845 85.7869 250.797 85.4777 249.88 84.9172L249.246 84.584C248.614 84.2568 248.043 83.8249 247.556 83.3066C247.096 82.8465 246.866 82.6402 246.461 82.672C246.205 82.7007 245.962 82.8026 245.763 82.9655C245.073 83.5843 245.414 85.0362 245.564 85.655C245.905 86.9544 246.61 88.1296 247.595 89.0426C248.411 89.8435 249.38 90.4721 250.444 90.8911C250.694 90.9961 250.967 91.037 251.237 91.0101C252.767 90.8624 254.31 91.1167 255.711 91.748L257.052 88.6777C256.546 88.5315 256.059 88.3264 255.6 88.0668Z" fill="#0D0D0D"/>
<path d="M259.504 57.9191L260.662 58.4507C260.758 58.4927 260.833 58.5697 260.873 58.6657C260.913 58.7617 260.914 58.8694 260.877 58.9664C260.287 60.4346 259.269 61.6908 257.954 62.571C256.64 63.4511 255.09 63.9141 253.508 63.8995C251.926 63.885 250.385 63.3935 249.087 62.4893C247.789 61.5851 246.794 60.3103 246.231 58.8315C246.213 58.7816 246.204 58.7284 246.206 58.6751C246.209 58.6218 246.222 58.5695 246.245 58.5214C246.268 58.4732 246.3 58.4302 246.34 58.3949C246.38 58.3596 246.427 58.3327 246.477 58.3158L247.517 57.9509C247.736 57.8761 247.976 57.885 248.19 57.9757C248.403 58.0664 248.576 58.2327 248.675 58.4428C249.115 59.3344 249.796 60.085 250.641 60.6099C251.486 61.1348 252.46 61.4129 253.455 61.4129C254.449 61.4129 255.424 61.1348 256.269 60.6099C257.113 60.085 257.794 59.3344 258.235 58.4428C258.283 58.3248 258.355 58.2176 258.445 58.1273C258.535 58.0371 258.643 57.9656 258.761 57.9169C258.879 57.8682 259.005 57.8434 259.133 57.8438C259.26 57.8441 259.387 57.8698 259.504 57.9191Z" fill="#97BCFF"/>
<path d="M258.091 87.582L261.011 88.6927L258.25 94.2462L255.497 92.9769L258.091 87.582Z" fill="#97BCFF"/>
<path d="M211.569 66.7246C211.91 67.6608 212.252 68.589 212.601 69.5252L206.539 71.3578L205.746 68.6525L211.569 66.7246Z" fill="#97BCFF"/>
<path d="M232.871 112.09C233.67 112.044 234.438 111.768 235.085 111.296C235.544 110.957 236.1 110.775 236.671 110.775C237.242 110.775 237.798 110.957 238.258 111.296C238.981 111.792 239.837 112.058 240.713 112.058C241.59 112.058 242.446 111.792 243.169 111.296C243.629 110.96 244.185 110.778 244.756 110.778C245.326 110.778 245.882 110.96 246.342 111.296C247.065 111.792 247.921 112.058 248.798 112.058C249.674 112.058 250.53 111.792 251.253 111.296C251.713 110.957 252.269 110.775 252.84 110.775C253.411 110.775 253.967 110.957 254.427 111.296C255.149 111.792 256.005 112.058 256.882 112.058C257.759 112.058 258.615 111.792 259.337 111.296C259.798 110.96 260.354 110.778 260.924 110.778C261.495 110.778 262.05 110.96 262.511 111.296C263.222 111.816 264.081 112.094 264.962 112.09C265.845 112.092 266.706 111.814 267.422 111.296L267.541 111.217C267.493 110.654 267.454 110.075 267.414 109.48C267.109 109.612 266.817 109.771 266.541 109.956C266.08 110.29 265.524 110.47 264.954 110.47C264.385 110.47 263.829 110.29 263.368 109.956C262.645 109.46 261.789 109.194 260.912 109.194C260.036 109.194 259.18 109.46 258.457 109.956C257.995 110.29 257.44 110.47 256.87 110.47C256.3 110.47 255.745 110.29 255.283 109.956C254.559 109.46 253.702 109.195 252.824 109.195C251.946 109.195 251.089 109.46 250.365 109.956C249.903 110.29 249.348 110.47 248.778 110.47C248.208 110.47 247.653 110.29 247.191 109.956C246.468 109.46 245.612 109.194 244.736 109.194C243.859 109.194 243.003 109.46 242.28 109.956C241.818 110.288 241.263 110.466 240.694 110.466C240.124 110.466 239.569 110.288 239.107 109.956C238.397 109.433 237.537 109.155 236.655 109.162C235.772 109.156 234.91 109.435 234.196 109.956C233.813 110.243 233.356 110.416 232.879 110.455C232.879 111.027 232.879 111.558 232.871 112.09Z" fill="#97BCFF"/>
<path d="M232.871 105.719C232.871 106.25 232.871 106.782 232.871 107.305C233.66 107.266 234.422 107.005 235.069 106.552C235.528 106.213 236.084 106.03 236.655 106.03C237.226 106.03 237.782 106.213 238.242 106.552C238.965 107.048 239.821 107.313 240.698 107.313C241.574 107.313 242.43 107.048 243.153 106.552C243.614 106.215 244.169 106.034 244.74 106.034C245.31 106.034 245.866 106.215 246.326 106.552C247.049 107.048 247.905 107.313 248.782 107.313C249.658 107.313 250.515 107.048 251.237 106.552C251.697 106.213 252.253 106.03 252.824 106.03C253.395 106.03 253.951 106.213 254.411 106.552C255.134 107.048 255.99 107.313 256.866 107.313C257.743 107.313 258.599 107.048 259.322 106.552C259.782 106.215 260.338 106.034 260.908 106.034C261.479 106.034 262.034 106.215 262.495 106.552C263.207 107.071 264.066 107.349 264.947 107.345C265.771 107.364 266.581 107.125 267.263 106.663C267.263 106.044 267.263 105.433 267.263 104.838C267.015 104.954 266.776 105.09 266.549 105.243C266.088 105.577 265.532 105.757 264.962 105.757C264.393 105.757 263.837 105.577 263.376 105.243C262.653 104.747 261.797 104.481 260.92 104.481C260.044 104.481 259.188 104.747 258.465 105.243C258.003 105.577 257.448 105.757 256.878 105.757C256.308 105.757 255.753 105.577 255.291 105.243C254.567 104.747 253.71 104.482 252.832 104.482C251.954 104.482 251.097 104.747 250.373 105.243C249.911 105.577 249.356 105.757 248.786 105.757C248.216 105.757 247.661 105.577 247.199 105.243C246.476 104.747 245.62 104.481 244.744 104.481C243.867 104.481 243.011 104.747 242.288 105.243C241.826 105.575 241.271 105.753 240.702 105.753C240.132 105.753 239.577 105.575 239.115 105.243C238.405 104.72 237.545 104.442 236.663 104.449C235.78 104.444 234.918 104.722 234.204 105.243C233.815 105.527 233.352 105.692 232.871 105.719Z" fill="#97BCFF"/>
<path d="M267.112 98.3887L257.957 94.0332" stroke="#0D0D0D" stroke-width="0.793357" stroke-miterlimit="10" stroke-linecap="round"/>
<path d="M268.23 91.4463L261.011 88.6934" stroke="#0D0D0D" stroke-width="0.793357" stroke-miterlimit="10" stroke-linecap="round"/>
<path d="M269.675 84.4494L268.54 79.832" stroke="#0D0D0D" stroke-width="0.793357" stroke-miterlimit="10" stroke-linecap="round"/>
<path d="M231.832 85.4316L234.339 82.2344" stroke="#0D0D0D" stroke-width="0.793357" stroke-miterlimit="10" stroke-linecap="round"/>
<path d="M24.1621 216.288C25.3989 216.838 26.5832 217.5 27.7005 218.264C32.1115 221.318 32.6907 224.222 36.7924 226.118C38.0694 226.698 39.4292 227.076 40.8226 227.237C43.1342 227.485 45.4712 227.152 47.6217 226.269C47.6217 226.269 51.2076 217.478 34.928 213.52L34.3567 216.193L33.0477 214.051C31.8999 213.761 30.7089 213.683 29.5331 213.821C27.5356 214.085 25.6639 214.945 24.1621 216.288Z" fill="#00C0B5"/>
<path d="M29.4306 185.895C30.4002 189.003 32.1737 191.8 34.5715 194.003C37.0785 196.24 38.7922 196.383 42.5051 199.62C44.5043 201.373 45.8292 202.563 46.8368 204.554C48.0545 207.069 48.4487 209.903 47.9634 212.654C43.0313 212.123 38.3529 210.196 34.4763 207.101L36.063 203.959L33.0879 205.728C31.1697 202.841 29.8566 199.595 29.228 196.186C28.5994 192.777 28.6683 189.276 29.4306 185.895Z" fill="#00C0B5"/>
<path d="M52.1282 199.541C39.9185 196.876 35.3646 184.23 35.3646 184.23C35.7295 183.555 41.1244 181.945 41.1244 181.945L33.9841 180.953C33.9841 180.953 32.6513 178.994 33.3812 174.694C34.1111 170.394 31.1836 164.443 31.1836 164.443C35.2212 165.344 39.0959 166.861 42.6714 168.942C46.4557 171.147 52.1917 174.495 54.5083 180.961C54.8799 182.014 55.1456 183.101 55.3016 184.206L52.8581 187.625L55.5238 186.34C55.6165 190.968 54.4424 195.533 52.1282 199.541Z" fill="#00C0B5"/>
<path d="M62.9262 206.316C62.9262 206.316 52.438 186.76 79.5391 179.469C79.5391 179.469 76.5402 182.809 77.04 189.322C77.5399 195.836 75.5803 196.907 75.5803 196.907L70.5187 196.232L74.6838 200.041C74.6838 200.041 69.2651 207.212 62.9262 206.316Z" fill="#00C0B5"/>
<path d="M80.3082 212.822C80.3082 212.822 62.061 206.657 62.767 222.707C62.767 222.707 68.5506 227.919 73.9851 220.009L72.5571 216.987L75.072 217.502C75.072 217.502 78.4517 213.321 80.3082 212.822Z" fill="#00C0B5"/>
<path d="M56.0794 238.543C55.9901 238.531 55.9091 238.484 55.8542 238.413C55.7992 238.342 55.7746 238.252 55.7859 238.162C58.515 219.455 73.7713 214.361 73.93 214.361C74.0152 214.336 74.1068 214.346 74.1853 214.387C74.2638 214.429 74.323 214.499 74.3504 214.584C74.3639 214.626 74.3688 214.67 74.3649 214.714C74.3609 214.758 74.3483 214.801 74.3276 214.84C74.3069 214.88 74.2786 214.914 74.2444 214.942C74.2102 214.97 74.1707 214.991 74.1283 215.004C73.9855 215.052 59.118 220.01 56.4602 238.289C56.438 238.37 56.3872 238.44 56.3172 238.487C56.2473 238.534 56.1628 238.554 56.0794 238.543Z" fill="#0D0D0D"/>
<path d="M55.762 242.152C55.6743 242.144 55.5932 242.102 55.5355 242.036C55.4778 241.969 55.4481 241.883 55.4526 241.795C56.4615 223.192 61.7474 205.073 70.8992 188.846C70.9496 188.782 71.0215 188.737 71.1018 188.721C71.1821 188.705 71.2655 188.719 71.3367 188.759C71.4079 188.8 71.4622 188.864 71.4897 188.942C71.5172 189.019 71.516 189.103 71.4863 189.18C62.3788 205.314 57.1223 223.334 56.1269 241.835C56.1249 241.879 56.114 241.923 56.0949 241.963C56.0757 242.003 56.0487 242.039 56.0154 242.069C55.9822 242.098 55.9433 242.121 55.9011 242.135C55.8589 242.149 55.8143 242.155 55.7699 242.152H55.762Z" fill="#0D0D0D"/>
<path d="M54.9926 249.563C54.9486 249.556 54.9064 249.541 54.8684 249.517C54.8305 249.494 54.7976 249.463 54.7717 249.427C54.7458 249.391 54.7275 249.35 54.7177 249.306C54.708 249.263 54.707 249.218 54.715 249.174C56.9032 235.369 56.5537 221.281 53.6836 207.602C51.848 198.928 49.0126 190.497 45.2343 182.476C45.2087 182.436 45.1919 182.39 45.1851 182.342C45.1783 182.295 45.1816 182.246 45.1949 182.2C45.2082 182.154 45.2311 182.111 45.2622 182.074C45.2932 182.037 45.3317 182.008 45.375 181.987C45.4184 181.966 45.4657 181.955 45.5138 181.953C45.5619 181.952 45.6097 181.961 45.6541 181.979C45.6985 181.998 45.7385 182.026 45.7714 182.061C45.8044 182.096 45.8295 182.137 45.8452 182.183C49.6344 190.253 52.4751 198.735 54.3104 207.459C57.1989 221.222 57.5511 235.396 55.3496 249.285C55.3343 249.367 55.2895 249.44 55.2238 249.492C55.158 249.543 55.0758 249.568 54.9926 249.563Z" fill="#0D0D0D"/>
<path d="M55.6036 243.684C55.5166 243.678 55.4355 243.638 55.3776 243.573C55.3198 243.508 55.2898 243.422 55.2942 243.335C55.4925 234.434 54.0565 217.741 42.1007 205.944C40.1982 204.068 38.1118 202.388 35.8728 200.93C35.8358 200.907 35.8038 200.876 35.7785 200.84C35.7533 200.805 35.7354 200.764 35.7258 200.722C35.7163 200.679 35.7152 200.635 35.7227 200.591C35.7302 200.548 35.7462 200.507 35.7697 200.47C35.8185 200.395 35.8949 200.342 35.9825 200.322C36.0702 200.303 36.1618 200.319 36.2377 200.367C38.5198 201.849 40.6462 203.558 42.5846 205.468C54.715 217.44 56.1827 234.346 55.9765 243.351C55.9754 243.396 55.9656 243.44 55.9475 243.481C55.9294 243.522 55.9034 243.559 55.871 243.59C55.8385 243.621 55.8004 243.645 55.7586 243.661C55.7168 243.677 55.6722 243.685 55.6274 243.684H55.6036Z" fill="#0D0D0D"/>
<path d="M57.2853 243.827C57.2131 243.823 57.1443 243.795 57.0897 243.747C57.0351 243.7 56.9978 243.636 56.9838 243.565C55.8908 238.118 53.3813 233.056 49.7084 228.889C46.0355 224.722 41.3289 221.596 36.063 219.828C35.9794 219.797 35.9107 219.736 35.8708 219.656C35.831 219.576 35.8231 219.484 35.8488 219.399C35.881 219.317 35.9426 219.249 36.0218 219.21C36.1009 219.17 36.192 219.161 36.2772 219.185C41.6621 220.987 46.4771 224.176 50.2376 228.431C53.998 232.686 56.5711 237.856 57.6978 243.422C57.7167 243.51 57.6997 243.603 57.6506 243.678C57.6015 243.754 57.5244 243.808 57.436 243.827H57.2853Z" fill="#0D0D0D"/>
<path d="M42.9971 239.955L46.2419 256.552H65.8854L69.1302 239.955H42.9971ZM65.1635 255.671H46.9797L44.076 240.836H68.0592L65.1635 255.671Z" fill="#0D0D0D"/>
<path d="M68.0594 240.836L65.1636 255.672H46.9799L44.0762 240.836H68.0594Z" fill="white"/>
<path d="M69.9711 240.4H42.164L40.5693 234.949H71.5658L69.9711 240.4Z" fill="#0D0D0D"/>
<path d="M313 256.552C313.02 256.948 312.884 257.335 312.621 257.632C312.359 257.928 311.991 258.11 311.596 258.139H14.4045C13.9773 258.139 13.5677 257.969 13.2657 257.667C12.9636 257.365 12.7939 256.956 12.7939 256.528C12.7939 256.101 12.9636 255.692 13.2657 255.39C13.5677 255.088 13.9773 254.918 14.4045 254.918H311.596C311.796 254.932 311.991 254.986 312.17 255.076C312.349 255.165 312.509 255.29 312.639 255.442C312.77 255.594 312.869 255.77 312.931 255.961C312.993 256.152 313.016 256.353 313 256.552Z" fill="#0D0D0D"/>
</g>
<defs>
<clipPath id="clip0_35348_5954">
<rect width="300" height="248.17" fill="white" transform="translate(13 10)"/>
</clipPath>
</defs>
</svg>
