<svg width="325" height="276" viewBox="0 0 325 276" fill="none" xmlns="http://www.w3.org/2000/svg">
<g clip-path="url(#clip0_35348_6320)">
<path d="M25.9936 256.613C22.403 244.613 16.577 219.095 24.5957 189.029C27.7464 177.185 37.8939 139.001 74.1341 120.472C78.3492 118.344 107.699 103.86 140.59 114.129C184.267 127.76 179.079 167.74 223.182 182.167C251.688 191.484 271.386 180.535 287.197 198.02C294.195 205.893 298.436 215.833 299.276 226.334C300.116 236.834 297.51 247.322 291.852 256.208L25.9936 256.613Z" fill="#EDEDED"/>
<path d="M27.2207 217.121C28.4045 217.643 29.5356 218.278 30.5985 219.015C34.8562 221.932 35.3742 224.692 39.3055 226.523C40.5198 227.084 41.8157 227.448 43.1445 227.602C45.3572 227.84 47.5944 227.521 49.6517 226.672C49.6517 226.672 53.0934 218.263 37.5102 214.467L36.9638 217.029L35.7148 214.978C34.6167 214.698 33.4764 214.624 32.3512 214.758C30.4418 215.01 28.6533 215.833 27.2207 217.121Z" fill="#00C0B5"/>
<path d="M32.2377 188.027C33.161 191.005 34.858 193.684 37.1553 195.791C39.5538 197.919 41.193 198.033 44.7695 201.169C46.6855 202.844 47.9557 204.008 48.9208 205.888C50.0714 208.301 50.4363 211.014 49.9639 213.645C45.2293 213.13 40.7395 211.276 37.0205 208.301L38.5745 205.349L35.7361 207.038C33.8955 204.272 32.6363 201.16 32.0349 197.892C31.4335 194.624 31.5025 191.268 32.2377 188.027Z" fill="#00C0B5"/>
<path d="M53.9659 201.091C42.2714 198.537 37.9215 186.431 37.9215 186.431C38.2621 185.792 43.4281 184.252 43.4281 184.252L36.6158 183.294C36.6158 183.294 35.3455 181.421 36.041 177.305C36.7364 173.189 33.9121 167.498 33.9121 167.498C37.7657 168.364 41.465 169.812 44.8828 171.791C48.5018 173.92 53.9801 177.092 56.2367 183.301C56.6014 184.309 56.8653 185.35 57.0244 186.409L54.6826 189.674L57.2301 188.446C57.3151 192.88 56.1863 197.253 53.9659 201.091Z" fill="#00C0B5"/>
<path d="M64.2983 207.577C64.2983 207.577 54.2572 188.858 80.2009 181.875C80.2009 181.875 77.3624 185.075 77.8024 191.313C78.2423 197.55 76.3831 198.572 76.3831 198.572L71.5364 197.927L75.5245 201.567C75.5245 201.567 70.3585 208.436 64.2983 207.577Z" fill="#00C0B5"/>
<path d="M80.932 213.8C80.932 213.8 63.4541 207.903 64.1212 223.259C64.1212 223.259 69.6633 228.227 74.8648 220.684L73.4455 217.788L75.8582 218.278C75.8582 218.278 79.158 214.276 80.932 213.8Z" fill="#00C0B5"/>
<path d="M57.7341 238.416C57.6485 238.404 57.5713 238.358 57.5194 238.289C57.4675 238.22 57.4452 238.133 57.4573 238.047C60.0616 220.144 74.6727 215.283 74.8146 215.24C74.8955 215.214 74.9836 215.221 75.0594 215.259C75.1353 215.298 75.1927 215.365 75.2191 215.446C75.2454 215.527 75.2385 215.615 75.2 215.691C75.1614 215.767 75.0942 215.824 75.0133 215.851C74.8714 215.9 60.6435 220.648 58.096 238.14C58.0908 238.182 58.0772 238.222 58.0561 238.259C58.035 238.296 58.0068 238.328 57.9731 238.354C57.9394 238.38 57.9009 238.399 57.8599 238.409C57.8188 238.42 57.7761 238.422 57.7341 238.416Z" fill="#0D0D0D"/>
<path d="M57.4363 241.872C57.3528 241.865 57.2755 241.825 57.2211 241.761C57.1666 241.698 57.1394 241.615 57.1453 241.531C58.1059 223.725 63.1643 206.381 71.9267 190.851C71.9466 190.813 71.974 190.779 72.0074 190.752C72.0407 190.726 72.0792 190.706 72.1205 190.695C72.1617 190.683 72.2049 190.681 72.2472 190.687C72.2895 190.693 72.3302 190.707 72.3666 190.73C72.4402 190.773 72.494 190.843 72.5166 190.925C72.5391 191.008 72.5286 191.095 72.4873 191.17C63.7693 206.607 58.7373 223.85 57.784 241.553C57.7822 241.595 57.7719 241.637 57.7537 241.676C57.7355 241.714 57.7098 241.749 57.678 241.777C57.6463 241.806 57.6092 241.827 57.5689 241.841C57.5286 241.855 57.4859 241.861 57.4434 241.858L57.4363 241.872Z" fill="#0D0D0D"/>
<path d="M56.7058 248.969C56.6637 248.963 56.6232 248.949 56.5866 248.927C56.5501 248.905 56.5184 248.876 56.4933 248.842C56.4681 248.807 56.4501 248.768 56.4403 248.727C56.4305 248.685 56.4291 248.642 56.4362 248.6C58.5323 235.386 58.198 221.899 55.4498 208.805C53.686 200.506 50.9641 192.441 47.3389 184.77C47.3043 184.692 47.3013 184.603 47.3303 184.523C47.3594 184.442 47.4184 184.376 47.495 184.337C47.533 184.318 47.5745 184.307 47.6168 184.305C47.6592 184.303 47.7016 184.309 47.7415 184.324C47.7813 184.338 47.8178 184.361 47.8486 184.39C47.8794 184.419 47.904 184.454 47.9208 184.493C51.5615 192.215 54.2929 200.333 56.0601 208.684C58.8136 221.853 59.1406 235.414 57.0252 248.7C57.0147 248.776 56.9762 248.846 56.9173 248.896C56.8583 248.946 56.783 248.972 56.7058 248.969Z" fill="#0D0D0D"/>
<path d="M57.2872 243.334C57.2057 243.327 57.1297 243.289 57.0745 243.229C57.0193 243.168 56.9889 243.089 56.9892 243.007C57.1879 234.492 55.8041 218.511 44.3651 207.221C42.5452 205.425 40.5481 203.818 38.4043 202.424C38.3338 202.376 38.2842 202.304 38.2658 202.22C38.2473 202.137 38.2613 202.05 38.3049 201.977C38.3515 201.905 38.4245 201.854 38.5081 201.836C38.5918 201.817 38.6794 201.832 38.752 201.878C40.9326 203.301 42.9652 204.939 44.8192 206.767C56.4286 218.227 57.8336 234.407 57.6349 243.028C57.635 243.071 57.6264 243.113 57.6099 243.151C57.5933 243.19 57.569 243.225 57.5385 243.254C57.508 243.284 57.4719 243.306 57.4324 243.321C57.3928 243.336 57.3507 243.343 57.3085 243.341L57.2872 243.334Z" fill="#0D0D0D"/>
<path d="M58.8983 243.477C58.8294 243.472 58.7641 243.444 58.7128 243.398C58.6614 243.352 58.6268 243.29 58.6145 243.222C57.5597 238.01 55.1519 233.168 51.633 229.182C48.1141 225.196 43.6081 222.207 38.5678 220.514C38.5277 220.5 38.4907 220.479 38.4588 220.451C38.427 220.423 38.4009 220.39 38.3821 220.352C38.3442 220.275 38.3382 220.187 38.3655 220.106C38.3928 220.025 38.4511 219.958 38.5276 219.92C38.6042 219.882 38.6926 219.876 38.7735 219.904C43.9247 221.628 48.5298 224.681 52.1242 228.754C55.7187 232.827 58.1752 237.775 59.246 243.101C59.2611 243.184 59.2438 243.271 59.1977 243.342C59.1515 243.413 59.08 243.464 58.9976 243.484L58.8983 243.477Z" fill="#0D0D0D"/>
<path d="M45.2236 239.766L48.3318 255.661H67.1295L70.2377 239.766H45.2236ZM66.4341 254.817H49.0343L46.2526 240.624H69.2158L66.4341 254.817Z" fill="#0D0D0D"/>
<path d="M69.2162 240.617L66.4345 254.817H49.0346L46.2529 240.617H69.2162Z" fill="white"/>
<path d="M71.0389 240.198H44.4283L42.8955 234.982H72.5646L71.0389 240.198Z" fill="#0D0D0D"/>
<path d="M303.971 256.696C303.999 257.116 303.859 257.529 303.582 257.845C303.305 258.162 302.915 258.356 302.495 258.385H14.4473C14.0472 258.321 13.683 258.117 13.4201 257.809C13.1571 257.5 13.0127 257.108 13.0127 256.703C13.0127 256.298 13.1571 255.906 13.4201 255.598C13.683 255.29 14.0472 255.085 14.4473 255.021H302.552C302.959 255.065 303.333 255.263 303.597 255.575C303.862 255.886 303.996 256.288 303.971 256.696Z" fill="#0D0D0D"/>
<path d="M198.671 81.3426L199.26 81.0801H198.671V81.3426Z" fill="#FF94AF"/>
<path d="M179.668 69.6775V143.769C179.672 145.988 178.795 148.118 177.231 149.691C175.666 151.265 173.542 152.154 171.323 152.163H73.5871C71.3687 152.154 69.2448 151.265 67.6815 149.691C66.1182 148.117 65.2434 145.987 65.2491 143.769V69.6775C65.2472 67.4616 66.1237 65.3353 67.6865 63.7644C69.2494 62.1936 71.3712 61.3063 73.5871 61.2969H171.323C173.54 61.3044 175.663 62.1909 177.228 63.7619C178.792 65.333 179.67 67.4604 179.668 69.6775Z" fill="#00C0B5"/>
<path d="M170.13 61.2891H70.9614C67.4538 61.2891 64.6104 64.1325 64.6104 67.6401V143.016C64.6104 146.523 67.4538 149.367 70.9614 149.367H170.13C173.638 149.367 176.482 146.523 176.482 143.016V67.6401C176.482 64.1325 173.638 61.2891 170.13 61.2891Z" fill="white"/>
<path d="M168.867 60.6504H72.2174C70.0311 60.6523 67.9349 61.5216 66.3889 63.0676C64.8429 64.6136 63.9736 66.7098 63.9717 68.8961V141.753C63.9736 143.939 64.8429 146.035 66.3889 147.581C67.9349 149.127 70.0311 149.996 72.2174 149.998H168.867C171.055 149.995 173.152 149.124 174.699 147.577C176.246 146.03 177.116 143.933 177.12 141.745V68.8961C177.116 66.7092 176.246 64.6129 174.698 63.0672C173.151 61.5214 171.054 60.6523 168.867 60.6504ZM175.843 141.753C175.841 143.602 175.105 145.375 173.798 146.683C172.49 147.991 170.717 148.726 168.867 148.728H72.2174C70.3686 148.726 68.5962 147.991 67.2896 146.683C65.9829 145.375 65.249 143.601 65.249 141.753V68.8961C65.2527 67.0492 65.9881 65.2789 67.2941 63.9729C68.6002 62.6668 70.3704 61.9315 72.2174 61.9277H168.867C170.715 61.9314 172.486 62.6666 173.793 63.9724C175.1 65.2782 175.837 67.0485 175.843 68.8961V141.753Z" fill="#0D0D0D"/>
<path d="M177.12 81.6054V72.9268H154.1C153.654 72.9305 153.212 72.8459 152.799 72.6779C152.386 72.5098 152.01 72.2616 151.693 71.9475C151.377 71.6335 151.125 71.2599 150.954 70.8482C150.782 70.4365 150.694 69.995 150.694 69.549V60.6504H142.037V92.5832C142.037 93.479 141.681 94.3382 141.047 94.9716C140.414 95.6051 139.555 95.961 138.659 95.961H118.761C117.865 95.961 117.006 95.6051 116.373 94.9716C115.739 94.3382 115.383 93.479 115.383 92.5832V61.9277H106.698V92.5548C106.698 93.4506 106.342 94.3098 105.708 94.9433C105.075 95.5767 104.216 95.9326 103.32 95.9326H63.9717V104.618H76.3332C77.2278 104.62 78.0852 104.977 78.7171 105.61C79.349 106.243 79.7039 107.101 79.7039 107.996V121.812C79.7039 122.707 79.349 123.565 78.7171 124.198C78.0852 124.832 77.2278 125.188 76.3332 125.19H64.6032V133.876H112.148C112.471 133.876 112.786 133.972 113.054 134.152C113.323 134.332 113.532 134.587 113.655 134.886C113.778 135.185 113.809 135.513 113.746 135.83C113.682 136.146 113.526 136.437 113.297 136.665L99.9422 149.998H112.233L113.51 148.721L125.637 136.587C127.38 134.849 129.741 133.874 132.201 133.876H176.687V125.162H154.1C153.204 125.162 152.345 124.806 151.712 124.172C151.078 123.539 150.722 122.68 150.722 121.784V84.9548C150.722 84.059 151.078 83.1998 151.712 82.5663C152.345 81.9329 153.204 81.577 154.1 81.577L177.12 81.6054ZM88.418 121.812V107.996C88.418 107.1 88.7739 106.241 89.4073 105.608C90.0408 104.974 90.8999 104.618 91.7958 104.618H138.631C139.526 104.618 140.386 104.974 141.019 105.608C141.652 106.241 142.008 107.1 142.008 107.996V121.812C142.001 122.703 141.642 123.555 141.009 124.182C140.376 124.81 139.521 125.162 138.631 125.162H91.7958C90.9012 125.167 90.0408 124.818 89.4036 124.19C88.7663 123.562 88.4042 122.707 88.3967 121.812H88.418Z" fill="#0D0D0D"/>
<path d="M106.939 33.4005C104.558 31.0216 101.726 29.1418 98.6086 27.8713C95.4916 26.6008 92.1524 25.9651 88.7866 26.0015C85.4208 26.0378 82.0961 26.7455 79.0072 28.083C75.9184 29.4205 73.1276 31.361 70.7982 33.7908C61.2254 43.7822 61.7576 59.7344 71.5078 69.5201L88.1199 86.1322C88.3699 86.3805 88.7079 86.5199 89.0602 86.5199C89.4125 86.5199 89.7505 86.3805 90.0004 86.1322L106.939 69.1936C111.677 64.4501 114.339 58.0196 114.339 51.3148C114.339 44.6101 111.677 38.1795 106.939 33.436V33.4005ZM90.6178 60.366C88.6867 60.7051 86.6979 60.4201 84.9397 59.5525C83.1816 58.6848 81.7456 57.2795 80.8401 55.5406C79.9346 53.8016 79.6067 51.8194 79.9039 49.8815C80.2011 47.9436 81.1081 46.1507 82.4931 44.7631C83.8781 43.3754 85.6692 42.4651 87.6066 42.1642C89.5439 41.8634 91.5268 42.1875 93.2674 43.0897C95.0081 43.9919 96.4161 45.4253 97.2871 47.1818C98.1581 48.9383 98.4468 50.9266 98.1113 52.8582C97.783 54.7238 96.8884 56.443 95.549 57.7824C94.2096 59.1218 92.4904 60.0164 90.6249 60.3447L90.6178 60.366Z" fill="#00C0B5"/>
</g>
<path d="M212.169 53.0328L209.037 64.4449C190.407 59.1646 183.825 44.9926 183.825 44.9926C183.825 44.9926 196.668 36.3331 215.299 41.6178L212.169 53.0328Z" fill="#C9C3C3"/>
<g clip-path="url(#clip1_35348_6320)">
<path d="M250.19 236.75L250.137 237.045L249.137 242.545L249.1 242.75H243.162L243.142 242.522L242.642 237.022L242.617 236.75H250.19Z" fill="white" stroke="black" stroke-width="0.5"/>
<path d="M203.408 236.251L210.408 236.751L210.687 236.771L210.637 237.045L209.637 242.545L209.596 242.77L209.368 242.749L203.868 242.249L203.66 242.23L203.642 242.022L203.142 236.522L203.115 236.229L203.408 236.251Z" fill="white" stroke="black" stroke-width="0.5"/>
<path d="M202.693 243.721C202.693 243.721 201.456 246.761 200.413 247.966C199.371 249.171 195.376 251.323 195.355 254.901C195.331 258.781 202.086 257.705 204.728 257.562C207.371 257.42 207.57 255.348 208.682 253.151C209.794 250.954 210.915 251.326 211.123 249.555C211.331 247.783 210.272 243.817 210.272 243.817L202.693 243.721Z" fill="#0D0D0D"/>
<path d="M286.509 84.7793C286.509 84.7793 273.174 105.756 268.688 104.671C266.614 104.169 260.439 99.4443 257.821 96.0394C254.971 92.3398 251.644 87.1243 249.562 83.4595C249.562 83.4595 240.778 70.3917 248.276 65.3359C248.276 65.3359 252.791 66.4815 255.325 69.2054C257.859 71.9293 259.137 76.0776 259.807 77.5383C260.478 78.999 268.217 91.9739 268.698 92.2744C269.178 92.575 272.724 89.5157 274.869 87.0371C278.027 83.3825 280.934 79.1965 280.934 79.1965L286.509 84.7793Z" fill="#0D0D0D"/>
<path d="M206.916 123.485C206.916 123.485 187.468 102.821 187.01 98.147C186.798 95.985 189.573 89.1999 191.87 85.5656C192.627 84.3677 193.44 83.167 194.256 82.0097C197.52 77.3837 200.826 73.4925 200.826 73.4925C200.826 73.4925 209.162 61.2668 216.308 66.8337C216.308 66.8337 216.491 71.0081 214.794 74.3404C213.447 76.9437 211.719 79.3314 209.667 81.4246C208.536 82.547 198.632 95.3156 198.51 95.8775C198.388 96.4395 201.529 102.789 203.403 105.487C206.078 109.337 211.485 118.554 211.485 118.554L206.916 123.485Z" fill="#0D0D0D"/>
<path d="M249.691 243.926C249.691 243.926 250.95 246.923 251.995 248.105C253.04 249.286 257.02 251.377 257.077 254.929C257.141 258.772 250.437 257.779 247.818 257.669C245.198 257.558 244.979 255.505 243.854 253.342C242.728 251.178 241.622 251.559 241.397 249.805C241.172 248.051 242.216 244.107 242.216 244.107L249.691 243.926Z" fill="#0D0D0D"/>
<path d="M250.164 242.553L249.974 244.621C249.974 244.621 246.3 246.073 242.219 244.708V242.107L250.164 242.553Z" fill="#0D0D0D"/>
<path d="M210.387 242.552L210.197 244.62C210.197 244.62 206.775 245.599 202.693 244.232V241.068L210.387 242.552Z" fill="#0D0D0D"/>
<path d="M206 68.7487L211.967 90.4281C212.172 91.1294 212.416 91.9955 212.676 93.0016L212.685 93.0396L212.693 93.0658C213.688 96.9298 214.921 102.822 215.287 109.368C215.536 113.829 215.31 128.032 215.31 128.032C215.31 128.032 223.593 131.11 237.094 130.235C237.094 130.235 251.788 133.968 250.603 124.945C247.467 101.058 250.534 91.2096 250.945 88.8125C250.945 88.8125 252.588 77.3021 254 67.5822C249.91 66.0395 232.769 60 232.769 60L223.295 60.105C223.295 60.105 209.973 64.1206 206 68.7487Z" fill="#0D0D0D"/>
<path d="M213.285 95.2437C213.285 95.2437 218.858 92.5895 220.785 83.628L240.446 83.4102C240.446 83.4102 246.329 95.3294 249.505 95.9654C249.505 95.9654 248.885 109.052 249.281 114.108C249.677 119.164 250.868 128.723 250.868 128.723C250.868 128.723 249.746 137.451 215.084 131.513C215.084 131.513 215.459 110.508 215.404 109.611C215.348 108.714 213.43 95.7737 213.285 95.2437Z" fill="#0D0D0D"/>
<path d="M220.822 83.6267C220.822 83.6267 218.512 71.4505 213.458 64.3605C213.458 64.3605 213.944 63.7695 215.253 63.5488C215.253 63.5488 220.74 71.526 222.929 83.5991C225.119 95.6723 220.822 83.6267 220.822 83.6267Z" fill="#0D0D0D"/>
<path d="M240.248 83.4063C240.248 83.4063 241.584 72.4149 246.492 65.2131C245.835 64.8196 245.105 64.5637 244.347 64.4609C244.347 64.4609 240.075 71.3114 238.141 83.4295C236.207 95.5477 240.248 83.4063 240.248 83.4063Z" fill="#0D0D0D"/>
<path d="M206.141 195.933C206.09 191.196 212.849 150.167 212.965 148.585C213.063 147.189 214.398 138.276 215.088 131.506C215.378 128.618 215.746 125.182 215.746 125.182C215.746 125.182 224.25 123.374 233.415 122.994C238.642 122.777 245.611 122.956 250.355 125.121C250.538 126.324 251.255 131.422 251.341 132.019C253.083 144.468 252.357 160.883 252.681 171.476C253.047 183.545 252.671 194.802 252.598 198.217C252.568 199.568 251.183 238.44 251.183 238.44C251.183 238.44 251.181 238.408 240.493 238.44L240.683 241.692L239.348 218.846L239.278 217.633C238.697 207.413 238.15 197.532 238.132 195.797C238.065 189.599 233.89 153.883 232.528 153.739C231.166 153.595 223.193 189.167 221.631 198.56C221.631 198.56 216.512 228.365 213.024 238.829C199.891 237.649 201.391 237.649 201.391 237.649C201.391 237.649 206.198 200.673 206.141 195.933Z" fill="#0D0D0D"/>
<path d="M250.962 124.45C250.962 124.45 230.993 128.62 214.372 124.856L214.31 122.411C214.31 122.411 230.426 125.987 250.696 122.006L250.962 124.45Z" fill="#97BCFF"/>
<path d="M214.184 117.624L214.208 118.538L214.229 119.264L214.252 120.069C229.409 123.501 247.416 120.333 250.463 119.749C250.376 118.927 250.291 118.107 250.209 117.303C230.147 121.148 214.184 117.624 214.184 117.624Z" fill="#97BCFF"/>
<path d="M211.489 118.549C211.489 118.549 210.807 121.337 206.916 123.486C206.916 123.486 196.235 111.664 195.017 110.187L204.37 106.922C204.37 106.922 209.311 114.619 211.489 118.549Z" fill="#0D0D0D"/>
<path d="M282.761 81.2705L285.224 83.5479L287.678 81.5532L289.311 78.7994L290.5 75L288.925 73.4115L287.522 73.941L286.701 73.1819L287.422 70.9615L287 70.5L285 71L284.73 70.9084L282.92 73.1944L282.982 74.7743L283.044 76.3542L283.282 78.402L281.764 80.0436L282.761 81.2705Z" fill="white"/>
<path d="M281.252 79.8619C281.262 79.7976 281.287 79.7365 281.324 79.6829C281.361 79.6293 281.41 79.5847 281.466 79.5523C282.083 79.2419 282.569 78.7218 282.837 78.0852C283.023 77.402 282.979 76.6768 282.712 76.0213C282.604 75.6829 282.521 75.337 282.465 74.9864C282.197 73.1967 282.193 72.6763 284.5 70.4998C284.638 70.2963 284.782 72.6122 285 72.5001C285.219 72.388 285.255 72.4927 285.5 72.4997C285.747 72.5399 286.304 70.8454 286.5 70.9998C286.696 71.1541 286.135 71.5598 286.233 71.7897C286.642 72.5596 287.999 70.7531 287.663 71.5244C287.443 71.999 287.269 72.4935 287.143 73.001C286.683 75.1757 286.94 73.1046 287.331 73.1948C287.508 73.2381 288.355 73.3858 288.525 73.1607C288.924 72.6455 289.504 74.7632 290 74.9999C290.114 75.0595 290.431 74.3921 290.5 74.4999C290.569 74.6077 291.494 74.3718 291.5 74.4996C291.509 76.5469 289.465 80.276 288.071 81.7749C287.595 82.2256 287.096 82.6515 286.576 83.051C286.165 83.3674 286.023 83.6929 285.543 84.0179C285.454 84.0776 284.958 84.1803 284.851 84.166C284.744 84.1517 284.646 84.0991 284.576 84.0179L281.959 82.0594C281.935 82.0153 281.267 80.1472 281.256 80.0978C281.233 80.0211 281.231 79.9394 281.252 79.8619ZM286.075 82.35C286.793 81.7821 287.363 81.2702 287.496 81.127C288.564 79.9236 290.028 76.6712 290.176 75.0689L291 74.4996C290.534 75.1078 287.851 74.2365 287.108 74.0421C285.888 73.7307 285.831 74.9629 286.287 72.8235C286.415 72.2556 286.605 71.7034 286.853 71.177C287.176 70.4362 287.058 71.1211 286.853 70.7575C286.01 72.896 286.575 70.5718 286.5 70.4998C286.426 70.4277 286.331 70.6218 286.232 70.5905C285.53 71.8408 284.937 72.0001 285.505 70.7575C285.423 70.8103 284.852 71.3979 285.5 70.5C283.768 72.946 285.026 70.9811 285 70.9999C282.898 72.9801 283.11 73.3694 283.327 74.8649C283.378 75.1756 283.451 75.4823 283.546 75.7828C283.88 76.6088 283.926 77.5232 283.677 78.3788C283.421 79.0506 282.963 79.6264 282.366 80.0268L285.035 83.1237C285.381 82.8859 285.727 82.628 286.075 82.35Z" fill="#0D0D0D"/>
</g>
<path d="M235.476 60.0871L236.737 60.7015C236.841 60.7501 236.923 60.839 236.966 60.95C237.01 61.061 237.011 61.1855 236.971 61.2976C236.329 62.9946 235.22 64.4467 233.789 65.464C232.358 66.4813 230.671 67.0165 228.949 66.9996C227.227 66.9828 225.549 66.4147 224.136 65.3696C222.723 64.3245 221.64 62.851 221.028 61.1417C221.007 61.084 220.998 61.0225 221 60.9609C221.003 60.8993 221.017 60.8389 221.042 60.7833C221.067 60.7276 221.102 60.6779 221.146 60.6371C221.189 60.5962 221.24 60.5651 221.295 60.5457L222.427 60.1238C222.666 60.0374 222.927 60.0476 223.159 60.1525C223.392 60.2574 223.58 60.4496 223.688 60.6924C224.167 61.723 224.908 62.5906 225.828 63.1973C226.747 63.804 227.808 64.1255 228.891 64.1255C229.974 64.1255 231.035 63.804 231.954 63.1973C232.874 62.5906 233.615 61.723 234.095 60.6924C234.148 60.556 234.225 60.4321 234.324 60.3278C234.422 60.2235 234.538 60.1408 234.667 60.0845C234.795 60.0283 234.933 59.9996 235.072 60C235.211 60.0005 235.348 60.0301 235.476 60.0871Z" fill="#0D0D0D"/>
<g clip-path="url(#clip2_35348_6320)">
<path d="M251 126.306C251 126.306 230.911 130.501 214.19 126.715L214.127 124.255C214.127 124.255 230.341 127.853 250.733 123.848L251 126.306Z" fill="#97BCFF"/>
<path d="M214 119.438L214.025 120.358L214.045 121.089L214.069 121.898C229.317 125.351 247.433 122.164 250.498 121.577C250.41 120.75 250.325 119.924 250.242 119.115C230.059 122.983 214 119.438 214 119.438Z" fill="#97BCFF"/>
</g>
<path d="M301.192 74.041L300.394 77.5693L211.5 54.5L212.5 51L301.192 74.041Z" fill="#8A664D"/>
<mask id="mask0_35348_6320" style="mask-type:alpha" maskUnits="userSpaceOnUse" x="280" y="68" width="14" height="10">
<rect x="281.45" y="68.9336" width="12" height="6" transform="rotate(13.5557 281.45 68.9336)" fill="#D9D9D9"/>
</mask>
<g mask="url(#mask0_35348_6320)">
<path d="M288.959 72.4538C288.277 73.217 287.987 73.529 287.578 73.6084C287.003 73.7084 286.263 73.3965 285.118 72.5638C284.648 72.2725 284.303 71.9154 284.106 71.5164C284.056 71.3826 283.677 70.2114 284.726 69.5302C284.899 69.3979 285.137 69.3004 285.397 69.2551C285.451 69.2495 285.505 69.2511 285.555 69.2597C285.895 69.3068 285.739 69.0516 285.976 69.1952C286.203 69.2986 288.699 69.9484 289.014 70.0645C289.59 70.279 289.208 70.2791 289.889 70.3717C290.236 70.448 289.441 70.3944 289.58 70.4372C289.617 70.4637 289.867 70.339 289.889 70.3717C290.053 70.5698 289.897 71.403 288.959 72.4538Z" fill="#EBEBEB"/>
<path d="M290.614 71.3025C290.451 71.7696 290.167 72.2284 289.771 72.6613C289.02 73.5141 288.597 73.9849 287.733 74.1272C287.534 74.1609 287.331 74.1755 287.133 74.1705C286.222 74.1435 285.374 73.6707 284.372 72.9389C283.822 72.601 283.424 72.1824 283.207 71.7139C283.098 71.4462 282.646 70.0795 284.076 69.1959C284.398 68.9659 284.828 68.799 285.295 68.7233C285.63 68.6968 285.96 68.7146 286.262 68.7754C286.565 68.8363 290.075 69.8843 290.286 70.0209C290.52 70.1343 287.523 69.2928 287.781 69.3871C286.262 68.7754 286.262 68.7754 289.445 69.7925C289.764 69.8208 290.054 69.8995 290.286 70.0209C290.375 70.0804 290.45 70.1475 290.508 70.2208C290.718 70.5535 290.755 70.9288 290.614 71.3025ZM289.656 70.511C289.634 70.4784 289.604 70.4484 289.567 70.4219C289.428 70.3791 289.277 70.349 289.118 70.3323C287.283 69.8505 288.129 70.1623 287.314 69.8621C286.999 69.7459 286.649 69.6384 286.422 69.5351C286.185 69.3914 285.882 69.2915 285.542 69.2444C285.492 69.2358 285.439 69.2342 285.384 69.2398C285.124 69.2851 284.886 69.3827 284.713 69.515C283.664 70.1961 284.059 71.3678 284.093 71.5011C284.291 71.9001 284.635 72.2572 285.105 72.5485C286.25 73.3812 286.99 73.6931 287.565 73.5931C287.974 73.5137 288.264 73.2017 288.946 72.4385C289.896 71.4033 289.832 70.7248 289.681 70.5117L289.656 70.511Z" fill="#0D0D0D"/>
</g>
<path d="M299.646 75.3343C300.909 72.5842 304.989 67.784 311.38 69.2839L312.424 69.5293L308.536 86.7047L307.492 86.4593C301.103 84.9565 299.497 78.8161 299.544 75.78V75.5463L299.646 75.3343ZM309.841 71.2266C304.835 70.6749 302.239 75.0018 301.691 76.0472C301.753 77.247 302.01 78.4288 302.451 79.5464C303.335 81.7549 304.844 83.2577 306.945 84.0258L309.841 71.2266Z" fill="#4A3F3F"/>
<path d="M302.086 74.246L301.298 77.7888L294 76.0595L294.796 72.5312L302.086 74.246Z" fill="#4A3F3F"/>
<path d="M230.817 69.5046L222.527 66.7516C222.433 66.7214 222.352 66.6603 222.297 66.5782C222.242 66.496 222.217 66.3978 222.225 66.2994L223.154 56.2238C221.432 56.7712 220.052 56.7315 219.036 56.1127C217.925 55.4225 216.87 53.931 217.33 44.0933C217.449 41.6101 217.64 39.1269 217.894 36.7072C217.906 36.5927 217.962 36.4876 218.052 36.4148C218.141 36.342 218.255 36.3073 218.37 36.3184L225.557 36.9373L232.753 37.4291C232.848 37.4342 232.938 37.4704 233.01 37.5321C233.081 37.5938 233.131 37.6776 233.15 37.7703L234.284 42.5304C234.645 42.454 235.017 42.4519 235.379 42.5242C235.74 42.5965 236.083 42.7417 236.387 42.9509C236.684 43.1786 236.928 43.4682 237.102 43.7998C237.276 44.1314 237.376 44.4968 237.394 44.8708C237.513 46.3385 236.284 47.8856 234.316 48.7821C234.023 51.6661 233.983 54.5704 234.197 57.4614C234.398 60.1968 234.823 62.9112 235.466 65.5774C235.486 65.6563 235.482 65.7388 235.457 65.8159C235.432 65.893 235.386 65.9615 235.324 66.0138L231.246 69.4808C231.166 69.5482 231.065 69.5848 230.96 69.5839C230.908 69.5663 230.86 69.5394 230.817 69.5046ZM233.348 57.4693C233.133 54.4428 233.183 51.4031 233.499 48.3854C233.506 48.3057 233.535 48.2295 233.583 48.1651C233.63 48.1007 233.695 48.0507 233.769 48.0205C235.522 47.2906 236.641 46.0291 236.553 44.847C236.543 44.5988 236.479 44.3558 236.367 44.1342C236.255 43.9125 236.096 43.7174 235.903 43.5618C235.641 43.4038 235.346 43.3062 235.042 43.276C234.737 43.2458 234.43 43.2838 234.142 43.3872C234.086 43.4129 234.025 43.4262 233.963 43.4262C233.901 43.4262 233.841 43.4129 233.785 43.3872C233.73 43.3568 233.683 43.3158 233.645 43.2668C233.607 43.2177 233.579 43.1616 233.562 43.1016L232.404 38.2384L225.526 37.7623L218.719 37.1832C218.489 39.4522 218.322 41.7688 218.211 44.0854C217.79 53.0186 218.631 54.7799 219.496 55.3114C220.393 55.8667 221.733 55.8033 223.463 55.1289C223.532 55.1024 223.607 55.0936 223.68 55.1033C223.754 55.113 223.824 55.1409 223.883 55.1845C223.942 55.2321 223.988 55.2928 224.018 55.3618C224.049 55.4307 224.062 55.5059 224.058 55.5811L223.098 66.0138L230.825 68.5763L234.506 65.4029C233.914 62.7926 233.527 60.14 233.348 57.4693Z" fill="#0D0D0D"/>
<path d="M219.266 55.7074C219.893 56.0883 221.155 56.5008 223.654 55.5567L223 63.5005C223 63.5005 226 66.5005 229 66.5005C232 66.5005 234.5 63.5005 234.5 63.5005C233.5 58.0005 233.307 54.1805 233.912 48.4244C235.848 47.6311 237.085 46.1872 236.966 44.8543C236.951 44.5493 236.873 44.2508 236.736 43.9777C236.6 43.7045 236.408 43.4628 236.173 43.2676C235.853 43.0635 235.491 42.9359 235.114 42.8946C234.737 42.8533 234.355 42.8995 233.999 43.0296C233.587 41.308 233.206 39.5785 232.769 37.8569L225.566 37.3571L218.37 36.7383C218.18 38.5471 217.957 41.07 217.815 44.0927C217.323 53.7399 218.354 55.1442 219.266 55.7074Z" fill="white"/>
<path d="M217.211 39.1418C214.347 36.7617 213.84 35.0718 214.038 33.8897C214.332 32.0571 216.616 29.8039 216.593 29.8436C219.465 27.3842 221.749 26.9558 223.297 27.0034C225.78 27.0907 226.065 28.4076 229.913 29.1137C233.142 29.7087 234.435 29.0503 235.847 30.2879C236.585 30.9384 236.95 31.8746 237.68 33.8501C238.41 35.8255 238.823 36.8886 238.664 38.0311C238.364 39.6352 237.524 41.0884 236.284 42.1486C235.457 42.7024 234.776 43.4483 234.3 44.3224C234.109 44.7395 233.983 45.1837 233.928 45.6394C233.43 44.432 233.12 43.1559 233.007 41.855C232.973 41.3267 232.973 40.7967 233.007 40.2683C233.017 40.0187 232.937 39.7738 232.781 39.5786C232.625 39.3833 232.404 39.2508 232.158 39.2052C229.881 38.7689 224.907 40.4508 219.012 39.5622C218.405 39.4537 217.804 39.3133 217.211 39.1418Z" fill="#0D0D0D"/>
<path d="M228.097 45.8446C228.001 46.519 227.613 47.0188 227.24 46.9633C226.867 46.9077 226.645 46.3206 226.748 45.6463C226.851 44.9719 227.232 44.4721 227.605 44.5277C227.978 44.5832 228.2 45.1703 228.097 45.8446Z" fill="#0D0D0D"/>
<path d="M221.678 45.0526C221.575 45.7191 221.186 46.2268 220.813 46.1713C220.44 46.1158 220.218 45.5287 220.321 44.8543C220.424 44.18 220.813 43.6801 221.186 43.7277C221.559 43.7753 221.781 44.3783 221.678 45.0526Z" fill="#0D0D0D"/>
<path d="M221.82 51.0273C223.192 51.3571 224.592 51.5563 226.001 51.6224C225.926 51.8842 225.799 52.1281 225.628 52.3394C225.456 52.5507 225.243 52.7251 225.002 52.8518C224.761 52.9786 224.497 53.0553 224.226 53.0771C223.954 53.099 223.681 53.0656 223.423 52.979C222.976 52.8798 222.575 52.6336 222.285 52.2798C221.994 51.926 221.831 51.485 221.82 51.0273Z" fill="#0D0D0D"/>
<path d="M229.89 44.2505C229.963 44.2488 230.034 44.2269 230.096 44.187C230.136 44.1615 230.171 44.1279 230.197 44.0885C230.224 44.0491 230.243 44.0046 230.252 43.9577C230.261 43.9109 230.26 43.8627 230.249 43.8162C230.239 43.7697 230.219 43.7258 230.191 43.6872C229.803 43.1244 229.26 42.6872 228.627 42.4293C227.994 42.1713 227.3 42.104 226.629 42.2354C226.583 42.2474 226.54 42.2683 226.502 42.2969C226.465 42.3255 226.433 42.3613 226.409 42.4021C226.385 42.443 226.369 42.4882 226.363 42.5352C226.356 42.5821 226.359 42.6299 226.371 42.6757C226.383 42.7215 226.404 42.7646 226.433 42.8023C226.461 42.8401 226.497 42.8719 226.538 42.8958C226.579 42.9198 226.624 42.9354 226.671 42.9419C226.718 42.9484 226.766 42.9455 226.811 42.9335C227.337 42.8394 227.878 42.8986 228.37 43.104C228.863 43.3094 229.286 43.6524 229.588 44.0918C229.622 44.1408 229.667 44.1809 229.719 44.2085C229.772 44.2362 229.83 44.2506 229.89 44.2505Z" fill="#0D0D0D"/>
<path d="M223.13 42.8617C223.18 42.8623 223.231 42.8519 223.277 42.8314C223.324 42.8109 223.365 42.7806 223.399 42.7427C223.434 42.7101 223.461 42.6707 223.48 42.6271C223.499 42.5834 223.509 42.5364 223.509 42.4889C223.509 42.4413 223.499 42.3943 223.48 42.3506C223.461 42.307 223.434 42.2676 223.399 42.235C221.725 40.7752 219.647 41.8859 219.559 41.9335C219.517 41.9542 219.479 41.9837 219.448 42.0199C219.417 42.0561 219.395 42.0984 219.381 42.1439C219.368 42.1895 219.364 42.2373 219.37 42.2844C219.376 42.3315 219.392 42.3768 219.417 42.4175C219.465 42.5016 219.544 42.5636 219.638 42.5903C219.731 42.617 219.831 42.6062 219.917 42.5603C220.384 42.3033 220.916 42.1869 221.448 42.2249C221.98 42.2629 222.489 42.4537 222.915 42.7745C222.977 42.8238 223.051 42.8541 223.13 42.8617Z" fill="#0D0D0D"/>
<path d="M224.328 49.8126C224.402 49.8124 224.475 49.7895 224.536 49.747C224.596 49.7044 224.643 49.6443 224.669 49.5746C224.685 49.5298 224.692 49.4823 224.69 49.4347C224.687 49.3872 224.675 49.3406 224.655 49.2977C224.634 49.2548 224.605 49.2165 224.569 49.1851C224.533 49.1536 224.492 49.1296 224.447 49.1144L222.59 48.4718C224.407 45.465 224.431 45.3936 224.447 45.346C224.462 45.3012 224.467 45.2539 224.464 45.2069C224.46 45.1598 224.447 45.114 224.426 45.0719C224.405 45.0299 224.375 44.9925 224.339 44.9619C224.303 44.9313 224.262 44.9082 224.217 44.8938C224.131 44.8636 224.037 44.8664 223.954 44.9016C223.87 44.9368 223.803 45.0019 223.764 45.0842C223.661 45.2746 222.495 47.2183 221.733 48.4877C221.71 48.5358 221.697 48.5887 221.697 48.6424C221.697 48.6961 221.71 48.749 221.733 48.7971C221.754 48.8458 221.785 48.8899 221.823 48.9267C221.861 48.9635 221.906 48.9923 221.956 49.0113L224.233 49.8047C224.264 49.812 224.296 49.8146 224.328 49.8126Z" fill="#0D0D0D"/>
<path d="M206.198 67.8297C211.135 69.2817 211.348 88.3171 211.348 88.3171C211.348 88.3171 212.732 93.0375 213.313 97.2758C213.625 99.5438 213.953 109.167 214.184 117.619L214.209 118.534L214.229 119.26C214.409 125.893 214.528 131.413 214.528 131.413C214.528 131.413 219.298 134.538 232.316 134.298C232.316 134.298 245.911 133.341 251.69 131.05C251.69 131.05 251.053 125.387 250.463 119.745C250.376 118.923 250.292 118.103 250.209 117.299C249.901 114.261 249.628 111.475 249.53 109.877C249.2 104.954 250.691 89.1346 250.691 89.1346C248.638 71.4539 252.661 67.156 252.661 67.156C248.673 64.7661 236 60.5 236 60.5C233.131 73.2077 229.333 76.7696 229.333 76.7696C224.015 71.3827 221.5 60.5 221.5 60.5C212.508 62.299 206.198 67.8297 206.198 67.8297Z" fill="#00C0B5"/>
<g clip-path="url(#clip3_35348_6320)">
<path d="M251 126.56C251 126.56 230.911 130.755 214.19 126.969L214.127 124.509C214.127 124.509 230.341 128.107 250.733 124.102L251 126.56Z" fill="#97BCFF"/>
<path d="M214 119.692L214.025 120.612L214.045 121.343L214.069 122.152C229.317 125.605 247.433 122.418 250.498 121.83C250.41 121.004 250.325 120.178 250.242 119.369C230.059 123.237 214 119.692 214 119.692Z" fill="#97BCFF"/>
</g>
<path d="M208.561 121.638L210.739 119.087L213.41 120.78L215.355 123.323L215.844 125.505L214.994 124.779L213.538 124.418L212.812 125.268L213.06 128.42L214.4 131.328L214.644 132.419L213.918 133.269L211.732 131.697L209.667 129.639L209.543 128.063L209.419 126.487L209.415 124.425L207.714 122.973L208.561 121.638Z" fill="white"/>
<path d="M207.227 123.214C207.245 123.277 207.276 123.335 207.319 123.383C207.363 123.432 207.416 123.471 207.476 123.496C208.125 123.732 208.669 124.192 209.01 124.792C209.274 125.449 209.315 126.174 209.127 126.857C209.06 127.205 209.019 127.559 209.004 127.913C208.948 129.722 210.215 131.598 212.763 133.489C212.923 133.674 213.128 133.817 213.358 133.903C213.588 133.988 213.837 134.014 214.08 133.979C214.32 133.91 214.538 133.781 214.715 133.605C214.891 133.429 215.021 133.21 215.09 132.971C215.406 132.158 214.997 131.468 214.572 130.741C214.298 130.296 214.067 129.825 213.883 129.336C213.171 127.23 213.567 125.171 213.944 125.035C214.115 124.972 214.707 125.584 214.902 125.788C215.359 126.253 215.781 126.693 216.246 126.399C216.351 126.327 216.436 126.228 216.492 126.113C216.548 125.998 216.572 125.87 216.564 125.743C216.333 123.708 215.335 121.839 213.774 120.514C213.249 120.122 212.703 119.758 212.14 119.422C211.638 119.109 211.121 118.818 210.607 118.551C210.511 118.503 210.4 118.49 210.296 118.517C210.192 118.544 210.101 118.608 210.04 118.697L207.24 122.833C207.22 122.88 207.208 122.929 207.204 122.979C207.189 123.058 207.197 123.14 207.227 123.214ZM211.724 120.177C212.504 120.657 213.13 121.098 213.279 121.225C214.481 122.294 215.31 123.72 215.645 125.294L215.535 125.177C215.001 124.627 214.338 123.94 213.623 124.22C212.448 124.673 212.35 127.542 213.054 129.613C213.247 130.162 213.5 130.688 213.809 131.181C214.216 131.879 214.423 132.266 214.262 132.651C214.239 132.752 214.194 132.846 214.128 132.926C214.063 133.007 213.98 133.071 213.886 133.113C213.789 133.113 213.693 133.09 213.606 133.047C213.519 133.004 213.443 132.942 213.383 132.866C213.361 132.842 213.336 132.822 213.308 132.806C210.988 131.087 209.834 129.444 209.874 127.933C209.888 127.618 209.925 127.305 209.984 126.996C210.219 126.136 210.157 125.223 209.81 124.402C209.476 123.765 208.954 123.247 208.314 122.92L210.601 119.531C210.972 119.726 211.347 119.942 211.724 120.177Z" fill="#0D0D0D"/>
<defs>
<clipPath id="clip0_35348_6320">
<rect width="291" height="232.393" fill="white" transform="translate(13 26)"/>
</clipPath>
<clipPath id="clip1_35348_6320">
<rect width="124.939" height="231.86" fill="white" transform="translate(187 26)"/>
</clipPath>
<clipPath id="clip2_35348_6320">
<rect width="37" height="9.18208" fill="white" transform="translate(214 119.117)"/>
</clipPath>
<clipPath id="clip3_35348_6320">
<rect width="37" height="9.18208" fill="white" transform="translate(214 119.371)"/>
</clipPath>
</defs>
</svg>
