<svg width="324" height="314" viewBox="0 0 324 314" fill="none" xmlns="http://www.w3.org/2000/svg">
<path d="M310.054 153.922C310.054 238.93 241.141 307.842 156.133 307.842C71.1237 307.842 2.21094 238.93 2.21094 153.922C2.21094 68.9131 71.1237 0.000366211 156.133 0.000366211C241.141 0.000366211 310.054 68.9131 310.054 153.922Z" fill="#E6F2FF"/>
<path d="M109.624 158.273C109.16 158.273 108.743 157.956 108.632 157.487C108.505 156.941 108.848 156.392 109.394 156.266L121.983 153.362C122.529 153.241 123.075 153.578 123.202 154.124C123.328 154.673 122.988 155.218 122.437 155.345L109.853 158.251C109.776 158.266 109.699 158.273 109.624 158.273Z" fill="#0084BF"/>
<path d="M114.537 297.047C114.537 300.586 111.641 303.482 108.102 303.482H6.43502C2.89567 303.482 0 300.586 0 297.047V109.609C0 106.07 2.89567 103.175 6.43502 103.175H108.102C111.641 103.175 114.537 106.07 114.537 109.609V297.047Z" fill="#CAE3FF"/>
<path d="M298.968 312.77L310.401 313.118C310.401 313.118 312.696 313.261 315.89 310.576C319.376 307.643 324.971 303.944 323.858 301.277C323.438 300.282 312.028 287.293 312.028 287.293L303.184 293.494C303.184 293.494 309.964 300.215 309.964 301.582C309.964 303.628 307.697 306.116 307.697 306.116C307.697 306.116 296.13 310.879 298.968 312.77Z" fill="#2D527F"/>
<path d="M309.949 301.514C309.89 301.014 309.109 299.95 308.097 298.753C308.103 298.758 308.108 298.765 308.114 298.773C308.106 298.76 308.094 298.748 308.086 298.735C309.095 299.927 309.881 300.994 309.957 301.504C309.954 301.509 309.951 301.511 309.949 301.514ZM317.587 293.679C317 293 316.419 292.327 315.865 291.692C316.419 292.33 317 293 317.587 293.679Z" fill="#D0B6CD"/>
<path d="M309.96 301.5C309.884 300.99 309.097 299.924 308.088 298.732C307.97 298.577 307.847 298.419 307.715 298.257C310.274 296.749 314.3 293.607 315.868 291.688C316.421 292.324 317.003 292.996 317.59 293.676C315.401 296.601 312.884 299.259 309.96 301.5Z" fill="#253A66"/>
<path d="M308.113 298.771C308.105 298.764 308.102 298.757 308.096 298.752C307.961 298.594 307.824 298.434 307.684 298.274C307.686 298.274 307.686 298.272 307.686 298.272C307.821 298.427 307.956 298.582 308.083 298.735C308.094 298.747 308.102 298.759 308.113 298.771Z" fill="#D8CDE6"/>
<path d="M308.088 298.738C307.958 298.586 307.826 298.43 307.691 298.275C307.7 298.27 307.705 298.268 307.713 298.263C307.845 298.425 307.969 298.583 308.088 298.738Z" fill="#4B79B2"/>
<path d="M298.734 312.575C298.734 312.572 298.729 312.567 298.726 312.565C298.731 312.567 298.734 312.572 298.734 312.575ZM298.632 312.436C298.626 312.427 298.617 312.415 298.609 312.402C298.617 312.415 298.626 312.425 298.632 312.436ZM298.549 312.252C298.549 312.247 298.549 312.245 298.549 312.242C298.549 312.245 298.549 312.249 298.549 312.252ZM298.523 312.094C298.523 312.094 298.523 312.092 298.523 312.089C298.523 312.092 298.523 312.092 298.523 312.094Z" fill="white"/>
<path d="M310.461 313.119C310.418 313.119 310.398 313.119 310.398 313.119L298.967 312.772C298.961 312.767 298.955 312.762 298.95 312.76C298.947 312.757 298.944 312.755 298.941 312.755C298.938 312.752 298.936 312.75 298.93 312.745C298.927 312.745 298.924 312.742 298.921 312.74C298.921 312.737 298.916 312.735 298.913 312.732C298.91 312.73 298.907 312.73 298.904 312.728C298.901 312.725 298.898 312.722 298.893 312.718C298.89 312.715 298.884 312.713 298.884 312.71C298.879 312.708 298.876 312.705 298.873 312.703C298.87 312.7 298.867 312.698 298.864 312.695C298.861 312.693 298.859 312.691 298.856 312.691C298.853 312.688 298.85 312.686 298.847 312.683C298.847 312.681 298.844 312.678 298.841 312.676C298.839 312.673 298.833 312.671 298.83 312.668C298.83 312.668 298.83 312.666 298.827 312.664C298.819 312.659 298.813 312.654 298.81 312.649C298.807 312.649 298.804 312.646 298.804 312.644C298.802 312.641 298.796 312.639 298.793 312.636C298.793 312.634 298.793 312.634 298.79 312.631C298.787 312.629 298.785 312.626 298.779 312.624C298.779 312.622 298.776 312.622 298.776 312.619C298.773 312.617 298.77 312.612 298.767 312.609C298.767 312.609 298.767 312.609 298.765 312.609C298.756 312.602 298.753 312.595 298.745 312.587C298.742 312.587 298.742 312.587 298.742 312.585C298.739 312.582 298.736 312.58 298.733 312.575L298.73 312.572C298.728 312.57 298.725 312.565 298.722 312.563C298.722 312.563 298.722 312.56 298.719 312.56C298.708 312.548 298.699 312.538 298.688 312.526C298.685 312.521 298.685 312.518 298.682 312.513L298.679 312.511C298.676 312.508 298.673 312.503 298.671 312.501C298.668 312.501 298.668 312.499 298.668 312.499C298.659 312.486 298.651 312.474 298.645 312.462C298.642 312.459 298.639 312.454 298.636 312.452C298.633 312.449 298.634 312.449 298.634 312.447C298.631 312.444 298.631 312.442 298.628 312.437C298.628 312.437 298.628 312.437 298.628 312.434C298.619 312.422 298.611 312.412 298.605 312.4V312.398C298.602 312.395 298.599 312.39 298.599 312.388C298.596 312.385 298.596 312.385 298.596 312.383C298.594 312.38 298.594 312.375 298.594 312.373C298.591 312.373 298.591 312.37 298.591 312.368C298.585 312.358 298.579 312.348 298.577 312.336C298.577 312.336 298.574 312.334 298.574 312.331C298.571 312.328 298.571 312.326 298.568 312.321C298.568 312.321 298.568 312.319 298.568 312.316C298.565 312.314 298.565 312.311 298.562 312.309C298.562 312.307 298.562 312.304 298.559 312.301C298.559 312.299 298.557 312.297 298.557 312.292C298.557 312.292 298.557 312.289 298.557 312.287C298.554 312.282 298.554 312.277 298.551 312.272C298.551 312.269 298.548 312.267 298.548 312.265C298.548 312.262 298.548 312.259 298.545 312.257C298.545 312.255 298.545 312.252 298.542 312.25C298.542 312.247 298.542 312.242 298.542 312.24C298.539 312.238 298.539 312.235 298.539 312.233C298.539 312.23 298.539 312.228 298.539 312.225C298.537 312.22 298.537 312.215 298.537 312.21C298.534 312.208 298.534 312.205 298.534 312.205C298.534 312.201 298.534 312.198 298.531 312.196C298.531 312.193 298.531 312.191 298.531 312.188C298.531 312.186 298.528 312.183 298.528 312.181C298.528 312.178 298.528 312.176 298.528 312.173C298.525 312.169 298.525 312.166 298.525 312.163C298.525 312.161 298.525 312.159 298.525 312.156C298.522 312.151 298.522 312.146 298.522 312.141C298.522 312.139 298.522 312.136 298.522 312.136C298.522 312.132 298.522 312.129 298.522 312.126C298.522 312.124 298.522 312.122 298.522 312.119C298.522 312.117 298.522 312.112 298.522 312.109C298.522 312.107 298.522 312.104 298.522 312.102C298.522 312.1 298.52 312.097 298.52 312.092C298.52 312.09 298.52 312.09 298.52 312.087C298.52 312.082 298.52 312.077 298.52 312.072C298.52 312.07 298.52 312.065 298.52 312.063C298.52 312.06 298.52 312.058 298.52 312.055C298.52 312.053 298.52 312.05 298.52 312.048C298.52 312.045 298.52 312.043 298.52 312.04C298.52 312.038 298.52 312.033 298.52 312.03C298.52 312.028 298.52 312.026 298.52 312.026C298.522 312.013 298.522 312.001 298.522 311.989V311.986C298.522 311.981 298.522 311.976 298.522 311.974C298.522 311.971 298.522 311.971 298.522 311.971C298.534 311.883 298.557 311.792 298.594 311.7L309.524 312.033C309.524 312.033 309.541 312.033 309.583 312.033C309.977 312.033 312.128 311.917 315.011 309.491C318.496 306.558 324.092 302.859 322.978 300.194C322.921 300.061 322.668 299.709 322.274 299.209C322.975 300.061 323.5 300.724 323.73 301.071H323.733C323.733 301.074 323.736 301.076 323.739 301.081C323.739 301.083 323.742 301.086 323.745 301.091C323.745 301.091 323.745 301.093 323.747 301.093C323.747 301.096 323.75 301.098 323.75 301.098C323.753 301.101 323.753 301.103 323.756 301.103C323.756 301.111 323.762 301.118 323.767 301.123C323.767 301.125 323.77 301.128 323.77 301.13C323.773 301.13 323.773 301.133 323.773 301.133C323.776 301.135 323.776 301.137 323.776 301.14C323.776 301.143 323.779 301.143 323.779 301.145C323.782 301.145 323.782 301.147 323.782 301.147C323.784 301.15 323.784 301.152 323.787 301.155C323.787 301.155 323.787 301.157 323.79 301.157C323.79 301.16 323.79 301.162 323.793 301.162C323.793 301.165 323.793 301.167 323.793 301.17C323.796 301.17 323.796 301.17 323.796 301.172C323.799 301.174 323.799 301.177 323.802 301.179C323.804 301.184 323.807 301.187 323.807 301.189C323.81 301.192 323.81 301.194 323.81 301.197C323.813 301.199 323.813 301.199 323.813 301.199C323.813 301.202 323.816 301.204 323.816 301.207C323.819 301.207 323.819 301.207 323.819 301.209C323.819 301.212 323.822 301.212 323.822 301.214L323.824 301.216C323.824 301.219 323.827 301.221 323.827 301.224C323.833 301.234 323.839 301.243 323.844 301.253C323.844 301.256 323.847 301.258 323.847 301.261C323.847 301.263 323.847 301.263 323.847 301.266V301.268C323.85 301.268 323.85 301.271 323.85 301.273C323.85 301.273 323.85 301.273 323.853 301.273C323.853 301.276 323.853 301.278 323.856 301.278C323.953 301.514 323.998 301.756 323.998 302.004C324.001 304.591 319.069 307.903 315.889 310.578C313.005 313.001 310.851 313.119 310.461 313.119Z" fill="#528ABF"/>
<path d="M205.466 298.003L206.225 311.051C206.225 311.051 206.789 313.354 204.348 313.354C201.907 313.354 178.456 313.354 178.456 313.354C178.456 313.354 175.474 312.812 179.675 310.1C183.88 307.389 199.467 303.451 197.942 297.392C196.516 291.725 205.466 292.838 205.466 298.003Z" fill="#2D527F"/>
<path d="M204.749 313.331C205.478 313.243 205.869 312.91 206.074 312.524C205.872 312.91 205.478 313.243 204.749 313.331Z" fill="white"/>
<path d="M204.347 313.354C201.907 313.354 178.456 313.354 178.456 313.354C178.456 313.354 176.685 313.024 177.823 311.622C178.441 311.797 179.335 311.903 180.596 311.903C180.899 311.903 181.226 311.896 181.574 311.883C182.453 311.851 183.453 311.839 184.536 311.839C186.433 311.839 188.588 311.878 190.812 311.915C193.04 311.955 195.336 311.994 197.51 311.994C201.022 311.994 204.217 311.893 206.278 311.524C206.285 311.807 206.251 312.176 206.079 312.509C206.079 312.511 206.079 312.514 206.076 312.516C206.076 312.519 206.074 312.521 206.071 312.524C205.867 312.91 205.475 313.243 204.746 313.331C204.746 313.331 204.746 313.331 204.744 313.331C204.722 313.334 204.699 313.336 204.675 313.339C204.672 313.339 204.67 313.339 204.667 313.341C204.66 313.341 204.653 313.341 204.645 313.341C204.643 313.341 204.64 313.344 204.638 313.344C204.626 313.344 204.616 313.344 204.606 313.346C204.601 313.346 204.594 313.346 204.589 313.346C204.584 313.346 204.579 313.346 204.574 313.349C204.566 313.349 204.559 313.349 204.552 313.349C204.549 313.349 204.544 313.349 204.539 313.349C204.53 313.351 204.52 313.351 204.51 313.351C204.505 313.351 204.502 313.351 204.498 313.351C204.49 313.351 204.483 313.351 204.473 313.354C204.47 313.354 204.468 313.354 204.463 313.354C204.453 313.354 204.441 313.354 204.429 313.354C204.426 313.354 204.424 313.354 204.421 313.354C204.411 313.354 204.401 313.354 204.394 313.354C204.389 313.354 204.387 313.354 204.384 313.354C204.372 313.354 204.36 313.354 204.347 313.354Z" fill="#4374A5"/>
<path d="M194.352 303.092C194.381 303.072 194.411 303.052 194.438 303.035L194.448 303.03C194.418 303.052 194.389 303.072 194.359 303.092C194.357 303.092 194.354 303.092 194.352 303.092Z" fill="#D0B6CD"/>
<path d="M194.438 303.035C195.226 302.506 195.925 301.956 196.494 301.38H196.496C195.932 301.954 195.235 302.506 194.447 303.03L194.438 303.035Z" fill="#BCADCD"/>
<path d="M205.873 304.939C202.43 303.777 198.859 303.075 195.317 303.075C194.997 303.075 194.677 303.08 194.359 303.092C194.389 303.073 194.418 303.053 194.448 303.031C195.236 302.506 195.933 301.955 196.497 301.381C197.773 301.511 199.307 301.583 200.807 301.583C202.654 301.583 204.449 301.474 205.656 301.233L205.873 304.939Z" fill="#253A66"/>
<path d="M215.938 168.682H295.461C294.444 159.412 292.161 144.245 277.851 121.121C242.367 63.8043 215.208 55.6003 200.186 70.7144C200.186 70.7144 191.07 80.9548 197.694 102.957C201.985 117.206 214.404 147.532 215.938 168.682Z" fill="#0084BF"/>
<path d="M245.008 224.99C247.197 223.825 249.498 222.636 251.941 221.414C249.628 222.609 247.308 223.798 245.008 224.99Z" fill="#BCADCD"/>
<path d="M118.472 109.912C118.472 109.912 145.026 126.25 187.706 114.206C219.16 105.331 216.764 82.8473 209.003 76.166C209.003 76.166 203.744 72.6632 185.846 92.2725C171.608 107.87 145.792 107.23 121.704 104.001C121.704 104.001 114.559 108.7 118.472 109.912Z" fill="#EDCFA5"/>
<path d="M99.0975 103.583C105.322 103.209 110.493 104.449 111.634 105.429C113.153 106.732 112.653 107.052 111.025 107.939C108.715 109.191 108.319 114.422 111.579 111.944C113.522 110.462 115.325 109.839 117.438 109.848C117.465 109.856 117.49 109.853 117.517 109.862C127.063 113.7 120.285 106.486 121.707 103.996C117.389 98.9548 112.754 96.7852 107.365 96.3094C104.968 96.097 101.707 98.0173 99.6583 99.9404C97.6437 101.83 96.7994 103.721 99.0975 103.583Z" fill="#EDCFA5"/>
<path d="M209.038 73.631C209.038 73.631 208.962 64.2203 199.194 73.9641C196.871 76.2804 189.314 88.3313 186.389 91.5954C175.888 103.301 156.066 106.635 136.645 105.524C136.585 103.831 135.302 102.266 133.399 101.787C131.157 101.233 128.864 102.405 128.34 104.44L126.16 112.881C125.636 114.916 127.047 117.02 129.315 117.59C129.364 117.602 129.411 117.611 129.46 117.623C131.155 117.992 132.82 117.387 133.743 116.197C147.316 120.054 171.628 122.998 190.01 116.536C235.062 100.694 214.778 78.5725 209.038 73.631Z" fill="#0084BF"/>
<path d="M164.615 120.32C153.713 120.32 143.139 118.669 135.442 116.655C134.861 116.502 134.294 116.348 133.744 116.192C133.003 117.148 131.782 117.724 130.454 117.724C130.129 117.724 129.797 117.691 129.462 117.619C129.412 117.606 129.366 117.595 129.316 117.584C127.368 117.096 126.051 115.472 126.051 113.735C126.051 113.448 126.087 113.16 126.161 112.875L126.578 111.262C126.972 112.338 127.836 113.259 129.041 113.691C129.085 113.708 129.129 113.724 129.176 113.738C129.607 113.878 130.045 113.943 130.474 113.943C131.604 113.943 132.671 113.483 133.4 112.686C142.271 116.214 156.34 119.737 170.263 119.737C173.326 119.737 176.377 119.567 179.368 119.189C174.539 119.983 169.543 120.32 164.615 120.32Z" fill="#79B2E7"/>
<path d="M213.666 154.188C212.979 151.089 212.179 147.929 211.305 144.757C211.305 144.757 211.305 144.757 211.307 144.757C212.181 147.927 212.985 151.089 213.669 154.188C213.669 154.188 213.669 154.188 213.666 154.188Z" fill="#CAC4DE"/>
<path d="M213.667 154.188C212.981 151.09 212.18 147.926 211.305 144.757C219.056 139.886 226.69 133.585 232.914 125.482C232.937 125.448 232.965 125.414 232.991 125.379C233 125.368 233.005 125.359 233.014 125.348C233.034 125.322 233.054 125.296 233.074 125.271C233.083 125.259 233.091 125.25 233.097 125.236C233.148 125.17 233.2 125.102 233.254 125.033C233.263 125.022 233.271 125.007 233.283 124.996C233.3 124.973 233.317 124.953 233.334 124.927C233.343 124.916 233.351 124.902 233.36 124.89C233.389 124.856 233.411 124.824 233.437 124.79C233.44 124.787 233.443 124.781 233.446 124.779C233.466 124.75 233.492 124.718 233.514 124.687C233.523 124.676 233.532 124.664 233.54 124.653C233.554 124.63 233.572 124.607 233.589 124.584C233.6 124.57 233.612 124.558 233.623 124.544C233.646 124.51 233.672 124.478 233.695 124.444C233.697 124.438 233.703 124.432 233.709 124.427C233.729 124.401 233.749 124.37 233.769 124.344C233.78 124.332 233.786 124.318 233.798 124.307C233.818 124.281 233.835 124.255 233.855 124.229C233.861 124.221 233.866 124.212 233.875 124.204C233.898 124.169 233.926 124.135 233.949 124.101C233.955 124.095 233.958 124.086 233.963 124.084C233.981 124.055 234.004 124.026 234.024 124.001C234.032 123.986 234.044 123.975 234.052 123.961C234.069 123.941 234.086 123.915 234.098 123.895C234.109 123.88 234.121 123.869 234.129 123.855C234.152 123.82 234.175 123.792 234.195 123.763C234.207 123.749 234.218 123.732 234.229 123.717C234.244 123.697 234.255 123.68 234.27 123.66C234.281 123.643 234.295 123.626 234.307 123.609C234.318 123.589 234.335 123.572 234.347 123.554C234.355 123.537 234.37 123.526 234.378 123.509C234.404 123.477 234.424 123.446 234.447 123.411C234.455 123.406 234.458 123.394 234.467 123.386C234.484 123.36 234.501 123.34 234.518 123.314C234.53 123.3 234.541 123.286 234.55 123.268C234.564 123.251 234.578 123.234 234.593 123.214C234.601 123.197 234.616 123.18 234.624 123.163C234.647 123.134 234.67 123.102 234.69 123.074C234.699 123.06 234.707 123.051 234.716 123.04C234.73 123.017 234.747 122.994 234.761 122.971C234.773 122.957 234.781 122.942 234.796 122.928C234.81 122.905 234.822 122.888 234.836 122.865C234.847 122.854 234.856 122.839 234.867 122.825C234.887 122.791 234.91 122.759 234.933 122.731C234.942 122.716 234.95 122.705 234.959 122.691C234.973 122.671 234.987 122.651 235.002 122.631C235.013 122.613 235.025 122.599 235.033 122.585C235.045 122.565 235.062 122.545 235.073 122.528C235.082 122.513 235.096 122.493 235.108 122.479C235.128 122.45 235.15 122.419 235.168 122.387C235.179 122.373 235.191 122.359 235.202 122.347C235.211 122.33 235.225 122.31 235.236 122.293C235.248 122.276 235.262 122.256 235.273 122.239C235.285 122.222 235.296 122.207 235.308 122.187C235.319 122.173 235.331 122.153 235.345 122.139C235.362 122.107 235.382 122.078 235.405 122.047C235.416 122.033 235.425 122.018 235.434 122.004C235.448 121.984 235.459 121.967 235.471 121.95C235.485 121.933 235.494 121.915 235.505 121.898C235.517 121.884 235.525 121.87 235.537 121.853C235.551 121.833 235.562 121.815 235.577 121.795C235.594 121.767 235.617 121.735 235.637 121.71C235.645 121.692 235.657 121.675 235.665 121.661C235.68 121.644 235.688 121.629 235.7 121.609C235.714 121.595 235.725 121.575 235.734 121.561C235.748 121.541 235.76 121.521 235.774 121.501C235.785 121.486 235.791 121.475 235.803 121.461C235.823 121.426 235.843 121.401 235.863 121.369C235.874 121.352 235.883 121.338 235.894 121.323C235.906 121.303 235.917 121.283 235.928 121.266C235.94 121.252 235.948 121.238 235.96 121.223C235.974 121.2 235.986 121.183 236 121.16C236.009 121.149 236.02 121.135 236.029 121.12C236.051 121.089 236.069 121.057 236.089 121.026C236.097 121.017 236.106 121 236.114 120.989C236.129 120.969 236.143 120.949 236.154 120.929C236.166 120.912 236.177 120.897 236.186 120.883C236.197 120.86 236.212 120.843 236.223 120.823C236.232 120.809 236.24 120.797 236.249 120.783C236.272 120.751 236.292 120.717 236.315 120.686C236.32 120.677 236.326 120.666 236.332 120.657C236.349 120.631 236.363 120.611 236.378 120.585C236.386 120.574 236.395 120.56 236.403 120.548C236.418 120.525 236.435 120.503 236.449 120.477C236.455 120.468 236.46 120.457 236.469 120.448C236.492 120.414 236.512 120.38 236.532 120.345C236.538 120.339 236.543 120.331 236.549 120.325C236.566 120.297 236.581 120.274 236.598 120.245C236.603 120.236 236.612 120.222 236.621 120.214C236.638 120.185 236.655 120.159 236.672 120.131C236.675 120.125 236.678 120.116 236.684 120.114C236.706 120.079 236.726 120.042 236.749 120.008C236.752 120.005 236.758 119.996 236.761 119.991C236.781 119.962 236.798 119.933 236.815 119.902C236.821 119.896 236.824 119.888 236.829 119.882C236.849 119.847 236.869 119.819 236.889 119.787C236.889 119.782 236.892 119.779 236.895 119.776C236.921 119.742 236.938 119.707 236.964 119.67C236.967 119.664 236.967 119.664 236.97 119.662C236.99 119.63 237.007 119.602 237.027 119.567C237.03 119.561 237.038 119.55 237.044 119.544C237.064 119.51 237.081 119.476 237.101 119.444C237.104 119.441 237.104 119.441 237.104 119.441C237.127 119.404 237.153 119.37 237.173 119.333C237.173 119.33 237.176 119.33 237.176 119.327C237.196 119.295 237.218 119.258 237.238 119.227C237.241 119.221 237.244 119.215 237.247 119.21C237.27 119.175 237.29 119.141 237.313 119.107V119.104C237.333 119.07 237.359 119.032 237.381 118.998C237.381 118.995 237.381 118.992 237.384 118.992C237.401 118.958 237.422 118.927 237.444 118.892C237.447 118.886 237.45 118.881 237.453 118.875C237.585 118.658 237.719 118.435 237.848 118.214C243.806 108.143 245.545 99.0135 244.824 91.534C246.603 95.3839 247.913 100.441 247.913 107.002C247.913 126.509 228.329 146.877 213.667 154.188Z" fill="#5B82C2"/>
<path d="M205.227 125.258C203.627 120.525 202.064 116.06 200.699 112.087C202.064 116.06 203.627 120.525 205.227 125.255C205.227 125.258 205.227 125.255 205.227 125.258Z" fill="#CAC4DE"/>
<path d="M205.224 125.256C203.624 120.524 202.059 116.06 200.695 112.087C207.329 108.803 211.732 105.357 214.509 101.927C213.512 110.149 211.117 116.654 207.448 122.193C207.484 122.142 207.52 122.088 207.559 122.037C206.83 123.148 206.054 124.22 205.224 125.256ZM197.172 76.4661C198.005 74.1344 198.99 72.349 199.865 71.116C200.671 71.116 201.39 71.2235 202.038 71.4265C201.193 72.0684 200.247 72.9014 199.187 73.9582C198.709 74.4359 198.008 75.3256 197.172 76.4661Z" fill="#5B82C2"/>
<path d="M200.697 112.096C199.506 108.629 198.468 105.535 197.692 102.963C194.079 90.9478 195.168 82.1073 197.173 76.4742C198.011 75.3345 198.709 74.4454 199.187 73.968C200.249 72.9088 201.195 72.0764 202.039 71.4349C209.385 73.7293 207.216 87.9284 214.752 87.9284C215.116 87.9284 215.507 87.8926 215.919 87.8239C215.427 90.1929 215.093 92.8991 214.973 95.9901C214.973 96.0378 214.97 96.0856 214.97 96.1333C214.967 96.1482 214.967 96.1661 214.967 96.184C214.964 96.2109 214.964 96.2437 214.961 96.2706C214.961 96.2915 214.961 96.3153 214.958 96.3362C214.958 96.3601 214.958 96.3869 214.958 96.4108C214.955 96.4347 214.955 96.4556 214.955 96.4794C214.952 96.5003 214.952 96.5242 214.949 96.5451C214.949 96.5719 214.946 96.5988 214.946 96.6256C214.946 96.6405 214.946 96.6585 214.946 96.6734C214.943 96.7062 214.943 96.736 214.94 96.7659C214.94 96.7688 214.94 96.7778 214.94 96.7808C214.931 96.9508 214.922 97.1149 214.917 97.282C214.827 98.8932 214.693 100.442 214.508 101.933C211.733 105.365 207.329 108.811 200.697 112.096Z" fill="#5B82C2"/>
<path d="M177.964 152.71C177.486 151.559 176.412 149.345 175.803 147.143C172.835 148.833 169.724 150.574 166.457 152.413C166.457 152.413 166.611 161.653 171.077 160.303C171.077 160.303 174.74 159.736 180.44 158.154C179.561 156.358 178.725 154.542 177.964 152.71Z" fill="#EDCFA5"/>
<path d="M133.688 158.414C130.832 158.414 128.248 156.449 127.576 153.544C126.798 150.167 128.902 146.796 132.282 146.016L157.094 140.291C160.473 139.513 163.842 141.62 164.622 144.997C165.405 148.374 163.296 151.745 159.917 152.528L135.104 158.25C134.632 158.36 134.157 158.414 133.688 158.414Z" fill="#0084BF"/>
<path d="M155.385 179.321C153.851 179.082 152.598 177.134 152.423 174.657C152.233 171.972 153.388 169.615 154.999 169.216L167.037 166.229C168.704 165.818 170.758 167.426 171.684 169.997C172.682 172.778 171.985 175.573 170.054 176.029L156.159 179.292C155.898 179.353 155.639 179.361 155.385 179.321Z" fill="#0084BF"/>
<path d="M123.264 157.496C121.767 157.496 120.41 156.467 120.058 154.942C119.648 153.17 120.755 151.401 122.527 150.991L135.544 147.989C137.316 147.581 139.085 148.686 139.492 150.458C139.903 152.232 138.795 153.998 137.024 154.408L124.006 157.413C123.76 157.468 123.511 157.496 123.264 157.496Z" fill="#0084BF"/>
<path d="M161.848 172.539C160.519 172.539 159.303 171.658 158.933 170.319L152.101 145.486C151.659 143.876 152.604 142.211 154.214 141.766C155.826 141.322 157.486 142.272 157.931 143.884L164.765 168.712C165.207 170.324 164.259 171.99 162.65 172.432C162.384 172.506 162.113 172.539 161.848 172.539Z" fill="#0084BF"/>
<path d="M166.461 152.429C166.461 152.429 162.755 149.059 153.465 153.166C144.173 157.276 147.452 165.29 153.671 167.78C159.889 170.272 169.839 164.36 171.082 160.318C172.326 156.276 166.461 152.429 166.461 152.429Z" fill="#EDCFA5"/>
<path d="M229.851 71.2208C229.851 71.2208 215.902 71.9312 214.977 95.9804C213.983 121.865 201.345 132.297 179.851 144.819C178.627 143.318 176.493 142.801 174.687 143.7C172.595 144.744 171.741 147.285 172.786 149.38L177.117 158.069C177.857 159.555 179.353 160.418 180.908 160.418C181.541 160.418 182.188 160.275 182.794 159.97C184.09 159.323 184.907 158.099 185.095 156.764C198.695 152.419 219.222 143.312 232.913 125.483C255.589 95.9446 241.441 72.576 229.851 71.2208Z" fill="#0084BF"/>
<path d="M232.991 125.379C232.999 125.366 233.007 125.358 233.015 125.35C233.007 125.358 232.999 125.369 232.991 125.379ZM233.333 124.929C233.341 124.918 233.355 124.902 233.36 124.891C233.352 124.902 233.344 124.916 233.333 124.929ZM233.854 124.231C233.859 124.223 233.867 124.215 233.872 124.204C233.867 124.215 233.862 124.22 233.854 124.231ZM233.951 124.101C233.953 124.093 233.956 124.09 233.961 124.082C233.956 124.088 233.953 124.096 233.951 124.101ZM234.347 123.557C234.355 123.54 234.369 123.524 234.379 123.508C234.369 123.527 234.355 123.538 234.347 123.557ZM234.592 123.214C234.603 123.198 234.614 123.182 234.625 123.166C234.614 123.179 234.603 123.198 234.592 123.214ZM234.692 123.074C234.7 123.06 234.706 123.052 234.716 123.039C234.706 123.052 234.698 123.06 234.692 123.074ZM234.762 122.971C234.773 122.958 234.784 122.942 234.795 122.928C234.781 122.942 234.773 122.958 234.762 122.971ZM234.932 122.731C234.94 122.718 234.948 122.704 234.959 122.691C234.948 122.707 234.943 122.715 234.932 122.731ZM235.072 122.529C235.086 122.513 235.094 122.497 235.107 122.481C235.094 122.494 235.083 122.516 235.072 122.529ZM235.169 122.389C235.18 122.373 235.188 122.362 235.202 122.346C235.191 122.359 235.178 122.373 235.169 122.389ZM235.234 122.292C235.25 122.273 235.261 122.259 235.275 122.238C235.261 122.257 235.248 122.276 235.234 122.292ZM235.636 121.709C235.647 121.691 235.658 121.677 235.666 121.664C235.658 121.677 235.647 121.693 235.636 121.709ZM235.701 121.61C235.711 121.596 235.725 121.577 235.736 121.561C235.725 121.577 235.714 121.596 235.701 121.61ZM235.862 121.37C235.873 121.353 235.884 121.337 235.892 121.324C235.884 121.34 235.873 121.351 235.862 121.37ZM236 121.162C236.008 121.151 236.022 121.132 236.027 121.122C236.022 121.135 236.008 121.151 236 121.162ZM236.089 121.027C236.097 121.014 236.108 121.003 236.113 120.989C236.108 121.003 236.097 121.016 236.089 121.027ZM236.154 120.927C236.164 120.914 236.175 120.895 236.186 120.884C236.175 120.898 236.167 120.914 236.154 120.927ZM236.224 120.825C236.232 120.811 236.243 120.795 236.251 120.782C236.24 120.798 236.232 120.811 236.224 120.825ZM236.671 120.129C236.677 120.124 236.68 120.121 236.682 120.113C236.68 120.118 236.677 120.126 236.671 120.129ZM236.75 120.011C236.752 120.002 236.758 119.997 236.76 119.992C236.758 119.997 236.752 120.005 236.75 120.011ZM236.965 119.671C236.965 119.668 236.965 119.663 236.968 119.663C236.965 119.665 236.965 119.665 236.965 119.671ZM237.025 119.568C237.03 119.56 237.035 119.552 237.044 119.544C237.038 119.552 237.03 119.56 237.025 119.568ZM237.103 119.447L237.106 119.444C237.106 119.444 237.106 119.444 237.103 119.447ZM237.173 119.334C237.173 119.331 237.173 119.331 237.176 119.328C237.176 119.331 237.173 119.331 237.173 119.334ZM237.847 118.215C237.847 118.217 237.85 118.212 237.847 118.215V118.215Z" fill="#6F9AD2"/>
<path d="M177.115 158.071L176.531 156.902C176.531 156.902 176.531 156.902 176.531 156.904L177.115 158.071Z" fill="#EFD8BD"/>
<path d="M180.713 160.416C179.545 160.363 178.427 159.823 177.658 158.901C177.452 158.652 177.273 158.376 177.12 158.076L176.539 156.908C177.349 157.859 178.532 158.399 179.759 158.399C180.391 158.399 181.036 158.258 181.644 157.953C182.942 157.307 183.758 156.083 183.946 154.747C197.543 150.4 218.072 141.296 231.764 123.465C245.902 105.05 245.723 89.0334 240.776 79.2549C246.022 87.5656 247.681 101.604 237.855 118.219C237.855 118.222 237.858 118.216 237.855 118.219C237.723 118.44 237.591 118.663 237.459 118.883C237.456 118.886 237.453 118.892 237.45 118.898C237.43 118.93 237.409 118.962 237.389 118.997C237.386 118.997 237.386 119 237.386 119.003C237.362 119.038 237.342 119.074 237.318 119.112C237.295 119.147 237.277 119.182 237.254 119.217C237.251 119.22 237.248 119.226 237.245 119.232C237.224 119.264 237.201 119.3 237.183 119.332C237.18 119.335 237.18 119.335 237.18 119.338C237.157 119.373 237.136 119.408 237.11 119.449H237.107C237.089 119.482 237.069 119.514 237.048 119.549C237.042 119.555 237.036 119.564 237.03 119.573C237.016 119.602 236.992 119.634 236.975 119.667C236.972 119.667 236.972 119.673 236.972 119.675C236.948 119.708 236.925 119.746 236.901 119.781C236.898 119.784 236.895 119.787 236.895 119.793C236.875 119.825 236.854 119.854 236.834 119.887C236.831 119.893 236.828 119.901 236.822 119.907C236.802 119.937 236.787 119.966 236.766 119.998C236.763 120.001 236.757 120.007 236.757 120.016C236.734 120.048 236.711 120.081 236.69 120.119C236.684 120.125 236.681 120.128 236.678 120.136C236.661 120.166 236.643 120.189 236.625 120.219C236.62 120.227 236.611 120.242 236.605 120.251C236.587 120.277 236.57 120.304 236.555 120.33C236.549 120.336 236.543 120.345 236.54 120.351C236.517 120.383 236.496 120.418 236.476 120.453C236.467 120.462 236.461 120.474 236.455 120.483C236.438 120.506 236.423 120.53 236.408 120.553C236.402 120.565 236.391 120.58 236.385 120.591C236.37 120.615 236.355 120.638 236.338 120.662C236.332 120.674 236.326 120.682 236.32 120.691C236.297 120.723 236.279 120.756 236.255 120.788C236.25 120.8 236.238 120.817 236.229 120.829C236.217 120.847 236.206 120.87 236.191 120.888C236.182 120.9 236.17 120.917 236.159 120.932C236.147 120.955 236.135 120.976 236.12 120.994C236.115 121.008 236.103 121.02 236.097 121.032C236.073 121.064 236.056 121.093 236.035 121.126C236.026 121.137 236.015 121.155 236.006 121.167C235.991 121.19 235.98 121.208 235.965 121.228C235.956 121.243 235.947 121.258 235.936 121.272C235.924 121.29 235.912 121.311 235.9 121.328C235.889 121.343 235.88 121.36 235.868 121.375C235.85 121.405 235.83 121.437 235.809 121.466C235.798 121.481 235.792 121.493 235.78 121.507C235.768 121.528 235.753 121.545 235.742 121.566C235.733 121.581 235.715 121.601 235.707 121.616C235.695 121.636 235.686 121.651 235.671 121.666C235.662 121.68 235.654 121.695 235.642 121.713C235.624 121.742 235.601 121.774 235.583 121.801C235.569 121.818 235.557 121.839 235.542 121.86C235.533 121.874 235.522 121.889 235.513 121.904C235.501 121.921 235.489 121.939 235.478 121.956C235.466 121.971 235.454 121.989 235.442 122.009C235.431 122.024 235.422 122.039 235.41 122.053C235.389 122.083 235.369 122.112 235.348 122.144C235.337 122.159 235.325 122.18 235.313 122.194C235.304 122.212 235.29 122.227 235.281 122.244C235.266 122.262 235.257 122.276 235.243 122.297C235.228 122.318 235.219 122.332 235.207 122.353C235.196 122.367 235.187 122.379 235.175 122.394C235.155 122.426 235.134 122.455 235.114 122.485C235.102 122.502 235.09 122.517 235.078 122.535C235.067 122.552 235.055 122.57 235.04 122.591C235.028 122.605 235.02 122.62 235.008 122.635C234.996 122.655 234.978 122.676 234.967 122.696C234.955 122.708 234.946 122.723 234.937 122.737C234.917 122.767 234.893 122.796 234.873 122.828C234.861 122.843 234.852 122.858 234.843 122.872C234.829 122.893 234.814 122.911 234.799 122.934C234.791 122.946 234.779 122.963 234.767 122.978C234.752 122.999 234.738 123.022 234.723 123.043C234.711 123.057 234.708 123.066 234.697 123.078C234.676 123.107 234.653 123.139 234.632 123.169C234.62 123.186 234.609 123.201 234.6 123.219C234.585 123.236 234.57 123.257 234.556 123.275C234.547 123.289 234.535 123.304 234.523 123.319C234.509 123.345 234.491 123.368 234.474 123.392C234.465 123.401 234.462 123.41 234.453 123.418C234.432 123.451 234.409 123.483 234.386 123.515C234.374 123.53 234.362 123.548 234.353 123.562C234.341 123.577 234.324 123.594 234.312 123.615C234.3 123.633 234.289 123.65 234.277 123.668C234.262 123.686 234.248 123.706 234.233 123.724C234.224 123.738 234.212 123.753 234.203 123.768C234.18 123.797 234.157 123.826 234.136 123.859C234.127 123.873 234.115 123.885 234.104 123.9C234.089 123.923 234.074 123.944 234.06 123.964C234.051 123.979 234.039 123.991 234.03 124.005C234.007 124.035 233.989 124.061 233.969 124.088C233.963 124.096 233.96 124.096 233.957 124.105C233.93 124.141 233.904 124.173 233.881 124.208C233.872 124.22 233.866 124.229 233.86 124.234C233.839 124.264 233.822 124.287 233.804 124.311C233.792 124.325 233.787 124.337 233.775 124.349C233.757 124.375 233.734 124.405 233.713 124.434C233.71 124.437 233.704 124.446 233.699 124.449C233.678 124.484 233.652 124.516 233.628 124.549C233.619 124.563 233.608 124.575 233.596 124.59C233.578 124.613 233.561 124.634 233.546 124.657C233.537 124.669 233.528 124.678 233.519 124.692C233.499 124.725 233.472 124.754 233.452 124.786C233.449 124.786 233.446 124.792 233.443 124.795C233.42 124.83 233.393 124.863 233.367 124.895C233.361 124.907 233.346 124.921 233.34 124.933C233.323 124.957 233.305 124.977 233.288 125.001C233.279 125.015 233.27 125.027 233.258 125.039C233.208 125.106 233.155 125.174 233.103 125.244C233.097 125.256 233.088 125.265 233.079 125.274C233.059 125.303 233.041 125.327 233.02 125.353C233.012 125.365 233.006 125.371 232.997 125.382C232.971 125.418 232.944 125.453 232.918 125.488C226.694 133.59 219.064 139.893 211.312 144.763C211.309 144.763 211.309 144.763 211.309 144.763C202.05 150.579 192.623 154.357 185.223 156.729C194.831 153.646 207.856 148.177 219.49 138.971C207.246 148.078 193.601 153.171 183.661 155.91C183.42 157.234 182.551 158.429 181.227 159.022C180.667 159.271 180.076 159.391 179.498 159.391C179.442 159.391 179.384 159.391 179.328 159.389C178.785 159.365 178.253 159.233 177.76 159.013C178.526 159.864 179.595 160.363 180.713 160.416Z" fill="#79B2E7"/>
<path d="M185.094 156.766C185.128 156.753 185.165 156.743 185.2 156.731C185.165 156.743 185.131 156.753 185.094 156.766Z" fill="#79B2E7"/>
<path d="M207.453 122.193C211.125 116.653 213.522 110.152 214.514 101.927H214.517C213.53 110.073 211.175 116.533 207.565 122.04C207.529 122.09 207.492 122.143 207.453 122.193Z" fill="#6F9AD2"/>
<path d="M214.512 101.928C214.696 100.435 214.832 98.886 214.92 97.2746C214.832 98.886 214.696 100.435 214.515 101.928H214.512ZM214.959 96.4731C214.959 96.4504 214.959 96.4278 214.962 96.4023C214.959 96.4278 214.959 96.4476 214.959 96.4731Z" fill="#6F9AD2"/>
<path d="M207.562 122.031C211.171 116.527 213.526 110.068 214.514 101.922C214.693 100.43 214.831 98.8805 214.917 97.2687C214.926 97.1016 214.935 96.9374 214.941 96.7702C214.941 96.7643 214.941 96.7583 214.941 96.7553C214.944 96.7225 214.944 96.6926 214.947 96.6598C214.947 96.6449 214.95 96.6299 214.95 96.612C214.95 96.5882 214.953 96.5583 214.953 96.5314C214.956 96.5105 214.956 96.4896 214.956 96.4658C214.956 96.4419 214.956 96.421 214.959 96.3971C214.959 96.3732 214.962 96.3464 214.962 96.3225C214.965 96.3016 214.965 96.2777 214.965 96.2568C214.968 96.227 214.968 96.1971 214.971 96.1703C214.971 96.1524 214.971 96.1374 214.971 96.1195C214.971 96.0718 214.974 96.024 214.977 95.9792C215.902 71.9301 229.851 71.2197 229.851 71.2197C229.863 71.2197 229.877 71.2227 229.892 71.2256C229.895 71.2256 229.895 71.2256 229.895 71.2256C231.782 71.4555 233.731 72.2763 235.579 73.5986C234.346 72.9121 233.089 72.4464 231.847 72.2494C231.847 72.2494 217.884 72.3957 215.983 96.3822C215.111 107.358 212.249 115.453 207.562 122.031Z" fill="#79B2E7"/>
<path d="M180.91 160.418C180.897 160.418 180.887 160.418 180.877 160.418C180.872 160.418 180.869 160.418 180.867 160.418C180.859 160.418 180.851 160.418 180.843 160.418C180.841 160.418 180.836 160.418 180.831 160.418C180.823 160.418 180.815 160.415 180.808 160.415C180.805 160.415 180.802 160.415 180.8 160.415C180.79 160.415 180.779 160.415 180.769 160.415C180.761 160.415 180.756 160.415 180.748 160.415C180.746 160.415 180.743 160.415 180.738 160.413C180.73 160.413 180.725 160.413 180.718 160.413C180.715 160.413 180.712 160.413 180.71 160.413C179.592 160.359 178.521 159.86 177.758 159.01C178.249 159.228 178.78 159.362 179.322 159.385C179.379 159.385 179.436 159.388 179.495 159.388C180.073 159.388 180.661 159.27 181.221 159.018C182.547 158.424 183.415 157.232 183.657 155.906C193.595 153.168 207.243 148.075 219.485 138.967C207.851 148.173 194.828 153.643 185.219 156.726C185.211 156.729 185.206 156.731 185.204 156.731C185.168 156.744 185.132 156.754 185.096 156.767C184.908 158.1 184.091 159.326 182.794 159.973C182.187 160.277 181.542 160.418 180.91 160.418Z" fill="#89C0ED"/>
<path d="M197.138 67.8727C197.138 67.8727 189.597 79.5429 183.14 75.7124C177.343 72.275 153.207 57.4404 162.884 42.5537C172.228 28.1804 205.526 55.6794 197.138 67.8727Z" fill="#EDCFA5"/>
<path d="M168.914 65.1937C168.914 65.1937 171.8 69.808 172.734 72.1424C173.668 74.4769 175.335 70.666 177.142 71.8878C178.946 73.1095 176.327 63.5868 176.327 63.5868L168.914 65.1937Z" fill="#EDCFA5"/>
<path d="M200.559 72.3983C200.776 72.6033 200.972 72.7893 201.158 72.969C201.158 72.969 204.283 75.5767 208.151 71.5249C212.005 67.4889 208.546 65.061 207.206 64.1939C203.456 61.8322 198.481 58.1115 193.88 52.2719C187.199 43.7931 190.466 73.2686 191.859 73.7542C191.859 73.7542 196.854 68.8794 200.559 72.3983Z" fill="#EDCFA5"/>
<path d="M169.382 50.676C169.382 50.676 163.582 57.3341 159.558 56.7018C151.349 55.4082 153.864 44.4018 160.991 38.1759C168.116 31.9501 179.576 34.0824 183.593 37.4856C187.61 40.8921 195.516 48.7663 193.81 51.7695C190.774 57.1244 182.228 45.976 177.911 47.9179C173.574 49.8631 180.455 54.6954 177.669 55.4566C174.881 56.2147 171.269 48.6179 169.382 50.676Z" fill="#650D5B"/>
<path d="M285.506 252.898C281.075 249.626 308.119 212.215 292.536 152.491C255.304 158.929 228.417 158.715 215.222 158.654L215.21 158.648L215.219 158.654C215.006 158.651 214.787 158.651 214.582 158.648C215.21 170.945 181.083 227.041 182.508 246.023C183.401 257.925 193.613 299.296 193.447 300.518C193.279 301.737 206.766 302.143 207.139 300.518C207.515 298.89 212.137 279.21 206.286 261.368C203.09 251.627 234.911 215.639 247.915 201.124C250.458 200.218 253.073 240.702 258.299 252.977C259.211 255.121 260.095 256.653 260.956 257.664C267.801 267.836 288.472 278.946 305.512 299.053C306.312 299.991 317.086 291.913 316.502 290.351C315.918 288.787 306.287 268.246 285.506 252.898Z" fill="#650D5B"/>
<path d="M210.401 172.968C212.736 167.063 214.32 162.075 214.576 158.637C214.721 161.45 213.049 166.548 210.401 172.968Z" fill="#BCADCD"/>
<path d="M200.806 301.582C197.22 301.582 193.445 301.173 193.442 300.533C193.442 300.525 193.442 300.518 193.445 300.511C193.445 300.501 193.445 300.489 193.445 300.474C193.452 298.646 183.392 257.825 182.505 246.016C182.505 245.999 182.502 245.979 182.502 245.962C181.483 231.643 201.464 195.573 210.404 172.971C213.051 166.551 214.723 161.453 214.578 158.64C219.876 177.442 248.351 200.961 247.912 201.117C235.519 214.953 206.027 248.292 206.059 259.823C206.059 260.389 206.133 260.904 206.283 261.359C208.512 268.154 209.221 275.218 209.224 281.449C209.229 291.576 207.369 299.503 207.138 300.511C206.963 301.267 203.958 301.582 200.806 301.582Z" fill="#530949"/>
<path d="M252.559 197.578C251.678 197.576 261.519 178.287 268.782 172.328C272.152 169.564 275.483 168.206 277.24 168.206C279.581 168.206 279.12 170.62 272.208 175.33C260.113 183.571 253.005 197.163 253.005 197.163C252.778 197.447 252.634 197.578 252.559 197.578Z" fill="#7D1273"/>
<path d="M268.059 185.281C266.779 185.279 278.371 176.238 282.889 174.948C284.44 174.505 285.942 174.299 287.026 174.299C289.39 174.299 289.76 175.273 284.3 176.864C276.334 179.181 268.777 185.028 268.777 185.028C268.413 185.199 268.18 185.281 268.059 185.281Z" fill="#7D1273"/>
<path d="M106.817 290.199C106.817 293.44 104.311 296.09 101.249 296.09H13.2892C10.2275 296.09 7.72266 293.44 7.72266 290.199V118.545C7.72266 115.304 10.2275 112.653 13.2892 112.653H101.249C104.311 112.653 106.817 115.304 106.817 118.545V290.199Z" fill="#A7BAD3"/>
<path d="M95.6631 222.162C95.6631 224.161 93.721 225.797 91.3486 225.797H23.1856C20.8123 225.797 18.8711 224.161 18.8711 222.162V116.288C18.8711 114.289 20.8123 112.653 23.1856 112.653H91.3486C93.721 112.653 95.6631 114.289 95.6631 116.288V222.162Z" fill="#AEC7E0"/>
<path d="M106.816 194.893V185.022L107.038 184.921L106.816 194.893Z" fill="#B8D5F6"/>
<path d="M18.0195 228.912V225.277L19.8425 224.452C20.6353 225.272 21.8431 225.799 23.1897 225.799H26.1468L18.0195 228.912ZM95.6673 199.166V190.081L106.819 185.025V194.896L95.6673 199.166Z" fill="#98AFCC"/>
<path d="M26.1441 225.801H23.1871C21.8404 225.801 20.6326 225.274 19.8398 224.454L95.6646 190.083V199.168L26.1441 225.801Z" fill="#9FBBD8"/>
<path d="M106.816 169.227V164.291H106.999L106.816 169.227Z" fill="#B8D5F6"/>
<path d="M7.72266 172.521V164.293H18.8733V172.152L7.72266 172.521ZM95.6652 169.598V164.293H106.817V169.229L95.6652 169.598Z" fill="#98AFCC"/>
<path d="M18.875 172.148V164.29H95.6669V169.594L18.875 172.148Z" fill="#9FBBD8"/>
<path d="M109.715 164.293H4.82812V155.392H109.715V164.293Z" fill="#CAE3FF"/>
<path d="M143.48 313.354L113.035 212.984L121.552 210.403L151.994 310.772L143.48 313.354Z" fill="#CAE3FF"/>
<path d="M112.397 182.497L16.8696 225.801L13.1953 217.696L108.725 174.392L112.397 182.497Z" fill="#CAE3FF"/>
<path d="M22.8434 312.611H13.1914V301.58H22.8434V312.611Z" fill="#CAE3FF"/>
<path d="M69.2632 297.127C67.9707 297.127 66.7385 296.75 65.6992 296.09H75.9526L70.3832 297.031C70.0069 297.095 69.6326 297.127 69.2632 297.127ZM106.811 290.421C106.813 290.347 106.816 290.273 106.816 290.199V287.847C108.18 287.308 109.298 286.32 110.018 285.091C109.936 287.288 108.7 289.295 106.811 290.421Z" fill="#B8D5F6"/>
<path d="M75.9524 296.09H65.699C64.213 295.147 63.1214 293.622 62.8111 291.785L57.1289 258.163L57.1737 238.967C57.1742 238.714 57.1597 238.463 57.1304 238.216C57.2279 238.137 57.3279 238.061 57.4301 237.99C57.2533 238.758 57.2163 239.573 57.3442 240.398L64.7186 288.012C65.2094 291.181 67.966 293.462 71.0795 293.462C71.4039 293.462 71.7324 293.437 72.0622 293.388L105.447 288.216C105.924 288.142 106.382 288.017 106.816 287.847V290.199C106.816 290.273 106.813 290.347 106.811 290.42C106.121 290.829 105.344 291.122 104.505 291.265L75.9524 296.09Z" fill="#98AFCC"/>
<path d="M50.4714 293.574C50.4662 293.574 50.4615 293.574 50.4563 293.574L15.8504 293.493C12.2251 293.486 9.26557 290.582 9.27345 287.043L9.38649 238.86C9.38797 238.237 9.48131 237.634 9.65346 237.065V284.73C9.65346 288.269 12.5487 291.166 16.088 291.166H48.261C51.6838 291.166 54.505 288.456 54.687 285.078C54.687 285.075 54.687 285.075 54.687 285.073C54.6875 285.065 54.688 285.055 54.6884 285.048C54.6887 285.043 54.6887 285.041 54.6889 285.036C54.6894 285.028 54.6897 285.021 54.6899 285.013C54.6904 285.004 54.6909 284.991 54.6914 284.981C54.6916 284.977 54.6916 284.972 54.6919 284.964C54.6921 284.959 54.6924 284.952 54.6926 284.945C54.6929 284.94 54.6931 284.932 54.6931 284.927C54.6934 284.92 54.6936 284.915 54.6939 284.908C54.6939 284.903 54.6941 284.895 54.6941 284.89C54.6946 284.878 54.6948 284.868 54.6951 284.856C54.6951 284.853 54.6951 284.853 54.6951 284.851C54.6953 284.841 54.6953 284.829 54.6956 284.819C54.6956 284.814 54.6956 284.812 54.6958 284.807C54.6958 284.797 54.6958 284.787 54.6961 284.78C54.6961 284.775 54.6961 284.772 54.6961 284.767C54.6961 284.755 54.6963 284.743 54.6963 284.73V236.548C54.6963 235.912 54.6027 235.297 54.4289 234.715C54.2877 234.245 54.0939 233.794 53.854 233.376C55.6278 234.373 56.8882 236.151 57.1323 238.22C55.3628 239.649 54.3872 241.932 54.7842 244.281L57.1308 258.166L57.0631 287.154C57.0547 290.688 54.0897 293.574 50.4714 293.574Z" fill="#98AFCC"/>
<path d="M57.1298 258.164L54.7833 244.279C54.3863 241.929 55.3618 239.646 57.1313 238.218C57.1606 238.464 57.1752 238.715 57.1747 238.969L57.1298 258.164Z" fill="#8AA4C5"/>
<path d="M97.8083 312.611H88.1562V301.58H97.8083V312.611Z" fill="#CAE3FF"/>
<path d="M54.6952 284.727C54.6952 288.266 51.7992 291.162 48.2599 291.162H16.0869C12.5476 291.162 9.65234 288.266 9.65234 284.727V236.544C9.65234 233.005 12.5476 230.109 16.0869 230.109H48.2599C51.7992 230.109 54.6952 233.005 54.6952 236.544V284.727Z" fill="#CAE3FF"/>
<path d="M49.5498 268.424H45.3672V249.443H49.5498V268.424Z" fill="#B4CBE2"/>
<path d="M110.821 280.877C111.363 284.374 108.945 287.679 105.448 288.221L72.0634 293.393C68.5662 293.935 65.2616 291.516 64.7198 288.017L57.3454 240.403C56.8036 236.906 59.2218 233.601 62.7188 233.059L96.1032 227.889C99.6001 227.348 102.905 229.766 103.447 233.263L110.821 280.877Z" fill="#CAE3FF"/>
<path d="M71.82 270.422L67.6866 271.062L64.7812 252.303L68.9146 251.665L71.82 270.422Z" fill="#B4CBE2"/>
<path d="M110.875 281.352C110.875 281.35 110.875 281.345 110.875 281.342C110.875 281.345 110.875 281.347 110.875 281.352ZM110.865 281.239C110.865 281.232 110.865 281.224 110.863 281.214C110.865 281.222 110.865 281.232 110.865 281.239ZM110.863 281.2C110.86 281.19 110.86 281.182 110.86 281.172C110.86 281.18 110.86 281.19 110.863 281.2Z" fill="#DFF0FF"/>
<path d="M103.446 233.262C103.249 231.991 102.688 230.863 101.887 229.969C102.688 230.863 103.249 231.991 103.446 233.262ZM62.6641 233.067C62.6643 233.067 62.6648 233.067 62.665 233.067C62.6646 233.067 62.6646 233.067 62.6641 233.067ZM96.226 227.868C96.5068 227.831 96.7856 227.811 97.0621 227.811C96.7858 227.811 96.5065 227.831 96.226 227.868Z" fill="#CAD9E9"/>
<path d="M105.875 288.109C107.618 286.713 108.613 284.469 108.248 282.115L100.874 234.499C100.383 231.332 97.6263 229.051 94.5124 229.051C94.188 229.051 93.8595 229.076 93.5297 229.125L60.1458 234.297C59.9973 234.319 59.8631 234.376 59.7188 234.408C60.5527 233.74 61.544 233.25 62.6653 233.068C62.6658 233.068 62.6658 233.068 62.6663 233.068C62.6837 233.063 62.7015 233.061 62.7192 233.058L96.1036 227.889C96.1447 227.881 96.1861 227.876 96.2272 227.869C96.5078 227.832 96.787 227.812 97.0634 227.812C97.071 227.812 97.0786 227.812 97.0863 227.812C97.153 227.812 97.2198 227.812 97.2863 227.815C99.0755 227.871 100.732 228.679 101.888 229.97C102.69 230.864 103.25 231.992 103.447 233.263L106.817 255.017L110.822 280.876C110.824 280.891 110.827 280.903 110.827 280.918C110.829 280.918 110.829 280.92 110.829 280.92C110.829 280.933 110.832 280.945 110.834 280.957C110.834 280.96 110.834 280.96 110.834 280.962C110.837 280.975 110.837 280.987 110.839 280.999C110.839 281.002 110.839 281.004 110.839 281.007C110.842 281.016 110.844 281.029 110.844 281.039C110.844 281.041 110.846 281.046 110.846 281.049C110.846 281.058 110.849 281.068 110.849 281.078C110.849 281.083 110.851 281.085 110.851 281.088C110.851 281.098 110.854 281.11 110.854 281.12C110.854 281.122 110.856 281.127 110.856 281.13C110.856 281.14 110.859 281.149 110.859 281.159C110.859 281.164 110.859 281.167 110.861 281.172C110.861 281.182 110.861 281.189 110.864 281.199C110.864 281.204 110.864 281.209 110.864 281.214C110.866 281.223 110.866 281.231 110.866 281.238C110.869 281.243 110.869 281.25 110.869 281.258C110.869 281.263 110.871 281.27 110.871 281.275C110.871 281.282 110.871 281.292 110.874 281.3C110.874 281.305 110.874 281.31 110.874 281.314C110.876 281.322 110.876 281.332 110.876 281.342C110.876 281.344 110.876 281.349 110.876 281.351C110.879 281.361 110.879 281.374 110.881 281.383C110.881 281.386 110.881 281.386 110.881 281.386C111.112 284.538 108.967 287.407 105.875 288.109Z" fill="#DFF0FF"/>
<path d="M53.8524 233.371C52.7419 231.425 50.647 230.108 48.2593 230.108H48.2601C50.6473 230.108 52.7419 231.425 53.8524 233.371ZM16.0078 230.108C16.01 230.108 16.0122 230.108 16.0145 230.108C16.0125 230.108 16.01 230.108 16.0078 230.108ZM16.046 230.108C16.0595 230.108 16.0728 230.108 16.0864 230.108C16.0728 230.108 16.0593 230.108 16.046 230.108Z" fill="#CAD9E9"/>
<path d="M50.6658 290.684C51.9468 289.504 52.7659 287.832 52.7659 285.965V237.782C52.7659 234.243 49.8704 231.347 46.3313 231.347H14.1581C13.3079 231.347 12.4987 231.522 11.7539 231.825C12.8831 230.788 14.3692 230.13 16.0099 230.108C16.0121 230.108 16.0146 230.108 16.0165 230.108C16.0271 230.108 16.0377 230.108 16.0481 230.108C16.0614 230.108 16.0749 230.108 16.0885 230.108H48.2621C50.6491 230.108 52.744 231.426 53.8545 233.372C54.0943 233.79 54.2881 234.241 54.4293 234.711C54.6031 235.292 54.6967 235.908 54.6967 236.544V284.726C54.6967 284.738 54.6965 284.751 54.6965 284.763C54.6965 284.768 54.6965 284.77 54.6965 284.775C54.6962 284.783 54.6962 284.793 54.6962 284.802C54.696 284.805 54.696 284.81 54.696 284.815C54.6957 284.825 54.6957 284.837 54.6955 284.847C54.6955 284.849 54.6955 284.849 54.6955 284.852C54.6953 284.864 54.695 284.874 54.6945 284.886C54.6945 284.891 54.6943 284.898 54.6943 284.903C54.694 284.911 54.6938 284.916 54.6935 284.923C54.6935 284.928 54.6933 284.935 54.693 284.94C54.6928 284.948 54.6925 284.955 54.6923 284.96C54.6921 284.967 54.6921 284.972 54.6918 284.977C54.6913 284.987 54.6908 284.999 54.6903 285.009C54.6901 285.017 54.6898 285.024 54.6893 285.031C54.6891 285.036 54.6891 285.039 54.6888 285.044C54.6884 285.051 54.6879 285.061 54.6874 285.068C54.6874 285.071 54.6874 285.071 54.6874 285.073C54.5504 287.612 52.9191 289.765 50.6658 290.684Z" fill="#DFF0FF"/>
<path d="M4.82812 157.094V155.388H107.101L95.6665 156.242L4.82812 157.094Z" fill="#DFF0FF"/>
<path d="M2.26064 301.889C0.911946 300.726 0.0287193 299.037 0.000830667 297.133C0.000551781 297.133 0.000558317 297.131 0.000558317 297.131C0.000558317 297.118 0.00027235 297.106 0.00027235 297.093C0.00027235 297.091 0 297.086 0 297.084C0 297.069 0 297.054 0 297.039V109.601C0 106.062 2.89567 103.167 6.43502 103.167H97.796C97.7982 103.17 97.8007 103.176 97.8035 103.179C96.594 103.653 7.81857 104.841 7.81857 104.841C4.2795 104.841 1.38411 107.736 1.38411 111.275V298.714C1.38411 299.874 1.71821 300.948 2.26064 301.889Z" fill="#DFF0FF"/>
<path d="M97.8045 103.188C97.8017 103.185 97.7991 103.179 97.7969 103.176H97.8152C97.8197 103.179 97.8158 103.185 97.8045 103.188Z" fill="#F4E5D2"/>
<path d="M106.817 125.98C105.514 123.111 100.053 120.328 97.3675 120.328H95.6652V116.295C95.6652 114.296 93.7231 112.66 91.3507 112.66H101.249C104.311 112.66 106.817 115.312 106.817 118.553V125.98ZM7.72266 120.634V118.553C7.72266 115.312 10.2275 112.66 13.2892 112.66H23.1877C20.8144 112.66 18.8732 114.296 18.8732 116.295V120.328H9.40859C8.81712 120.328 8.2576 120.454 7.72266 120.634Z" fill="#98AFCC"/>
<path d="M95.6631 120.33H18.8711V116.297C18.8711 114.298 20.8123 112.662 23.1856 112.662H91.3486C93.721 112.662 95.6631 114.298 95.6631 116.297V120.33Z" fill="#9FBBD8"/>
<path d="M150.842 311.121L120.914 212.456L113.552 214.687L113.035 212.983L121.552 210.402L151.994 310.771L150.842 311.121Z" fill="#DFF0FF"/>
<path d="M14.0305 219.537L13.1953 217.695L108.725 174.391L14.0305 219.537Z" fill="#DFF0FF"/>
<path d="M13.1953 303.482H22.8456V308.363L13.1953 307.1V303.482Z" fill="#B4CBE2"/>
<path d="M88.1562 303.482H97.8065V308.363L88.1562 307.1V303.482Z" fill="#B4CBE2"/>
</svg>
