<svg width="324" height="329" viewBox="0 0 324 329" fill="none" xmlns="http://www.w3.org/2000/svg">
<path d="M323.235 161.233C323.235 250.281 251.044 322.467 162 322.467C72.9562 322.467 0.765625 250.281 0.765625 161.233C0.765625 72.1855 72.9562 -0.000427246 162 -0.000427246C251.044 -0.000427246 323.235 72.1855 323.235 161.233Z" fill="#E6F2FF"/>
<path d="M138.912 166.695C138.3 166.695 137.722 166.321 137.49 165.715L129.248 144.027C128.95 143.242 129.343 142.365 130.126 142.069C130.913 141.769 131.79 142.164 132.089 142.948L140.33 164.636C140.629 165.421 140.235 166.298 139.453 166.595C139.272 166.662 139.092 166.695 138.912 166.695Z" fill="#B1CAE0"/>
<path d="M129.51 128.977C129.188 128.977 128.889 128.768 128.785 128.44C128.667 128.038 128.894 127.614 129.292 127.491C129.377 127.468 137.732 124.846 138.158 118.67C138.186 118.252 138.541 117.943 138.968 117.966C139.389 117.994 139.702 118.358 139.673 118.776C139.171 126 130.116 128.827 129.732 128.946C129.657 128.967 129.586 128.977 129.51 128.977Z" fill="#99AEC1"/>
<path d="M155.351 154.988C148.034 154.988 142.793 150.414 140.92 142.368C140.557 140.813 139.787 139.703 138.563 138.975C135.557 137.193 130.916 138.457 130.868 138.467C130.471 138.583 130.045 138.346 129.934 137.941C129.822 137.539 130.06 137.121 130.461 137.007C130.674 136.945 135.765 135.555 139.327 137.665C140.91 138.601 141.941 140.069 142.401 142.022C143.417 146.405 146.577 153.74 155.792 153.464H155.816C156.223 153.464 156.561 153.789 156.571 154.201C156.586 154.622 156.256 154.97 155.835 154.983C155.671 154.986 155.511 154.988 155.351 154.988Z" fill="#99AEC1"/>
<path d="M148.035 184.492C147.968 184.492 147.9 184.482 147.838 184.464C147.434 184.356 147.193 183.94 147.299 183.535C150.292 172.432 147.275 169.656 142.28 165.059L141.145 164.011C137.325 160.436 139.422 156.045 141.641 151.396C143.07 148.414 144.547 145.331 144.691 142.155C144.749 140.845 144.321 139.753 143.382 138.822C139.504 134.976 128.727 135.504 128.616 135.512C128.231 135.538 127.841 135.213 127.817 134.792C127.798 134.374 128.12 134.019 128.539 133.995C129.001 133.97 140.101 133.428 144.455 137.744C145.697 138.977 146.284 140.483 146.207 142.222C146.048 145.71 144.436 149.079 143.017 152.051C140.63 157.033 139.317 160.221 142.184 162.902L143.31 163.941C148.353 168.583 151.995 171.937 148.766 183.93C148.675 184.268 148.367 184.492 148.035 184.492Z" fill="#99AEC1"/>
<path d="M131.285 132.238H155.213C155.547 132.238 155.822 131.908 155.822 131.498C155.822 131.088 155.547 130.758 155.213 130.758H131.285C130.947 130.758 130.676 131.088 130.676 131.498C130.676 131.908 130.947 132.238 131.285 132.238Z" fill="#95A9BC"/>
<path d="M149.086 132.366C149.086 133.589 150.087 134.59 151.309 134.59H165.518C166.74 134.59 167.741 133.589 167.741 132.366V130.444C167.741 129.221 166.74 128.22 165.518 128.22H151.309C150.087 128.22 149.086 129.221 149.086 130.444V132.366Z" fill="#2D527F"/>
<path d="M144.516 132.366C144.516 133.589 144.702 134.59 144.932 134.59H147.618C147.847 134.59 148.034 133.589 148.034 132.366V130.444C148.034 129.222 147.847 128.22 147.618 128.22H144.932C144.702 128.22 144.516 129.222 144.516 130.444V132.366Z" fill="#2D527F"/>
<path d="M145.754 132.097C145.754 132.869 146.751 133.498 147.973 133.498H162.181C163.403 133.498 164.405 132.869 164.405 132.097V130.888C164.405 130.116 163.403 129.484 162.181 129.484H147.973C146.751 129.484 145.754 130.116 145.754 130.888V132.097Z" fill="#2D527F"/>
<path d="M33.0835 171.711C33.0835 172.739 32.2467 173.576 31.218 173.576H28.8342C27.8096 173.576 26.9688 172.739 26.9688 171.711V169.429C26.9688 168.404 27.8096 167.563 28.8342 167.563H31.218C32.2467 167.563 33.0835 168.404 33.0835 169.429V171.711Z" fill="#99AEC1"/>
<path d="M113.595 171.916C113.595 172.942 112.757 173.783 111.728 173.783H109.344C108.319 173.783 107.477 172.942 107.477 171.916V169.635C107.477 168.608 108.319 167.77 109.344 167.77H111.728C112.757 167.77 113.595 168.608 113.595 169.635V171.916Z" fill="#99AEC1"/>
<path d="M132.725 164.35C132.725 166.747 130.768 168.705 128.37 168.705H14.3201C11.9266 168.705 9.96484 166.747 9.96484 164.35V104.215C9.96484 101.821 11.9266 99.8593 14.3201 99.8593H128.37C130.768 99.8593 132.725 101.821 132.725 104.215V164.35Z" fill="#B1CAE0"/>
<path d="M104.531 168.705H107.017V99.8586H104.531V168.705Z" fill="#99AEC1"/>
<path d="M93.1243 155.315C93.1243 156.977 91.985 158.334 90.5965 158.334H24.4301C23.0416 158.334 21.9023 156.977 21.9023 155.315V113.618C21.9023 111.958 23.0416 110.596 24.4301 110.596H90.5965C91.985 110.596 93.1243 111.958 93.1243 113.618V155.315Z" fill="#B9D8E7"/>
<path d="M119.37 144.736C116.585 144.736 114.324 142.6 114.324 139.966C114.324 137.332 116.585 135.196 119.37 135.196C122.16 135.196 124.421 137.332 124.421 139.966C124.421 142.6 122.16 144.736 119.37 144.736Z" fill="#7D9FC1"/>
<path d="M119.651 124.742C117.014 124.742 114.879 122.606 114.879 119.974C114.879 117.337 117.014 115.201 119.651 115.201C122.283 115.201 124.419 117.337 124.419 119.974C124.419 122.606 122.283 124.742 119.651 124.742Z" fill="#7D9FC1"/>
<path d="M125.054 139.234C125.054 141.868 122.922 144.004 120.287 144.004C117.653 144.004 115.516 141.868 115.516 139.234C115.516 136.6 117.653 134.464 120.287 134.464C122.922 134.464 125.054 136.6 125.054 139.234Z" fill="#99AEC1"/>
<path d="M128.582 162.135C128.582 163.806 127.214 165.174 125.543 165.174H113.164C111.493 165.174 110.125 163.806 110.125 162.135V161.369C110.125 159.697 111.493 158.329 113.164 158.329H125.543C127.214 158.329 128.582 159.697 128.582 161.369V162.135Z" fill="#99AEC1"/>
<path d="M92.4456 157.346C90.6566 155.963 88.0621 154.237 84.938 152.276C85.214 151.869 85.3831 151.35 85.3831 150.786V118.144C85.3831 116.844 84.493 115.781 83.4027 115.781H31.6106C31.1745 115.781 30.774 115.95 30.4491 116.235C26.742 112.982 24.3434 112.025 22.7991 112.025C22.6122 112.025 22.4342 112.043 22.2695 112.069C22.6879 111.242 23.4221 110.663 24.2766 110.601C24.2899 110.601 24.2944 110.601 24.3077 110.601C24.3122 110.601 24.3166 110.601 24.3211 110.601C24.3255 110.601 24.33 110.601 24.3345 110.601C24.3389 110.601 24.3478 110.601 24.3522 110.601C24.3567 110.601 24.3567 110.601 24.3612 110.601C24.3701 110.596 24.3789 110.596 24.3878 110.596C24.3923 110.596 24.3923 110.596 24.3967 110.596C24.4056 110.596 24.4146 110.596 24.4235 110.596H90.5899C91.9783 110.596 93.1176 111.958 93.1176 113.618V155.315C93.1176 155.328 93.1176 155.339 93.1132 155.352C93.1132 155.362 93.1132 155.372 93.1132 155.38C93.1132 155.383 93.1132 155.385 93.1132 155.388C93.0998 156.144 92.8462 156.825 92.4456 157.346Z" fill="#94B5CB"/>
<path d="M85.3856 150.786C85.3856 152.087 84.4962 153.152 83.4087 153.152H31.6141C30.5222 153.152 29.6328 152.087 29.6328 150.786V118.148C29.6328 116.845 30.5222 115.784 31.6141 115.784H83.4087C84.4962 115.784 85.3856 116.845 85.3856 118.148V150.786Z" fill="#758693"/>
<path d="M68.6946 153.105L47.3791 153.049C51.6326 147.993 56.5763 141.144 55.4608 137.728C53.5597 131.938 45.5822 137.029 47.1013 128.978C47.8218 125.171 49.7619 120.089 51.6109 115.779H67.2362C64.2327 119.755 61.8324 124.004 63.434 125.931C66.8499 130.041 75.2051 124.455 73.3083 136.17C72.3708 141.934 70.4264 148.21 68.6946 153.105Z" fill="#96A7B4"/>
<path d="M236.009 311.021L237.152 325.063C237.152 325.063 237.819 327.531 235.193 327.593C232.561 327.655 207.286 328.246 207.286 328.246C207.286 328.246 204.056 327.738 208.519 324.709C212.976 321.683 229.679 317.042 227.885 310.554C226.204 304.481 235.876 305.454 236.009 311.021Z" fill="#2D527F"/>
<path d="M207.283 328.246C207.283 328.246 205.368 327.936 206.557 326.396C207.144 326.546 207.95 326.634 209.043 326.634C209.513 326.634 210.03 326.618 210.606 326.584C217.562 326.161 231.49 326.736 237.225 325.57C237.236 325.803 237.225 326.089 237.14 326.371C237.14 326.373 237.14 326.375 237.14 326.375C237.14 326.378 237.134 326.383 237.134 326.386C236.969 326.925 236.542 327.449 235.539 327.57C235.539 327.57 235.539 327.57 235.534 327.57C235.513 327.572 235.491 327.575 235.465 327.578C235.459 327.578 235.454 327.578 235.449 327.578C235.443 327.58 235.438 327.58 235.433 327.58C235.422 327.58 235.422 327.58 235.417 327.583C235.406 327.583 235.401 327.583 235.395 327.583C235.385 327.585 235.374 327.585 235.363 327.585C235.358 327.585 235.353 327.585 235.347 327.585C235.342 327.588 235.337 327.588 235.326 327.588C235.321 327.588 235.321 327.588 235.315 327.588C235.305 327.591 235.289 327.59 235.278 327.59C235.273 327.59 235.273 327.59 235.267 327.59C235.262 327.59 235.251 327.591 235.241 327.593C235.235 327.593 235.23 327.593 235.23 327.593C235.214 327.593 235.203 327.593 235.187 327.593C232.557 327.655 207.283 328.246 207.283 328.246Z" fill="#4374A5"/>
<path d="M224.152 316.786C224.851 316.303 225.48 315.803 226.018 315.289C226.018 315.289 226.018 315.289 226.023 315.289C225.485 315.803 224.856 316.303 224.158 316.786H224.152Z" fill="#D0B6CD"/>
<path d="M236.618 318.488C233.1 317.389 229.469 316.734 225.877 316.734C225.306 316.734 224.731 316.752 224.16 316.786C224.858 316.303 225.487 315.803 226.026 315.289C226.879 315.354 227.892 315.392 229.091 315.392C230.861 315.392 233.046 315.31 235.728 315.103C235.935 315.086 236.138 315.062 236.335 315.026L236.618 318.488Z" fill="#253A66"/>
<path d="M132.606 103.186C132.141 101.28 130.414 99.8539 128.373 99.8539H118.5L122.484 99.8492H132.549L132.606 103.186Z" fill="#C8DBEF"/>
<path d="M131.886 110.676C128.845 110.676 128.427 107.405 129.145 104.603C129.474 103.317 129.023 102.979 128.085 102.979C127.578 102.979 126.935 103.077 126.193 103.176C125.456 103.27 124.616 103.368 123.734 103.368C123.265 103.368 122.781 103.34 122.293 103.27C118.233 102.702 118.492 99.8579 118.492 99.8579H128.366C130.408 99.8579 132.135 101.285 132.599 103.19L132.721 110.601C132.426 110.648 132.144 110.676 131.886 110.676Z" fill="#9AB7D2"/>
<path d="M319.071 311.016L320.217 325.059C320.217 325.059 320.883 327.528 318.252 327.59C315.621 327.652 290.347 328.242 290.347 328.242C290.347 328.242 287.12 327.734 291.581 324.705C296.043 321.679 312.744 317.038 310.948 310.55C309.264 304.477 318.942 305.45 319.071 311.016Z" fill="#2D527F"/>
<path d="M290.346 328.242C290.346 328.242 288.429 327.932 289.621 326.393C290.206 326.542 291.012 326.63 292.105 326.63C292.572 326.63 293.092 326.615 293.671 326.581C300.625 326.158 314.557 326.733 320.29 325.567C320.302 325.84 320.279 326.186 320.15 326.514C320.15 326.514 320.15 326.514 320.15 326.516C320.15 326.522 320.15 326.526 320.144 326.535C319.951 327.017 319.513 327.458 318.602 327.566C318.578 327.569 318.549 327.571 318.526 327.574C318.52 327.574 318.52 327.574 318.514 327.574C318.508 327.577 318.502 327.577 318.496 327.577C318.49 327.577 318.485 327.577 318.479 327.579C318.473 327.579 318.461 327.579 318.455 327.579C318.45 327.582 318.438 327.582 318.432 327.582C318.426 327.582 318.42 327.582 318.415 327.582C318.409 327.584 318.397 327.584 318.391 327.584C318.385 327.584 318.385 327.584 318.379 327.584C318.362 327.587 318.356 327.587 318.344 327.587C318.339 327.587 318.333 327.587 318.333 327.587C318.321 327.587 318.315 327.587 318.303 327.589C318.298 327.589 318.298 327.589 318.292 327.589C318.274 327.589 318.268 327.589 318.257 327.589C315.621 327.651 290.346 328.242 290.346 328.242Z" fill="#4374A5"/>
<path d="M307.215 316.786C308.085 316.18 308.856 315.55 309.469 314.895C309.475 314.895 309.475 314.895 309.475 314.895C308.862 315.55 308.097 316.18 307.221 316.786H307.215Z" fill="#D0B6CD"/>
<path d="M319.676 318.488C316.16 317.39 312.527 316.734 308.936 316.734C308.363 316.734 307.791 316.753 307.219 316.786C308.095 316.18 308.86 315.55 309.473 314.895C313.141 314.96 318.163 315.034 319.396 315.052L319.676 318.488Z" fill="#253A66"/>
<path d="M139.323 107.124C139.323 107.124 161.919 125.615 203.04 119.785C233.336 115.487 233.937 94.3196 227.565 87.1455C227.565 87.1455 223.388 83.5568 204.06 99.1927C189.887 110.66 165.012 108.06 143.064 102.044C143.064 102.044 135.842 105.509 139.323 107.124Z" fill="#EDCFA5"/>
<path d="M181.227 107.012C181.232 107.009 181.232 107.009 181.232 107.007C182.732 106.903 184.202 106.751 185.642 106.545C185.642 106.547 185.642 106.55 185.642 106.55C184.202 106.756 182.727 106.908 181.227 107.012Z" fill="#CAC4DE"/>
<path d="M187.36 120.916C185.044 120.916 182.799 120.841 180.642 120.699C180.124 116.123 180.171 111.502 181.231 107.011C182.733 106.908 184.204 106.756 185.644 106.549C185.715 109.384 187.668 116.822 189.359 120.898C188.683 120.911 188.021 120.916 187.36 120.916ZM202.007 119.931C202.007 119.928 202.007 119.925 202.007 119.925C202.35 119.881 202.693 119.838 203.042 119.789C202.698 119.838 202.35 119.884 202.007 119.931Z" fill="#D0A890"/>
<path d="M203.211 99.8594C203.216 99.8568 203.221 99.8517 203.221 99.8486C203.221 99.8517 203.211 99.8568 203.211 99.8594Z" fill="#CAC4DE"/>
<path d="M203.141 99.9062C203.161 99.8907 203.182 99.8726 203.203 99.8571C203.208 99.8545 203.213 99.8493 203.218 99.8467C203.239 99.8286 203.265 99.8131 203.286 99.795C203.291 99.7898 203.301 99.7851 203.306 99.7799C203.327 99.7644 203.348 99.7514 203.368 99.7359C203.374 99.7281 203.384 99.723 203.389 99.7152C203.41 99.6997 203.436 99.6841 203.456 99.6686C203.456 99.6634 203.462 99.6608 203.467 99.6556C203.55 99.594 203.633 99.5293 203.715 99.4677C203.721 99.4625 203.726 99.4573 203.731 99.4547C203.752 99.4366 203.778 99.4185 203.798 99.403C203.798 99.3978 203.809 99.3926 203.814 99.3874C203.834 99.3719 203.855 99.3563 203.876 99.3387C203.881 99.3336 203.886 99.3284 203.897 99.3232C203.917 99.3051 203.938 99.2895 203.959 99.274C203.964 99.2688 203.969 99.2637 203.974 99.2585C204 99.2378 204.031 99.2171 204.057 99.1938C203.757 99.4392 203.451 99.6738 203.141 99.9062Z" fill="#D0A890"/>
<path d="M120.921 100.739C127.503 101.228 131.489 101.807 132.547 102.995C132.547 102.995 133.381 104.706 131.546 105.403C128.945 106.39 128.806 111.15 132.581 109.009C134.828 107.735 136.806 107.332 139.024 107.642C139.048 107.655 139.077 107.657 139.106 107.668C148.576 113.046 143.604 105.108 145.448 102.694C139.925 99.0576 139.987 94.5785 131.522 93.5486C126.507 92.9354 116.02 100.375 120.921 100.739Z" fill="#EDCFA5"/>
<path d="M227.56 87.1494C227.56 87.1494 223.383 83.5607 204.056 99.1966C201.276 101.444 198.088 103.144 194.586 104.39C194.942 105.662 195.266 106.949 195.681 108.188C196.382 110.285 197.115 112.375 197.944 114.425C198.731 116.355 199.587 118.252 200.527 120.104C201.362 120.003 202.185 119.907 203.035 119.789C233.331 115.491 233.932 94.3235 227.56 87.1494Z" fill="#650D5B"/>
<path d="M194.573 103.812C194.573 103.812 200.113 117.195 202.356 120.472C204.605 123.751 192.704 124.803 190.907 123.57C189.11 122.337 185.295 108.801 185.67 105.935C186.045 103.071 194.034 102.522 194.573 103.812Z" fill="#650D5B"/>
<path d="M201.56 122.637C201.621 122.335 201.549 122.005 201.308 121.649C199.059 118.372 193.52 104.988 193.52 104.988C193.34 104.555 192.326 104.33 191.04 104.33C189.318 104.33 187.104 104.735 185.777 105.587C186.397 103.928 189.708 103.154 192.09 103.154C193.376 103.154 194.391 103.378 194.575 103.812C194.575 103.812 200.115 117.196 202.359 120.472C202.364 120.48 202.369 120.488 202.374 120.493V120.495C202.958 121.37 202.528 122.082 201.56 122.637Z" fill="#8A147E"/>
<path d="M208.712 118.697C208.743 118.156 208.779 117.611 208.8 117.065C208.94 113.484 208.764 109.898 208.389 106.335C208.067 103.239 207.096 100.161 206.727 97.084C208.551 95.6753 210.224 94.4525 211.757 93.3945C210.884 99.1865 212.126 105.478 214.755 111.268C214.007 113.489 213.092 115.648 211.928 117.805C210.905 118.127 209.834 118.427 208.712 118.697Z" fill="#530949"/>
<path d="M215.906 113.618C215.906 113.618 238.165 135.562 240.815 171.604C242.962 200.795 273.886 198.734 289.436 198.109C304.987 197.487 331.883 169.332 317.432 135.278C302.337 99.7153 243.376 69.6632 227.482 75.5014C208.997 82.289 208.583 99.8573 215.906 113.618Z" fill="#650D5B"/>
<path d="M319.332 139.072C319.004 138.281 318.659 137.532 318.302 136.817C299.302 151.205 241.195 174.436 241.195 174.436C241.195 174.436 294.642 267.052 304.207 314.064C304.207 314.064 304.231 314.748 305.582 314.809C306.927 314.869 319.677 315.055 319.677 315.055C319.677 315.055 320.183 314.977 320.356 314.095C320.356 314.095 324.927 274.557 309.38 247.254C293.778 219.857 337.963 183.927 319.332 139.072Z" fill="#67A0DF"/>
<path d="M319.681 315.055C319.681 315.055 319.581 315.052 319.4 315.05C318.168 315.032 313.14 314.957 309.479 314.892C307.555 314.859 306.006 314.828 305.583 314.81C304.234 314.748 304.211 314.064 304.211 314.064C301.359 300.071 294.624 282.041 286.569 263.611C281.958 253.062 276.913 242.379 271.914 232.255C289.814 215.874 323.794 193.801 323.987 160.937C323.993 161.422 323.999 161.907 323.999 162.392C324.011 190.096 305.988 213.885 305.976 233.873C305.976 238.54 306.956 243 309.379 247.255C319.171 264.452 320.984 286.504 320.978 300.471C320.978 308.678 320.35 314.095 320.35 314.095C320.18 314.977 319.681 315.055 319.681 315.055ZM320.174 141.204C319.617 139.759 318.995 138.299 318.302 136.818C318.66 137.533 319.001 138.281 319.329 139.073C319.628 139.785 319.91 140.497 320.174 141.204Z" fill="#5472B4"/>
<path d="M233.907 143.516C233.907 143.516 230.526 136.148 227.82 131.496C228.006 131.277 228.187 131.056 228.368 130.833C230.399 134.438 232.435 138.568 234.264 143.18C234.099 143.348 233.982 143.461 233.907 143.516Z" fill="#BCADCD"/>
<path d="M234.269 143.174C232.437 138.561 230.404 134.431 228.371 130.827C242.477 113.529 243.312 98.473 243.317 98.3445C243.838 91.2856 240.823 85.5691 236.655 82.8086C236.66 82.8086 236.665 82.8086 236.676 82.8086C237.153 82.8086 243.876 83.1594 247.665 102.745C251.367 121.913 236.985 140.341 234.269 143.174ZM236.627 82.788C236.617 82.7799 236.606 82.775 236.595 82.7674C236.606 82.7723 236.617 82.7799 236.627 82.788Z" fill="#530949"/>
<path d="M318.298 136.822C301.521 149.264 265.543 162.968 241.131 174.44C240.285 185.314 232.764 275.917 221.359 313.823C221.359 313.823 221.431 316.204 235.723 315.105C236.677 315.03 237.506 314.782 238.178 314.099C239.907 312.331 259.528 267.806 261.185 247.279C262.842 226.749 346.113 196.492 318.298 136.822Z" fill="#67A0DF"/>
<path d="M212.696 138.017C213.284 135.006 210.669 128.895 211.438 125.935C194.927 135.401 183.515 134.067 172.956 132.369C159.101 130.143 170.45 136.544 170.45 136.544C186.25 147.111 200.448 147.477 215.004 145.447C215.14 141.729 211.989 141.659 212.696 138.017Z" fill="#EDCFA5"/>
<path d="M202.463 146.418C202.443 146.418 202.432 146.418 202.417 146.418C202.432 146.418 202.448 146.418 202.463 146.418ZM197.926 131.795C197.926 131.793 197.926 131.793 197.926 131.79C199.139 131.445 200.374 131.042 201.644 130.572C201.644 130.575 201.644 130.575 201.644 130.575C200.374 131.045 199.134 131.45 197.926 131.795Z" fill="#CAC4DE"/>
<path d="M202.463 146.418C202.448 146.418 202.432 146.418 202.417 146.418C202.391 146.418 202.36 146.418 202.334 146.418C202.313 146.418 202.292 146.418 202.267 146.418C202.251 146.418 202.23 146.418 202.21 146.418C202.184 146.415 202.158 146.415 202.132 146.415C202.116 146.415 202.106 146.415 202.09 146.415C202.059 146.415 202.033 146.415 202.002 146.415C201.992 146.415 201.976 146.415 201.966 146.415C201.935 146.415 201.904 146.415 201.873 146.415C201.862 146.415 201.852 146.415 201.847 146.415C201.811 146.413 201.78 146.413 201.743 146.413C201.738 146.413 201.733 146.413 201.723 146.413C201.686 146.413 201.65 146.413 201.614 146.413C201.614 146.413 201.614 146.413 201.609 146.413C201.541 146.41 201.474 146.41 201.407 146.408C199.511 141.72 198.268 136.775 197.926 131.796C199.133 131.45 200.376 131.045 201.645 130.575C202.427 133.681 207.659 142.517 212.051 145.822C208.85 146.191 205.659 146.418 202.463 146.418Z" fill="#D0A890"/>
<path d="M217.503 99.1608C215.733 110.406 213.377 118.589 203.945 128.553C208.228 133.225 212.618 137.935 217.299 142.189C242.165 120.63 243.322 98.3483 243.322 98.3483C244.683 79.9361 221.985 70.6614 217.503 99.1608Z" fill="#650D5B"/>
<path d="M205.936 123.068C205.662 123.39 201.617 127.412 201.543 129.878C201.475 132.342 208.975 145.177 213.963 146.89C218.956 148.605 226.235 139.192 223.622 137.068C221.015 134.945 216.212 130.843 212.614 126.986C209.275 123.411 207.527 121.208 205.936 123.068Z" fill="#650D5B"/>
<path d="M223.7 137.137C223.695 137.134 223.695 137.134 223.695 137.132C223.695 137.134 223.695 137.137 223.7 137.137Z" fill="#ECF3FF"/>
<path d="M221.583 143.484C221.552 142.788 222.503 141.173 222.303 139.439C221.988 136.705 211.961 131.527 208.091 125.72C207.155 124.316 206.219 123.756 205.336 123.71C205.646 123.372 205.872 123.14 205.925 123.073C206.324 122.609 206.729 122.4 207.171 122.4C207.613 122.4 208.091 122.614 208.617 122.998C208.606 123.013 208.596 123.032 208.58 123.047C208.985 123.258 209.369 123.62 209.653 123.974L209.674 124.022C209.695 124.001 209.711 123.978 209.732 123.958C210.547 124.747 211.488 125.792 212.608 126.992C216.204 130.848 221.005 134.95 223.618 137.074C223.623 137.079 223.629 137.081 223.634 137.086C223.634 137.086 223.634 137.089 223.639 137.089C223.639 137.092 223.644 137.094 223.65 137.1C223.65 137.1 223.65 137.102 223.655 137.102C223.655 137.104 223.66 137.107 223.66 137.11C223.665 137.112 223.665 137.115 223.665 137.115C223.671 137.117 223.676 137.12 223.676 137.123C223.676 137.125 223.676 137.128 223.681 137.128C223.681 137.13 223.686 137.133 223.686 137.135C223.692 137.138 223.692 137.138 223.692 137.141C223.697 137.143 223.697 137.146 223.702 137.151L223.707 137.153C223.713 137.156 223.713 137.161 223.718 137.164V137.166C223.723 137.172 223.728 137.174 223.734 137.18C223.749 137.197 223.77 137.218 223.786 137.236C223.791 137.241 223.797 137.246 223.797 137.252C223.802 137.252 223.802 137.252 223.802 137.252C223.802 137.257 223.807 137.262 223.813 137.265V137.267C223.818 137.269 223.818 137.275 223.823 137.28C223.828 137.285 223.828 137.29 223.834 137.295C224.78 138.508 223.602 141.219 221.583 143.484Z" fill="#8A147E"/>
<path d="M226.358 133.205C228.256 129.947 232.143 123.876 235.756 115.933C241.723 102.812 242.336 90.4416 235.261 84.5777C233.288 82.9423 231.282 82.3514 229.412 82.3514C227.567 82.3514 225.858 82.9267 224.449 83.6336C226.498 81.838 228.766 81.0283 230.998 81.0283C237.686 81.0283 244.062 88.3341 243.32 98.349C243.315 98.4829 242.384 114.935 226.358 133.205Z" fill="#8A147E"/>
<path d="M208.621 123.004C209.906 121.258 210.993 119.539 211.925 117.821C210.998 119.539 209.911 121.258 208.621 123.004Z" fill="#ECF3FF"/>
<path d="M211.914 117.822C211.92 117.817 211.925 117.814 211.925 117.811C211.925 117.814 211.925 117.817 211.92 117.822H211.914Z" fill="#8A147E"/>
<path d="M211.93 117.809C213.094 115.652 214.008 113.492 214.757 111.271V111.274C214.008 113.492 213.094 115.652 211.93 117.809Z" fill="#7C1170"/>
<path d="M214.754 111.275V111.273C216.01 107.545 216.793 103.639 217.481 99.2739C216.793 103.639 216.01 107.545 214.754 111.275ZM217.512 99.0805C217.512 99.0779 217.512 99.0753 217.512 99.0701C217.512 99.0753 217.512 99.0753 217.512 99.0805ZM217.538 98.9204C217.538 98.9178 217.538 98.9126 217.543 98.9074C217.538 98.9126 217.538 98.9152 217.538 98.9204ZM217.564 98.7578C217.564 98.7552 217.564 98.7552 217.564 98.7552V98.7578Z" fill="#8A147E"/>
<path d="M209.734 123.965C209.33 123.581 208.968 123.258 208.621 123.005C209.907 121.259 210.994 119.54 211.923 117.823C211.923 117.817 211.928 117.815 211.928 117.812C213.094 115.656 214.007 113.496 214.753 111.277C216.007 107.547 216.79 103.641 217.483 99.276C217.483 99.2707 217.483 99.266 217.483 99.2581C217.488 99.2271 217.493 99.1962 217.498 99.1652C217.504 99.1369 217.509 99.1111 217.514 99.0828C217.514 99.0775 217.514 99.0775 217.514 99.0723C217.519 99.0492 217.519 99.0261 217.525 99.0025C217.525 98.9998 217.525 98.9977 217.525 98.9951C217.53 98.9715 217.535 98.9458 217.54 98.9227C217.54 98.9174 217.54 98.9148 217.54 98.9096C217.546 98.8865 217.546 98.866 217.551 98.8429C217.551 98.8402 217.551 98.8376 217.551 98.835C217.556 98.8093 217.561 98.7836 217.567 98.7605V98.7579C218.68 92.022 220.832 87.4552 223.431 84.6408C221.362 87.7907 219.792 92.5532 219.157 99.3406C218.275 108.819 215.971 116.032 209.734 123.965Z" fill="#8A147E"/>
<path d="M209.677 124.027L209.651 123.978C209.372 123.625 208.985 123.264 208.582 123.052C208.592 123.037 208.603 123.018 208.618 123.003C208.964 123.254 209.331 123.578 209.729 123.963C209.708 123.983 209.693 124.007 209.677 124.027Z" fill="#A61B9A"/>
<path d="M173.649 138.623C173.649 138.623 168.361 138.634 164.403 135.729C159.254 131.947 152.109 133.704 152.109 127.435C152.109 119.192 166.623 125.154 173.986 132.239C177.065 135.205 175.62 138.866 173.649 138.623Z" fill="#EDCFA5"/>
<path d="M12.9095 183.73C11.2944 183.73 9.96875 185.056 9.96875 186.673V324.807C9.96875 326.425 11.2944 327.748 12.9095 327.748H16.0322C17.6519 327.748 18.9776 326.425 18.9776 324.807V314.826C18.9776 313.208 20.3033 311.882 21.9183 311.882H115.256C116.876 311.882 118.201 313.208 118.201 314.826V324.807C118.201 326.425 119.527 327.748 121.147 327.748H125.637C127.257 327.748 128.582 326.425 128.582 324.807V186.673C128.582 185.056 127.257 183.73 125.637 183.73H12.9095Z" fill="#B1CAE0"/>
<path d="M113.598 220.235C113.598 222.972 111.361 225.211 108.62 225.211H26.8763C24.1445 225.211 21.9023 222.972 21.9023 220.235V198.04C21.9023 195.303 24.1445 193.064 26.8763 193.064H108.62C111.361 193.064 113.598 195.303 113.598 198.04V220.235Z" fill="#9AADC1"/>
<path d="M113.598 258.406C113.598 261.143 111.361 263.383 108.62 263.383H26.8763C24.1445 263.383 21.9023 261.143 21.9023 258.406V236.215C21.9023 233.478 24.1445 231.238 26.8763 231.238H108.62C111.361 231.238 113.598 233.478 113.598 236.215V258.406Z" fill="#9AADC1"/>
<path d="M113.598 297.785C113.598 300.522 111.361 302.762 108.62 302.762H26.8763C24.1445 302.762 21.9023 300.522 21.9023 297.785V275.594C21.9023 272.857 24.1445 270.617 26.8763 270.617H108.62C111.361 270.617 113.598 272.857 113.598 275.594V297.785Z" fill="#9AADC1"/>
<path d="M115.125 217.431C115.125 220.168 112.888 222.41 110.15 222.41H28.4047C25.6673 222.41 23.4297 220.168 23.4297 217.431V195.24C23.4297 192.503 25.6673 190.263 28.4047 190.263H110.15C112.888 190.263 115.125 192.503 115.125 195.24V217.431Z" fill="#B9CEEA"/>
<path d="M115.125 255.604C115.125 258.341 112.888 260.58 110.15 260.58H28.4047C25.6673 260.58 23.4297 258.341 23.4297 255.604V233.412C23.4297 230.675 25.6673 228.435 28.4047 228.435H110.15C112.888 228.435 115.125 230.675 115.125 233.412V255.604Z" fill="#B9CEEA"/>
<path d="M115.125 294.985C115.125 297.722 112.888 299.961 110.15 299.961H28.4047C25.6673 299.961 23.4297 297.722 23.4297 294.985V272.793C23.4297 270.056 25.6673 267.817 28.4047 267.817H110.15C112.888 267.817 115.125 270.056 115.125 272.793V294.985Z" fill="#B9CEEA"/>
<path d="M76.5147 279.221H57.5078V273.623H76.5147V279.221Z" fill="#99AEC1"/>
<path d="M76.5147 238.48H57.5078V232.88H76.5147V238.48Z" fill="#99AEC1"/>
<path d="M76.519 201.156H57.5078V195.558H76.519V201.156Z" fill="#99AEC1"/>
<path d="M9.96875 206.336V187.464H128.582V198.352L115.125 201.15V195.24C115.125 192.503 112.885 190.264 110.149 190.264H28.4019C25.956 190.264 23.9021 192.057 23.5007 194.397C22.5205 195.307 21.8997 196.605 21.8997 198.039V204.22L9.96875 206.336Z" fill="#9CB7D0"/>
<path d="M21.8984 204.217V198.035C21.8984 196.601 22.514 195.304 23.4956 194.393C23.4473 194.666 23.4232 194.95 23.4232 195.236V203.946L21.8984 204.217Z" fill="#879CB3"/>
<path d="M23.4297 203.957V195.248C23.4297 194.961 23.4526 194.677 23.4985 194.404C23.9066 192.064 25.9562 190.271 28.4047 190.271H110.15H108.623C111.342 190.271 113.571 192.549 113.598 195.345L76.5221 197.734V195.56H57.5117V198.96L23.4297 201.158V203.957Z" fill="#A3BAD9"/>
<path d="M57.5078 198.955V195.555H76.519V197.729L57.5078 198.955Z" fill="#879DB3"/>
<path d="M139.351 183.539C139.351 185.698 137.585 187.465 135.427 187.465H3.92441C1.76576 187.465 0 185.698 0 183.539V177.705C0 175.546 1.76576 173.782 3.92441 173.782H135.427C137.585 173.782 139.351 175.546 139.351 177.705V183.539Z" fill="#B1CAE0"/>
<path d="M261.191 247.217C261.191 247.212 261.191 247.206 261.191 247.201C261.191 247.204 261.191 247.212 261.191 247.217ZM261.202 247.101C261.202 247.093 261.202 247.083 261.202 247.075C261.202 247.086 261.202 247.093 261.202 247.101ZM261.213 246.984C261.219 246.977 261.219 246.964 261.219 246.959C261.219 246.967 261.219 246.975 261.213 246.984ZM261.235 246.806C261.241 246.799 261.241 246.789 261.241 246.783C261.241 246.791 261.241 246.799 261.235 246.806ZM261.246 246.747C261.246 246.737 261.246 246.732 261.252 246.722C261.246 246.729 261.246 246.739 261.246 246.747ZM261.257 246.688C261.257 246.68 261.257 246.67 261.257 246.665C261.257 246.672 261.257 246.68 261.257 246.688ZM261.263 246.628C261.268 246.618 261.268 246.613 261.268 246.603C261.268 246.613 261.268 246.621 261.263 246.628ZM261.274 246.567C261.274 246.559 261.274 246.551 261.279 246.546C261.274 246.554 261.274 246.559 261.274 246.567ZM261.334 246.247C261.334 246.242 261.334 246.239 261.34 246.231C261.334 246.237 261.334 246.242 261.334 246.247ZM261.351 246.187C261.351 246.182 261.351 246.175 261.351 246.169C261.351 246.177 261.351 246.182 261.351 246.187ZM261.356 246.128C261.362 246.123 261.362 246.115 261.362 246.108C261.362 246.115 261.362 246.12 261.356 246.128ZM261.389 246.009C261.389 246.004 261.389 245.994 261.395 245.986C261.389 245.994 261.389 246.002 261.389 246.009ZM261.433 245.829C261.433 245.821 261.439 245.813 261.439 245.808C261.433 245.816 261.433 245.821 261.433 245.829ZM261.444 245.767C261.45 245.762 261.45 245.754 261.45 245.749C261.45 245.754 261.45 245.759 261.444 245.767ZM261.466 245.708C261.466 245.702 261.466 245.692 261.472 245.687C261.466 245.695 261.466 245.7 261.466 245.708ZM261.483 245.643C261.483 245.638 261.483 245.633 261.483 245.628C261.483 245.635 261.483 245.638 261.483 245.643ZM261.576 245.323V245.321C261.576 245.321 261.576 245.321 261.576 245.323ZM261.631 245.143C261.636 245.135 261.636 245.132 261.636 245.124C261.636 245.13 261.636 245.138 261.631 245.143ZM261.653 245.081C261.653 245.076 261.653 245.071 261.658 245.062C261.658 245.068 261.653 245.076 261.653 245.081ZM261.697 244.96C261.697 244.952 261.697 244.946 261.702 244.942C261.697 244.946 261.697 244.954 261.697 244.96ZM261.741 244.833C261.741 244.831 261.741 244.823 261.741 244.82C261.741 244.825 261.741 244.828 261.741 244.833ZM261.763 244.771C261.763 244.769 261.768 244.761 261.768 244.758C261.763 244.764 261.763 244.766 261.763 244.771ZM261.785 244.706C261.785 244.704 261.785 244.702 261.79 244.697C261.79 244.699 261.785 244.704 261.785 244.706ZM261.812 244.642C261.812 244.642 261.812 244.637 261.812 244.634C261.812 244.637 261.812 244.639 261.812 244.642ZM261.911 244.387V244.384C261.911 244.384 261.911 244.384 261.911 244.387ZM261.96 244.263C261.966 244.26 261.966 244.255 261.966 244.25C261.966 244.255 261.966 244.258 261.96 244.263ZM261.988 244.201C261.993 244.198 261.993 244.191 261.993 244.188C261.993 244.193 261.993 244.196 261.988 244.201ZM262.125 243.889C262.125 243.886 262.131 243.881 262.131 243.876C262.131 243.881 262.125 243.884 262.125 243.889ZM262.186 243.763C262.186 243.757 262.186 243.755 262.191 243.752C262.191 243.755 262.186 243.76 262.186 243.763ZM262.438 243.246C262.438 243.244 262.438 243.244 262.438 243.241C262.438 243.241 262.438 243.244 262.438 243.246ZM262.471 243.182C262.471 243.179 262.471 243.179 262.471 243.174C262.471 243.177 262.471 243.182 262.471 243.182ZM262.504 243.12C262.504 243.117 262.504 243.112 262.51 243.11C262.504 243.115 262.504 243.117 262.504 243.12ZM262.609 242.927C262.609 242.927 262.609 242.924 262.609 242.921V242.927ZM263.015 242.212V242.209C263.015 242.212 263.015 242.212 263.015 242.212ZM263.092 242.086C263.098 242.083 263.098 242.083 263.098 242.08C263.098 242.08 263.098 242.083 263.092 242.086Z" fill="#EBF6FF"/>
<path d="M229.088 315.395C227.889 315.395 226.876 315.356 226.023 315.291C226.881 315.356 227.889 315.395 229.088 315.395Z" fill="#5178A9"/>
<path d="M229.092 315.395C227.892 315.395 226.883 315.356 226.028 315.292H226.022C224.484 315.175 223.456 314.974 222.761 314.757C222.761 314.757 222.762 314.755 222.756 314.755C222.756 314.755 222.756 314.753 222.75 314.753L222.744 314.75C222.738 314.75 222.738 314.747 222.732 314.747C222.138 314.556 221.799 314.352 221.609 314.187C222.738 314.371 224.311 314.5 226.509 314.5C228.278 314.5 230.458 314.417 233.136 314.21C234.086 314.136 234.918 313.888 235.589 313.204C237.317 311.437 256.884 266.91 258.595 246.384C260.768 220.323 335.713 199.298 322.262 147.658C334.846 195.686 274.771 223.037 263.102 242.084C263.096 242.087 263.096 242.087 263.096 242.089C263.084 242.107 263.072 242.128 263.06 242.148C263.06 242.148 263.06 242.151 263.055 242.154C263.043 242.172 263.037 242.195 263.019 242.213V242.216C262.888 242.432 262.764 242.647 262.645 242.86C262.645 242.863 262.645 242.863 262.645 242.866C262.633 242.887 262.621 242.904 262.615 242.925C262.615 242.928 262.609 242.931 262.609 242.931C262.603 242.951 262.591 242.969 262.579 242.987C262.579 242.989 262.579 242.992 262.574 242.995C262.562 243.015 262.556 243.033 262.544 243.052C262.544 243.054 262.544 243.056 262.544 243.059C262.532 243.077 262.52 243.095 262.514 243.113C262.508 243.116 262.508 243.121 262.508 243.124C262.496 243.142 262.484 243.16 262.478 243.178C262.478 243.183 262.479 243.183 262.473 243.186C262.467 243.206 262.455 243.225 262.443 243.245C262.443 243.248 262.443 243.248 262.443 243.25C262.366 243.397 262.288 243.547 262.223 243.694V243.697C262.211 243.717 262.205 243.735 262.193 243.756C262.193 243.758 262.193 243.761 262.188 243.766C262.182 243.784 262.17 243.799 262.164 243.818C262.164 243.82 262.164 243.825 262.158 243.828C262.152 243.843 262.146 243.862 262.134 243.88C262.134 243.885 262.134 243.89 262.128 243.893C262.122 243.908 262.11 243.926 262.11 243.941C262.104 243.947 262.104 243.952 262.098 243.957C262.093 243.97 262.087 243.988 262.081 244.004C262.075 244.008 262.075 244.014 262.075 244.019C262.069 244.035 262.057 244.05 262.051 244.065C262.051 244.071 262.051 244.076 262.045 244.081C262.039 244.096 262.033 244.112 262.027 244.127C262.021 244.133 262.021 244.138 262.015 244.143C262.015 244.161 262.003 244.176 261.997 244.192C261.997 244.194 261.992 244.202 261.992 244.205C261.986 244.22 261.974 244.238 261.974 244.254C261.968 244.259 261.968 244.264 261.968 244.267C261.956 244.285 261.95 244.305 261.944 244.323C261.938 244.326 261.938 244.326 261.938 244.326C261.932 244.346 261.926 244.367 261.914 244.388V244.39C261.879 244.473 261.849 244.555 261.819 244.638C261.819 244.641 261.813 244.646 261.813 244.646C261.807 244.664 261.801 244.682 261.796 244.7C261.79 244.705 261.79 244.708 261.79 244.71C261.784 244.728 261.778 244.744 261.772 244.762C261.772 244.764 261.766 244.772 261.766 244.775C261.76 244.791 261.754 244.808 261.748 244.824C261.748 244.827 261.742 244.834 261.742 244.837C261.736 244.852 261.73 244.868 261.724 244.883C261.724 244.888 261.718 244.893 261.718 244.899C261.718 244.914 261.712 244.929 261.706 244.945C261.701 244.95 261.701 244.956 261.701 244.963C261.695 244.976 261.689 244.991 261.683 245.004C261.683 245.012 261.677 245.017 261.677 245.025C261.671 245.041 261.665 245.051 261.659 245.066C261.659 245.074 261.659 245.079 261.659 245.084C261.653 245.1 261.647 245.113 261.641 245.128C261.641 245.136 261.641 245.139 261.635 245.146C261.629 245.162 261.623 245.175 261.617 245.19C261.617 245.196 261.617 245.2 261.617 245.206C261.611 245.221 261.606 245.239 261.6 245.255C261.6 245.26 261.6 245.263 261.6 245.265C261.594 245.286 261.582 245.304 261.582 245.324V245.327C261.552 245.409 261.528 245.489 261.505 245.572C261.505 245.574 261.505 245.577 261.505 245.58C261.499 245.598 261.493 245.616 261.487 245.631C261.487 245.637 261.487 245.642 261.481 245.647C261.481 245.662 261.475 245.678 261.475 245.691C261.469 245.696 261.469 245.706 261.469 245.711C261.463 245.724 261.463 245.737 261.457 245.753C261.457 245.758 261.451 245.766 261.451 245.77C261.445 245.783 261.445 245.799 261.439 245.812C261.439 245.817 261.439 245.825 261.433 245.833C261.433 245.845 261.427 245.858 261.421 245.871C261.421 245.879 261.421 245.887 261.421 245.895C261.416 245.905 261.415 245.918 261.41 245.931C261.41 245.938 261.404 245.946 261.404 245.954C261.404 245.967 261.398 245.977 261.398 245.99C261.392 245.998 261.392 246.008 261.392 246.013C261.386 246.026 261.386 246.039 261.386 246.052C261.38 246.06 261.38 246.065 261.38 246.073C261.374 246.085 261.368 246.098 261.368 246.111C261.368 246.119 261.362 246.127 261.362 246.132C261.362 246.145 261.356 246.16 261.356 246.173C261.356 246.178 261.35 246.186 261.35 246.191C261.344 246.207 261.344 246.222 261.344 246.235C261.338 246.243 261.338 246.245 261.338 246.25C261.332 246.269 261.332 246.286 261.326 246.305C261.326 246.307 261.326 246.31 261.326 246.31C261.321 246.33 261.32 246.351 261.315 246.372C261.309 246.392 261.303 246.411 261.303 246.431C261.303 246.434 261.303 246.441 261.303 246.444C261.297 246.459 261.297 246.475 261.291 246.491C261.291 246.495 261.291 246.501 261.291 246.509C261.285 246.522 261.285 246.534 261.285 246.55C261.279 246.555 261.279 246.563 261.279 246.57C261.279 246.581 261.273 246.596 261.273 246.607C261.267 246.617 261.267 246.622 261.267 246.632C261.267 246.645 261.267 246.655 261.261 246.668C261.261 246.674 261.261 246.684 261.261 246.691C261.255 246.702 261.255 246.715 261.255 246.725C261.249 246.735 261.249 246.741 261.249 246.751C261.249 246.762 261.243 246.774 261.243 246.787C261.243 246.792 261.243 246.803 261.243 246.81C261.237 246.821 261.237 246.831 261.237 246.844C261.237 246.852 261.231 246.862 261.231 246.87C261.231 246.88 261.231 246.893 261.225 246.903C261.225 246.911 261.225 246.919 261.225 246.929C261.225 246.939 261.225 246.95 261.22 246.963C261.22 246.968 261.22 246.981 261.22 246.988C261.22 246.998 261.214 247.009 261.214 247.022C261.214 247.029 261.214 247.037 261.214 247.045C261.208 247.055 261.208 247.069 261.208 247.079C261.208 247.086 261.208 247.096 261.208 247.104C261.208 247.117 261.202 247.127 261.202 247.143C261.202 247.148 261.202 247.156 261.202 247.161C261.196 247.177 261.196 247.19 261.196 247.205C261.196 247.21 261.196 247.215 261.196 247.221C261.19 247.241 261.19 247.259 261.19 247.28C261.148 247.801 261.095 248.338 261.03 248.89C258.547 270.042 239.87 312.377 238.184 314.1C237.661 314.634 237.038 314.902 236.337 315.029C236.141 315.064 235.939 315.088 235.731 315.106C233.047 315.312 230.868 315.395 229.092 315.395Z" fill="#86BEED"/>
<path d="M237.464 212.727C237.319 212.727 237.619 208.016 238.666 201.987C238.409 204.613 238.132 207.368 237.838 210.224C237.838 210.25 237.832 210.276 237.832 210.299C237.651 211.989 237.522 212.727 237.464 212.727Z" fill="#EBF6FF"/>
<path d="M237.836 210.221C238.129 207.365 238.405 204.61 238.665 201.983C239.911 194.824 242.198 185.808 246.028 180.622C248.954 176.665 250.189 175.192 250.439 175.192C250.888 175.192 247.941 180.233 246.028 183.897C246.028 183.897 239.033 199.21 237.836 210.221Z" fill="#86BEED"/>
<path d="M248.595 192.24C248.112 192.24 249.957 185.143 250.693 183.729C250.693 183.729 255.516 174.85 260.097 174.081C260.234 174.058 260.349 174.047 260.454 174.047C263.024 174.047 253.028 181.66 249.957 189.454C249.166 191.466 248.749 192.24 248.595 192.24Z" fill="#86BEED"/>
<path d="M240.82 171.6C240.978 173.729 240.721 175.192 240.89 177.482C248.692 174.028 301.8 150.534 319.636 139.851C319.116 138.2 317.247 134.875 317.159 134.673C301.777 144.193 252.196 166.395 240.809 171.459C240.814 171.508 240.82 171.551 240.82 171.6Z" fill="#2D527F"/>
<path d="M309.66 121.752C309.302 121.336 308.937 120.922 308.568 120.508C296.351 104.72 277.097 91.1322 259.986 82.9617C277.663 91.2663 297.675 105.249 309.66 121.752ZM223.562 77.2343C225.261 76.1976 227.14 75.3898 229.226 75.0315C228.602 75.1476 228.018 75.3025 227.486 75.4984C226.076 76.0168 224.77 76.5975 223.562 77.2343Z" fill="#ECF3FF"/>
<path d="M308.567 120.51C287.361 96.6621 249.594 76.3255 231.643 76.3255C230.535 76.3255 229.508 76.4029 228.561 76.5604C225.433 77.084 222.472 78.8721 219.961 80.729C219.978 80.4427 219.99 80.1645 219.996 79.8984C221.092 78.9391 222.275 78.0208 223.563 77.2363C224.769 76.5991 226.073 76.0184 227.482 75.5001C228.019 75.3039 228.596 75.1492 229.225 75.0332C229.3 75.0205 229.375 75.0072 229.444 74.9968C230.27 74.8681 231.17 74.8035 232.14 74.8035C238.835 74.8035 248.96 77.7777 259.984 82.9633C277.092 91.1336 296.354 104.722 308.567 120.51Z" fill="#8A147E"/>
<path d="M172.518 54.8823C174.742 46.4766 195.102 41.5149 201.33 54.5891C204.497 61.2493 206.041 66.5198 206.622 70.6478C207.585 72.0484 211.552 76.9348 219.733 76.8081C219.733 76.8081 220.853 81.8646 218.476 85.8376C216.1 89.808 211.803 88.5902 211.803 88.5902C211.803 88.5902 206.758 82.6282 198.111 86.6013L198.117 86.5986C194.819 88.363 191.224 89.6375 189.721 88.0715C188.586 86.8876 185.461 82.9611 182.169 78.0982C181.536 77.8659 180.829 78.3275 180.175 78.7923C179.097 79.5632 178.175 80.3347 178.013 77.8863C177.814 74.8836 176.762 70.2966 176.118 68.2329C176.077 68.1015 176.04 67.9827 175.998 67.8639C173.392 62.7996 171.706 57.9546 172.518 54.8823Z" fill="#EDCFA5"/>
<path d="M219.418 76.8233C216.737 76.8233 214.52 76.2818 212.717 75.5103C212.717 75.5077 212.722 75.5076 212.722 75.505C215.012 76.5138 217.913 76.8233 219.544 76.8233C219.612 76.8233 219.674 76.8233 219.732 76.8206C219.627 76.8233 219.523 76.8233 219.418 76.8233Z" fill="#CAC4DE"/>
<path d="M213.333 88.7734C213.202 88.7734 213.077 88.7708 212.962 88.763C212.266 88.7269 211.806 88.5977 211.806 88.5977V88.5951C211.806 88.5925 211.806 88.5925 211.806 88.5925C211.806 88.5925 211.806 88.5925 211.801 88.5904C211.801 88.5904 211.801 88.5904 211.801 88.5878C211.733 88.5078 211.236 87.9556 210.363 87.3261C210.358 87.3235 210.358 87.3235 210.353 87.3209C210.348 87.3157 210.342 87.3105 210.332 87.3052C210.327 87.3026 210.327 87.3005 210.321 87.2979C210.316 87.2927 210.311 87.29 210.306 87.2848C210.3 87.2822 210.295 87.2796 210.29 87.2744C210.285 87.2718 210.28 87.2692 210.274 87.2639C210.269 87.2618 210.264 87.2566 210.259 87.254C210.253 87.2514 210.253 87.2488 210.248 87.2488C209.903 87.0035 209.495 86.7484 209.035 86.5058C209.187 86.3379 212.167 79.2228 212.721 75.5052C214.52 76.277 216.737 76.8186 219.419 76.8186C219.524 76.8186 219.628 76.8187 219.733 76.816C219.733 76.816 220 78.0024 220 79.6771C220 81.4596 219.702 83.7968 218.478 85.8454C217.004 88.3065 214.797 88.7734 213.333 88.7734Z" fill="#D0A890"/>
<path d="M187.302 62.1764C187.726 62.021 189.633 68.659 191.358 68.1534C193.078 67.6452 192.27 63.9999 192.068 61.1662C191.866 58.3274 195.507 57.6177 197.03 60.2545C198.543 62.8861 203.651 73.1534 207.883 72.1702C212.115 71.1901 207.966 66.835 205.94 62.1764C203.915 57.5193 202.19 51.6449 201.18 49.521C200.164 47.3919 195.507 43.8485 190.343 43.9521C185.178 44.0506 169.077 47.5576 167.741 53.5201C166.078 60.9279 181.624 64.3055 187.302 62.1764Z" fill="#2D527F"/>
<path d="M217.071 76.6691C217.071 76.6691 217.023 79.4474 213.84 83.5003C210.658 87.5533 209.221 87.285 209.469 88.3918C209.716 89.5008 211.068 92.4548 213.84 91.7172C216.26 91.0696 222.721 83.6681 224.173 78.9834C225.246 75.4981 218.302 72.905 217.071 76.6691Z" fill="#7A0D6C"/>
<path d="M126.591 164.977C127.034 164.448 127.319 163.775 127.319 163.031V162.263C127.319 160.594 125.951 159.226 124.28 159.226H111.901C111.532 159.226 111.182 159.301 110.855 159.425C111.332 158.858 112.004 158.46 112.769 158.357C112.9 158.341 113.031 158.331 113.166 158.331H125.545C127.165 158.331 128.495 159.616 128.579 161.212C128.579 161.264 128.584 161.318 128.584 161.37V162.136C128.584 162.149 128.584 162.16 128.584 162.172C128.584 162.175 128.584 162.18 128.584 162.183C128.579 162.19 128.579 162.198 128.579 162.209C128.579 162.211 128.579 162.216 128.579 162.221C128.579 162.229 128.579 162.237 128.579 162.242C128.579 162.247 128.579 162.252 128.579 162.258C128.579 162.265 128.579 162.276 128.579 162.283C128.579 162.294 128.579 162.301 128.579 162.309C128.579 162.314 128.579 162.317 128.574 162.322C128.574 162.33 128.574 162.337 128.574 162.345C128.574 162.348 128.574 162.35 128.574 162.353C128.49 163.56 127.683 164.571 126.591 164.977Z" fill="#B1C4D4"/>
<path d="M125.054 118.723C125.054 121.359 122.922 123.492 120.287 123.492C117.653 123.492 115.516 121.359 115.516 118.723C115.516 116.089 117.653 113.956 120.287 113.956C122.922 113.956 125.054 116.089 125.054 118.723Z" fill="#99AEC1"/>
<path d="M104.28 144.906C103.778 144.906 102.616 143.209 101.599 128.982C100.302 110.698 102.756 101.517 93.7339 101.517C93.535 101.517 93.3316 101.526 93.1236 101.531C92.1744 101.571 91.0172 101.589 89.7154 101.589C77.669 101.589 53.2824 100.034 67.0194 99.8581H104.528V144.741C104.528 144.741 104.433 144.906 104.28 144.906Z" fill="#C4D8E9"/>
<path d="M112.802 259.789C113.297 259.018 113.59 258.104 113.59 257.121V234.93C113.59 232.193 111.353 229.951 108.615 229.951H26.8743C25.893 229.951 24.9852 230.248 24.2148 230.74C25.0677 229.414 26.5212 228.506 28.1948 228.439C28.2177 228.437 28.2453 228.437 28.2728 228.437C28.2774 228.437 28.2773 228.434 28.2773 228.434C28.2865 228.434 28.3003 228.434 28.3094 228.434C28.314 228.434 28.3186 228.434 28.3232 228.434C28.3278 228.434 28.3415 228.434 28.3461 228.434C28.3507 228.434 28.3553 228.434 28.3599 228.434C28.3691 228.434 28.3828 228.434 28.3966 228.434H110.142C112.879 228.434 115.117 230.673 115.117 233.411V255.602C115.117 255.615 115.117 255.628 115.117 255.641C115.117 255.643 115.117 255.649 115.117 255.651C115.117 255.661 115.117 255.669 115.117 255.679C115.117 255.682 115.117 255.685 115.117 255.69C115.117 255.7 115.117 255.713 115.112 255.726C115.071 257.434 114.154 258.925 112.802 259.789Z" fill="#DAE8F7"/>
<path d="M112.811 299.172C113.306 298.401 113.604 297.487 113.604 296.507V274.315C113.604 271.578 111.362 269.339 108.624 269.339H26.8834C25.9022 269.339 24.9897 269.636 24.2148 270.131C25.0677 268.8 26.5258 267.891 28.1994 267.824C28.2223 267.822 28.2498 267.822 28.2773 267.822C28.2819 267.822 28.2819 267.822 28.2819 267.822C28.2911 267.819 28.3048 267.819 28.314 267.819C28.3186 267.819 28.3232 267.819 28.3232 267.819C28.3324 267.819 28.3461 267.819 28.3507 267.819C28.3553 267.819 28.3599 267.819 28.3645 267.819C28.3736 267.819 28.3874 267.819 28.4012 267.819H110.147C112.884 267.819 115.122 270.059 115.122 272.796V294.987C115.122 295 115.122 295.013 115.122 295.026C115.122 295.029 115.122 295.034 115.122 295.036C115.122 295.044 115.122 295.054 115.122 295.065C115.122 295.068 115.122 295.07 115.122 295.075C115.122 295.086 115.122 295.098 115.117 295.109C115.117 295.111 115.117 295.111 115.117 295.111C115.076 296.816 114.163 298.308 112.811 299.172Z" fill="#DAE8F7"/>
<path d="M111.98 222.045C112.966 221.106 113.594 219.772 113.594 218.286V195.396C113.594 195.375 113.594 195.357 113.594 195.336L115.121 195.238V217.429C115.121 217.445 115.121 217.461 115.121 217.473C115.121 217.478 115.121 217.481 115.121 217.484C115.121 217.515 115.121 217.546 115.117 217.577C115.062 219.602 113.769 221.328 111.98 222.045Z" fill="#DAE8F7"/>
<path d="M113.592 195.34C113.565 192.543 111.336 190.265 108.617 190.265H110.144C112.881 190.265 115.119 192.505 115.119 195.242L113.592 195.34Z" fill="#CEDEEF"/>
<path d="M136.804 187.199C137.192 186.588 137.429 185.868 137.429 185.092V179.256C137.429 177.099 135.663 175.332 133.504 175.332H2.00173C1.51888 175.332 1.05496 175.433 0.628906 175.596C1.30112 174.551 2.44673 173.836 3.76274 173.782C3.78168 173.782 3.80537 173.779 3.82904 173.779C3.8385 173.779 3.84795 173.779 3.85742 173.779H3.86218C3.87165 173.779 3.88112 173.779 3.88585 173.779C3.89059 173.779 3.89055 173.779 3.89528 173.779C3.90475 173.779 3.91425 173.779 3.92371 173.779H135.426C137.585 173.779 139.351 175.544 139.351 177.703V183.536C139.351 183.549 139.351 183.562 139.351 183.572C139.351 183.575 139.351 183.577 139.351 183.58C139.351 183.593 139.351 183.603 139.351 183.616C139.351 183.629 139.351 183.639 139.346 183.652C139.346 183.655 139.346 183.655 139.346 183.657C139.298 185.277 138.248 186.65 136.804 187.199Z" fill="#D6E6F2"/>
<path d="M90.3772 158.451C90.2617 158.451 90.1461 158.444 90.0216 158.431C89.7904 158.402 88.4477 158.371 86.3137 158.335H90.5951C91.302 158.335 91.9466 157.984 92.4045 157.419C92.2356 157.664 91.6043 158.451 90.3772 158.451Z" fill="#D6E6F2"/>
<path d="M90.595 158.334H86.3134C86.3001 158.334 86.2867 158.334 86.2734 158.334H24.4277C23.0583 158.334 21.9379 157.018 21.9023 155.393C21.9023 155.368 21.9023 155.342 21.9023 155.316V113.619C21.9023 113.606 21.9023 113.597 21.9023 113.584C21.9023 113.579 21.9023 113.575 21.9023 113.57C21.9023 113.566 21.9023 113.561 21.9023 113.557C21.9112 113.01 22.0491 112.508 22.2714 112.068L23.1695 153.67C23.1695 154.506 23.4585 155.267 23.9209 155.814C23.8809 155.757 23.8275 155.697 23.8008 155.644C23.8008 155.644 24.4767 156.311 25.2592 156.311C25.5126 156.311 25.7749 156.242 26.0328 156.056C27.0421 155.318 30.7368 153.149 30.9591 153.017C31.1636 153.102 31.386 153.151 31.6127 153.151H47.3031H68.6845H83.4101C83.4101 153.151 83.4812 153.162 83.5924 153.162C83.9214 153.162 84.5972 153.066 84.9173 152.313C84.9262 152.3 84.9351 152.287 84.944 152.277L92.4491 157.346C92.4491 157.346 92.4357 157.375 92.4046 157.419C91.9422 157.983 91.302 158.334 90.595 158.334Z" fill="#DAEDF5"/>
<path d="M83.4104 153.152H68.6833C68.6877 153.14 68.6921 153.127 68.6965 153.111L83.4104 153.152ZM47.3033 153.152H31.6127C31.3839 153.152 31.1638 153.104 30.957 153.018C30.9658 153.013 30.9703 153.011 30.9703 153.011L47.3826 153.054C47.3562 153.088 47.3297 153.119 47.3033 153.152ZM84.9152 152.314C84.924 152.301 84.9284 152.286 84.9328 152.273L84.9416 152.278C84.9328 152.288 84.924 152.301 84.9152 152.314Z" fill="#B6C6D3"/>
<path d="M68.6784 153.152H47.2969C47.3227 153.118 47.3528 153.088 47.3786 153.053L68.6913 153.109C68.687 153.127 68.6827 153.139 68.6784 153.152Z" fill="#C8D6E1"/>
</svg>
