<svg width="285" height="367" viewBox="0 0 285 367" fill="none" xmlns="http://www.w3.org/2000/svg">
<path d="M242.684 361.02C242.684 364.321 240.009 366.997 236.707 366.997H97.2894C93.9886 366.997 91.3125 364.321 91.3125 361.02C91.3125 357.719 93.9883 355.043 97.2894 355.043H236.707C240.008 355.043 242.684 357.719 242.684 361.02Z" fill="#B0E4FC"/>
<path d="M63.5987 164.844C63.3734 164.454 62.9566 164.213 62.5054 164.213H24.575C24.1241 164.213 23.7073 164.454 23.4817 164.844C23.2561 165.235 23.2561 165.716 23.4817 166.106L43.54 200.849L63.5987 166.106C63.8243 165.716 63.8243 165.235 63.5987 164.844Z" fill="#535B60"/>
<path d="M85.1569 233.069C87.8845 244.68 85.3487 255.192 77.6698 262.801C70.1306 270.41 57.4483 275.116 43.1096 275.116C28.7708 275.116 16.0885 270.41 8.54928 262.801C0.870429 255.192 -1.66541 244.68 1.06226 233.069C3.78993 221.458 10.6666 210.946 18.2059 203.337C25.8847 195.728 34.2261 191.021 43.1096 191.021C51.993 191.021 60.3341 195.728 68.0132 203.337C75.5521 210.946 82.4292 221.458 85.1569 233.069Z" fill="#535B60"/>
<path d="M54.561 226.783H58.4024C58.8848 226.783 59.2756 226.392 59.2756 225.91V223.291C59.2756 218.394 55.2921 214.41 50.3949 214.41H35.8264C30.9291 214.41 26.9457 218.394 26.9457 223.291V228.081C26.9457 232.977 30.9291 236.961 35.8264 236.961H50.3949C52.2105 236.961 53.6878 238.439 53.6878 240.254V242.849C53.6878 244.664 52.2105 246.142 50.3949 246.142H35.8264C34.0108 246.142 32.5334 244.664 32.5334 242.849V242.624C32.5334 242.142 32.1426 241.751 31.6603 241.751H27.8185C27.3365 241.751 26.9453 242.142 26.9453 242.624V242.849C26.9453 247.745 30.9288 251.73 35.826 251.73H50.3945C55.2918 251.73 59.2753 247.745 59.2753 242.849V240.254C59.2753 235.357 55.2918 231.374 50.3945 231.374H35.826C34.0104 231.374 32.5331 229.896 32.5331 228.081V223.291C32.5331 221.475 34.0104 219.998 35.826 219.998H50.3945C52.2101 219.998 53.6875 221.475 53.6875 223.291V225.91C53.6878 226.392 54.0787 226.783 54.561 226.783Z" fill="#EEEEEE"/>
<path d="M45.3044 255.289C45.3044 256.097 44.3217 256.752 43.1092 256.752C41.8968 256.752 40.9141 256.097 40.9141 255.289V210.852C40.9141 210.044 41.8968 209.389 43.1092 209.389C44.3217 209.389 45.3044 210.044 45.3044 210.852V255.289Z" fill="#EEEEEE"/>
<path d="M51.4594 190.515C51.4594 191.634 50.5081 192.542 49.3345 192.542H36.8827C35.7091 192.542 34.7578 191.635 34.7578 190.515C34.7578 189.396 35.7091 188.488 36.8827 188.488H49.3345C50.5081 188.489 51.4594 189.396 51.4594 190.515Z" fill="white"/>
<path d="M154.103 234.473L110.082 237.926C110.082 245.818 116.48 252.216 124.372 252.216H184.388C192.28 252.216 198.678 245.818 198.678 237.926L154.103 234.473Z" fill="#273238"/>
<path d="M169.686 105.967C168.609 105.967 167.735 104.947 167.735 103.69V88.1777H133.734V150.712H156.999H167.735H175.689V112.973C175.689 109.104 173.001 105.967 169.686 105.967Z" fill="#FFA806"/>
<path d="M210.44 149.957C209.708 149.107 208.642 148.619 207.521 148.619H103.174C102.492 148.619 101.814 148.634 101.139 148.664C100.049 148.712 99.0302 149.224 98.3359 150.065C97.6416 150.906 97.3354 152.002 97.4942 153.082C98.2717 158.366 99.048 163.649 99.8266 168.934C102.274 185.554 104.721 202.179 107.173 218.8C107.297 219.668 107.426 220.536 107.554 221.404C108.358 226.873 109.166 232.347 109.969 237.816C110.009 238.065 110.046 238.318 110.082 238.567H198.736C202.935 210.059 207.134 181.55 211.334 153.041C211.498 151.932 211.173 150.806 210.44 149.957Z" fill="#0084BF"/>
<path d="M132.394 109.379C129.834 109.379 127.758 111.802 127.758 114.79V117.537C127.758 120.525 129.834 122.948 132.394 122.948H138.199V109.379H132.394Z" fill="#FFA806"/>
<path d="M163.826 110.545C163.826 115.936 159.455 120.307 154.063 120.307C148.672 120.307 144.301 115.936 144.301 110.545H163.826Z" fill="#273238"/>
<path d="M133.66 148.619L144.099 159.089L154.539 148.619H133.66Z" fill="#EEEEEE"/>
<path d="M154.539 148.619L164.978 159.089L175.417 148.619H154.539Z" fill="#EEEEEE"/>
<path d="M148.375 94.8327C148.032 95.0065 147.569 94.7955 147.264 94.4576C145.812 92.8191 143.257 92.6761 141.631 94.1422C141.29 94.4439 140.807 94.602 140.486 94.3907C140.165 94.1828 140.222 93.5428 140.706 93.1076C142.897 91.1312 146.342 91.3241 148.299 93.5325C148.732 94.0193 148.716 94.662 148.375 94.8327Z" fill="#273238"/>
<path d="M170.53 78.457H144.032C141.465 78.457 139.342 80.3348 138.946 82.7907C135.684 84.1404 133.54 86.0075 133.197 88.0949C133.164 88.2918 133.148 88.4888 133.148 88.6895V109.377C135.486 109.377 137.38 107.483 137.38 105.146V90.0135C137.38 89.2824 137.973 88.6895 138.704 88.6895H143.144C143.433 88.7396 143.729 88.771 144.032 88.771H170.53C173.378 88.771 175.687 86.4622 175.687 83.614C175.687 80.7659 173.378 78.457 170.53 78.457Z" fill="#273238"/>
<path d="M148.557 107.385H142.475C140.113 107.385 138.191 105.597 138.191 103.398V97.8359H152.84V103.398C152.84 105.597 150.919 107.385 148.557 107.385ZM139.657 99.1999V103.398C139.657 104.844 140.921 106.021 142.475 106.021H148.557C150.11 106.021 151.374 104.844 151.374 103.398V99.1999H139.657Z" fill="#273238"/>
<path d="M166.096 107.385H160.014C157.652 107.385 155.73 105.597 155.73 103.398V97.8359H170.379V103.398C170.38 105.597 168.458 107.385 166.096 107.385ZM157.196 99.1999V103.398C157.196 104.844 158.46 106.021 160.014 106.021H166.096C167.649 106.021 168.914 104.844 168.914 103.398V99.1999H157.196Z" fill="#273238"/>
<path d="M156.213 100.879H151.914V102.607H156.213V100.879Z" fill="#273238"/>
<path d="M145.765 101.062C144.844 101.062 144.098 101.809 144.098 102.73H147.432C147.432 101.809 146.685 101.062 145.765 101.062Z" fill="#273238"/>
<path d="M162.007 101.062C161.086 101.062 160.34 101.809 160.34 102.73H163.674C163.674 101.809 162.928 101.062 162.007 101.062Z" fill="#273238"/>
<path d="M36.6462 192.994C32.1644 193.333 28.257 189.974 27.918 185.493C27.5794 181.011 30.9376 177.103 35.4194 176.765L44.8381 176.053C49.3196 175.714 53.2273 179.072 53.5662 183.554C53.9048 188.036 50.5467 191.943 46.0649 192.282L36.6462 192.994Z" fill="#FFA806"/>
<path d="M47.9962 171.524L31.6328 172.762L32.4004 182.913L48.7638 181.676L47.9962 171.524Z" fill="#FFA806"/>
<path d="M73.4273 147.085C61.8305 147.961 52.6152 156.512 50.3818 167.377C50.1436 168.544 49.9838 169.733 49.9142 170.947C49.8432 172.084 49.85 173.245 49.9384 174.415L29.9026 175.929C29.7975 174.539 29.7576 173.156 29.7791 171.788C29.7937 170.594 29.8572 169.408 29.9699 168.231C31.9968 146.529 49.4605 128.746 71.9127 127.049C94.8499 125.315 115.163 140.96 119.887 162.837C120.33 164.858 120.633 166.935 120.793 169.059L100.757 170.573C100.672 169.443 100.511 168.331 100.284 167.252C97.7056 154.938 86.3061 146.111 73.4273 147.085Z" fill="#0084BF"/>
<path d="M49.9164 170.944L29.7812 171.785C29.7959 170.591 29.8594 169.406 29.9717 168.229L50.384 167.375C50.1458 168.541 49.9857 169.73 49.9164 170.944Z" fill="#EEEEEE"/>
<path d="M48.761 181.698C48.6426 180.13 50.0192 178.748 51.8355 178.611C53.6521 178.473 55.2209 179.633 55.3394 181.2L55.5602 184.124C55.6787 185.691 54.302 187.074 52.4854 187.211C50.6688 187.348 49.1003 186.189 48.9815 184.621L48.761 181.698Z" fill="#FFA806"/>
<path d="M276.657 130.861C281.151 130.85 284.804 134.484 284.815 138.979C284.826 143.473 281.192 147.126 276.697 147.137L267.252 147.16C262.757 147.172 259.105 143.537 259.094 139.043C259.083 134.549 262.717 130.896 267.211 130.885L276.657 130.861Z" fill="#FFA806"/>
<path d="M280.163 141.232L263.754 141.273L263.779 151.454L280.189 151.413L280.163 141.232Z" fill="#FFA806"/>
<path d="M262.041 148.431C262.044 149.605 261.966 150.762 261.813 151.892C261.655 153.098 261.409 154.272 261.086 155.418C258.066 166.091 248.253 173.948 236.623 173.977C223.708 174.009 212.982 164.375 211.307 151.906C211.307 151.905 211.307 151.904 211.307 151.904C211.048 149.988 209.408 148.563 207.476 148.568L190.984 148.61C190.99 150.739 191.14 152.833 191.434 154.881C194.552 177.044 213.671 194.127 236.673 194.07C259.19 194.014 277.903 177.551 281.506 156.054C281.704 154.888 281.854 153.71 281.956 152.52C282.076 151.158 282.138 149.775 282.134 148.381L262.041 148.431Z" fill="#0084BF"/>
<path d="M261.813 151.895L281.955 152.523C281.854 153.713 281.704 154.891 281.506 156.057L261.086 155.421C261.409 154.275 261.655 153.1 261.813 151.895Z" fill="#EEEEEE"/>
<path d="M262.73 135.172C264.302 135.168 265.581 136.964 265.586 139.184C265.591 141.404 264.322 143.207 262.749 143.211L259.818 143.218C258.245 143.222 256.966 141.426 256.961 139.206C256.955 136.986 258.225 135.183 259.798 135.179L262.73 135.172Z" fill="#FFA806"/>
<path d="M123.096 354.232L110.23 351.723L109.047 357.79L129.077 361.697C129.731 358.346 127.053 355.004 123.096 354.232Z" fill="#273238"/>
<path d="M129.376 241.403L106.766 357.35L119.056 359.746L141.667 243.8L129.376 241.403Z" fill="#273238"/>
<path d="M220.4 349.938L208.066 354.375L210.159 360.192L229.362 353.284C228.206 350.072 224.194 348.574 220.4 349.938Z" fill="#273238"/>
<path d="M179.787 245.582L168.004 249.82L207.992 360.982L219.775 356.744L179.787 245.582Z" fill="#273238"/>
<path d="M130.795 5.13379L89.6445 25.5527L100.316 47.0588L141.466 26.6399L130.795 5.13379Z" fill="#0084BF"/>
<path d="M123.164 22.3222C125.251 26.5269 123.534 31.6269 119.33 33.7132C115.125 35.7998 110.025 34.0825 107.939 29.8782C105.852 25.6735 107.569 20.5739 111.774 18.4872C115.978 16.4009 121.078 18.1179 123.164 22.3222Z" fill="white"/>
<path d="M117.281 23.7266L118.062 23.3391C118.16 23.2907 118.2 23.1715 118.151 23.0736L117.887 22.5411C117.393 21.5457 116.182 21.1378 115.186 21.6317L112.225 23.1012C111.229 23.5951 110.821 24.8069 111.315 25.8023L111.798 26.7758C112.292 27.7711 113.504 28.179 114.499 27.6851L117.461 26.2156C117.83 26.0323 118.279 26.1839 118.462 26.5529L118.724 27.0802C118.907 27.4492 118.756 27.8984 118.387 28.0817L115.425 29.5512C115.056 29.7345 114.607 29.583 114.424 29.214L114.401 29.1682C114.353 29.0703 114.234 29.0303 114.136 29.0788L113.355 29.4662C113.257 29.5147 113.217 29.6338 113.265 29.7318L113.288 29.7775C113.782 30.7729 114.994 31.1808 115.989 30.6869L118.95 29.2174C119.946 28.7235 120.354 27.5117 119.86 26.5164L119.598 25.989C119.104 24.9936 117.892 24.5857 116.897 25.0796L113.935 26.5495C113.566 26.7324 113.117 26.5812 112.934 26.2122L112.451 25.2387C112.268 24.8697 112.419 24.4202 112.788 24.2372L115.75 22.7677C116.119 22.5844 116.568 22.736 116.751 23.105L117.015 23.6375C117.064 23.7351 117.183 23.775 117.281 23.7266Z" fill="#0084BF"/>
<path d="M118.274 30.4699C118.356 30.6341 118.222 30.8666 117.976 30.9888C117.729 31.111 117.463 31.0772 117.382 30.9126L112.899 21.8793C112.817 21.7152 112.951 21.4827 113.198 21.3605C113.444 21.2383 113.71 21.2721 113.792 21.4366L118.274 30.4699Z" fill="#0084BF"/>
<path d="M139.29 26.1694L101.248 45.0477L91.8086 26.0267L129.851 7.14844L139.29 26.1694ZM101.537 44.1899L138.432 25.8807L129.562 8.00657L92.6664 26.3159L101.537 44.1899Z" fill="#EEEEEE"/>
<path d="M227.665 0.000425593L216.336 21.168L256.838 42.8456L268.168 21.678L227.665 0.000425593Z" fill="#0084BF"/>
<path d="M248.975 26.636C251.845 22.9222 251.162 17.5844 247.448 14.7137C243.735 11.843 238.397 12.5265 235.526 16.2404C232.655 19.9542 233.339 25.292 237.052 28.1627C240.766 31.0334 246.104 30.3499 248.975 26.636Z" fill="white"/>
<path d="M245.175 21.4739L245.944 21.8852C246.041 21.9368 246.161 21.9006 246.212 21.804L246.493 21.28C247.017 20.3004 246.647 19.0767 245.667 18.552L242.752 16.9921C241.772 16.4678 240.549 16.8381 240.024 17.8178L239.511 18.7759C238.987 19.7556 239.357 20.9793 240.337 21.504L243.252 23.0639C243.615 23.2585 243.753 23.7121 243.558 24.0753L243.28 24.5945C243.086 24.9577 242.632 25.0952 242.269 24.9007L239.354 23.3407C238.991 23.1462 238.853 22.6925 239.048 22.3293L239.072 22.2843C239.123 22.1877 239.087 22.0679 238.99 22.016L238.222 21.6047C238.125 21.5531 238.005 21.5893 237.953 21.6859L237.93 21.7309C237.405 22.7106 237.776 23.9343 238.755 24.459L241.67 26.0189C242.65 26.5432 243.873 26.1728 244.398 25.1932L244.676 24.674C245.2 23.6944 244.83 22.4706 243.85 21.946L240.935 20.3861C240.572 20.1915 240.435 19.7378 240.629 19.3747L241.142 18.4165C241.337 18.0533 241.791 17.9158 242.154 18.1103L245.068 19.6703C245.432 19.8648 245.569 20.3185 245.375 20.6817L245.094 21.2056C245.042 21.3022 245.079 21.4224 245.175 21.4739Z" fill="#0084BF"/>
<path d="M240.273 26.1873C240.186 26.3491 239.92 26.3747 239.677 26.2449C239.434 26.1152 239.308 25.8787 239.394 25.7169L244.153 16.8259C244.24 16.6641 244.506 16.6385 244.749 16.7682C244.992 16.898 245.118 17.1345 245.032 17.2963L240.273 26.1873Z" fill="#0084BF"/>
<path d="M255.955 40.8087L218.512 20.7685L228.532 2.04688L265.975 22.0871L255.955 40.8087ZM219.378 20.506L255.693 39.9421L265.109 22.3493L228.794 2.9132L219.378 20.506Z" fill="#EEEEEE"/>
<path d="M249.6 82.442L207.48 100.775L217.062 122.788L259.181 104.455L249.6 82.442Z" fill="#0084BF"/>
<path d="M240.893 106.475C243.025 102.294 241.364 97.1762 237.183 95.0438C233.002 92.9115 227.884 94.5723 225.752 98.7535C223.619 102.935 225.28 108.053 229.461 110.185C233.642 112.318 238.761 110.657 240.893 106.475Z" fill="white"/>
<path d="M235.179 100.328L235.978 99.9797C236.078 99.936 236.124 99.8193 236.081 99.7189L235.843 99.1738C235.4 98.1549 234.21 97.6869 233.191 98.1303L230.16 99.4499C229.141 99.8937 228.673 101.083 229.117 102.102L229.55 103.099C229.994 104.118 231.184 104.586 232.203 104.142L235.234 102.823C235.612 102.658 236.053 102.832 236.217 103.209L236.452 103.749C236.617 104.127 236.443 104.568 236.065 104.733L233.034 106.053C232.656 106.217 232.215 106.043 232.05 105.666L232.03 105.619C231.986 105.519 231.87 105.473 231.769 105.516L230.97 105.864C230.869 105.908 230.824 106.025 230.867 106.125L230.888 106.172C231.331 107.191 232.521 107.659 233.54 107.215L236.571 105.896C237.59 105.452 238.058 104.263 237.615 103.244L237.38 102.704C236.936 101.685 235.747 101.217 234.728 101.66L231.696 102.98C231.318 103.144 230.877 102.971 230.713 102.593L230.279 101.596C230.114 101.218 230.288 100.777 230.666 100.613L233.697 99.2932C234.075 99.1287 234.516 99.3025 234.68 99.68L234.917 100.225C234.961 100.325 235.078 100.371 235.179 100.328Z" fill="#0084BF"/>
<path d="M235.833 107.103C235.906 107.271 235.761 107.496 235.509 107.606C235.256 107.716 234.992 107.669 234.919 107.5L230.894 98.2541C230.821 98.0858 230.966 97.8606 231.218 97.7506C231.47 97.6407 231.734 97.6882 231.808 97.8565L235.833 107.103Z" fill="#0084BF"/>
<path d="M257.04 103.86L218.101 120.811L209.625 101.342L248.564 84.3906L257.04 103.86ZM218.432 119.969L256.197 103.529L248.233 85.2331L210.467 101.673L218.432 119.969Z" fill="#EEEEEE"/>
<path d="M273.217 300.602L231.098 318.936L240.679 340.948L282.799 322.615L273.217 300.602Z" fill="#0084BF"/>
<path d="M264.904 323.85C266.607 319.476 264.441 314.549 260.067 312.846C255.693 311.143 250.767 313.309 249.064 317.683C247.361 322.057 249.526 326.984 253.9 328.687C258.275 330.39 263.201 328.224 264.904 323.85Z" fill="white"/>
<path d="M258.804 318.486L259.603 318.138C259.703 318.094 259.749 317.977 259.706 317.877L259.468 317.332C259.025 316.313 257.835 315.845 256.816 316.288L253.785 317.608C252.766 318.052 252.298 319.241 252.742 320.26L253.175 321.257C253.619 322.276 254.809 322.744 255.828 322.301L258.859 320.981C259.237 320.816 259.678 320.99 259.843 321.368L260.077 321.907C260.242 322.285 260.068 322.726 259.691 322.891L256.66 324.21C256.282 324.375 255.841 324.201 255.676 323.824L255.656 323.777C255.612 323.677 255.495 323.631 255.395 323.674L254.595 324.022C254.495 324.066 254.449 324.183 254.493 324.283L254.514 324.33C254.957 325.349 256.147 325.817 257.166 325.373L260.197 324.054C261.216 323.61 261.684 322.42 261.241 321.401L261.006 320.862C260.562 319.843 259.373 319.375 258.354 319.818L255.322 321.138C254.945 321.302 254.504 321.129 254.339 320.751L253.905 319.754C253.741 319.377 253.914 318.936 254.292 318.771L257.323 317.451C257.701 317.287 258.142 317.461 258.307 317.838L258.544 318.383C258.586 318.483 258.703 318.529 258.804 318.486Z" fill="#0084BF"/>
<path d="M259.462 325.261C259.535 325.429 259.39 325.655 259.137 325.764C258.885 325.874 258.621 325.827 258.548 325.659L254.523 316.412C254.45 316.244 254.595 316.019 254.847 315.909C255.099 315.799 255.363 315.846 255.437 316.015L259.462 325.261Z" fill="#0084BF"/>
<path d="M280.665 322.014L241.726 338.965L233.25 319.496L272.189 302.545L280.665 322.014ZM242.057 338.123L279.822 321.683L271.858 303.387L234.092 319.827L242.057 338.123Z" fill="#EEEEEE"/>
<path d="M30.3227 316.514L28.2148 340.428L73.9726 344.461L76.0805 320.547L30.3227 316.514Z" fill="#0084BF"/>
<path d="M54.0542 338.733C58.6284 337.68 61.4834 333.119 60.4311 328.545C59.3788 323.971 54.8175 321.116 50.2433 322.169C45.6691 323.221 42.814 327.782 43.8664 332.356C44.9187 336.93 49.4799 339.785 54.0542 338.733Z" fill="white"/>
<path d="M54.8674 329.372L55.7358 329.448C55.8447 329.458 55.9409 329.377 55.9505 329.268L56.0027 328.676C56.1003 327.569 55.2791 326.589 54.1721 326.491L50.8788 326.201C49.7718 326.104 48.7919 326.925 48.6942 328.032L48.5987 329.115C48.501 330.222 49.3223 331.202 50.4293 331.299L53.7225 331.589C54.1328 331.626 54.4377 331.989 54.4015 332.399L54.3496 332.986C54.3134 333.396 53.9499 333.701 53.5396 333.665L50.2463 333.375C49.836 333.338 49.5315 332.975 49.5677 332.565L49.5722 332.514C49.5817 332.405 49.5012 332.309 49.3923 332.299L48.5239 332.223C48.415 332.213 48.3187 332.294 48.3092 332.402L48.3048 332.453C48.2071 333.56 49.0284 334.54 50.1354 334.638L53.4287 334.928C54.5356 335.026 55.5156 334.204 55.6132 333.097L55.6648 332.511C55.7624 331.404 54.9411 330.424 53.8342 330.326L50.5409 330.036C50.1306 330 49.8261 329.637 49.8623 329.226L49.9579 328.143C49.9941 327.733 50.3576 327.429 50.7679 327.465L54.0612 327.755C54.4715 327.791 54.7759 328.155 54.7398 328.565L54.6875 329.157C54.6776 329.266 54.7582 329.362 54.8674 329.372Z" fill="#0084BF"/>
<path d="M52.208 335.642C52.192 335.824 51.9568 335.953 51.6827 335.929C51.4086 335.904 51.1994 335.737 51.2157 335.554L52.1012 325.509C52.1172 325.326 52.3524 325.197 52.6265 325.222C52.9006 325.246 53.1099 325.414 53.0935 325.596L52.208 335.642Z" fill="#0084BF"/>
<path d="M72.3831 342.922L30.0781 339.193L31.9425 318.041L74.2475 321.77L72.3831 342.922ZM30.7724 338.612L71.8018 342.228L73.5536 322.351L32.5242 318.735L30.7724 338.612Z" fill="#EEEEEE"/>
<path d="M23.3255 75.0136L15.1797 97.5977L58.3925 113.184L66.5383 90.6L23.3255 75.0136Z" fill="#0084BF"/>
<path d="M46.8682 100.107C50.1872 96.7882 50.1872 91.4071 46.8682 88.0882C43.5493 84.7693 38.1683 84.7692 34.8493 88.0882C31.5304 91.4071 31.5304 96.7882 34.8493 100.107C38.1683 103.426 43.5493 103.426 46.8682 100.107Z" fill="white"/>
<path d="M43.7599 93.7133L44.5798 94.0093C44.6826 94.0465 44.7962 93.9929 44.8334 93.8902L45.0352 93.331C45.4124 92.2858 44.8686 91.1287 43.8234 90.7515L40.7134 89.6295C39.6679 89.2523 38.5107 89.7961 38.1339 90.8413L37.7649 91.8636C37.3877 92.9088 37.9315 94.0659 38.9767 94.4431L42.0867 95.5651C42.4741 95.7051 42.6758 96.1341 42.5359 96.5216L42.3362 97.0752C42.1962 97.4626 41.7672 97.6644 41.3797 97.5244L38.2698 96.4024C37.882 96.2628 37.6806 95.8334 37.8202 95.446L37.8376 95.3982C37.8748 95.2951 37.8212 95.1818 37.7185 95.1446L36.8986 94.8486C36.7955 94.8114 36.6822 94.865 36.645 94.9678L36.6276 95.0156C36.2504 96.0608 36.7941 97.2179 37.8393 97.5951L40.9493 98.7171C41.9948 99.0943 43.152 98.5505 43.5288 97.5053L43.7285 96.9513C44.1057 95.9061 43.5619 94.749 42.5167 94.3718L39.4068 93.2498C39.0193 93.1102 38.8176 92.6808 38.9576 92.2934L39.3266 91.271C39.4665 90.8836 39.8956 90.6819 40.283 90.8218L43.393 91.9438C43.7804 92.0834 43.9821 92.5128 43.8422 92.9003L43.6404 93.4594C43.6036 93.5628 43.6572 93.6761 43.7599 93.7133Z" fill="#0084BF"/>
<path d="M39.5914 99.0941C39.5293 99.2665 39.2688 99.331 39.0101 99.2375C38.7513 99.1443 38.5919 98.9286 38.654 98.7562L42.076 89.2703C42.1381 89.0979 42.3986 89.0334 42.6573 89.1269C42.9161 89.2201 43.0755 89.4358 43.0133 89.6082L39.5914 99.0941Z" fill="#0084BF"/>
<path d="M57.2303 111.296L17.2812 96.8845L24.487 76.9102L64.4361 91.3217L57.2303 111.296ZM18.1008 96.4998L56.8453 110.477L63.6165 91.7067L24.872 77.7297L18.1008 96.4998Z" fill="#EEEEEE"/>
</svg>
